<svg width="100%" height="100%" viewBox="0 0 501 100" fill="none" xmlns="http://www.w3.org/2000/svg">
            <rect x="1" width="500" height="100" fill="#C7F1FF" />
            <path
                d="M226.638 49.3636H220.629C220.587 48.8665 220.473 48.4155 220.288 48.0107C220.111 47.6058 219.862 47.2578 219.543 46.9666C219.23 46.6683 218.85 46.4411 218.403 46.2848C217.955 46.1214 217.448 46.0398 216.879 46.0398C215.885 46.0398 215.043 46.2812 214.354 46.7642C213.673 47.2472 213.154 47.9396 212.799 48.8416C212.451 49.7436 212.277 50.8267 212.277 52.0909C212.277 53.4261 212.455 54.5447 212.81 55.4467C213.172 56.3416 213.694 57.0163 214.376 57.4709C215.058 57.9183 215.878 58.142 216.837 58.142C217.384 58.142 217.874 58.0746 218.307 57.9396C218.74 57.7976 219.117 57.5952 219.436 57.3324C219.756 57.0696 220.015 56.7536 220.214 56.3842C220.42 56.0078 220.558 55.5852 220.629 55.1165L226.638 55.1591C226.567 56.0824 226.308 57.0234 225.86 57.9822C225.413 58.9339 224.777 59.8146 223.953 60.6243C223.136 61.4268 222.124 62.0732 220.917 62.5632C219.71 63.0533 218.307 63.2983 216.709 63.2983C214.706 63.2983 212.909 62.8686 211.318 62.0092C209.734 61.1499 208.481 59.8857 207.558 58.2166C206.641 56.5476 206.183 54.5057 206.183 52.0909C206.183 49.6619 206.652 47.6165 207.59 45.9545C208.527 44.2855 209.791 43.0249 211.382 42.1726C212.973 41.3132 214.749 40.8835 216.709 40.8835C218.087 40.8835 219.354 41.0717 220.512 41.4482C221.67 41.8246 222.685 42.375 223.559 43.0994C224.433 43.8168 225.136 44.701 225.668 45.7521C226.201 46.8033 226.524 48.0071 226.638 49.3636ZM229.325 63V41.1818H235.248V49.7045H243.089V41.1818H249.013V63H243.089V54.4773H235.248V63H229.325ZM257.493 63H251.101L258.302 41.1818H266.399L273.601 63H267.209L262.436 47.1903H262.266L257.493 63ZM256.3 54.392H268.317V58.8239H256.3V54.392ZM272.352 45.9545V41.1818H291.315V45.9545H284.752V63H278.914V45.9545H272.352Z"
                fill="white" />
        </svg>