<svg width="277" height="279" viewBox="0 0 277 279" fill="none" xmlns="http://www.w3.org/2000/svg">
<path d="M175.639 46.7932C150.639 88.4541 137.139 28.9392 137.139 28.9392C137.139 28.9392 147.789 84.3955 143.32 89.0625C168.714 92.4499 173.392 93.9599 152.82 103.563C226.654 93.1707 209.671 21.4396 209.671 46.7932C211.615 41.8903 181.639 93.7222 175.639 46.7932Z" fill="#00931A"/>
<path d="M137.751 96.4824C122.898 90.2493 103.097 102.715 98.1483 118.305C93.1961 133.891 101.449 160.391 122.902 169.74C144.355 179.094 164.156 166.624 155.904 155.711C127.85 152.594 109.701 124.538 117.95 110.509C126.202 96.4789 152.604 102.715 137.751 96.4789V96.4824Z" fill="#F8A9AB"/>
<path d="M174.054 141.684C192.207 127.655 182.306 96.4823 167.453 93.3658C152.6 90.2493 146 98.0424 157.553 107.396C172.405 118.305 154.252 140.128 142.7 138.568C142.7 138.568 155.901 155.714 174.054 141.684Z" fill="#884076"/>
<path d="M143.802 120.902C136.63 122.748 132.272 118.659 135.001 114.149C137.202 110.512 136.996 106.745 131.7 109.472C120.697 115.705 127.301 133.371 141.055 131.811C159.754 125.578 151.505 109.472 146.553 109.989C141.605 110.505 149.853 119.342 143.802 120.898V120.902Z" fill="#884076"/>
<path d="M104.837 191.998C102.595 187.356 107.5 120.563 22.4998 109.563C44.4996 115.563 53.3092 139.849 23.8939 143.563C48.9998 167.563 23.8941 182.562 23.8941 182.562C23.8941 182.562 54.5434 176.861 88.0645 177.466C94.3315 173.969 107.079 196.64 104.837 191.998Z" fill="#A7FFA8"/>
<path d="M269.454 157.989C229.518 140.473 242.758 141.846 264.307 131.268C243.766 123.764 246.692 123.748 268.537 100.037C247.153 109.629 217.712 88.4982 217.712 88.4982C217.712 88.4982 207.854 130.854 222.338 162.986C226.281 170.485 225.438 162.332 227.105 171.666L269.454 157.989Z" fill="#003A1A"/>
<path d="M224.243 250.001C221.379 245.056 215.85 186.867 114.851 184.973C143.3 192.594 158.579 202.79 124.159 209.501C130.454 213.885 124.159 260.001 124.159 260.001C124.159 260.001 148.351 217.001 183.681 227.907C206.351 237.403 194.851 228.051 224.243 250.001Z" fill="#00931A"/>
<path d="M231.813 107.396C216.96 77.7799 188.91 84.0165 188.91 84.0165C188.91 84.0165 190.562 91.8096 187.258 96.4862C203.759 113.632 192.21 148.961 177.907 153.118C227.414 173.381 246.352 126.799 248 120.562C249.652 114.329 231.809 120.562 231.809 107.396H231.813Z" fill="#532748"/>
<path d="M218.392 163.408C209.922 169.076 185.939 167.565 172.185 160.808C172.734 166.001 167.233 174.318 164.486 174.838C174.939 178.998 184.84 197.181 167.236 216.404C174.39 223.157 201.5 203.062 220.593 207.571C218.392 185.562 227.743 188.868 228.845 178.998C230.307 165.927 231.596 154.575 218.392 163.412V163.408Z" fill="#884076"/>
<path d="M142.703 87.4406C159.204 81.2075 170.757 84.0128 180.657 93.3659C185.61 79.3362 161.5 77.5623 139.403 52.8403C136 64.0625 81.6473 87.1329 94.8482 105.836C98.1484 99.599 117.95 82.764 142.703 87.4406Z" fill="#F8A9AB"/>
<path d="M81.9212 128.953C81.9212 128.953 82.7472 118.822 86.0475 113.367C84.3955 111.807 82.7472 105.574 82.7472 105.574C82.7472 105.574 81.0953 98.5592 81.0953 93.1044C68.7204 90.7661 66.5008 107.912 46.4412 107.912C61.2942 120.562 50.5674 136.747 61.294 137.528C72.8466 128.957 81.9212 128.957 81.9212 128.957V128.953Z" fill="#F8A9AB"/>
<path d="M88.2486 132.335C60.195 138.568 57.2947 164.544 63.4952 180.654C70.0956 197.8 74.5007 189.562 73.3958 213.386C96.5007 195.562 108.05 218.063 131.151 219.619C154.253 221.179 172.406 202.473 165.806 180.654C99.7975 191.563 88.2486 146.365 88.2486 132.335Z" fill="#F8A9AB"/>
</svg>
