<svg width="201" height="176" viewBox="0 0 201 176" fill="none" xmlns="http://www.w3.org/2000/svg">
<path d="M98.8687 55.9388C88.6649 51.688 75.0614 60.1895 71.6618 70.8212C68.2596 81.4504 73.929 99.5221 88.6674 105.898C103.406 112.277 117.009 103.773 111.34 96.3304C92.067 94.2051 79.5984 75.0719 85.2653 65.5041C90.9347 55.9363 109.073 60.1895 98.8687 55.9363V55.9388Z" fill="#F8A9AB"/>
<path d="M123.808 86.765C136.28 77.1972 129.478 55.9387 119.274 53.8133C109.07 51.6879 104.536 57.0026 112.472 63.3811C122.676 70.8211 110.205 85.7035 102.268 84.6396C102.268 84.6396 111.337 96.3328 123.808 86.765Z" fill="#884076"/>
<path d="M103.026 72.5919C98.0985 73.8512 95.1046 71.0624 96.979 67.9866C98.4913 65.5066 98.3501 62.9373 94.7117 64.7973C87.1525 69.048 91.6896 81.0958 101.139 80.0319C113.985 75.7812 108.318 64.7973 104.916 65.1495C101.516 65.5017 107.183 71.5281 103.026 72.5895V72.5919Z" fill="#884076"/>
<path d="M134.318 4.66203C116.85 11.8608 112.655 33.942 112.655 33.942C112.655 33.942 116.681 33.7562 118.013 36.8924C130.122 26.7432 143.567 40.306 141.882 51.6952C163.769 16.9945 147.534 3.07222 145.064 0.970979C142.593 -1.12785 138.76 3.22903 134.318 4.66203Z" fill="#00931A"/>
<path d="M0.342312 98.434C2.07292 101.109 13.5735 118.708 53.9628 105.039C41.7407 104.451 30.0938 89.4935 42.9783 80.2297C39.9511 78.4107 40.9037 74.7293 40.9037 74.7293C40.9037 74.7293 17.0321 74.447 6.22226 89.2112C3.88825 93.0422 -1.38829 95.7586 0.342312 98.434Z" fill="#A7FFA8"/>
<path d="M200.871 110.294C200.728 107.167 199.667 86.5383 157.265 80.2394C167.674 86.285 170.214 104.665 154.171 106.952C155.891 109.917 153.169 112.711 153.169 112.711C153.169 112.711 173.944 123.76 190.989 115.712C194.999 113.413 201.015 113.418 200.869 110.291L200.871 110.294Z" fill="#003A1A"/>
<path d="M121.628 175.447C124.571 173.98 143.936 164.21 131.753 125.533C130.42 136.963 113.851 147.023 104.754 134.399C102.646 137.132 98.789 136.027 98.789 136.027C98.789 136.027 97.1071 158.4 112.169 169.396C116.103 171.809 118.686 176.914 121.628 175.447Z" fill="#00931A"/>
<path d="M163.489 63.3813C153.285 43.1842 134.015 47.4374 134.015 47.4374C134.015 47.4374 135.15 52.752 132.88 55.9413C144.216 67.6344 136.282 91.7276 126.456 94.5622C160.467 108.381 168.023 80.3891 169.156 76.1359C170.291 71.8852 165.754 68.6959 163.486 63.3813H163.489Z" fill="#532748"/>
<path d="M154.268 101.58C148.45 105.445 131.973 104.415 122.524 99.8069C122.902 103.348 119.122 109.02 117.235 109.375C124.417 112.212 131.219 124.612 119.125 137.721C124.039 142.326 144.065 138.785 155.781 131.697C157.686 130.544 160.693 118.942 161.45 112.212C162.454 103.298 163.34 95.5561 154.268 101.582V101.58Z" fill="#884076"/>
<path d="M102.271 49.7726C113.607 45.5218 121.544 47.4349 128.345 53.8134C131.748 44.2456 120.409 28.3017 100.004 26.1764C79.5983 24.051 60.3255 49.5627 69.3945 62.3173C71.6617 58.0642 85.2652 46.5833 102.271 49.7726Z" fill="#F8A9AB"/>
<path d="M60.5128 78.0827C60.5128 78.0827 61.0803 71.1734 63.3475 67.4534C62.2126 66.3895 61.0803 62.1388 61.0803 62.1388C61.0803 62.1388 59.9454 57.3549 59.9454 53.6349C51.4438 52.0402 36.7054 62.1388 36.138 63.7334C35.5705 65.328 38.9727 83.3973 46.3419 83.9304C54.2785 78.0851 60.5128 78.0851 60.5128 78.0851V78.0827Z" fill="#F8A9AB"/>
<path d="M64.8601 80.389C45.5873 84.6398 43.5948 102.354 47.8545 113.341C52.389 125.034 48.9894 133.538 54.6563 135.663C60.0227 137.678 78.4636 138.852 94.3343 139.914C110.205 140.978 122.676 128.221 118.142 113.341C72.7942 120.781 64.8601 89.9568 64.8601 80.389Z" fill="#F8A9AB"/>
</svg>
