<svg width="302" height="303" viewBox="0 0 302 303" fill="none" xmlns="http://www.w3.org/2000/svg">
<path d="M216.5 82.2656C190.892 86.7894 160.774 32.0709 160.774 32.0709C160.774 32.0709 179.255 84.187 174.786 88.854C200.18 92.2414 185.966 121.073 165.393 130.676C239.227 120.284 245.659 35.1812 241.137 46.5847C243.081 41.6818 213.925 73.8901 216.5 82.2656Z" fill="#00931A"/>
<path d="M148.857 119.92C134.004 113.687 114.203 126.153 109.255 141.743C104.302 157.329 112.555 183.829 134.008 193.178C155.461 202.531 175.263 190.062 167.01 179.149C138.956 176.032 120.807 147.976 129.056 133.946C137.308 119.917 163.71 126.153 148.857 119.917V119.92Z" fill="#F8A9AB"/>
<path d="M185.16 165.122C203.313 151.093 193.412 119.92 178.559 116.804C163.707 113.687 157.106 121.48 168.659 130.833C183.512 141.743 165.359 163.566 153.806 162.006C153.806 162.006 167.007 179.152 185.16 165.122Z" fill="#884076"/>
<path d="M154.909 144.34C147.736 146.186 143.378 142.097 146.107 137.586C148.308 133.95 148.103 130.182 142.806 132.91C131.803 139.143 138.407 156.809 152.161 155.249C170.86 149.016 162.612 132.91 157.659 133.426C152.711 133.943 160.96 142.779 154.909 144.336V144.34Z" fill="#884076"/>
<path d="M115.943 215.436C113.701 210.794 112.008 143.016 26.5001 134.5C50.3153 143.274 73.4154 197.189 44.0001 200.903C49.1694 205.271 35 225.5 35 225.5C35 225.5 65.6495 200.298 99.1705 200.903C105.438 197.407 118.185 220.078 115.943 215.436Z" fill="#A7FFA8"/>
<path d="M284.239 199.181C241.954 188.519 257.386 174.22 279.718 118.305C277.711 140.24 235.173 146.327 223.466 116.805C220.627 121.156 215.572 117.035 215.572 117.035C215.572 117.035 212.863 160.439 232.467 189.729C237.597 196.472 240.888 207.861 244.795 206.43L284.239 199.181Z" fill="#003A1A"/>
<path d="M235.349 273.438C232.485 268.493 226.956 210.303 125.958 208.409C154.406 216.03 169.685 226.227 135.265 232.938C141.56 237.322 135.265 283.438 135.265 283.438C135.265 283.438 159.458 240.438 194.787 251.344C217.458 260.84 205.958 251.488 235.349 273.438Z" fill="#00931A"/>
<path d="M242.919 130.833C228.066 101.217 200.016 107.454 200.016 107.454C200.016 107.454 201.668 115.247 198.364 119.924C214.865 137.07 203.317 172.399 189.013 176.556C238.52 196.818 249.52 155.773 251.168 149.536C252.82 143.303 246.216 138.626 242.915 130.833H242.919Z" fill="#532748"/>
<path d="M229.498 186.846C221.029 192.513 197.045 191.003 183.291 184.246C183.84 189.439 178.339 197.756 175.592 198.276C186.046 202.436 195.946 220.619 178.343 239.841C185.496 246.594 214.645 241.401 231.699 231.008C234.472 229.317 238.849 212.305 239.952 202.436C241.413 189.365 242.702 178.013 229.498 186.85V186.846Z" fill="#884076"/>
<path d="M153.809 110.878C170.311 104.645 181.863 107.45 191.764 116.804C196.716 102.774 180.211 79.3945 150.509 76.278C120.807 73.1615 92.7537 110.571 105.955 129.273C109.255 123.037 129.056 106.202 153.809 110.878Z" fill="#F8A9AB"/>
<path d="M93.0267 152.391C93.0267 152.391 93.8526 142.259 97.1529 136.805C95.5009 135.244 93.8526 129.011 93.8526 129.011C93.8526 129.011 92.2007 121.997 92.2007 116.542C79.8258 114.203 58.3726 129.011 57.5466 131.35C56.7206 133.688 61.6728 160.184 72.3994 160.966C83.952 152.394 93.0267 152.394 93.0267 152.394V152.391Z" fill="#F8A9AB"/>
<path d="M99.3541 155.773C71.3004 162.006 68.4001 187.982 74.6006 204.091C81.2011 221.238 76.2526 233.707 84.5013 236.824C92.3127 239.778 119.155 241.5 142.257 243.057C165.358 244.617 183.511 225.911 176.911 204.091C110.903 215.001 99.3541 169.802 99.3541 155.773Z" fill="#F8A9AB"/>
</svg>
