<svg width="306" height="290" viewBox="0 0 306 290" fill="none" xmlns="http://www.w3.org/2000/svg">
<path d="M152.913 101.25C138.061 95.0168 118.259 107.483 113.311 123.073C108.359 138.659 116.611 165.158 138.064 174.508C159.518 183.861 179.319 171.391 171.067 160.478C143.013 157.362 124.864 129.306 133.112 115.276C141.365 101.246 167.766 107.483 152.913 101.246V101.25Z" fill="#F8A9AB"/>
<path d="M189.216 146.452C207.369 132.422 197.468 101.25 182.616 98.1334C167.763 95.0168 161.162 102.81 172.715 112.163C187.568 123.073 169.415 144.896 157.862 143.336C157.862 143.336 171.063 160.482 189.216 146.452Z" fill="#884076"/>
<path d="M158.965 125.669C151.792 127.516 147.434 123.426 150.163 118.916C152.364 115.28 152.159 111.512 146.863 114.24C135.859 120.473 142.464 138.139 156.218 136.579C174.916 130.346 166.668 114.24 161.715 114.756C156.767 115.273 165.016 124.109 158.965 125.666V125.669Z" fill="#884076"/>
<path d="M218.943 17.501C192.869 24.2977 174.532 64.4616 174.532 64.4616C174.532 64.4616 179.668 65.6846 179.471 72.1434C200.606 57.6648 209.341 88.6009 200.482 109.504C248.387 52.3685 236.382 19.6602 234.545 14.7159C232.707 9.77619 225.338 16.5254 218.943 17.501Z" fill="#00931A"/>
<path d="M0.71047 161.587C4.30235 165.284 28.1718 189.607 112 170.716C86.633 169.902 62.4598 149.23 89.2017 136.427C82.9186 133.913 84.8957 128.825 84.8957 128.825C84.8957 128.825 35.3502 128.435 12.9143 148.84C8.07008 154.135 -2.88141 157.889 0.71047 161.587Z" fill="#A7FFA8"/>
<path d="M306 183.731C305.717 179.58 303.627 152.188 220.07 143.824C240.582 151.852 245.587 176.258 213.973 179.295C217.363 183.232 212 186.941 212 186.941C212 186.941 252.938 201.612 286.525 190.926C294.428 187.873 306.283 187.88 305.995 183.728L306 183.731Z" fill="#003A1A"/>
<path d="M185.411 289.155C189.705 285.384 217.964 260.264 200.185 160.824C198.24 190.212 174.061 216.077 160.786 183.619C157.71 190.646 152.082 187.806 152.082 187.806C152.082 187.806 149.628 245.328 171.607 273.599C177.347 279.802 181.117 292.927 185.411 289.155Z" fill="#00931A"/>
<path d="M246.975 112.163C232.122 82.5471 204.073 88.7837 204.073 88.7837C204.073 88.7837 205.725 96.5768 202.421 101.253C218.922 118.4 207.373 153.729 193.069 157.885C242.576 178.148 253.576 137.102 255.224 130.866C256.876 124.633 250.272 119.956 246.972 112.163H246.975Z" fill="#532748"/>
<path d="M233.554 168.176C225.085 173.843 201.101 172.332 187.347 165.576C187.897 170.769 182.395 179.085 179.648 179.605C190.102 183.766 200.002 201.948 182.399 221.171C189.552 227.924 218.701 222.731 235.755 212.338C238.529 210.647 242.905 193.635 244.008 183.766C245.469 170.695 246.759 159.343 233.554 168.179V168.176Z" fill="#884076"/>
<path d="M157.866 92.208C174.367 85.9749 185.92 88.7802 195.82 98.1333C200.772 84.1036 184.268 60.7242 154.566 57.6077C124.864 54.4912 96.8101 91.9002 110.011 110.603C113.311 104.366 133.112 87.5314 157.866 92.208Z" fill="#F8A9AB"/>
<path d="M97.0828 133.721C97.0828 133.721 97.9088 123.589 101.209 118.134C99.557 116.574 97.9088 110.341 97.9088 110.341C97.9088 110.341 96.2568 103.326 96.2568 97.8716C83.882 95.5333 62.4287 110.341 61.6027 112.68C60.7767 115.018 65.7289 141.514 76.4555 142.295C88.0082 133.724 97.0828 133.724 97.0828 133.724V133.721Z" fill="#F8A9AB"/>
<path d="M103.411 137.102C75.3568 143.335 72.4565 169.311 78.657 185.421C85.2575 202.567 80.309 215.037 88.5577 218.154C96.3691 221.107 123.212 222.83 146.313 224.387C169.415 225.947 187.568 207.24 180.967 185.421C114.959 196.331 103.411 151.132 103.411 137.102Z" fill="#F8A9AB"/>
</svg>
