<svg width="287" height="282" viewBox="0 0 287 282" fill="none" xmlns="http://www.w3.org/2000/svg">
<path d="M142.914 101.92C128.061 95.6868 108.26 108.153 103.311 123.743C98.359 139.329 106.611 165.828 128.065 175.178C149.518 184.531 169.319 172.061 161.067 161.148C133.013 158.032 114.864 129.976 123.112 115.946C131.365 101.916 157.767 108.153 142.914 101.916V101.92Z" fill="#F8A9AB"/>
<path d="M179.216 147.122C197.369 133.092 187.468 101.92 172.616 98.8033C157.763 95.6868 151.162 103.48 162.715 112.833C177.568 123.743 159.415 145.565 147.862 144.005C147.862 144.005 161.063 161.152 179.216 147.122Z" fill="#884076"/>
<path d="M148.965 126.339C141.792 128.186 137.434 124.096 140.163 119.586C142.364 115.95 142.159 112.182 136.863 114.91C125.859 121.143 132.464 138.809 146.218 137.249C164.916 131.016 156.668 114.91 151.715 115.426C146.767 115.943 155.016 124.779 148.965 126.336V126.339Z" fill="#884076"/>
<path d="M198 34.1466C182 54.6467 164.532 65.1317 164.532 65.1317C164.532 65.1317 169.668 66.3547 169.471 72.8135C190.606 58.3349 199.341 89.271 190.482 110.175C238.387 53.0386 192.318 7.09099 190.482 2.14671C188.645 -2.79764 190.482 29.6468 198 34.1466Z" fill="#00931A"/>
<path d="M0.5 146.647C4.09188 150.344 18.1719 190.277 102 171.386C76.6331 170.572 52.4599 149.9 79.2018 137.097C72.9187 134.583 74.8958 129.495 74.8958 129.495C74.8958 129.495 53.0005 145.147 21.0001 155.147C16.1559 160.441 -3.09188 142.949 0.5 146.647Z" fill="#A7FFA8"/>
<path d="M287 134.647C265 172.299 269 160.299 197.07 134.647C217.582 142.674 222.586 167.08 190.973 170.117C194.363 174.054 189 177.763 189 177.763C189 177.763 229.938 192.434 263.525 181.748C271.428 178.695 283.283 178.702 282.995 174.55L287 134.647Z" fill="#003A1A"/>
<path d="M162.5 281.647C166.794 277.876 207.964 260.934 190.185 161.495C188.24 190.882 164.061 216.747 150.786 184.289C147.71 191.317 142.082 188.476 142.082 188.476C142.082 188.476 151.679 209.024 162.5 242.647C182.5 259.147 169 245.147 162.5 281.647Z" fill="#00931A"/>
<path d="M236.975 112.833C222.122 83.2171 194.073 89.4537 194.073 89.4537C194.073 89.4537 195.725 97.2468 192.421 101.923C208.922 119.07 197.373 154.399 183.069 158.555C232.576 178.818 243.576 137.772 245.224 131.536C246.876 125.303 240.272 120.626 236.972 112.833H236.975Z" fill="#532748"/>
<path d="M223.554 168.846C215.085 174.513 191.101 173.003 177.347 166.246C177.897 171.439 172.395 179.756 169.648 180.276C180.102 184.436 190.002 202.619 172.399 221.841C179.552 228.594 208.701 223.401 225.755 213.008C228.529 211.317 232.905 194.305 234.008 184.436C235.469 171.365 236.759 160.013 223.554 168.85V168.846Z" fill="#884076"/>
<path d="M147.866 92.878C164.367 86.645 175.92 89.4502 185.82 98.8034C190.772 84.7736 174.268 61.3943 144.566 58.2778C114.864 55.1612 86.8101 92.5703 100.011 111.273C103.311 105.036 123.112 88.2015 147.866 92.878Z" fill="#F8A9AB"/>
<path d="M87.083 134.391C87.083 134.391 87.909 124.259 91.2093 118.805C89.5573 117.244 87.909 111.011 87.909 111.011C87.909 111.011 86.2571 103.997 86.2571 98.5417C73.8822 96.2034 52.4289 111.011 51.603 113.35C50.777 115.688 55.7292 142.184 66.4558 142.966C78.0084 134.394 87.083 134.394 87.083 134.394V134.391Z" fill="#F8A9AB"/>
<path d="M93.4105 137.772C65.3568 144.006 62.4565 169.981 68.657 186.091C75.2575 203.237 70.309 215.707 78.5577 218.824C86.3691 221.777 113.212 223.5 136.313 225.057C159.415 226.617 177.568 207.91 170.967 186.091C104.959 197.001 93.4105 151.802 93.4105 137.772Z" fill="#F8A9AB"/>
</svg>
