<svg width="229" height="227" viewBox="0 0 229 227" fill="none" xmlns="http://www.w3.org/2000/svg">
<path d="M177.288 0.864312C169.52 10.357 159.043 23.0129 166.126 0.137206C160.176 14.4244 155.018 27.2768 162.762 13.2924C163.574 5.95489 159.718 23.6969 171.294 3.47266C175.934 4.54914 150.31 27.6372 164.591 10.5666C159.667 23.3499 162.824 23.0849 161.445 22.4754C161.644 17.6256 159.398 20.7986 166.431 6.6682C157.854 18.9922 149.048 27.87 150.727 40.2797C147.58 38.3431 162.809 2.58426 150.198 30.7203C155.864 17.7878 159.923 21.0568 157.147 23.2425C147.646 30.5398 141.387 36.8418 158.456 25.08C150.86 39.9419 153.674 36.2009 150.184 29.9303C143.552 49 161.61 16.835 148.658 25.615C146.56 42.4059 147.87 39.5664 156.378 28.5654C154.722 23.2592 144.169 52.9737 155.725 37.2286C148.28 38.8228 152.068 38.8609 156.493 31.9057C145.954 42.4832 150.301 32.8758 151.125 38.6626C142.935 29.522 142.7 44.9245 135.844 49.3186C140.393 35.75 143.553 45.1619 137.758 57.8401C136.897 42.1514 140.96 49.9686 138.198 34.1676C142.64 39.8395 144.468 34.6803 146.318 31.1921C151.496 31.9957 144.027 46.3753 149.963 43.4919C147.996 21.1844 139.687 35.0878 139.528 41.4383C132.865 46.4872 141.34 32.9986 153.602 20.8957C136.62 40.7273 134.817 49.2849 143.273 45.0664C132.475 46.3164 144.848 34.9115 135.805 48.1482C129.478 61.1678 134.084 49.5142 148.168 27.0813C133.032 45.2241 134.949 59.9337 145.204 39.337C140.598 34.9587 145.71 40.3502 141.429 28.4418C136.484 50.0509 129.589 55.0476 136.046 46.5076C140.041 40.861 120.306 66.1058 142.07 45.0277C120.537 62.5174 122.693 58.7989 128.481 68.4961C138.709 40.8602 123.655 77.9908 132.646 40.8964C131.954 44.8624 133.459 67.2173 133.947 56.6587C131.47 66.7305 121.464 73.1475 130.159 44.814C130.78 51.1948 126.21 40.3372 124.237 49.8921C131.963 43.7542 127.231 57.4086 136.627 50.803C131.75 56.1316 131.983 48.5837 138.914 50.1216C131.681 65.7533 125.394 74.4083 122.815 70.4041C133.814 57.0155 124.896 53.2179 124.414 66.92C126.962 57.2337 129.331 55.0856 119.819 73.7412C125.52 60.1567 115.959 64.085 117.074 70.5104C119.194 64.9535 129.167 65.8093 123.781 65.5501C118.42 72.5465 113.851 68.8564 121.182 61.8756C115.938 82.7472 117.24 63.2491 113.823 67.9179C112.598 86.0781 107.079 79.0272 125.183 49.7336C117.782 72.862 129.106 58.8564 122.661 66.1667C111.685 75.9646 125.405 62.4654 125.283 52.5951C119.853 57.9153 114.137 72.4257 112.126 75.5675C122.157 82.3472 114.599 66.1638 118.744 60.2444C110.572 85.4687 121.95 61.56 102.958 83.4781C127.91 69.402 122.495 67.874 100.874 82.829C106.001 71.7714 107.43 81.262 111.102 85.2677C116.665 64.7661 119.5 73.5877 106.13 78.0429C106.664 76.0616 108.397 99.3911 115.603 83.4625C116.689 74.0678 115.959 73.3366 117.768 72.9679C109.298 73.4921 114.148 82.1446 107.915 87.7527C104.367 77.407 108.951 76.6254 109.058 86.2143C110.793 81.413 110.808 77.7993 101.622 85.512C111.169 78.7665 111.984 85.6047 118.939 84.2885C125.918 74.9399 110.748 95.5265 108.507 86.5741C112.314 74.6352 108.14 73.3066 108.17 109.168C98.2734 104.89 109.431 84.2169 103.764 110.125C105.415 104.376 115.164 76.2974 99.1288 96.0844C101.807 92.4533 110.645 92.8053 116.128 99.5743C106.318 102.706 111.871 89.8381 106.373 100.612C107.661 93.4322 109.873 101.974 109.642 85.0126C106.66 98.3535 114.857 94.6438 114.928 104.809C100.229 100.475 115.455 89.2059 114.494 77.1815C114.305 88.6941 110.913 104.183 123.424 86.0589C118.27 95.9237 113.266 88.9562 122.099 81.5065C121.292 84.1975 112.753 100.888 120.488 98.6875C123.07 90.0651 117.664 96.039 115.696 119.375C123.837 99.8592 119.523 102.702 112.897 121.936C130.606 87.3574 124.908 96.1244 122.363 106.878C125.79 111.909 133.384 99.0171 115.184 117.067C133.514 93.1517 134.879 89.1141 122.633 102.725C131.504 80.5919 118.618 119.084 135.466 102.749C135.254 80.6858 127.643 99.727 128.651 88.8494C123.528 89.752 125.051 107.24 125.712 101.797C124.16 100.571 141.387 92.1431 134.752 94.5847C129.561 119.247 120.562 106.354 136.363 111.666C129.616 99.0175 125.383 114.634 123.453 116.506C142.388 99.8029 131.668 103.47 144.99 85.8625C130.671 109.845 138.141 92.5802 138.425 117.132C137.002 92.9798 134.708 102.598 138.983 89.0209C121.461 120.507 138.856 110.269 142.008 106.587C141.135 101.634 144.488 92.0853 137.865 109.659C139.587 76.8333 144.021 86.9238 142.018 100.802C146.606 90.7612 144.076 75.9274 149.202 71.3957C130.083 99.9536 144.264 93.4986 140.934 102.361C144.336 68.6384 149.199 77.6937 139.875 99.3501C143.811 90.957 131.564 101.511 138.391 99.3563C142.954 88.0203 130.464 98.9131 144.705 77.2858C138.606 95.1372 131.316 102.563 137.782 102.224C143.152 81.9064 143.406 96.7574 135.97 86.2379C145.953 65.3333 150.864 84.2491 132.283 96.3238C151.628 80.7255 136.676 90.2294 140.532 77.5327C150.317 92.9761 140.913 78.4625 150.165 73.6977C148.493 82.3692 144.199 76.1133 148.052 76.5708C143.804 75.2704 147.166 67.263 134.806 84.135C154.661 60.8564 148.756 78.2883 145.511 63.5703C136.466 99.8166 154.229 69.1237 143.072 88.392C142.154 81.4446 154.945 66.9426 144.473 89.7387C154.804 75.8865 141.008 81.2366 156.746 64.5046C153.15 55.285 154.498 70.1565 152.705 77.3705C156.57 74.3548 146.565 72.549 146.171 68.7639C146.801 63.1068 139.991 70.3533 164.792 54.0595C148.715 67.9876 162.483 53.6355 146.268 68.6719C150.25 62.6225 150.481 59.93 153.4 54.9506C152.408 56.0378 144.546 64.9355 150.952 57.0395C143.846 82.5529 152.978 73.1341 166.672 51.9731C156.887 58.5788 150.265 54.8404 146.929 70.1223C155.147 54.9558 160.543 39.0277 161.054 38.8642C145.062 61.3137 161.633 49.8259 153.757 53.4538C155 40.7532 145.592 71.2223 161.271 51.1972C152.602 45.5276 155.003 60.3424 146.254 60.5169C153.908 49.1645 150.199 47.1205 156.946 33.5702C157.049 51.7957 153.794 44.3626 154.409 31.2946C159.357 43.5526 159.944 53.8767 153.194 58.0424C157.225 47.0288 158.285 38.3091 147.518 45.5354C157.226 38.4757 155.271 46.4746 148.354 51.3377C159.051 42.029 152.807 54.7891 152.363 50.809C142.449 59.4799 162.435 45.5289 151.749 47.6477C149.419 57.5492 143.329 53.7617 151.192 49.674C151.131 45.6063 163.436 40.3913 158.549 35.105C149.219 37.8403 152.117 33.0387 159.193 36.4335C153.919 50.6227 144.807 53.2808 153.83 47.116C158.465 55.2536 140.481 49.5636 147.95 55.4602C141.842 50.5599 157.782 34.6386 158.334 44.7187C158.56 44.042 144.112 41.845 151.278 44.616C155.429 37.3794 144.351 42.0987 162.001 37.0087C156.292 32.3971 140.179 48.9474 154.96 20.7682C170.513 27.4808 167.375 24.4929 166.09 24.205C156.144 56.5489 169.527 23.0825 169.101 30.9285C164.732 40.3264 158.392 31.2434 151.526 45.0256C152.862 28.3833 149.52 32.166 152.783 46.1859C150.174 38.7147 160.257 25.3298 162.695 35.5331C156.503 31.477 167.144 19.1219 162.362 28.9786C161.102 7.13577 162.021 10.5754 169.734 9.70264C153.527 36.0029 168.808 23.8474 165.972 28.294C167.348 15.8782 167.409 23.765 159.798 16.6456C159.245 35.0266 159.723 20.4549 163.207 23.582C161.774 4.02714 167.189 29.0658 164.342 11.9299C152.156 27.9756 152.757 34.629 157.125 24.5705C165.278 16.3874 169.221 3.40476 177.328 0.903433L177.288 0.864312ZM113.693 4.20395C109.007 8.59288 104.652 15.1591 106.826 3.28289C104.27 10.5696 103.492 16.6515 107.309 10.2442C107.002 5.93785 106.709 16.6805 112.815 6.83965C116.537 8.06024 99.7958 19.1407 108.365 11.5657C106.325 18.2297 110.234 18.1878 109.083 17.657C108.623 14.8381 106.511 18.6641 109.921 11.6527C105.008 17.5194 100.501 21.4997 103.6 28.7118C100.834 27.2153 107.474 10.5641 101.673 24.8328C104.237 18.1727 108.563 21.2293 106.686 22.1011C100.396 24.8602 97.6362 27.6766 109.143 23.3646C105.45 30.5803 106.595 30.9287 103.165 26.5846C100.656 36.6023 110.134 22.2014 101.421 25.3646C102.157 34.577 104.138 32.9756 109.11 28.0255C107.123 24.6725 103.78 40.8653 110.453 33.6148C104.992 33.2889 107.914 35.3556 110.334 32.0359C103.81 36.3448 106.15 32.5596 107.675 35.9029C100.111 29.4304 101.398 40.2342 96.7508 41.6441C98.2784 34.7944 103.591 40.2411 100.833 46.7551C97.964 37.6895 101.581 44.6281 97.2454 35.182C101.541 38.94 102.814 37.1662 103.782 35.4063C107.918 36.4984 105.308 43.9089 109.458 43.1413C104.875 30.0321 99.8542 38.4468 100.637 41.9774C96.0591 44.1486 100.917 38.8004 108.783 33.5169C98.4604 42.3658 98.9485 47.6038 104.898 46.3494C96.6562 45.7642 105.742 41.1692 100.592 47.4428C97.6394 53.7917 98.9205 49.9377 106.668 39.1803C97.4737 47.4546 101.714 56.8524 106.566 46.8611C102.452 43.5829 107.702 48.648 102.777 41.174C102.139 52.4761 99.0687 54.0496 102.725 50.2951C104.993 47.6429 93.5196 61.0063 107.259 52.2417C93.2493 58.9257 95.3565 57.719 101.12 64.0937C105.025 50.0355 99.2029 70.4803 100.797 50.8768C100.852 52.9512 107.017 64.7929 105.898 58.9406C105.347 64.4217 98.7993 69.2841 101.494 54.4201C102.791 58.2693 98.7444 53.224 98.6224 58.2354C103.654 56.0129 103.706 62.0468 110.079 59.5937C106.996 62.0286 107.968 59.9309 113.466 61.8789C110.102 69.7344 107.841 70.2494 105.287 67.5785C111.81 61.6941 107.097 60.4104 108.644 68.1696C109.123 63.161 113.94 64.2616 109.277 73.3776C111.737 66.5702 104.019 61.7256 105.918 65.2317C106.66 62.668 116.964 64.9 112.792 63.9397C109.68 67.114 107.676 63.3657 112.28 60.5005C111.181 71.6336 110.84 59.7183 108.989 61.612C110.591 71.7569 106.95 65.6072 116.777 51.5732C114.312 63.6688 119.951 54.6457 115.999 57.9475C108.942 61.8991 121.575 55.6534 120.171 49.8915C116.703 52.1861 112.248 56.9007 111.25 58.1168C119.776 63.6759 113.471 51.9137 115.943 48.9219C113.118 62.2294 118.508 48.2601 107.07 57.813C124.337 53.3193 122.363 50.3691 107.787 55.7649C110.194 50.1935 111.193 53.476 114.591 56.3424C115.96 45.4602 123.935 49.5492 114.13 50.4485C114.34 49.16 119.505 60.6234 122.842 52.5659C122.378 47.378 119.973 44.7075 121.314 44.7883C114.965 43.6697 115.2 46.911 111.218 49.1603C107.014 42.8462 110.603 40.8588 112.066 46.2922C112.665 43.9293 113.007 39.8126 106.895 43.0401C113.318 40.5847 113.574 42.479 118.847 42.4919C122.85 38.2919 115.446 45.3959 112.334 40.2144C113.661 33.8562 110.846 30.1374 115.935 50.4175C107.652 46.6611 108.72 34.6919 108.069 48.5714C108.546 45.514 114.254 28.3118 104.753 37.1277C106.248 35.5615 108.502 35.3727 113.752 39.8912C106.582 40.3432 112.141 30.6383 109.261 36.1844C109.314 32.1847 107.436 35.9226 104.896 26.2705C104.507 33.3052 114.754 28.8313 116.304 34.3848C104.294 29.962 107.144 25.3906 104.745 18.4229C106.286 24.7734 108.114 29.6859 115.198 21.2022C112.595 26.0883 103.012 20.6123 108.751 17.6852C108.565 19.0047 105.775 24.0411 111.414 23.9014C112.12 19.4802 105.338 20.904 107.123 33.8482C110.563 24.0892 109.033 21.5543 106.637 31.507C115.453 14.3724 109.345 17.2811 109 22.9238C112.189 26.513 115.225 18.1697 103.88 25.5728C114.572 14.734 115.295 9.57684 107.89 15.3976C111.527 4.20169 104.101 23.347 114.715 16.6363C111.55 3.86448 105.089 13.2699 104.351 7.21603C100.487 7.07325 104.734 13.7113 104.342 10.9931C103.04 9.97959 113.336 5.66276 108.426 6.38168C107.982 19.3864 96.4094 10.9712 109.297 16.3041C102.189 8.39453 107.717 4.61474 113.677 4.1959L113.693 4.20395ZM207.462 51.3944C202.693 55.7125 197.306 61.3377 199.628 49.367C196.872 56.5986 193.245 64.7159 196.978 57.8697C196.799 53.7986 195.516 63.1496 201.547 53.185C205.474 54.5293 188.816 63.0116 197.415 55.3008C195.324 61.9102 195.689 64.0771 194.479 63.5066C193.897 60.6918 193.086 60.3721 196.621 53.3492C191.641 59.1722 184.593 63.8834 187.552 71.118C185.042 69.7049 191.392 50.6611 185.571 64.9673C188.4 58.4705 190.607 61.2946 188.943 62.2561C182.658 65.0837 176.954 68.9153 188.614 64.6344C184.865 72.0003 186.38 69.2655 182.854 65.0894C180.393 75.0933 189.354 58.9196 180.357 61.9949C181.161 71.3079 180.227 71.406 185.201 66.3346C183.25 63.0661 178.001 78.8049 184.717 71.4721C179.4 71.3706 181.59 71.4039 184.096 68.0905C177.409 72.5427 178.615 67.9804 179.841 71.2467C172.322 64.8818 174.609 72.2448 170.097 73.8371C171.504 66.7182 173.318 73.8587 170.618 80.3364C167.859 71.3082 172.171 74.801 167.969 65.4423C172.144 69.2234 171.536 67.3379 172.389 65.5481C176.648 66.7691 171.002 74.9872 175.25 74.2224C170.679 61.1857 166.435 66.3847 167.321 70.0246C162.934 72.114 166.881 65.5093 174.508 60.1696C164.289 69.1657 162.949 74.1493 168.942 72.9266C160.587 72.1331 167.095 68.3818 162.071 74.7388C158.96 81.1855 161.07 73.9922 168.667 63.0823C159.559 71.3819 162.272 80.1506 167.407 70.0119C163.338 66.8603 167.171 70.825 162.212 63.3994C161.459 74.926 155.706 78.0349 159.624 74.2158C162.046 71.6136 149.81 82.7112 163.767 73.8504C149.414 80.6231 149.929 79.3208 155.953 85.7904C160 71.5503 152.798 90.4326 154.61 70.6571C154.674 72.8114 158.466 86.8087 157.263 80.8287C156.727 86.2608 149.379 88.3856 152.25 73.5078C153.672 77.3265 148.093 71.0559 147.992 76.2008C152.994 73.8028 151.73 81.8712 157.873 79.3013C154.901 81.7356 153.838 78.6752 159.442 80.5922C155.988 88.4678 153.743 91.99 151.28 89.3748C157.848 83.3247 150.969 81.8225 152.418 89.5408C153.297 84.5856 155.749 86.016 151.112 95.315C153.464 88.3298 148.591 86.2482 150.513 90.0207C151.11 87.1376 160.549 90.324 156.412 89.4292C153.132 92.5835 151.017 90.2214 155.849 87.378C154.616 98.4996 154.557 87.4353 152.649 89.5362C154.288 99.7466 151.136 94.7804 161.048 80.6389C158.588 92.8029 166.184 83.9203 162.125 87.1582C155.045 91.1927 167.794 87.213 166.253 81.4661C162.837 83.7773 160.251 87.9085 159.291 89.3801C168.008 94.8005 162.4 84.224 164.771 81.3318C161.957 94.6169 168.983 81.1051 157.316 90.8146C174.763 86.3375 173.436 84.9247 158.945 90.4672C161.37 84.8774 164.231 87.9217 167.451 90.6501C169.154 79.8725 177.299 86.7264 167.452 87.4346C167.862 86.4177 174.353 98.6143 177.701 90.5344C177.158 85.2873 176.745 82.1433 178.01 82.1573C171.613 81.212 174.091 82.3356 170.063 84.6367C165.744 78.1978 170.635 76.8557 171.948 82.2695C172.601 79.8209 174.284 76.7379 168.38 79.9866C174.712 77.4374 176.617 79.2961 181.931 79.4811C185.976 75.1608 179.725 83.8814 176.744 78.5595C177.977 72.2099 176.269 69.518 181.475 90.0178C173.246 86.2326 176.466 72.5988 175.473 86.4265C175.966 83.3772 182.857 68.2784 173.213 77.2382C174.762 75.5863 179.142 73.8421 184.259 78.3871C177.136 78.8443 183.229 71.873 180.702 77.4674C180.673 73.4918 180.956 75.626 178.23 65.8319C178 73.08 188.311 72.241 190.057 78.0926C178.03 73.5858 183.657 65.6974 181.077 58.6181C182.663 65.1522 184.938 72.83 192.076 64.2606C189.516 69.1973 182.296 61.9944 188.062 58.996C187.81 60.3667 185.68 67.8898 191.389 67.7484C192.255 63.2863 187.27 63.7221 189.017 76.7412C192.58 66.8377 191.583 66.9796 189.236 77.0513C197.951 59.743 193.949 62.227 193.239 67.825C196.733 71.3623 201.088 63.8622 189.495 71.4593C200.334 60.4691 202.003 57.4919 194.281 63.368C198.199 52.1272 192.543 70.6102 203.268 63.7395C200.101 51.0701 195.648 59.1711 194.859 53.0816C191.061 52.9255 195.863 62.3928 195.582 59.4956C194.151 58.5011 206.34 54.5658 201.47 55.1075C201.188 68.4776 190.005 58.4033 203.033 63.7137C196.04 55.6557 201.453 51.7131 207.466 51.4059L207.462 51.3944ZM64.0116 24.1511C59.0389 26.102 55.9358 30.5066 54.4544 21.2346C53.5908 26.4523 53.401 28.6942 56.2084 24.7327C54.2074 20.9199 58.5201 30.7223 63.3089 24.6318C69.1119 27.1315 51.4298 32.4977 60.5897 29.3361C60.2353 34.2572 63.6965 32.3458 61.8475 31.4492C60.0854 28.8241 61.3179 35.2529 63.4737 30.6006C58.7555 33.7282 53.037 33.7707 60.1569 41.0921C55.7474 38.8037 59.9564 28.8431 57.24 38.8206C58.3966 34.1392 65.2747 37.6686 63.027 37.7285C55.2232 37.6686 51.1749 36.932 65.8195 37.6921C63.4021 42.4089 66.8411 45.6637 60.3499 40.5776C60.662 48.206 69.3449 40.6609 58.1757 39.9677C62.7959 48.1352 63.5732 44.9954 68.6666 42.6912C64.6074 39.0539 65.9347 51.199 72.562 47.5841C64.8099 45.2022 70.5519 49.3213 72.7206 47.4292C65.1674 48.5534 67.1822 46.2811 70.5485 49.659C57.4242 41.2062 65.5386 54.1372 59.5887 53.5617C59.0219 48.3025 67.105 52.315 65.7154 56.8492C58.211 48.0018 67.9879 58.3769 58.29 48.6457C65.7767 53.476 66.4179 51.5965 67.0803 50.4351C73.3929 52.9687 71.4437 56.359 77.0267 57.3225C65.5427 44.3314 63.7598 52.6163 66.2637 55.9502C60.6525 56.1135 65.9362 53.9818 74.9643 52.4221C63.8361 56.0314 66.4017 60.1795 74.3462 61.4053C62.4016 57.7512 72.5518 55.4346 67.7356 58.8517C65.9974 63.0948 68.5163 63.3996 75.246 57.1492C65.4608 60.7178 75.3727 70.3414 78.4039 63.7404C71.3812 59.3449 81.021 65.8589 71.2009 57.5554C74.6773 66.912 69.4771 64.6728 73.2344 62.9408C75.4727 61.5747 65.7477 70.3043 81.8073 68.1558C64.5356 68.3937 66.9341 67.5903 77.6004 75.3072C77.6975 64.8322 78.231 80.9479 72.9502 64.8611C73.8473 66.6487 85.5331 76.2251 81.6579 70.7861C82.9823 75.2816 77.7032 78.9433 75.8381 67.3064C79.1595 71.1424 72.7297 65.371 74.5245 69.5878C80.7222 69.639 81.393 71.792 89.3802 72.0965C85.9807 73.0302 87.6545 70.7442 96.1815 74.5494C94.4351 79.9577 88.5491 76.8026 83.9466 73.5481C90.8668 71.054 83.8408 66.704 88.9813 73.9299C87.8239 69.9253 94.4009 70.519 91.3656 76.5049C92.1591 71.6193 76.9355 64.3772 81.0307 68.0801C80.9823 66.1881 95.3152 70.3444 89.0863 67.9196C85.8741 69.4016 80.355 64.0667 85.8035 63.4431C88.4888 72.5186 82.1875 61.3335 80.3422 62.2023C86.5245 71.4971 77.9766 64.0127 86.4393 55.8082C87.6207 65.2005 92.2333 60.6045 87.8749 61.8975C79.4418 62.5444 93.2997 60.0736 89.0906 54.568C85.0839 55.2107 81.1297 58.9452 80.2685 59.5807C94.442 67.692 80.2602 54.4933 82.6083 52.8343C83.7195 63.1433 85.9673 53.5774 73.4769 57.2648C96.1751 60.089 91.2566 55.7395 72.8014 54.7509C74.0631 50.9154 77.093 55.225 82.9122 58.9591C80.7643 50.2333 91.6998 54.5983 78.1346 51.626C78.0427 50.5983 89.4186 62.5157 91.0329 56.8985C88.3552 52.2688 84.5145 50.3462 86.4063 50.9251C77.0459 47.4867 80.1975 52.9996 75.4351 53.3697C67.0186 46.3484 71.2463 46.1298 75.3649 51.3063C75.2945 49.5351 73.8439 45.8712 66.5053 46.3411C74.5913 46.7054 75.9939 49.0999 83.5062 51.1141C87.5221 49.0898 79.2313 51.62 72.8357 46.0545C72.2533 41.0985 66.3903 36.4179 81.4399 55.7273C68.2999 49.3506 66.5102 41.6566 70.8342 53.2093C70.336 50.7766 70.7692 36.9743 60.7486 40.8094C62.2509 40.0673 66.6476 42.8678 75.7734 48.7139C65.8359 46.3672 68.4114 38.1851 66.5567 41.9161C65.0778 38.4829 65.2373 43.1571 57.8763 33.8925C60.1081 39.7658 70.4728 36.7759 74.9188 42.1289C56.2409 33.7462 60.8595 34.6512 54.7242 27.738C59.3942 33.743 62.3153 36.6297 69.0639 32.1147C67.2883 35.3014 53.0835 29.2772 60.0602 28.9904C60.3009 30.0186 56.9837 31.5507 64.9001 33.6108C64.2237 30.1441 56.102 30.3368 63.6014 42.0769C64.6964 35.1007 60.1815 30.4669 60.6457 38.0503C66.4513 26.7732 59.7245 28.1872 61.309 32.7965C67.2426 37.183 67.9677 30.9705 54.7838 32.861C65.7121 27.7539 63.7362 22.2753 55.4547 24.3198C56.335 16.206 53.6303 30.9331 66.0148 29.323C56.6686 17.1496 53.462 25.5943 50.0761 20.1316C44.575 18.5404 55.6858 22.2309 63.9882 24.158L64.0116 24.1511ZM227.967 108.07C223.096 109.743 216.542 110.293 214.771 101.373C214.112 106.327 208.568 111.325 211.366 107.519C209.164 103.886 212.098 111.014 216.701 105.385C222.524 107.942 205.086 107.727 214.161 104.985C213.999 109.627 211.218 111.763 209.357 110.851C207.515 108.345 210.799 107.305 212.786 102.925C208.205 105.726 198.246 106.792 205.592 114.021C201.083 111.654 204.451 98.4914 202.071 107.868C203 103.457 206.767 106.888 204.486 106.837C196.683 106.542 187.82 107.525 202.431 108.721C200.136 113.179 204.076 111.4 197.387 106.448C197.964 113.674 205.188 103.885 194.05 102.896C198.906 110.816 193.996 110.385 199.034 108.326C194.827 104.764 193.627 115.666 200.129 112.412C192.239 109.931 197.141 110.943 199.225 109.197C191.693 110.105 191.103 106.664 194.606 110.046C181.192 101.615 191.113 108.3 185.098 107.579C184.448 102.503 186.824 109.204 185.594 113.424C177.795 104.766 189.336 109.308 179.292 99.7489C186.924 104.625 183.825 102.808 184.461 101.756C190.803 104.389 184.004 108.982 189.6 110.056C177.678 97.3786 177.626 99.6814 180.191 102.934C174.608 102.809 177.972 98.8867 186.951 97.7736C175.929 100.843 175.412 104.351 183.371 105.782C171.403 101.862 176.858 101.478 172.135 104.537C170.52 108.578 173.725 103.311 180.286 97.6063C170.635 100.64 178.176 109.006 181.007 102.718C173.813 98.3481 181.419 103.315 171.326 95.1362C175.054 104.253 165.388 104.686 169.076 103.07C171.234 101.823 160.773 105.858 176.738 104.264C159.515 104.037 158.987 103.182 169.844 110.817C169.626 100.785 168.716 113.514 162.945 97.9598C163.881 99.7106 172.258 112.926 168.239 107.612C169.729 111.9 162.353 110.672 160.082 99.5166C163.527 103.208 153.413 96.0273 155.308 100.145C161.547 100.349 160.698 106.432 168.721 107.019C165.366 107.749 162.799 105.279 171.448 109.137C169.889 114.236 166.254 116.039 161.538 112.793C168.4 110.589 157.41 106.876 162.799 113.908C161.47 109.966 164.51 112.716 161.635 118.35C162.314 113.708 153.346 109.423 157.473 113.161C157.464 111.289 171.045 117.834 164.713 115.338C161.574 116.678 156.684 113.654 162.084 113.185C165.086 121.912 160.176 112.871 158.319 113.724C164.78 122.765 157.775 117.323 165.964 109.771C167.442 118.739 175.26 114.289 170.981 115.368C162.56 115.738 176.946 117.687 172.56 112.373C168.578 112.831 168.52 115.243 167.6 115.896C182.059 123.955 169.365 113.119 171.63 111.701C173.099 121.504 177.663 113.186 165.291 116.387C188.013 119.789 184.667 118.279 166.178 116.755C167.309 113.154 173.635 116.675 179.622 120.411C177.13 112.009 189.749 121.062 176.175 117.717C175.959 116.796 190.394 129.539 191.805 124.261C189 119.784 188.159 116.874 190.09 117.492C180.58 113.996 187.552 115.763 182.804 115.989C174.216 109.031 181.024 109.951 185.322 115.03C185.209 113.303 186.055 111.528 178.736 111.668C186.848 112.273 191.18 114.578 198.683 116.804C202.654 114.965 196.637 119.645 190.103 114.057C189.352 109.373 185.694 106.704 201.298 125.57C187.983 119.048 189.536 109.014 194.27 120.191C193.687 117.866 195.455 108.423 185.55 111.817C187.049 111.121 195.164 111.349 204.471 117.25C194.475 114.666 198.203 111.844 196.449 115.221C194.855 111.955 198.908 113.656 191.295 104.631C193.654 110.314 204.698 114.584 209.221 119.863C190.325 111.246 199.672 106.803 193.366 100.048C198.172 105.962 202.527 113.617 209.12 109.523C207.44 112.484 196.963 103.384 203.919 103.313C204.179 104.341 202.369 109.953 210.334 112.151C209.542 108.776 204.964 107.109 212.823 118.533C213.723 111.862 210.361 111.844 211.052 119.081C216.515 108.553 213.074 108.692 214.853 113.213C220.926 117.463 223.776 113.222 210.654 114.719C221.417 110.15 220.827 108.481 212.632 110.259C213.231 102.501 216.358 115.094 228.697 113.885C218.925 102.079 219.642 105.953 227.947 108.089L227.967 108.07ZM113.753 83.3859C105.551 84.3394 98.8166 86.0606 93.175 73.2129C93.4119 79.8976 84.4115 83.8573 88.4256 79.3236C83.4239 73.7151 92.3905 84.7234 99.07 78.2399C110.129 83.3754 81.4856 79.4216 96.926 78.1358C97.9459 84.494 93.1013 85.1617 89.5446 83.384C85.5754 79.4342 94.3329 80.8203 96.6419 75.3031C89.2687 77.9055 72.2825 76.0257 87.4129 88.0864C78.6803 83.5349 83.0445 67.2123 81.4123 79.5068C81.7936 73.6563 90.4272 79.3172 86.3204 78.598C72.3021 76.0263 57.221 74.2512 83.6039 79.9464C80.7313 85.4966 89.4844 85.3526 76.1538 76.7002C79.1897 86.8222 91.0023 75.9894 70.8995 71.5475C81.7475 83.8367 73.175 81.0362 81.6052 79.5769C73.0953 73.4982 75.1752 88.3568 85.8806 85.6539C71.0742 80.0488 81.803 83.5916 85.0379 81.7534C71.8539 80.9561 71.0951 76.2873 78.3188 81.9641C52.02 66.5984 73.6844 80.1551 62.7164 77.4899C60.1849 70.2754 66.8645 79.5505 65.8594 85.026C49.5108 70.8912 73.3553 81.9298 52.7594 65.929C67.7305 74.8151 62.7453 71.3559 63.6062 70.0978C75.6169 75.4925 65.6863 79.6187 75.9577 82.6357C51.1542 61.8278 53.5277 66.5663 59.0021 71.7747C49.0095 70.0034 55.3076 66.079 71.0364 67.0718C52.1945 68.2435 53.426 73.1158 68.0022 77.302C45.6018 68.5376 55.7774 69.0348 48.1889 71.9423C46.4317 77.1187 53.1427 72.1319 63.2829 66.0756C46.8972 67.5579 64.0164 81.3127 67.3155 73.349C53.2372 65.3241 69.4675 74.3531 49.1868 60.2672C58.3491 73.95 40.6075 70.6284 46.737 69.3717C50.2201 68.2354 35.075 71.7088 63.1157 73.9026C32.3307 68.8653 31.767 67.1064 53.2314 80.6459C50.0665 66.6858 54.0044 84.3129 39.39 61.1705C41.5368 63.86 58.3486 82.8334 49.725 74.3673C53.5805 80.6826 43.685 77.3577 36.5283 61.3036C43.7017 67.3321 25.8807 53.8226 30.3775 60.0503C41.5991 62.0433 38.6517 68.1684 53.1623 71.2366C47.3656 71.2957 44.4364 65.1136 60.9276 72.8329C59.5576 79.4519 46.7352 79.6407 37.4026 73.8494C49.0526 72.6849 30.0028 61.3492 41.5888 72.5627C38.0918 66.6943 45.0084 67.2068 41.4067 74.205C41.3717 67.9818 14.8411 60.8815 23.2056 67.2256C22.7324 64.6075 46.9354 74.3203 34.9389 69.112C29.7344 70.1147 16.6851 62.2943 26.1835 63.1248C33.9841 76.0277 18.724 60.3643 15.6075 61.0747C29.635 75.3545 11.4532 63.896 23.9785 55.7186C29.1024 68.5284 37.3323 66.1369 30.019 66.4405C15.0901 64.6206 37.0514 65.9276 27.7571 57.3926C20.7743 56.9123 17.1007 62.9214 15.6056 63.6106C43.6439 78.7042 13.671 57.7003 17.3048 56.4052C22.6629 70.3342 24.1773 59.8092 2.99125 60.8595C44.4509 71.8639 33.7461 65.391 0.311368 58.1431C1.32316 53.4727 9.7493 61.8192 21.5166 68.6646C14.695 56.3369 34.7237 66.4559 9.62115 58.0381C8.9143 56.7154 34.0377 77.4225 35.0946 70.5212C28.8529 63.5631 22.0203 61.4055 25.6581 62.7907C7.70159 55.3514 23.2274 63.2287 14.8158 62.2361C-2.4134 50.2358 8.51914 54.3729 17.6176 62.6099C16.951 60.1761 15.7467 58.5617 2.70898 56.6791C17.3648 59.7743 25.0348 65.4337 39.013 70.6162C45.6139 69.1568 33.3265 74.2774 20.1325 64.6951C17.5064 58.0359 7.8933 53.846 40.9357 84.244C15.3572 71.5187 16.8677 60.3976 28.4605 77.1882C26.7709 73.8172 23.4525 60.9954 6.70897 62.9645C9.19672 62.3953 25.1924 67.2872 43.4474 78.0569C24.898 71.7013 26.0421 68.1547 23.8205 72.2736C20.0693 67.3317 29.3604 73.2434 13.3117 58.6769C19.0528 67.1807 33.6119 74.5363 43.079 83.1029C6.9989 65.9417 26.2441 65.9473 13.1403 54.8832C23.3251 64.4008 28.5553 75.4636 39.183 71.6271C36.9941 75.2535 17.4327 62.2515 29.8391 64.0853C30.5994 65.5956 24.6788 72.3062 39.4921 77.5471C37.128 72.6341 29.1596 71.085 46.358 89.0674C46.1101 80.0667 35.7167 78.4964 38.9455 88.6886C45.7976 75.6728 39.7305 76.6125 44.1953 83.3897C56.1867 90.8871 58.015 86.3505 35.0048 84.8193C52.9523 81.4654 47.7255 78.6939 33.6305 78.9216C32.5314 68.3358 39.0357 88.3951 60.7402 90.1274C40.0068 71.1234 41.8036 79.9528 34.0088 71.6551C23.6352 67.7278 37.259 83.169 33.6233 79.2669C29.1601 76.7719 57.0437 85.1757 44.7546 81.2421C56.0982 97.2547 23.1148 77.883 62.4598 96.9653C36.0316 80.1 36.209 88.8102 33.7698 88.6025C59.7217 91.9086 38.4542 85.2879 51.2609 82.7145C42.0006 89.8518 39.8394 82.2039 63.1841 103.182C37.8087 81.488 47.1401 89.2686 43.8407 81.747C34.6486 92.2764 57.4196 99.4381 60.9773 99.2075C54.5057 94.122 62.493 92.05 64.2468 100.886C37.8197 74.5904 48.2109 86.9954 56.6688 96.8576C57.5138 92.6113 48.4627 80.8337 55.4933 81.6684C40.0922 88.3119 63.4759 97.0783 64.3721 101.478C40.7533 76.05 54.8814 89.0421 54.4344 98.8198C55.3276 95.2583 37.2928 94.3616 50.1996 98.7991C49.678 93.3931 44.4279 94.5046 55.6254 89.3181C58.7381 98.7248 52.4762 100.338 66.2846 106.009C59.2566 93.7743 73.435 108.207 47.4921 92.4944C50.0267 83.8859 74.4805 105.496 45.0119 98.6976C72.884 103.248 52.7069 99.711 49.4273 92.5013C84.9834 114.488 50.6191 95.2503 66.3767 99.6152C70.8134 105.454 60.8332 98.6719 69.7481 102.496C59.2244 97.5773 63.2972 96.0064 51.8432 98.9684C73.7642 97.5105 76.8308 108.469 56.1607 93.0806C69.7617 115.423 75.4693 106.812 68.8425 112.841C60.5083 106.126 79.2234 107.813 77.3415 117.5C87.1276 115.195 67.7521 109.465 86.696 109.788C70.402 98.6047 81.5982 113.543 84.3584 117.894C90.0322 118.913 71.7604 110.436 67.374 106.933C63.6509 102.637 54.0874 103.999 93.139 113.001C70.96 110.037 91.0372 112.542 69.4392 110.269C72.504 108.901 77.4459 109.075 79.227 107.494C78.0605 107.559 75.5912 109.826 82.3672 109.173C90.3175 124.217 93.152 125.287 103.467 119.979C88.2968 116.528 75.3207 108.914 82.035 118.745C86.1333 113.462 89.3765 106.309 90.3208 106.621C76.1398 111.03 97.0631 117.098 83.1445 112.87C74.1998 103.221 91.1616 121.687 106.945 119.105C82.8114 106.315 103.725 121.733 84.7522 113.889C91.1032 111.302 83.8157 106.724 86.0449 101.402C103.013 117.051 88.5416 107.75 77.8815 97.2354C99.9127 112.177 110.124 121.369 99.2227 118.672C97.9112 113.079 96.3753 107.109 79.4537 103.291C94.2021 106.282 95.7554 110.602 85.1759 108.286C99.8564 110.281 102.184 115.656 97.4641 111.852C83.8803 110.143 116.42 116.651 95.0864 108.582C99.1683 114.843 84.3695 105.951 97.799 109.618C93.9297 106.115 115.022 111.93 99.5054 102.963C81.6881 96.5755 84.1798 94.5183 102.785 103.92C104.276 110.953 87.4146 103.978 101.443 106.998C119.058 118.243 80.0583 98.6389 101.857 110.51C84.0147 100.724 105.3 101.583 115.797 110.703C115.672 110.422 82.9598 94.6878 101.113 103.67C103.499 101.333 84.3658 94.6603 118.242 106.575C101.451 97.4959 77.8021 92.6965 84.0599 82.4424C124.157 102.446 114.931 96.0772 111.876 94.6786C119.893 112.944 118.241 95.8242 124.513 102.062C123.598 106.055 102.142 92.2467 99.7801 97.6523C87.3684 84.7064 88.2825 88.9735 108.3 103.868C95.7363 95.1733 100.604 87.9159 115.36 98.6446C97.9977 89.613 108.5 87.2876 107.099 91.2406C84.2339 71.5634 91.4121 77.6603 107.435 83.9993C96.3008 91.3403 116.322 93.4298 114.244 94.5007C105.83 85.2928 111.99 91.436 88.8375 78.4776C104.517 93.5344 95.9726 83.0813 106.439 89.0271C85.336 71.0792 98.3395 78.0934 113.733 83.3663L113.753 83.3859ZM163.071 109.341C155.019 110.295 148.145 111.898 142.506 99.2407C142.848 105.856 134.136 109.991 138.169 105.675C133.139 100.062 141.912 111.235 148.539 104.894C159.358 109.916 130.114 106.203 145.356 104.995C146.402 111.282 143.301 112.858 139.819 111.129C135.941 107.235 142.276 109.139 144.496 103.698C137.252 106.263 121.704 105.363 136.719 117.261C127.971 112.72 131.096 97.7736 129.504 109.872C129.737 104.04 139.263 110.816 135.104 110.061C121.258 107.483 108.866 106.694 134.856 112.32C132.029 117.743 138.713 119.353 125.564 110.775C128.566 120.748 139.546 111.8 119.824 107.449C130.517 119.536 125.599 117.347 133.936 115.953C125.509 109.926 129.088 125.823 139.641 123.203C124.925 117.578 135.151 123.118 138.304 121.304C125.343 120.479 125.619 117.329 132.901 122.988C106.886 107.786 125.302 124.514 114.384 121.808C111.961 114.79 123.495 123.827 122.485 129.215C106.272 115.244 127.156 129.996 106.731 114.167C121.58 122.944 119.486 120.461 120.387 119.242C132.185 124.528 126.909 128.417 137.007 131.403C112.473 110.846 112.402 120.004 117.757 125.095C107.82 123.333 115.233 121.685 130.872 122.736C112.213 123.802 116.265 129.577 130.649 133.712C108.591 125.113 123.245 124.765 115.694 127.579C114.026 132.659 118.875 133.229 128.959 127.342C112.745 128.761 132.01 143.998 135.147 136.178C121.198 128.209 139.421 139.217 119.39 125.306C128.482 138.736 116.259 132.978 122.193 131.735C125.558 130.595 111.369 138.527 138.963 140.738C108.708 135.735 111.349 134.339 132.434 147.647C129.245 133.929 135.369 154.501 120.833 131.71C122.94 134.342 144.183 149.173 135.698 140.863C139.513 147.101 131.165 149.394 124.007 133.557C131.042 139.505 115.881 128.928 120.313 135.029C131.417 137.056 132.406 140.418 146.854 143.53C141.089 143.567 140.406 141.125 156.661 148.743C155.36 155.265 147.129 151.309 137.871 145.565C149.362 144.48 132.689 137.234 144.187 148.327C140.546 142.488 149.656 146.846 146.079 153.678C146.093 147.612 124.545 134.878 132.775 141.059C132.397 138.584 158.815 150.502 146.945 145.34C141.889 146.343 131.803 139.884 141.074 140.693C148.849 153.432 136.779 139.095 133.717 139.739C147.561 153.793 132.475 143.905 144.799 135.889C149.869 148.492 161.512 144.693 154.34 145.012C139.599 143.175 163.24 148.866 154.108 140.461C147.191 139.967 147.442 143.82 145.926 144.414C173.558 159.348 146.65 140.832 150.268 139.548C155.577 153.282 160.075 143.262 139.237 144.235C180.103 155.115 171.966 151.792 138.9 144.544C139.889 139.956 151.689 147.148 163.401 153.965C156.491 141.753 178.114 156.986 153.354 148.715C152.541 147.309 180.271 169.045 181.294 162.249C175.16 155.412 172.73 152.069 176.364 153.462C158.627 146.059 172.991 151.966 164.689 150.954C147.725 139.155 158.822 142.735 167.888 150.88C167.207 148.495 166.479 146.492 153.516 144.601C168.035 147.711 175.672 152.675 189.445 157.752C195.953 156.359 184.501 161.01 171.411 151.575C168.841 145.02 159.984 140.537 192.574 170.459C167.283 157.89 168.172 145.98 179.798 162.589C178.117 159.26 175.715 146.454 159.245 148.336C161.686 147.799 176.896 151.64 194.997 162.283C176.652 155.995 179.133 152.517 176.788 156.526C173.108 151.659 181.66 156.429 165.889 142.117C171.474 150.419 187.8 158.092 197.049 166.443C161.419 149.511 179.102 148.135 166.232 137.256C176.262 146.591 182.818 157.51 193.29 153.764C191.112 157.311 171.068 143.365 183.31 145.209C184.086 146.69 179.459 153.221 194.056 158.399C191.658 153.553 183.521 151.107 200.544 168.83C200.251 159.995 191.24 158.385 194.403 168.393C201.212 155.638 194.925 155.645 199.499 162.384C211.23 169.767 213.509 164.895 190.878 163.321C208.545 160.069 204.295 157.156 190.513 157.373C189.295 146.925 195.584 165.846 216.972 167.615C196.461 148.838 197.863 156.551 190.18 148.385C179.905 144.499 194.551 159.67 190.928 155.859C186.567 153.398 214.412 161.197 202.273 157.359C213.388 173.019 181.134 153.35 219.943 172.196C193.796 155.578 194.748 163.901 192.375 163.699C218.014 167.034 197.391 159.988 210.011 157.527C200.756 164.459 199.046 156.551 222.195 177.212C197.106 155.872 205.957 162.568 202.573 155.154C193.574 165.48 216.943 172.523 220.524 172.323C214.076 167.25 219.243 164.86 221.022 173.568C194.914 147.642 206.78 155.5 215.209 165.225C216.154 161.115 201 152.06 207.901 152.876C192.773 159.394 214.549 164.804 215.436 169.104C192.113 144.091 206.065 152.052 205.596 161.658C206.463 158.13 187.263 154.139 199.996 158.507C199.425 153.18 187.646 157.362 198.74 152.34C201.763 161.512 192.655 161.767 206.267 167.376C199.269 155.335 211.701 166.858 186.079 151.375C188.536 142.878 212.507 159.649 183.408 152.926C210.939 157.463 187.8 152.97 184.565 145.887C219.63 167.51 184.252 145.605 199.69 149.835C204.236 155.654 190.439 148.735 199.298 152.474C188.885 147.649 189.48 145.256 178.17 148.15C199.802 146.771 201.294 154.699 180.858 139.553C194.273 161.499 200.221 147.918 193.655 153.79C185.515 147.221 200.631 148.128 198.77 157.636C208.373 155.342 185.168 149.732 203.834 150.092C187.773 139.056 199.392 148.296 202.119 152.518C207.769 153.563 185.833 144.922 181.471 141.488C177.902 137.262 167.335 135.018 205.809 143.924C184.042 141.009 200.809 142.305 179.37 139.935C182.362 138.633 182.852 139.543 184.594 137.98C183.455 138.069 176.705 140.97 183.537 140.459C191.347 155.215 195.533 148.609 205.63 143.417C190.778 140.005 174.175 132.7 180.706 142.305C184.913 137.2 184.032 131.601 184.937 131.893C171.061 136.269 190.82 136.358 176.98 132.114C168.178 122.614 180.518 145.303 196.099 142.806C172.261 130.177 190.42 144.661 171.653 136.921C178.033 134.434 168.145 129.905 170.305 124.661C187.07 140.121 170.581 128.405 160.123 118.078C181.826 132.786 189.694 139.442 178.921 136.745C177.674 131.28 173.686 127.113 156.87 123.264C171.541 126.31 170.744 127.677 160.297 125.334C174.672 127.305 174.862 134.588 170.103 130.801C156.795 129.158 186.686 135.927 165.679 127.958C169.771 134.14 153.098 125.941 166.342 129.523C162.54 126.083 181.056 130.224 165.792 121.405C148.175 115.016 148.573 112.833 167.017 122.162C168.36 128.959 149.778 121.945 163.602 124.918C181.031 136.058 141.649 120.418 163.274 132.163C145.633 122.489 165.041 123.87 175.427 132.896C175.342 132.673 141.586 117.425 159.456 126.3C161.78 123.988 141.536 117.758 175.031 129.563C158.382 120.613 132.747 113.725 138.879 103.679C178.452 123.425 168.227 117.706 165.24 116.351C173.123 134.295 170.397 117.974 176.553 124.106C175.63 128.039 153.827 115.317 151.433 120.612C139.133 107.817 140.38 114.14 160.151 128.815C147.778 120.274 151.014 112.297 165.579 122.796C148.328 113.897 158.261 112.007 156.839 115.864C134.228 96.4677 141.337 103.246 157.139 109.491C146.167 116.651 165.655 118.987 163.619 120.013C155.333 110.984 161.274 117.147 138.473 104.415C153.898 119.21 145.471 108.977 155.831 114.897C134.994 97.1885 147.891 104.158 163.071 109.341ZM121.329 107.774C113.605 117.063 105.088 127.088 112.001 104.427C106.15 118.52 96.5283 130.612 104.237 116.638C104.942 109.472 101.423 125.151 112.858 105.223C117.581 106.37 93.8901 126.606 108.127 109.797C103.314 122.382 101.886 122.2 100.475 121.574C100.585 116.802 101.555 117.042 108.501 103.103C99.9955 115.19 88.7848 123.539 90.6085 135.899C87.4488 133.928 102.893 96.9874 90.5123 124.731C96.0874 112.017 98.835 114.815 96.0937 116.952C86.5828 124.093 78.4862 130.353 95.5983 118.896C88.0832 133.62 91.5374 128.508 87.8759 122.339C81.4329 141.137 99.0735 108.835 86.0594 117.366C84.1517 134.018 84.4914 131.561 92.9545 120.706C91.1971 115.462 80.8163 144.585 92.3127 129.074C84.8006 130.643 88.7707 130.501 93.1697 123.655C82.5977 134.102 87.2033 124.514 88.0588 130.279C79.6499 121.158 79.5688 137.309 72.6846 141.642C77.1329 128.135 81.2265 137.061 75.558 149.531C74.503 133.969 78.6207 142.946 75.6369 127.268C80.1739 132.988 82.7668 127.615 84.5628 124.194C89.8081 125.098 83.4063 138.693 89.3863 135.898C87.0935 113.801 78.7969 128.965 78.7234 135.284C72.1162 140.126 81.0579 127.243 93.2532 115.427C76.3565 134.915 75.3988 143.395 83.8889 139.345C73.0124 140.357 86.4431 128.652 77.4952 141.664C71.2292 154.564 75.7668 144.564 89.6873 122.471C74.6484 140.249 77.3845 155.263 87.5628 134.854C82.8364 130.518 88.6788 136.31 84.1826 124.471C79.3969 145.964 73.7191 149.997 80.1964 141.534C84.1894 135.99 64.7428 162.033 86.5239 141.331C64.8998 158.491 67.8264 154.959 73.8377 164.647C83.8733 137.271 69.4864 174.809 78.1564 138.031C77.4995 141.987 80.4784 163.538 80.8493 153.033C78.5003 162.953 68.5972 170.648 77.0459 142.642C77.7908 148.935 73.4868 138.901 71.5947 148.413C79.3493 142.356 75.8394 155.427 85.2147 148.999C80.3787 154.189 80.8428 147.786 87.8911 149.366C80.773 164.792 75.7049 172.579 73.0592 168.588C84.0412 155.37 75.2771 152.594 74.9544 166.16C77.4796 156.538 80.1797 155.436 70.7825 173.886C76.3675 160.431 68.1648 163.1 69.3356 169.611C71.4319 164.004 82.0418 165.656 76.5969 165.358C71.231 172.247 67.1548 169.092 74.5111 162.237C69.4593 182.867 71.1826 163.811 67.7424 168.505C66.7419 186.516 61.6406 179.895 79.5889 151.022C72.4042 173.884 84.5643 159.993 78.1442 167.137C67.1617 176.753 81.1505 164.598 80.8654 154.852C75.4576 160.051 70.7611 174.045 68.7272 177.25C79.0202 183.985 71.6312 168.425 75.6881 162.677C67.7702 187.56 79.6406 164.167 60.6604 185.77C85.7191 172.126 80.595 171.199 58.9333 185.803C63.9721 174.899 66.2571 184.213 70.0075 188.202C75.4166 167.943 78.4926 177.83 65.0721 181.977C65.5725 180.12 68.0823 203.525 75.1536 187.82C76.1278 178.51 75.9827 177.606 77.7917 177.256C69.2002 177.765 74.7805 185.961 68.5385 191.47C64.8181 181.13 69.4679 180.844 69.6716 190.36C71.3791 185.573 71.2954 182.192 62.1651 189.678C71.7225 183.089 72.3901 190.059 79.3754 188.938C86.3319 179.691 70.8573 199.783 68.5295 190.786C72.1939 179.029 67.357 177.305 67.842 212.937C57.7991 208.537 68.0543 189.204 62.6103 214.85C64.2043 209.175 72.8033 180.387 56.7921 199.894C59.4826 196.278 67.485 198.326 73.0824 205.143C63.2266 208.11 67.1881 193.628 61.8509 204.183C63.0426 197.114 64.3901 207.818 63.9214 190.971C61.0798 204.232 67.1092 197.153 67.2982 207.34C52.4002 202.811 67.127 196.125 65.9706 184.171C65.9067 195.672 60.2383 208.745 72.6675 190.899C67.5898 200.633 61.6719 196.839 70.5146 189.527C69.7119 192.229 58.5934 206.688 66.3845 204.592C68.9276 196.025 61.6622 202.643 59.9576 225.793C67.9877 206.457 63.9508 207.178 57.503 226.2C74.9434 192.089 67.1929 199.346 64.6972 210.021C68.3036 214.974 75.7772 200.37 57.5302 218.16C75.803 194.593 78.221 188.433 65.9411 201.857C74.6818 179.959 60.0303 217.041 76.9015 200.972C76.3714 179.162 66.5012 197.39 67.3699 186.611C62.2216 187.425 65.1004 202.861 65.7567 197.368C64.1426 196.167 80.6937 187.017 74.0598 189.242C69.1065 213.771 59.0509 200.085 75.1205 205.533C68.1919 192.811 64.1266 207.146 62.1729 209.006C81.1123 192.625 69.5457 195.671 82.8385 178.257C68.7071 201.892 75.6012 184.333 76.1198 208.834C74.4275 184.743 71.3789 194.476 75.5999 180.966C58.249 212.058 75.6433 201.801 78.7534 198.221C77.7924 193.364 81.1295 183.826 74.6559 201.184C75.9587 168.653 80.5583 179.121 78.6485 192.933C83.1321 182.999 81.1963 167.781 86.3247 163.382C67.34 191.48 81.8782 185.651 78.598 194.454C81.6197 160.971 86.7943 170.779 77.655 192.152C81.5031 183.931 69.5849 194.776 76.4563 192.748C80.9504 181.527 69.6615 191.373 83.7801 170.042C77.8092 187.799 71.2001 195.176 77.7462 194.915C82.9609 174.764 83.843 189.983 76.2097 179.381C86.0217 158.813 91.4341 178.655 72.8364 190.334C92.1788 175.112 77.9448 184.416 81.6847 171.849C91.7413 187.403 82.5778 173.333 91.8568 168.808C90.2268 177.397 86.7877 170.87 90.623 171.498C86.3657 170.061 90.4694 162.215 78.2153 178.783C97.9938 155.927 92.729 173.761 89.3149 159.023C80.614 194.945 98.3836 165.896 87.341 184.921C86.298 178.004 99.8951 163.773 89.5993 186.263C99.8638 172.697 87.0012 177.562 102.716 161.129C98.9329 151.984 100.648 168.005 98.8792 175.269C102.738 172.306 93.5797 170.244 93.1688 166.413C93.6563 160.9 87.3126 168.79 112.209 152.913C96.0928 166.547 110.653 152.59 94.4585 167.373C98.4643 161.317 99.7098 158.331 102.58 153.449C101.614 154.465 94.8119 162.979 101.191 155.117C94.3285 180.406 103.242 173.11 116.873 152.209C106.993 158.71 101.237 154.735 98.0723 169.915C106.125 154.976 112.49 138.863 113.001 138.718C97.1171 160.742 113.755 151.052 105.857 154.584C106.934 142.016 99.2166 171.141 114.803 151.473C105.964 145.746 109.234 160.806 100.432 160.812C107.971 149.665 104.972 147.748 111.62 134.411C111.995 152.417 108.975 145.886 109.399 132.919C114.57 145.15 115.656 156.19 108.886 160.261C112.812 149.354 114.643 140.547 103.881 147.606C113.579 140.683 111.972 149.538 105.012 154.37C115.774 145.207 110.399 157.685 109.928 153.719C100.007 162.17 120.704 148.695 109.892 150.693C107.647 160.506 102.075 156.775 109.933 152.911C109.809 148.868 122.552 144.414 117.534 139.089C108.098 141.799 111.474 137.25 118.641 140.701C113.476 154.833 104.714 157.584 113.739 151.628C118.546 159.703 100.968 153.296 108.544 159.275C102.309 154.348 118.402 138.948 119.113 148.911C119.354 148.166 104.621 146.06 111.944 148.854C116.053 141.738 104.696 146.4 122.44 141.594C116.67 136.847 100.229 152.23 114.841 124.38C130.651 131.233 126.797 128.012 125.489 127.693C115.863 159.682 128.177 126.264 127.837 134.059C123.567 143.3 116.041 134.301 109.326 147.848C110.456 131.393 106.282 137.449 109.756 151.406C107.033 143.924 115.58 128.388 118.101 138.719C111.876 134.495 120.958 121.844 116.26 131.574C114.72 109.852 114.554 115.067 122.347 114.31C106.272 140.273 119.845 127.726 116.997 132.176C118.244 119.817 116.679 127.968 108.902 120.726C108.59 138.985 107.879 127.211 111.464 130.276C109.747 110.888 112.98 134.162 109.95 117.036C97.7379 132.937 96.9943 141.017 101.228 131.125C109.386 123.01 113.157 110.11 121.305 107.781L121.329 107.774ZM71.4727 104.357C66.6214 106.304 61.4784 108.102 60.0298 98.9408C59.2283 104.115 53.1695 108.953 56.0364 105.051C54.0046 101.279 56.6659 108.531 61.4285 102.531C67.0383 104.942 49.6322 105.384 58.6552 102.238C58.3156 107.091 55.9453 109.437 54.1515 108.568C52.4648 106.01 55.0058 105.024 57.1034 100.408C52.4946 103.516 42.9532 105.069 49.9503 112.28C45.5603 109.992 48.8609 96.4937 46.1662 106.331C47.2213 101.674 51.0198 105.451 48.7482 105.48C41.0818 105.443 33.3325 107.146 47.655 107.836C45.2564 112.497 48.1268 111.236 41.7701 106.257C42.0532 113.766 49.0692 103.975 38.191 103.374C42.6723 111.404 39.2928 111.48 44.3159 109.197C40.3163 105.618 39.1102 117.546 45.6243 113.958C37.9469 111.605 42.261 113.184 44.3671 111.298C36.967 112.453 36.6112 109.527 39.9813 112.898C27.0942 104.604 35.0839 111.935 29.181 111.365C28.7173 106.196 32.3967 113.421 31.0139 117.883C23.6406 109.169 33.3902 114.202 23.8469 104.615C31.2034 109.37 28.8028 108.229 29.497 107.103C35.6285 109.563 29.9392 115.1 35.3883 116.014C24.1384 103.246 22.5839 106.272 24.985 109.534C19.4441 109.677 22.7695 106.084 31.6964 104.567C20.7165 108.138 20.4888 112.266 28.2683 113.445C16.6188 109.895 22.8043 109.619 18.0224 112.969C16.3191 117.182 18.6613 112.107 25.3414 105.953C15.6967 109.481 22.9698 118.021 25.9193 111.463C19.0073 107.143 26.2191 112.22 16.6048 104.078C19.9817 113.318 10.7998 114.205 14.4352 112.439C16.591 111.059 5.82948 115.742 21.5672 113.543C4.68864 113.887 4.16007 113.013 14.5302 120.551C14.6486 110.209 13.2242 123.402 8.06758 107.52C8.92904 109.28 16.4116 122.416 12.6551 117.076C13.9473 121.498 6.38411 120.675 4.54442 109.183C7.76659 112.921 2.11623 107.434 3.84359 111.588C9.96671 111.63 10.3777 113.688 18.2947 114.013C14.9379 114.921 16.0602 113.287 24.4057 117C22.6899 122.349 18.598 119.788 14.0668 116.589C20.8813 114.107 13.3835 111.11 18.4403 118.227C17.2084 114.213 22.921 116.695 19.8806 122.593C20.7301 117.793 10.0889 110.202 14.046 113.825C14.0922 111.981 28.6708 117.838 22.5404 115.454C19.4381 116.954 15.3602 113.373 20.6592 112.711C23.3039 121.672 19.0471 112.247 17.2175 113.124C23.2332 122.258 16.6742 116.779 25.0048 108.658C26.1295 117.908 34.0065 113.111 29.7617 114.415C21.4699 115.077 35.4406 116.71 31.3505 111.322C27.3986 111.954 27.4285 114.818 26.5319 115.445C40.4051 123.365 28.2414 112.894 30.5587 111.276C31.6287 121.432 36.4142 113.01 24.1709 116.72C46.3933 119.405 42.9601 118.379 24.8072 117.441C26.0539 113.654 32.4608 117.698 38.2404 121.392C36.0542 112.742 47.3708 122.243 34.1201 119.355C33.934 118.317 47.5905 131.786 49.1783 126.24C46.5958 121.696 46.2856 119.558 48.1695 120.132C38.9709 116.786 46.943 119.205 42.2671 119.6C34.0758 112.722 40.7574 114.124 44.8281 119.238C44.758 117.486 45.3853 116.335 38.1287 116.78C46.1047 117.126 50.4047 120.019 57.7361 121.979C61.6973 119.964 55.28 125.544 49.0105 120.043C48.4803 115.18 44.8909 112.999 59.5403 131.962C46.6565 125.707 48.8268 115.611 53.1295 127.03C52.6435 124.632 54.4063 115.12 44.5658 118.953C46.0485 118.21 54.1678 118.432 63.1358 124.197C53.3792 121.905 56.9607 119.018 55.0341 122.636C53.6071 119.277 57.4106 121.058 50.2793 111.986C52.3804 117.746 63.3623 121.766 67.6109 127C49.3192 118.795 57.627 113.992 51.6973 107.221C56.221 113.123 60.7763 120.23 67.4041 115.757C65.6356 118.89 53.5756 110.047 60.4227 109.741C60.6635 110.77 59.3073 114.868 67.0504 116.859C66.3626 113.414 59.3262 112.143 66.647 123.707C67.7392 116.814 64.9749 113.64 65.3788 121.108C71.1671 110.001 64.8958 110.308 66.5391 114.919C72.2867 119.164 73.5047 112.901 60.5959 114.856C71.3247 109.77 69.1419 104.054 61.0806 106.154C61.903 98.1146 59.3872 113.504 71.5481 111.865C62.3927 99.9017 61.0244 105.758 57.7377 100.393C52.3231 98.8267 63.3517 102.522 71.4653 104.391L71.4727 104.357ZM155.822 148.4C150.943 150.323 145.457 152.285 143.912 142.905C143.23 148.196 137.494 153.455 140.648 149.359C138.373 145.595 141.266 153.485 146.158 147.465C151.784 149.903 132.856 151.437 142.114 148.259C141.857 153.145 142.452 155.467 140.658 154.579C138.932 152.058 138.992 153.597 141.057 148.889C136.416 151.981 129.313 153.957 136.544 161.392C131.925 158.949 135.111 148.325 132.433 158.246C133.303 153.504 140.066 157.823 137.648 157.768C129.782 157.695 125.77 157.354 140.352 158.12C137.869 162.907 141.244 165.799 134.63 160.877C134.98 168.411 143.725 160.86 132.722 160.252C137.303 168.399 137.811 164.754 142.99 162.437C138.818 158.827 140.486 170.712 147.137 167.072C139.11 164.682 145.424 168.772 147.53 166.848C139.947 168.108 142.05 165.371 145.645 168.923C132.337 160.48 141.198 173.877 135.028 173.264C134.684 167.977 142.724 171.062 141.348 175.491C133.687 166.601 144.913 177.876 134.999 168.1C142.578 173.044 143.509 170.03 144.251 168.947C150.442 171.484 148.605 173.526 154.152 174.443C142.5 161.508 142.2 170.823 144.597 174.131C138.932 174.069 144.889 171.592 154.089 170.262C142.799 173.779 145.708 177.254 153.641 178.502C141.86 174.761 151.966 171.441 147.034 174.752C145.321 179.122 148.83 179.922 155.722 173.783C145.868 177.213 156.068 186.7 159.022 179.881C151.835 175.515 161.927 181.844 152.017 173.58C155.461 183.118 150.299 180.257 153.964 178.337C156.084 176.91 146.781 185.884 162.832 183.636C145.633 184.062 148.053 183.119 158.593 190.714C158.684 180.114 159.478 196.4 154.105 180.144C154.956 181.964 166.77 192.049 162.965 186.609C164.351 191.041 158.362 194.633 156.344 182.927C159.659 186.638 152.003 181.127 153.716 185.406C160.074 185.416 161.162 189.206 169.375 189.673C165.927 190.487 165.4 189.436 173.949 193.177C172.262 198.606 169.448 198.179 164.743 194.891C171.756 192.331 162.301 189.702 167.579 196.951C166.152 192.696 170.421 195.667 167.265 201.676C168.215 196.814 159.127 191.402 163.043 195.221C163.292 193.273 177.015 199.948 170.684 197.509C167.575 199.081 161.478 196.242 166.827 195.502C169.658 204.623 162.94 194.197 160.986 195.199C167.169 204.475 158.458 196.88 166.925 188.668C168.118 198.037 172.556 193.277 168.288 194.569C159.78 195.225 173.66 192.614 169.468 187.231C165.413 187.811 161.683 191.302 160.62 192.041C174.892 199.958 160.929 186.701 163.252 185.209C164.445 195.436 166.649 185.547 154.145 189.397C176.808 192.231 172.368 187.9 153.712 186.837C154.958 183.012 158.192 186.785 164.244 190.59C161.784 181.734 173.751 186.729 160.301 183.608C159.9 182.602 172.053 194.359 173.633 188.772C171.003 184.185 167.359 181.429 169.353 182.041C159.845 178.697 162.88 182.859 158.095 183.255C149.765 176.24 154.531 175.901 158.792 181.169C158.74 179.322 157.93 175.533 150.464 175.805C158.688 176.23 160.483 178.09 167.879 180.214C171.965 178.131 164.389 180.781 157.975 175.037C157.406 170.191 152.377 165.512 167.36 184.816C154.14 178.342 152.296 169.488 156.912 181.209C156.379 178.786 157.669 165.214 147.611 169.143C149.147 168.334 153.557 170.037 162.794 176.016C152.793 173.58 156.628 166.163 154.582 169.608C153.096 166.266 153.226 169.868 145.983 160.683C148.019 166.532 160.132 164.5 164.304 169.864C145.597 161.382 149.876 160.868 143.851 154.031C148.412 160.093 152.296 163.49 159.064 158.976C157.241 162.119 142.86 155.505 149.871 155.208C150.113 156.312 147.312 158.06 155.228 160.102C154.476 156.511 146.498 156.655 154.057 168.435C155.154 161.337 150.992 157.025 151.397 164.587C157.322 153.409 150.397 154.665 152.235 159.498C158.095 163.64 158.938 157.45 145.725 159.533C156.688 154.339 154.425 148.818 146.264 151.056C146.985 142.786 144.668 158.04 157.137 156.342C147.612 144.266 142.721 150.945 139.351 145.51C133.79 143.841 142.598 150.836 141.013 148.234C138.794 146.932 147.585 146.402 155.814 148.396L155.822 148.4ZM78.6741 126.187C73.9137 130.566 68.3067 134.617 70.543 122.989C67.7929 130.111 62.6681 137.463 66.03 131.286C66.0552 126.951 64.8172 135.863 70.7436 126.024C74.6424 127.307 58.4428 135.184 66.8291 127.714C64.6837 134.352 64.8725 136.787 63.6705 136.239C63.1699 133.324 62.1513 133.021 65.6332 126.141C60.6688 131.991 53.9581 136.705 56.8902 143.699C54.4054 142.412 60.5027 123.843 54.7161 138.044C57.6072 131.523 59.9028 134.505 58.2552 135.512C52.1101 138.261 47.0609 142.134 58.5409 137.874C54.9595 144.93 55.8536 143.217 52.6018 138.719C50.0822 148.759 58.7849 133.501 49.9249 136.523C50.7114 145.676 51.2002 145.614 56.0168 140.736C54.1902 137.38 49.5271 153.314 56.1 146.163C51.0192 145.852 52.9674 146.846 55.4354 143.589C48.9986 147.688 50.5359 143.955 51.7518 147.046C44.4792 140.628 45.7368 149.267 41.4117 150.709C42.6506 143.957 46.1714 150.441 43.422 157.016C40.77 148.09 44.0708 152.745 40.0428 143.437C44.1912 147.016 44.2004 145.927 45.0693 144.088C49.318 145.172 44.9997 153.38 49.1466 152.676C44.8108 139.628 39.8415 145.701 40.742 149.235C36.2652 151.656 40.3173 145.841 47.8952 140.344C37.8666 149.22 37.2295 154.384 43.1432 153.102C34.7697 152.619 42.2732 148.904 37.3153 155.248C34.3525 161.384 35.66 155.374 43.1368 144.582C34.104 152.93 37.1869 161.557 42.0781 151.936C38.196 148.653 42.0247 152.936 37.2376 145.485C36.6578 156.478 31.3189 159.77 35.0529 156.272C37.4518 153.714 25.3437 164.717 38.9765 156.162C24.9979 162.551 25.6478 161.336 31.5186 167.793C35.3875 154.019 28.3024 172.536 29.9923 153.33C30.1013 155.357 33.9574 168.859 32.7449 163.053C32.1319 168.559 24.8396 170.458 27.7021 155.811C28.9921 159.77 23.5298 153.097 23.5159 157.994C28.3057 155.836 26.304 163.868 32.3491 161.257C29.3548 163.812 27.8913 160.661 33.3275 162.671C29.9159 170.427 26.7416 169.731 24.3414 167.129C30.6859 161.38 27.3141 159.065 28.68 166.712C29.4844 162.059 34.509 162.265 30.0366 171.262C32.282 164.486 23.6499 159.543 25.7465 162.876C26.1252 160.4 36.7668 162.38 32.7511 161.444C29.5437 164.475 28.147 160.744 32.8476 158.06C31.5898 169.037 31.5227 157.695 29.8255 159.403C31.4075 169.472 28.4379 164.089 38.1735 150.216C35.7266 162.217 43.09 153.225 39.0553 156.494C32.1498 160.401 44.8288 156.461 43.4237 150.604C40.0427 152.943 37.5393 157.088 36.7937 158.179C45.1386 163.919 39.7422 153.629 42.2273 150.475C39.3389 163.75 46.4368 150.662 35.1129 159.933C52.2703 155.478 50.9137 154.493 36.715 159.93C39.1179 154.404 42.1811 157.675 45.2689 160.43C46.9976 149.816 54.8459 156.821 44.9962 157.867C45.5784 156.57 51.9839 169.129 55.3294 161.113C54.8067 155.924 54.8599 153.423 56.0592 153.47C49.9401 152.252 53.5288 153.48 49.6091 155.666C45.3391 149.403 50.6754 148.298 51.9631 153.567C52.5287 151.309 54.3861 148.976 48.4889 152.407C54.6882 149.903 57.1045 152.24 62.4813 152.127C66.3682 148.037 60.3007 157.276 57.2391 152.346C58.5411 145.919 56.957 144.016 62.0829 164.108C53.97 160.504 58.1973 147.177 57.2006 160.72C57.7089 157.679 64.197 143.798 54.8192 152.412C56.2648 150.944 61.2876 149.226 66.3585 153.549C59.3266 154.1 65.1069 147.742 62.4927 153.585C62.5489 149.521 63.2955 151.486 60.622 141.822C60.4754 148.83 70.0826 148.999 71.9608 154.494C60.0903 150.227 66.0458 142.299 63.5249 135.297C65.1895 141.523 67.3254 149.337 74.3245 140.942C71.7997 145.83 64.6801 138.839 70.3064 135.958C70.1227 137.175 67.9761 144.614 73.5723 144.5C74.3626 140.263 69.0325 140.655 70.7287 153.441C74.1328 143.928 73.3452 143.016 71.0466 152.896C79.6274 135.811 74.5959 138.345 73.9493 143.683C77.2081 147.525 80.4126 139.513 69.2014 146.635C79.7554 136.009 80.3739 130.628 72.8943 136.147C76.6916 125.26 68.8222 144.612 79.2343 138.082C76.3045 125.317 69.4095 135.67 68.6564 129.646C64.8914 129.601 67.4678 133.981 67.0122 131.504C65.6694 130.375 72.6837 126.703 78.6823 126.21L78.6741 126.187ZM128.214 152.019C123.453 156.303 117.601 160.541 119.791 148.654C117.128 155.857 111.469 163.38 115.201 156.732C114.947 152.594 114.009 161.404 120.029 151.557C123.956 152.901 107.312 160.929 115.92 153.355C113.876 159.95 114.93 162.016 113.716 161.453C113.134 158.638 111.309 159.876 114.786 152.908C109.821 158.682 104.374 163.315 107.474 170.546C104.846 169.091 111.118 152.186 105.375 166.4C108.098 159.896 112.165 163.01 110.427 163.923C104.093 166.67 101.201 169.22 112.901 165.055C109.194 172.319 110.547 172.746 106.969 168.496C104.558 178.46 114.258 164.266 105.276 167.274C106.155 176.54 108.518 174.539 113.494 169.563C111.484 166.255 108.309 182.156 115.018 174.933C109.605 174.708 112.738 176.769 115.222 173.482C108.557 177.813 111.501 173.836 112.857 177.122C105.184 170.669 107.293 182.704 102.718 184.188C104.106 177.182 109.877 181.363 107.188 187.818C104.28 178.77 108.644 187.071 104.277 177.666C108.57 181.469 110.6 178.894 111.486 177.12C115.767 178.334 113.634 184.422 117.891 183.699C113.147 170.631 108.847 180.498 109.74 184.104C105.271 186.179 110.858 180.921 118.592 175.683C108.308 184.514 109.433 189.341 115.47 188.169C107.041 187.366 116.782 181.936 111.722 188.208C108.688 194.581 110.704 191.857 118.319 181.088C109.158 189.276 113.877 198.654 118.88 188.637C114.729 185.414 120.301 190.333 115.228 182.859C114.61 194.275 111.595 195.235 115.428 191.486C117.81 188.902 106.391 202.51 120.355 193.831C106.011 200.43 108.298 199.183 114.369 205.657C118.28 191.546 112.407 212.012 113.99 192.355C114.069 194.48 120.353 206.477 119.111 200.534C118.615 205.967 111.878 210.752 114.593 195.945C116.026 199.779 111.471 194.484 111.417 199.577C116.456 197.283 116.417 204.157 122.672 201.681C119.656 204.084 119.227 201.611 124.882 203.583C121.487 211.403 119.519 214.539 116.973 211.891C123.543 205.974 116.409 204.464 117.972 212.193C118.698 207.245 120.522 208.308 115.907 217.486C118.253 210.592 113.344 210.274 115.324 213.972C115.942 211.204 123.505 213.819 119.305 212.873C116.072 215.995 112.25 212.243 117.035 209.451C115.928 220.543 114.699 207.835 112.81 209.841C114.554 220.02 110.326 213.402 120.186 199.422C117.811 211.516 123.259 202.575 119.216 205.783C112.107 209.718 124.871 203.313 123.303 197.561C119.85 199.826 115.276 204.328 114.314 205.705C123.119 211.246 116.612 199.314 119.014 196.419C116.286 209.654 121.946 195.681 110.316 205.201C127.855 200.894 125.944 197.938 111.321 203.291C113.716 197.742 115.061 200.833 118.392 203.637C119.911 192.869 128.128 197.516 118.195 198.199C118.537 197.1 124.233 208.731 127.547 200.699C126.973 195.474 125.191 192.499 126.488 192.548C120.03 191.487 120.909 193.68 116.873 195.92C112.483 189.502 116.65 187.611 118.072 193.025C118.695 190.617 119.702 186.755 113.703 189.936C120.107 187.48 121.089 189.16 126.454 189.343C130.491 185.114 123.724 192.684 120.627 187.397C121.848 181.07 119.53 177.566 124.95 197.997C116.579 194.158 118.278 181.285 117.508 195.085C117.973 192.05 124.436 175.667 114.806 184.464C116.34 182.861 119.319 181.816 124.57 186.391C117.359 186.785 123.419 178.128 120.809 183.67C120.768 179.698 119.552 182.567 116.764 172.816C116.549 179.978 127.318 176.741 129.082 182.499C116.886 177.915 120.276 172.053 117.66 165.003C119.316 171.479 121.505 177.047 128.621 168.598C126.068 173.482 116.707 167.572 122.509 164.658C122.288 166.007 119.716 171.183 125.465 171.099C126.253 166.673 119.479 167.77 121.373 180.752C124.844 170.952 123.355 168.551 121.062 178.537C129.748 161.403 123.87 164.231 123.313 169.822C126.784 173.404 129.779 164.946 118.211 172.357C129.021 161.541 129.494 156.058 121.837 161.826C125.603 150.668 117.82 170.008 128.559 163.304C125.238 150.604 118.591 161.31 117.751 155.242C113.886 155.061 116.678 159.994 116.327 157.155C114.907 156.138 122.147 152.317 128.211 152.027L128.214 152.019Z" fill="black"/>
</svg>
