<svg width="247" height="259" viewBox="0 0 247 259" fill="none" xmlns="http://www.w3.org/2000/svg">
<path d="M153 4.00001C150.93 5.33001 152 7.00001 156 11C159.06 17.59 154 13 153 13C157.44 -7.55999 156 16 158 17C156.61 18.95 155 16 153 16C155.62 26.5 154 18 155 19C152.48 23.77 153 20 153 20C153.43 32.97 156 24 157 26C155.59 27.65 153 25 153 27C151.04 44.67 156 31 157 33C153.27 46.51 166 38 152 35C153.74 56.39 154 38 155 39C152 49.58 151 39 151 39C155.49 44.35 154 43 155 45C154.91 45.66 152 44 151 44C150.56 26.27 150 45 150 46C151.61 40.52 152 49 153 51C154.16 57.38 149 51 149 51C148.85 58.64 146 54 150 57C151.24 54.24 148 57 148 57C145.29 44.91 149 59 146 60C149.65 40.9 147 63 148 64C146.33 69.53 145 62 143 64C140.13 79.37 144 66 144 67C142.78 78.8 142 67 142 67C140.78 48.05 143 69 144 70C139.85 63.53 140 70 139 71C136.1 64.04 141 74 142 75C144.75 90.42 140 75 140 75C136.6 80.5 136 78 137 81C134.89 91.66 134 81 134 81C134.55 102.94 135 83 135 84C131.89 89.95 133 83 132 86C131.27 91.14 130 86 130 86C131.51 72.77 131 87 131 88C130.12 108.46 127 87 126 89C127.63 105.91 130 95 126 97C124.31 104.63 127 98 127 98C128.94 96.06 124 101 124 101C125.23 104.14 126 102 127 103C125.06 119.7 125 105 125 105C122.91 105.31 127 106 128 106C129.72 96.33 127 108 126 109C123.67 101.9 129 109 129 109C129.81 108.17 127 112 126 113C130.11 129.31 129 112 131 112C132.51 112.05 130 114 130 115C128.17 121.81 132 114 133 114C132.46 127.63 133 117 133 117C133.99 116.08 135 117 135 117C136.28 133.01 135 120 135 120C136.78 99.18 137 120 137 120C135.91 121.94 139 123 139 124C142.36 142.89 142 122 143 121C142.88 130.24 144 124 145 124C143.97 132.29 152 124 152 124C152.32 109.98 154 123 154 123C153.11 105.38 154 120 154 120C154.96 121.41 157 120 157 120C155.5 116.9 156 117 156 116C159.55 106.92 159 117 160 117C157.38 96.45 158 114 158 113C157.33 100.96 163 112 163 110C160.05 105.18 160 107 161 105C161.65 95.25 163 103 164 102C168.61 112.59 163 96 164 92C163.27 74.14 167 91 167 91C168.95 67.63 166 88 165 86C165.66 93.75 167 85 168 85C169.55 94.02 167 83 167 83C171.23 92.27 166 77 165 74C166.49 55.79 167 73 168 73C168.93 58.82 166 70 166 68C164.58 52.74 168 67 169 67C166.42 85.83 165 63 164 60C164.99 42.34 167 58 167 57C165.17 50.67 166 55 165 54C168.44 41.14 166 53 167 53C164.74 47.11 164 45 165 41C161.56 42.49 161 35 160 32C159.54 44.1 163 31 163 30C164.57 37.65 163 23 157 22C160.48 1.49001 159 21 160 20C160.37 14.78 160 17 157 16C159.94 34.84 158 15 158 14C155.09 6.31001 156 11 154 10C153.46 -10.07 155 9.00001 155 9.00001C153.34 9.55001 154 6.00001 153 4.00001ZM93.0002 15C92.9402 17.17 96.0002 17 99.0002 18C102.58 22.41 98.0002 20 97.0002 21C101.06 9.86001 101 22 103 22C101.51 24.01 100 23 98.0002 24C100.37 29.91 101 25 102 26C99.7202 28.46 101 27 100 27C101.37 34.67 103 30 106 30C104.65 31.85 104 32 103 34C102.5 42.1 108 34 110 37C111.91 45.5 109 38 109 39C109.63 49.53 110 40 110 40C106.46 46.46 107 41 106 42C110.1 43.73 109 43 111 43C110.77 44.34 108 44 107 45C108.63 36.84 111 48 113 49C113.36 45.14 110 49 109 50C108.98 56.29 113 53 114 55C112.87 57.91 112 55 111 56C112.05 56.57 110 60 115 61C112.71 55.24 114 62 114 63C116.24 52.61 115 64 115 64C114.44 68.37 114 65 114 66C112.57 73.42 117 67 118 67C115.97 74.1 115 69 116 71C115.12 61.69 119 71 120 74C119.18 70.66 122 73 122 73C121.55 69.89 125 76 126 77C126.32 78.97 128 75 130 72C128.97 71.81 127 70 131 67C128.22 72.51 130 66 129 66C129.46 75.82 130 64 130 64C126.22 65.08 130 60 128 59C128.39 60.65 130 58 130 57C130.28 47.65 128 53 123 53C122.94 63.57 122 50 122 49C124.22 56.19 121 48 120 48C116.57 49.94 124 45 117 43C118.64 42 117 41 117 41C116.19 41.11 115 40 114 40C112.36 47.63 115 38 115 37C112.39 37.16 112 37 112 37C115.3 30.49 113 35 114 34C112.03 30.33 109 34 109 34C110.53 32.06 110 32 110 31C110.78 38.43 108 30 107 30C108.27 28.51 108 29 108 28C104.61 31.52 106 27 105 27C104.54 33.04 106 26 106 25C105.84 24.52 104 24 103 24C103.08 31.27 101 22 103 20C102.5 8.24001 98.0002 19 96.0002 19C94.2302 18.49 97.0002 17 97.0002 16C97.1502 25.28 94.0002 15 93.0002 15ZM207 45C206.94 45.17 206 46 206 46C208.71 51.3 208 49 208 51C210.16 40.22 207 52 207 52C206.54 52.97 205 51 204 51C206.43 57.75 205 55 206 57C203.65 58.38 203 55 202 54C202.38 60.48 203 56 203 57C202.63 57.82 201 57 201 57C198.37 64.84 201 64 201 64C202.01 70.26 198 63 197 63C200.66 77.19 198 70 195 72C191.34 77.29 193 71 192 70C194.21 71.67 192 75 192 75C192.81 75.33 189 72 189 72C188.61 63.14 189 79 189 79C189.43 74.26 187 76 186 76C185.03 80.19 184 80 184 83C181.86 82.82 180 81 179 83C180.1 83.62 180 86 180 88C173.6 78.46 177 88 175 89C177.35 78.95 175 93 175 93C173.41 95.26 172 91 171 93C168.45 101.18 173 95 170 98C169.92 103.9 173 99 173 99C171.03 91.03 172 103 171 105C170.09 100.77 174 104 175 103C172.43 99.02 175 105 175 105C177.44 112.71 179 105 179 105C176.87 106.75 180 104 180 103C179.13 108.33 181 104 182 104C182.48 114.47 182 102 182 102C182.13 102.98 187 100 188 97C188.36 100.57 189 99 192 96C191.34 82.88 193 86 197 82C197.99 91.23 196 80 196 79C198.33 85.96 198 79 198 79C196.5 81.82 197 76 197 75C198.72 74.03 200 75 200 75C200.2 75.07 199 73 199 72C197.28 80.35 203 72 203 72C199.26 71.15 201 69 200 68C202.42 62.67 203 68 203 68C199.93 63.45 202 65 201 64C202.61 63.09 204 64 204 64C205.87 71.15 203 62 203 61C205.34 59.52 205 60 206 60C203.49 62.41 205 59 205 58C204.52 63.81 206 56 208 55C207.88 52.54 207 51 206 49C207.14 57.01 209 49 209 49C211.58 37.59 211 46 207 45ZM40.0002 47C40.9002 49.11 43.0002 47 46.0002 46C51.2202 48.22 47.0002 49 47.0002 50C52.3602 41.74 50.0002 49 52.0002 48C51.8402 49.66 51.0002 51 50.0002 52C52.2302 55.2 53.0002 52 53.0002 52C50.9102 53.61 53.0002 54 53.0002 54C55.6002 58.69 58.0002 54 60.0002 53C58.4302 54.55 57.0002 55 59.0002 58C58.9202 60.27 65.0002 58 68.0002 60C70.1202 65.89 66.0002 63 65.0002 64C68.0202 70.86 68.0002 63 70.0002 63C64.8602 67.56 69.0002 65 68.0002 66C71.4302 67.13 75.0002 66 75.0002 66C76.2502 66.22 72.0002 69 72.0002 69C71.3902 64.03 73.0002 71 73.0002 71C75.2202 68.48 79.0002 71 79.0002 71C77.6002 75.15 77.0002 76 79.0002 77C80.7902 78.9 82.0002 76 84.0002 76C85.7102 76.07 83.0002 78 83.0002 79C80.2702 74.59 85.0002 80 86.0002 82C90.6502 74.23 88.0002 81 89.0002 80C87.0802 84.2 88.0002 84 92.0002 85C89.0402 89.84 93.0002 83 94.0002 83C93.3302 86.97 95.0002 84 96.0002 84C92.9402 77.28 96.0002 81 96.0002 81C95.0402 77.82 100 81 102 81C92.0102 77.32 100 77 99.0002 74C102.79 78.19 97.0002 72 96.0002 72C92.6902 72.18 97.0002 71 97.0002 70C90.0902 74.59 93.0002 67 91.0002 65C91.7502 72.05 89.0002 65 89.0002 65C86.0902 67 89.0002 62 89.0002 62C86.0002 61.73 84.0002 62 81.0002 62C82.0802 57.21 79.0002 61 78.0002 59C79.5402 65.89 76.0002 59 76.0002 59C79.6302 63.68 73.0002 56 73.0002 56C69.6702 58.57 71.0002 57 70.0002 57C71.6702 55.35 69.0002 55 69.0002 54C68.3202 55.72 67.0002 55 66.0002 56C63.3302 61.62 66.0002 53 66.0002 53C60.7502 53.1 63.0002 54 62.0002 54C65.7502 49.41 63.0002 51 63.0002 50C57.7802 48.61 60.0002 52 58.0002 53C60.5002 52.39 58.0002 50 58.0002 50C59.9102 55.49 55.0002 51 54.0002 51C56.0802 50.68 54.0002 49 54.0002 49C49.1002 51.29 52.0002 50 51.0002 50C49.2502 53.59 51.0002 48 50.0002 47C51.3702 46.69 46.0002 47 46.0002 47C47.7702 52.39 45.0002 45 45.0002 45C45.4502 36.99 42.0002 45 40.0002 47ZM241 98C238.9 98.11 238 92 236 103C240.28 105.18 234 104 233 101C235.42 95.88 232 105 231 107C230.85 106.64 230 104 229 103C231.26 107.14 228 105 228 106C224.87 107.58 227 105 226 105C226.61 108.62 223 111 223 111C222.42 111.54 220 108 220 108C214.85 116.18 219 113 216 115C219.17 119.79 215 114 215 114C215.04 120.73 214 115 213 115C208.79 117.49 212 112 212 111C214.48 114.11 211 114 210 116C210.27 115.22 209 114 208 113C206.38 109.14 206 116 205 118C206.25 114.53 204 116 203 115C202.62 116.11 199 117 198 120C196.79 120.86 197 117 196 116C196.74 117.09 192 115 192 121C187.21 115.68 190 120 188 121C190.71 114.36 187 120 186 120C185.07 122.16 186 124 186 124C179.98 127.75 182 122 181 123C179.3 127.9 183 126 179 127C179.89 122.41 178 130 178 133C178.99 128.86 182 136 185 136C182.94 133.37 187 135 188 134C191.85 139.09 190 136 190 136C187.64 134.16 195 134 197 133C195.05 135.52 198 131 199 131C200.76 137.92 200 133 201 133C200.04 133.97 206 131 205 126C206.98 126.7 210 123 213 123C216.12 118.3 214 120 215 119C216.57 125.76 218 119 218 119C221.68 123.59 218 116 218 116C216.63 118.52 220 117 221 117C223.71 115.36 222 114 222 113C222.32 113.71 225 116 225 116C222.28 121.52 225 110 225 110C220.68 110.1 227 112 227 112C230.81 107.48 228 109 228 108C225.73 105.65 230 109 231 105C234.54 104.4 232 106 233 106C235.96 110.39 234 104 234 103C237.11 101.68 236 101 238 103C235.03 103.25 240 100 241 98ZM111 95C110.81 95.13 109 93 109 93C116.02 96.58 107 96 106 96C110.4 87.56 103 93 103 91C103.59 92.76 101 94 100 95C104.24 96.72 101 91 100 90C95.0202 91.87 101 95 96.0002 89C96.1402 93.3 93.0002 91 91.0002 92C89.9202 90.65 91.0002 88 88.0002 88C79.2302 94.14 86.0002 91 85.0002 91C88.9502 96.69 80.0002 91 78.0002 86C78.9502 94.99 77.0002 89 76.0002 90C67.1202 93.14 75.0002 87 74.0002 86C80.5202 87.31 70.0002 90 70.0002 90C71.3802 89.26 70.0002 86 66.0002 87C62.8402 80.06 63.0002 89 62.0002 90C65.2202 86.07 61.0002 87 60.0002 87C61.0402 89.5 56.0002 85 54.0002 90C51.6002 90.21 50.0002 89 48.0002 89C50.2602 88.92 47.0002 91 46.0002 92C37.9002 85.87 45.0002 90 44.0002 89C49.9602 80.13 42.0002 89 40.0002 91C38.2502 93.56 38.0002 90 38.0002 90C29.4702 96.63 37.0002 93 36.0002 93C30.8102 97.62 33.0002 91 32.0002 90C25.1702 84.19 31.0002 93 30.0002 95C20.3602 90.47 22.0002 95 19.0002 97C11.4002 92.88 18.0002 96 18.0002 95C24.2002 104.04 14.0002 99 10.0002 98C2.71024 99.37 9.00024 100 8.00024 100C1.47024 104.18 7.00024 99 6.00024 98C5.43024 105.2 3.00024 99 1.00024 101C-2.53976 101.33 5.00024 97 8.00024 99C6.10024 101.01 9.00024 98 10.0002 98C15.9702 93.43 11.0002 102 16.0002 98C18.9302 106.01 16.0002 100 16.0002 100C22.9002 105.45 19.0002 97 19.0002 97C14.5602 100.99 20.0002 99 20.0002 100C26.0802 98.24 22.0002 99 23.0002 98C23.6002 99.84 22.0002 101 22.0002 102C18.9102 107.54 25.0002 99 27.0002 98C18.9102 98.12 27.0002 101 27.0002 101C34.1402 96.82 30.0002 98 30.0002 98C23.8802 95.22 30.0002 101 30.0002 101C35.7502 100.28 32.0002 100 33.0002 100C38.5402 106.39 33.0002 102 33.0002 102C37.9502 101.63 35.0002 101 36.0002 101C30.5702 104.67 37.0002 104 37.0002 105C37.5802 109.34 41.0002 102 43.0002 102C45.6102 101.64 43.0002 105 43.0002 105C46.3602 111.27 46.0002 105 46.0002 105C51.6602 97.84 48.0002 108 49.0002 109C44.5202 109.37 52.0002 108 53.0002 107C56.5702 114.79 53.0002 110 53.0002 110C51.0502 112.23 56.0002 108 57.0002 107C54.3002 111.25 56.0002 110 56.0002 111C55.2302 104.51 59.0002 110 60.0002 109C57.6602 104.1 59.0002 113 61.0002 115C65.5202 112.55 67.0002 111 67.0002 114C64.0702 116.18 70.0002 115 70.0002 118C78.6902 114.44 74.0002 117 75.0002 118C71.7602 111.34 74.0002 122 75.0002 123C70.6302 119.07 79.0002 123 79.0002 123C71.2802 122.51 78.0002 125 78.0002 126C79.7002 122.57 81.0002 126 81.0002 126C87.8402 131.32 81.0002 128 81.0002 128C81.0802 122.4 86.0002 126 88.0002 127C93.1102 119.63 87.0002 130 87.0002 131C88.1002 134.04 91.0002 130 92.0002 129C96.0702 133.92 93.0002 132 93.0002 133C99.8402 133.2 98.0002 126 102 129C104.28 120.87 99.0002 125 106 128C111.07 123.23 106 125 106 125C105.27 117.02 112 121 115 120C117.34 125.77 114 115 114 112C119.59 107.47 119 111 119 108C114.19 103.91 117 105 114 105C121.41 98.96 118 103 117 100C114.95 101.26 113 97 111 95ZM162 131C161.82 131.13 161 130 161 130C167.91 133.49 158 133 157 133C162.31 124.87 155 130 155 129C155.57 131.74 154 132 153 134C156.18 135.58 152 131 151 129C146.08 131.8 150 131 149 132C149.12 135.14 148 130 147 130C143.93 130.62 144 133 145 136C136.34 140.91 142 134 140 134C145.86 140.47 141 137 141 138C142.92 146.69 141 140 138 140C130.24 143.99 137 142 137 142C142.43 143.26 134 141 133 141C136.35 142.25 134 143 135 144C133.86 137.31 131 144 131 144C136.16 143.18 133 147 134 149C136 151.4 131 149 130 150C128.61 154.13 131 154 134 155C136.21 154.96 132 156 131 157C124.01 153.06 130 161 136 160C142.85 153.42 135 162 135 163C134.28 165.46 137 164 138 166C131.58 170.42 140 165 141 164C137.86 170.45 142 167 143 169C138.25 160.48 145 168 146 167C140.45 165.56 147 168 147 169C142.51 161 150 170 153 171C161.1 176.82 155 168 156 168C152.8 170.32 161 171 165 170C161.55 178.02 170 170 173 171C175.41 179.9 175 173 177 171C172.54 174.24 178 173 179 174C179.12 176.94 183 173 185 170C189.91 163.63 188 170 189 171C192.89 178.72 190 170 191 170C198.8 175.25 194 172 195 172C191.63 174.88 196 170 197 169C203.01 169.27 198 171 199 171C200.6 171.81 200 169 201 169C196.99 175.3 202 170 203 171C196.03 170.12 204 169 205 168C213.04 164.98 206 171 207 172C201.97 167.32 209 169 210 167C214.68 167.31 211 168 211 169C217.46 174.15 213 167 214 167C217.89 166.64 215 168 215 168C209.68 170.57 215 162 220 168C218.6 173.14 222 166 222 166C225.57 164.65 225 166 226 168C231.31 173.04 229 165 230 163C235.6 159.15 234 163 236 163C233.6 164.36 242 164 244 160C248.52 167.5 245 161 246 161C243.1 164.11 246 157 246 157C242.34 161.13 244 160 243 161C239.25 155.71 241 156 239 157C234.7 151.35 237 162 234 162C235.48 162.53 232 161 231 159C226.12 158.21 230 160 229 160C235.6 156.57 228 159 228 159C221.83 154.63 222 161 221 158C215.69 153.21 218 158 217 160C209.39 158.56 217 157 217 157C217.68 153.7 218 162 213 156C217.74 160.13 208 158 206 159C204.11 150.64 207 156 207 154C210.04 145.94 204 155 202 156C201.11 158.92 202 153 202 153C204.01 158.78 198 155 195 155C195.75 159.01 199 151 191 151C192.26 144.13 191 149 191 149C193.99 143.41 186 150 185 148C181.33 140.24 184 145 183 144C186.25 155.48 178 144 175 144C177.55 136.72 176 141 176 140C170.26 135.99 174 135 168 139C175.31 133.15 170 136 168 134C168.92 133.29 166 135 165 135C167.44 133.32 163 133 162 131ZM115 141C113.93 140.32 113 140 110 141C112 148.43 108 139 108 137C109.39 116.98 106 140 105 141C105.59 142.9 105 136 105 136C105.59 146.26 104 138 103 138C100.51 142.65 102 136 101 136C99.4302 146.69 98.0002 138 98.0002 141C96.6002 141.61 96.0002 139 94.0002 138C93.0902 157.28 91.0002 147 87.0002 146C90.2202 161.15 88.0002 149 89.0002 150C89.7302 169.88 85.0002 150 85.0002 150C83.0502 162.31 87.0002 153 88.0002 155C89.4402 158.26 86.0002 155 85.0002 156C84.8902 158.65 82.0002 159 86.0002 162C84.5702 144.71 84.0002 163 83.0002 163C85.5802 157.71 80.0002 166 85.0002 170C85.1402 176.22 84.0002 171 83.0002 171C84.8502 179.5 80.0002 175 84.0002 178C84.2202 175.31 81.0002 179 81.0002 181C78.3502 169.24 83.0002 182 83.0002 183C85.6002 164.4 81.0002 184 81.0002 185C80.3502 191.36 84.0002 188 84.0002 188C80.1802 202.01 81.0002 190 81.0002 191C84.8102 205.51 83.0002 199 85.0002 203C82.8202 183.55 83.0002 205 83.0002 205C83.8902 199.69 84.0002 209 86.0002 211C82.1602 204.24 85.0002 213 86.0002 215C88.6902 231.03 83.0002 217 84.0002 219C82.6502 224.41 88.0002 222 88.0002 223C86.9302 236.39 92.0002 229 89.0002 233C90.5402 254.42 91.0002 234 92.0002 235C89.9302 240.8 91.0002 237 91.0002 237C91.2902 243.01 93.0002 238 94.0002 239C95.4802 225.12 92.0002 241 92.0002 241C94.1002 261.95 94.0002 242 95.0002 243C96.5802 257.56 92.0002 244 91.0002 245C91.3402 253.44 94.0002 246 96.0002 247C97.9002 245.11 94.0002 249 94.0002 249C95.2302 252.09 97.0002 250 98.0002 251C96.1002 267.28 96.0002 253 96.0002 253C92.9702 253.3 98.0002 253 98.0002 253C100.67 242.6 96.0002 251 96.0002 251C93.7102 243.07 95.0002 249 98.0002 248C97.7802 245.22 95.0002 245 94.0002 243C97.0702 258.9 96.0002 242 96.0002 242C97.4802 239.07 97.0002 237 98.0002 235C95.2202 240.64 96.0002 232 95.0002 231C94.4702 244.29 97.0002 231 97.0002 231C96.9802 229.1 95.0002 228 94.0002 227C95.2602 242.61 98.0002 227 98.0002 227C98.7402 205.7 95.0002 225 94.0002 224C93.9502 223.92 99.0002 223 99.0002 221C100.34 239.39 94.0002 216 97.0002 214C95.9002 222.03 99.0002 214 99.0002 214C99.0002 219.08 99.0002 209 99.0002 206C99.3402 190.33 102 205 103 205C103.13 186.82 103 202 102 201C102.94 202.37 105 201 105 201C105.53 195.95 108 194 105 191C108.5 182.14 108 192 109 192C107.42 170.94 109 189 108 187C107.36 177.21 111 188 112 188C108.11 182.28 108 184 111 181C111.64 172.47 115 181 115 181C117.56 194.25 115 179 115 179C114.28 162.56 118 179 118 179C116.91 156.16 119 175 118 173C119.66 181.56 122 173 123 171C124.52 178.76 120 168 121 166C124.18 176.94 121 162 125 162C124.48 142.24 128 156 120 155C122.9 142.12 122 152 122 150C116.61 137.12 120 148 118 146C120.37 165.33 115 146 115 146C114.97 128.76 115 143 115 141ZM66.0002 123C64.9102 123.11 65.0002 122 64.0002 122C67.0402 125.24 63.0002 125 62.0002 126C64.2202 118.68 59.0002 124 58.0002 123C57.8002 125.66 57.0002 126 56.0002 128C57.1302 130.22 55.0002 125 54.0002 124C52.0002 126.62 53.0002 126 53.0002 127C52.5702 130.72 52.0002 126 51.0002 126C48.4602 127.56 48.0002 129 48.0002 131C42.0902 135.32 44.0002 129 43.0002 130C44.9902 136.93 44.0002 135 42.0002 136C41.9802 142.92 39.0002 134 38.0002 138C33.0402 140.59 36.0002 137 35.0002 136C38.2802 137.14 35.0002 141 35.0002 141C35.2002 140.22 33.0002 140 32.0002 139C30.4202 134.98 30.0002 143 30.0002 145C31.1202 141.46 30.0002 141 26.0002 144C26.5302 148.17 25.0002 148 24.0002 150C20.8002 149.92 20.0002 150 18.0002 151C18.6402 151.06 18.0002 154 18.0002 156C13.4302 151.56 16.0002 155 16.0002 155C17.5002 150.17 12.0002 158 12.0002 162C11.1202 164.22 9.00024 162 9.00024 162C6.21024 166.88 12.0002 165 13.0002 159C12.4002 163.01 14.0002 160 15.0002 160C12.0702 151.23 16.0002 157 16.0002 155C14.1602 152.8 18.0002 156 19.0002 157C16.1802 152.3 20.0002 153 21.0002 153C27.6202 157.24 27.0002 150 29.0002 148C25.8302 149.19 31.0002 150 31.0002 150C27.2202 149.62 33.0002 148 35.0002 146C36.7202 154.11 37.0002 148 39.0002 146C36.2102 149.02 39.0002 149 42.0002 148C43.0402 148.74 45.0002 144 46.0002 143C51.0002 137.17 51.0002 143 54.0002 143C55.4802 149.95 55.0002 141 55.0002 140C58.4702 144.72 57.0002 142 57.0002 142C54.7702 143.59 58.0002 140 58.0002 139C60.5602 138.34 60.0002 141 60.0002 141C60.3002 140.73 61.0002 139 61.0002 138C58.4402 143.67 64.0002 141 64.0002 141C59.9302 141.1 64.0002 136 64.0002 136C68.5902 132.38 65.0002 137 66.0002 137C62.9202 133.59 65.0002 135 65.0002 134C67.3902 133.38 68.0002 134 68.0002 134C70.7902 138.54 67.0002 133 67.0002 132C71.9902 129.68 67.0002 127 68.0002 124C63.2602 126.31 67.0002 125 66.0002 125C65.2802 129.63 66.0002 123 66.0002 123ZM159 176C157.9 176.11 158 175 157 175C161.22 183.15 153 178 150 177C154.36 170.96 151 180 152 181C150.84 180.64 148 180 146 179C148.23 184.1 152 179 146 184C145.91 186.56 150 186 152 186C151.6 190.58 150 188 150 190C152.43 189.54 157 190 158 193C153.92 199.11 157 196 157 197C161.12 201.74 160 196 161 196C162.02 202.65 161 199 161 199C158.86 203.45 165 199 167 198C170.43 200.09 165 201 169 202C172.25 202.22 173 202 175 201C174.39 196.21 174 203 174 204C178.22 202.56 177 208 182 204C183.6 210.08 186 208 190 207C189.79 208.84 190 210 190 210C192.71 210.1 193 211 195 210C191.27 206.73 196 212 196 212C200.65 205.44 199 211 200 210C199.08 213.13 200 213 201 214C200.04 216.69 206 211 208 214C204.33 218.85 204 211 202 213C198.94 206.49 202 211 202 211C196.04 209.89 196 210 195 207C191.01 204.4 193 207 193 207C196.79 211.03 194 205 194 204C188.69 203.14 189 204 186 203C180.09 205.48 183 199 181 196C181.75 202.83 178 196 178 196C175.09 196.94 179 195 179 194C178 195.68 175 194 175 194C178.08 188.36 176 192 177 191C178.54 197.68 173 191 173 191C176.63 195.54 176 188 176 188C171.67 190.49 172 189 170 189C173.67 187.37 171 187 172 186C171.32 186.7 169 187 168 187C165.33 191.45 169 185 169 184C164.75 184.1 166 184 166 184C169.75 179.52 167 183 167 182C160.78 180.68 163 180 163 178C165.5 177.4 156 178 156 178C159.91 182.32 158 177 159 176ZM74.0002 153C73.9402 153.18 72.0002 153 72.0002 153C73.5502 157.52 71.0002 156 70.0002 157C70.0302 146.5 67.0002 156 66.0002 155C66.5002 158.04 67.0002 159 67.0002 161C68.3502 166.06 63.0002 157 63.0002 157C61.7402 159.54 63.0002 161 63.0002 161C63.3602 166.85 60.0002 161 60.0002 161C58.6602 163.88 60.0002 165 61.0002 167C57.5302 174.36 58.0002 165 56.0002 167C61.8902 177.74 57.0002 174 55.0002 177C54.6202 187.87 53.0002 176 52.0002 176C50.5002 182.64 53.0002 179 54.0002 180C56.0702 181.78 50.0002 180 50.0002 180C51.7602 182.35 51.0002 184 52.0002 186C50.6302 176.54 49.0002 184 48.0002 188C49.3402 186.01 48.0002 192 49.0002 194C46.9602 196.4 46.0002 195 45.0002 197C44.8702 201.01 46.0002 200 47.0002 201C44.0302 198.53 44.0002 203 43.0002 205C40.7502 199.02 44.0002 208 45.0002 209C46.2102 198.28 41.0002 208 41.0002 210C40.4502 215.48 43.0002 214 41.0002 217C38.6102 222.66 40.0002 213 41.0002 212C39.9902 218.29 45.0002 212 45.0002 212C39.1502 197.36 45.0002 205 47.0002 202C45.2102 198.55 47.0002 199 47.0002 199C45.5902 194.76 48.0002 200 49.0002 200C50.2902 204.22 53.0002 195 54.0002 192C53.0002 193.87 55.0002 193 56.0002 193C58.2502 196.69 56.0002 187 59.0002 184C61.4502 193.17 62.0002 181 65.0002 182C63.2402 185.17 65.0002 179 65.0002 179C65.4002 181.74 66.0002 180 67.0002 180C68.2602 172.41 67.0002 176 67.0002 176C68.9302 187.91 69.0002 177 70.0002 178C72.1902 184.42 69.0002 175 69.0002 174C68.5902 179.07 72.0002 175 73.0002 176C73.6102 172.97 72.0002 173 71.0002 171C72.1902 172.14 73.0002 172 74.0002 172C72.3902 179.91 73.0002 170 73.0002 169C70.4302 169.16 75.0002 169 75.0002 169C77.2702 163.31 75.0002 166 75.0002 166C73.0602 162.21 78.0002 166 78.0002 166C79.5102 164.03 77.0002 165 77.0002 164C78.7602 170.7 78.0002 160 78.0002 159C78.2502 157.49 75.0002 158 73.0002 158C70.6402 159.63 74.0002 155 74.0002 153ZM128 185C126.94 185.17 127 184 126 184C127.72 188.3 125 187 124 188C124.17 177.22 121 186 119 185C120.54 187.97 121 188 122 190C121.44 193.75 118 189 116 188C115.65 191.38 117 190 118 191C117.39 196.48 117 192 116 192C115.63 193.82 117 193 117 194C115.37 202.84 120 195 121 196C122.02 204.26 117 194 118 199C119.66 210.19 123 200 123 202C119.33 209.29 126 205 122 208C125.21 209.67 125 209 126 209C125.81 210.33 125 211 124 212C125.61 204.14 128 213 130 213C130.43 210.26 126 215 129 218C132.03 222.19 133 220 135 220C134.86 222.82 133 222 133 222C135.1 222.62 136 226 140 226C137.59 220.46 139 227 139 228C142.36 217.95 141 228 141 231C141.41 235.26 144 232 145 232C141.45 240.18 143 235 144 236C143.92 242.9 147 236 148 237C146.02 227.03 148 239 148 239C146.09 235.77 152 239 152 239C150.42 236.02 152 242 151 243C153.44 250.71 156 243 156 243C153.87 245.75 155 244 154 244C150.13 248.33 152 240 150 240C150.49 249.47 151 239 151 238C148.12 240.98 148 238 148 237C146.35 237.57 147 232 145 230C147.35 222.88 148 230 147 227C147 235.23 144 225 141 224C143.34 230.96 140 223 140 222C138.5 225.82 141 221 141 221C141.72 219.03 140 218 140 217C140.2 218.07 141 216 141 216C138.27 223.35 139 215 138 214C136.26 214.15 139 213 140 213C141.42 206.67 138 212 137 211C134.93 207.45 139 209 139 209C139.61 208.09 137 208 136 208C139.88 215.15 139 207 141 206C140.34 204.52 137 205 135 204C133.48 207.41 137 203 138 203C136.52 209.81 135 202 134 202C135.88 200.54 136 201 136 200C137.14 207.01 134 199 134 198C135.58 186.59 135 197 136 196C130.14 196.47 133 192 134 190C133.21 198.94 130 189 128 189C127 193.12 128 185 128 185Z" fill="black"/>
</svg>
