<svg width="254" height="266" viewBox="0 0 254 266" fill="none" xmlns="http://www.w3.org/2000/svg">
<path d="M129.463 5.50847C129.293 9.64847 126.933 8.86847 126.933 8.86847C126.143 15.4285 130.393 11.0685 130.393 11.0685C130.593 1.73848 129.443 12.6985 129.443 12.6985C128.473 2.09847 126.333 13.9985 126.333 13.9985C126.553 10.8985 130.733 16.4285 130.733 16.4285C128.873 30.4685 125.513 17.3585 125.513 17.3585C124.983 22.8085 127.563 19.4585 127.563 19.4585C126.093 3.25848 125.243 20.8185 125.243 20.8185C127.063 14.1385 126.133 22.7385 126.133 22.7385C128.173 9.64848 128.773 25.0085 128.773 25.0085C129.883 33.9285 125.513 26.1585 125.513 26.1585C124.053 18.6985 124.043 27.6385 124.043 27.6385C124.043 25.0685 127.353 30.0885 127.353 30.0885C125.303 28.1785 127.813 31.9785 127.813 31.9785C126.483 48.3685 126.173 33.4185 126.173 33.4185C124.903 30.9685 126.173 35.2085 126.173 35.2085C126.453 35.8585 122.013 36.0785 122.013 36.0785C120.803 36.9385 125.433 38.6385 125.433 38.6385C125.423 49.8285 121.403 39.5085 121.403 39.5085C123.253 25.9185 122.663 41.5885 122.663 41.5885C122.783 59.0285 125.173 43.9785 125.173 43.9785C125.453 60.5785 121.163 44.8185 121.163 44.8185C122.323 45.7285 120.473 46.4485 120.473 46.4485C119.873 42.4785 121.113 48.4085 121.113 48.4085C119.223 64.0585 123.353 50.7685 123.353 50.7685C123.013 48.4385 119.443 51.5985 119.443 51.5985C120.303 56.5285 119.163 53.3285 119.163 53.3285C121.013 67.6985 118.543 54.9685 118.543 54.9685C119.003 52.8685 121.223 57.4485 121.223 57.4485C120.053 45.1585 118.593 58.5785 118.593 58.5785C117.583 68.5485 118.843 60.4485 118.843 60.4485C120.673 57.0785 117.163 61.8185 117.163 61.8185C116.153 76.0685 119.743 64.2885 119.743 64.2885C120.243 57.9185 116.493 65.2485 116.493 65.2485C117.853 68.6285 114.973 66.6585 114.973 66.6585C113.943 62.4285 116.663 68.9085 116.663 68.9085C114.783 65.4385 114.563 70.1785 114.563 70.1785C116.223 78.8285 117.143 72.6485 117.143 72.6485C117.263 83.7085 114.853 73.8685 114.853 73.8685C115.493 78.6685 112.663 75.1185 112.663 75.1185C113.003 74.9685 116.153 77.7985 116.153 77.7985C117.743 81.1285 114.833 79.2685 114.833 79.2685C113.563 72.7885 114.123 80.8885 114.123 80.8885C112.623 67.5885 113.623 82.5585 113.623 82.5585C115.633 91.9285 112.903 84.1785 112.903 84.1785C111.393 78.4585 113.883 86.1885 113.883 86.1885C113.883 88.8685 111.363 87.3985 111.363 87.3985C109.603 69.4385 112.803 89.4885 112.803 89.4885C112.093 97.4685 111.663 91.0185 111.663 91.0185C112.383 98.7585 111.643 92.7785 111.643 92.7785C111.563 106.688 110.023 94.2485 110.023 94.2485C109.353 95.8585 110.923 96.1585 110.923 96.1585C110.963 108.068 108.003 97.4985 108.003 97.4985C108.933 108.588 107.563 99.2585 107.563 99.2585C107.903 81.4685 108.543 101.138 108.543 101.138C106.423 97.9785 111.533 102.928 111.533 102.928C110.113 103.968 111.473 104.388 111.473 104.388C110.523 99.7085 111.033 106.048 111.033 106.048C112.823 118.838 112.053 107.338 112.053 107.338C111.843 125.138 111.623 109.358 111.623 109.358C111.043 109.678 111.833 111.308 111.833 111.308C112.983 100.238 114.833 111.008 114.833 111.008C112.693 98.1785 114.473 113.708 114.473 113.708C115.443 123.398 117.343 112.798 117.343 112.798C116.893 95.4485 117.063 116.188 117.063 116.188C115.483 119.378 119.833 114.638 119.833 114.638C121.143 113.758 119.613 119.448 119.613 119.448C118.983 136.108 122.823 115.558 122.823 115.558C121.003 111.568 123.703 118.808 123.703 118.808C122.983 100.678 125.873 116.308 125.873 116.308C124.613 106.238 127.263 119.008 127.263 119.008C127.303 106.448 129.033 117.128 129.033 117.128C128.503 119.418 130.843 119.758 130.843 119.758C129.553 131.708 132.453 118.138 132.453 118.138C133.863 128.638 134.253 118.398 134.253 118.398C134.473 106.658 136.523 119.898 136.523 119.898C136.203 133.488 137.753 117.768 137.753 117.768C138.453 107.458 138.343 114.898 138.343 114.898C137.143 127.038 141.103 116.418 141.103 116.418C143.023 134.098 142.563 115.338 142.563 115.338C144.303 128.748 143.823 114.038 143.823 114.038C143.213 100.868 146.293 113.888 146.293 113.888C146.073 121.878 147.413 112.278 147.413 112.278C147.663 121.338 148.933 110.908 148.933 110.908C150.263 103.158 147.413 108.048 147.413 108.048C147.893 107.128 150.053 107.038 150.053 107.038C148.033 89.8685 146.873 104.558 146.873 104.558C146.093 88.4685 150.423 103.088 150.423 103.088C150.763 90.9085 146.913 101.448 146.913 101.448C148.123 93.4985 147.833 99.6885 147.833 99.6885C146.843 90.1285 149.903 97.6885 149.903 97.6885C148.893 88.0185 150.563 95.7885 150.563 95.7885C151.063 79.1285 146.403 94.6785 146.403 94.6785C144.263 82.9385 145.623 93.0685 145.623 93.0685C147.573 92.3685 145.933 91.2585 145.933 91.2585C147.963 100.568 147.563 89.1585 147.563 89.1585C146.153 82.6685 146.453 87.6085 146.453 87.6085C145.563 100.038 146.883 85.7285 146.883 85.7285C146.533 84.8585 145.193 84.3285 145.193 84.3285C144.423 96.4485 143.923 82.8385 143.923 82.8385C144.353 91.3985 144.223 80.9785 144.223 80.9785C142.153 85.6585 146.263 78.6985 146.263 78.6985C144.183 80.8785 144.983 77.2085 144.983 77.2085C145.833 62.7485 143.063 75.8785 143.063 75.8785C140.943 92.0485 145.353 73.5185 145.353 73.5185C146.483 68.0485 143.663 72.1385 143.663 72.1385C145.463 84.6085 144.473 70.1385 144.473 70.1385C144.493 68.5585 143.543 68.5685 143.543 68.5685C142.483 59.8585 141.233 67.3485 141.233 67.3485C141.473 54.0085 139.003 66.1085 139.003 66.1085C138.283 65.7685 142.823 63.3485 142.823 63.3485C141.123 79.8285 141.253 61.9485 141.253 61.9485C140.573 62.3485 138.993 60.7185 138.993 60.7185C138.863 58.3785 141.813 58.2185 141.813 58.2185C139.943 45.4385 137.783 57.4285 137.783 57.4285C136.063 71.9885 137.333 55.7385 137.333 55.7385C135.973 73.1785 136.453 54.1585 136.453 54.1585C136.953 41.6885 137.433 52.1185 137.433 52.1185C137.313 50.9785 138.543 50.0585 138.543 50.0585C140.683 33.6785 136.723 48.6985 136.723 48.6985C137.713 49.3485 138.453 46.4985 138.453 46.4985C138.373 61.9085 136.463 45.1785 136.463 45.1785C137.733 54.6385 135.853 43.5285 135.853 43.5285C134.863 59.0685 135.053 41.9185 135.053 41.9185C135.013 52.4285 136.323 39.8385 136.323 39.8385C137.073 37.0385 136.423 38.0385 136.423 38.0385C137.893 48.4485 136.543 36.2285 136.543 36.2285C137.613 26.0785 132.723 35.2585 132.723 35.2585C132.333 38.0985 132.093 33.5985 132.093 33.5985C130.043 50.4585 131.713 31.8885 131.713 31.8885C129.883 38.2385 131.323 30.1785 131.323 30.1785C131.063 27.2485 134.513 27.7685 134.513 27.7685C132.953 20.2685 134.243 26.0485 134.243 26.0485C132.343 9.41848 134.133 24.2985 134.133 24.2985C132.213 40.7185 133.323 22.6785 133.323 22.6785C134.063 20.7085 129.213 21.6185 129.213 21.6185C129.923 23.7085 132.423 19.3085 132.423 19.3085C133.993 7.06847 132.823 17.4885 132.823 17.4885C131.803 24.4285 130.603 16.0685 130.603 16.0685C131.283 16.1685 131.233 14.2185 131.233 14.2185C130.503 29.4085 131.083 12.4885 131.083 12.4885C130.293 18.3585 128.613 11.0485 128.613 11.0485C127.783 22.6885 130.483 9.06848 130.483 9.06848C130.053 -9.01152 129.413 5.52847 129.413 5.52847C128.173 12.8785 129.463 5.50847 129.463 5.50847ZM68.4426 31.9385C68.3026 34.0385 68.7226 33.6985 68.7226 33.6985C68.0526 37.0285 72.8226 33.8385 72.8226 33.8385C72.9926 29.0885 72.8226 35.7185 72.8226 35.7185C71.9926 30.3285 70.8226 38.4285 70.8226 38.4285C71.0026 36.8485 75.8526 38.2385 75.8526 38.2385C74.2726 45.3785 71.8726 41.7285 71.8726 41.7285C71.4226 44.4985 74.7126 42.4485 74.7126 42.4485C73.4726 34.2085 73.4426 44.8085 73.4426 44.8085C74.9826 41.4085 75.2026 45.9685 75.2026 45.9685C76.9226 39.3085 78.6326 46.5085 78.6326 46.5085C79.5726 51.0485 76.4526 49.1885 76.4526 49.1885C75.2126 45.3985 75.9726 51.1985 75.9726 51.1985C75.9726 49.8885 80.0726 51.5385 80.0726 51.5385C78.3326 50.5685 81.4526 52.8985 81.4526 52.8985C80.3226 61.2385 80.8026 54.9785 80.8026 54.9785C79.7226 53.7285 81.7126 56.5085 81.7126 56.5085C81.9426 56.8385 78.5926 59.3685 78.5926 59.3685C77.5726 59.8085 82.8326 59.8085 82.8326 59.8085C82.8326 65.4985 79.7826 62.5685 79.7826 62.5685C81.3526 55.6585 81.9126 63.7185 81.9126 63.7185C82.0126 72.5885 85.2826 64.5285 85.2826 64.5285C85.5226 72.9685 82.2026 67.2285 82.2026 67.2285C83.1926 67.6885 82.4126 68.9685 82.4126 68.9685C81.9026 66.9485 83.9526 70.3285 83.9526 70.3285C82.3526 78.2885 87.0726 71.1185 87.0726 71.1185C86.7926 69.9385 84.2626 73.9385 84.2626 73.9385C84.9826 76.4485 85.1126 75.5285 85.1126 75.5285C86.6826 82.8385 85.7726 77.2285 85.7726 77.2285C86.1626 76.1585 89.3926 77.0985 89.3926 77.0985C88.4026 70.8485 88.2826 79.6885 88.2826 79.6885C87.4226 84.7585 89.7726 80.7585 89.7726 80.7585C91.3226 79.0485 89.6426 82.8885 89.6426 82.8885C88.7826 90.1385 93.1226 82.3385 93.1226 82.3385C93.5426 79.0985 92.0026 85.4685 92.0026 85.4685C93.1526 87.1885 92.6426 87.5485 92.6426 87.5485C91.7726 85.3985 95.3426 86.6585 95.3426 86.6585C93.7526 84.8985 96.5326 88.8385 96.5326 88.8385C97.9426 93.2385 98.2326 85.8085 98.2326 85.8085C98.3326 91.4385 100.113 87.3085 100.113 87.3085C100.653 89.7485 102.563 88.1485 102.563 88.1485C102.853 88.0685 101.643 83.8985 101.643 83.8985C102.993 85.5985 103.213 83.5885 103.213 83.5885C102.133 80.2885 104.143 82.5085 104.143 82.5085C102.873 75.7485 104.543 81.0985 104.543 81.0985C106.243 85.8585 104.833 79.5385 104.833 79.5385C103.553 76.6285 103.153 78.3185 103.153 78.3185C103.153 79.6785 104.733 76.1085 104.733 76.1085C103.243 66.9685 102.393 75.2885 102.393 75.2885C101.793 79.3485 102.413 73.4585 102.413 73.4585C103.023 77.3985 101.353 72.1385 101.353 72.1385C101.283 79.2085 101.703 70.0285 101.703 70.0285C101.133 70.8485 99.8226 69.1485 99.8226 69.1485C99.8626 75.2085 101.193 66.2385 101.193 66.2385C101.983 71.8785 100.283 64.5985 100.283 64.5985C100.573 55.5485 98.2626 63.9285 98.2626 63.9285C96.4726 62.3185 94.8426 64.6885 94.8426 64.6885C93.6426 65.2185 93.8026 63.3285 93.8026 63.3285C92.9926 60.9485 93.1926 61.5385 93.1926 61.5385C94.7126 68.0485 91.6226 60.6385 91.6226 60.6385C91.4426 69.6885 91.3926 58.4985 91.3926 58.4985C90.9026 58.6585 90.8926 56.6285 90.8926 56.6285C91.8626 50.9985 87.8626 57.0185 87.8626 57.0185C86.0526 50.4885 88.3426 54.2885 88.3426 54.2885C89.1626 59.2185 85.3026 54.6285 85.3026 54.6285C84.9226 45.8085 86.4526 51.3885 86.4526 51.3885C85.1126 53.0085 83.2726 51.7985 83.2726 51.7985C84.3826 51.3485 85.6326 47.6185 85.6326 47.6185C85.0926 56.0885 80.8726 49.2685 80.8726 49.2685C79.3326 47.2385 82.0726 46.0885 82.0726 46.0885C81.4626 36.8685 78.7626 46.4985 78.7626 46.4985C77.6926 41.3785 79.6826 43.5685 79.6826 43.5685C79.7126 37.1785 77.0826 43.3885 77.0826 43.3885C76.6326 44.5585 78.1526 40.3885 78.1526 40.3885C77.0526 46.4685 75.9526 39.8985 75.9526 39.8985C77.1426 45.2385 75.3626 38.1785 75.3626 38.1785C75.5526 32.2085 75.9426 35.5885 75.9426 35.5885C75.6726 42.4985 73.6126 35.1685 73.6126 35.1685C74.2026 29.9185 70.6526 35.1985 70.6526 35.1985C69.6426 41.3685 71.7726 32.2285 71.7726 32.2285C73.4026 41.2185 70.1626 30.6585 70.1626 30.6585C71.6426 37.4785 68.4826 31.9585 68.4826 31.9585C67.9726 25.2585 68.4426 31.9385 68.4426 31.9385ZM187.023 30.4785C186.873 32.5685 185.653 31.6085 185.653 31.6085C184.963 34.9285 187.613 35.2085 187.613 35.2085C187.793 30.4885 186.003 36.1685 186.003 36.1685C185.153 30.7985 182.653 35.8085 182.653 35.8085C182.843 34.2385 185.373 40.0385 185.373 40.0385C183.743 47.1485 180.353 38.3685 180.353 38.3685C179.893 41.1285 181.173 41.1785 181.173 41.1785C179.893 32.9785 178.503 41.2785 178.503 41.2785C180.093 37.8985 178.393 43.3785 178.393 43.3785C180.173 36.7585 179.673 46.6085 179.673 46.6085C180.643 51.1285 176.263 46.0785 176.263 46.0785C174.983 42.3085 174.283 46.6785 174.283 46.6785C174.283 45.3785 176.063 50.3885 176.063 50.3885C174.273 49.4185 175.593 52.2685 175.593 52.2685C174.433 60.5685 173.473 52.7585 173.473 52.7585C172.363 51.5185 172.613 54.3185 172.613 54.3185C172.853 54.6485 168.573 53.0685 168.573 53.0685C167.513 53.4985 170.343 56.9485 170.343 56.9485C170.343 62.6185 166.423 55.7085 166.423 55.7085C168.043 48.8285 166.513 58.1185 166.513 58.1185C166.623 66.9385 167.513 61.4385 167.513 61.4385C167.763 69.8385 163.633 60.1485 163.633 60.1485C164.653 60.6085 162.243 61.1985 162.243 61.1985C161.713 59.1885 161.853 63.2085 161.853 63.2085C160.203 71.1285 162.753 66.2985 162.753 66.2985C162.463 65.1185 158.903 65.2985 158.903 65.2985C159.653 67.7985 157.963 66.8385 157.963 66.8385C159.583 74.1085 156.833 68.2585 156.833 68.2585C157.233 67.1985 158.773 71.3185 158.773 71.3185C157.753 65.0985 155.973 71.6785 155.973 71.6785C155.083 76.7185 155.803 73.5085 155.803 73.5085C157.403 71.7985 153.903 74.4785 153.903 74.4785C153.023 81.6885 156.133 77.2085 156.133 77.2085C156.563 73.9785 152.873 77.8385 152.873 77.8385C154.063 79.5485 151.403 79.4485 151.403 79.4485C150.503 77.3085 153.533 81.3385 153.533 81.3385C151.883 79.5785 152.243 83.4685 152.243 83.4685C153.693 87.8485 155.723 83.4385 155.723 83.4385C155.823 89.0385 155.353 85.8185 155.353 85.8185C155.913 88.2485 155.833 88.3685 155.833 88.3685C156.133 88.2885 159.073 85.4685 159.073 85.4685C160.463 87.1585 160.103 86.6785 160.103 86.6785C158.993 83.3985 161.493 86.9385 161.493 86.9385C160.183 80.2085 162.903 86.5785 162.903 86.5785C164.663 91.3185 164.393 86.0385 164.393 86.0385C163.073 83.1485 164.593 83.9685 164.593 83.9685C164.593 85.3185 167.293 84.2185 167.293 84.2185C165.753 75.1285 166.803 81.7885 166.803 81.7885C166.183 85.8285 168.383 80.8785 168.383 80.8785C169.013 84.7985 168.983 79.2985 168.983 79.2985C168.913 86.3385 170.983 78.5285 170.983 78.5285C170.393 79.3385 170.783 76.4685 170.783 76.4685C170.823 82.4985 173.993 76.1685 173.993 76.1685C174.803 81.7785 174.943 74.5585 174.943 74.5585C175.243 65.5585 174.493 72.4785 174.493 72.4785C172.643 70.8785 172.113 69.9085 172.113 69.9085C170.873 70.4385 172.763 68.3285 172.763 68.3285C171.933 65.9585 173.993 66.8985 173.993 66.8985C175.563 73.3685 173.973 65.0785 173.973 65.0785C173.793 74.0885 175.703 63.7885 175.703 63.7885C175.193 63.9485 177.063 62.3985 177.063 62.3985C178.073 56.7985 175.193 59.9785 175.193 59.9785C173.323 53.4885 177.793 59.0085 177.793 59.0085C178.633 63.9085 175.963 56.5485 175.963 56.5485C175.573 47.7685 179.343 55.8885 179.343 55.8885C177.963 57.4985 177.383 53.3485 177.383 53.3485C178.523 52.8985 182.183 53.2685 182.183 53.2685C181.633 61.6985 178.353 49.9985 178.353 49.9985C176.763 47.9785 181.703 49.4185 181.703 49.4185C181.073 40.2485 179.673 46.7685 179.673 46.7685C178.573 41.6685 182.663 46.0785 182.663 46.0785C182.693 39.7185 181.503 43.7485 181.503 43.7485C181.033 44.9085 184.633 43.1485 184.633 43.1485C183.503 49.1985 183.943 40.9985 183.943 40.9985C185.173 46.3085 185.123 39.6185 185.123 39.6185C185.313 33.6785 187.653 38.8085 187.653 38.8085C187.373 45.6885 186.833 36.5785 186.833 36.5785C187.443 31.3585 185.313 34.0385 185.313 34.0385C184.263 40.1785 188.443 33.4985 188.443 33.4985C190.123 42.4485 188.983 31.3185 188.983 31.3185C190.503 38.0985 187.013 30.5285 187.013 30.5285C186.483 23.8585 187.013 30.4785 187.013 30.4785H187.023ZM25.5826 76.2785C25.3526 77.6685 26.7426 77.6985 26.7426 77.6985C25.6526 79.8985 30.4126 75.8085 30.4126 75.8085C30.6926 72.6785 31.4026 77.4685 31.4026 77.4685C30.0726 73.9085 31.0526 80.8485 31.0526 80.8485C31.3526 79.8085 35.3626 78.2085 35.3626 78.2085C32.8126 82.9185 33.6926 83.2485 33.6926 83.2485C32.9726 85.0785 36.5626 82.4885 36.5626 82.4885C34.5626 77.0485 36.6826 85.1985 36.6826 85.1985C39.1626 82.9585 38.8326 85.3685 38.8326 85.3685C41.6226 80.9785 42.1226 84.1685 42.1226 84.1685C43.6426 87.1685 41.6026 87.6085 41.6026 87.6085C39.6026 85.1085 42.2226 89.6385 42.2226 89.6385C42.2226 88.7785 46.0026 87.9385 46.0026 87.9385C43.1926 87.2985 47.9226 88.4785 47.9226 88.4785C46.1026 93.9785 48.4326 90.6485 48.4326 90.6485C46.6926 89.8285 50.0226 91.5685 50.0226 91.5685C50.4026 91.7885 48.7626 95.6385 48.7626 95.6385C47.1126 95.9285 52.7126 93.9685 52.7126 93.9685C52.6926 97.7285 51.4626 97.9185 51.4626 97.9185C53.9926 93.3585 53.9226 97.9185 53.9226 97.9185C54.0926 103.768 57.2926 96.9885 57.2926 96.9885C57.6826 102.558 56.0026 100.888 56.0026 100.888C57.5926 101.198 57.1026 102.338 57.1026 102.338C56.2726 101.008 59.1726 102.768 59.1726 102.768C56.5926 108.028 62.2626 101.808 62.2626 101.808C61.8026 101.028 61.4926 105.728 61.4926 105.728C62.6626 107.388 63.1526 106.608 63.1526 106.608C65.6826 111.438 64.6426 107.708 64.6426 107.708C65.2626 106.998 67.8126 105.818 67.8126 105.818C66.2126 101.688 68.3426 108.668 68.3426 108.668C66.9526 112.018 70.3026 108.818 70.3026 108.818C72.8126 107.688 71.5626 110.698 71.5626 110.698C70.1826 115.478 74.0726 108.168 74.0726 108.168C74.7526 106.028 75.4426 111.228 75.4426 111.228C77.3126 112.358 77.7526 112.038 77.7526 112.038C76.3426 110.618 78.6926 109.198 78.6926 109.198C76.1126 108.038 81.2726 109.158 81.2726 109.158C83.5526 112.068 79.7726 105.898 79.7726 105.898C79.9326 109.608 82.1726 105.308 82.1726 105.308C83.0526 106.918 84.3826 103.868 84.3826 103.868C84.8426 103.818 80.3526 102.288 80.3526 102.288C82.5326 103.408 80.8626 100.838 80.8626 100.838C79.1226 98.6585 80.3626 99.4285 80.3626 99.4285C78.3126 94.9685 79.4126 98.1885 79.4126 98.1885C82.1626 101.338 78.4326 96.8485 78.4326 96.8485C76.3626 94.9285 76.2926 96.9885 76.2926 96.9885C76.2926 97.8885 76.1726 94.2485 76.1726 94.2485C73.7726 88.2185 73.7726 94.9185 73.7726 94.9185C72.8026 97.5985 72.7626 93.3685 72.7626 93.3685C73.7526 95.9685 71.1526 92.7885 71.1526 92.7885C71.0426 97.4585 70.2326 90.7885 70.2326 90.7885C69.3126 91.3285 68.1326 91.1785 68.1326 91.1785C68.1926 95.1785 67.3826 88.0285 67.3826 88.0285C68.6526 91.7485 65.7126 87.2485 65.7126 87.2485C66.1826 81.2785 63.6626 87.8085 63.6626 87.8085C60.7726 86.7485 61.0726 90.2185 61.0726 90.2185C59.1326 90.5685 59.4026 89.5485 59.4026 89.5485C58.0926 87.9785 57.9226 88.2685 57.9226 88.2685C60.3726 92.5685 56.0526 88.2285 56.0526 88.2285C55.7726 94.2085 54.7526 86.4485 54.7526 86.4485C53.9626 86.5585 53.3526 85.0285 53.3526 85.0285C54.9226 81.3085 50.8426 86.8185 50.8426 86.8185C47.9126 82.5085 49.8926 84.1785 49.8926 84.1785C51.2126 87.4285 47.3426 85.9285 47.3426 85.9285C46.7326 80.1085 46.7226 82.5185 46.7226 82.5185C44.5626 83.5885 44.0926 84.3985 44.0926 84.3985C45.8826 84.0985 44.0626 79.5685 44.0626 79.5685C43.2026 85.1585 40.6526 83.3085 40.6526 83.3085C38.1626 81.9685 40.0926 79.9285 40.0926 79.9285C39.1026 73.8385 37.3626 81.8885 37.3626 81.8885C35.6426 78.5085 36.6826 78.8685 36.6826 78.8685C36.7326 74.6485 34.2826 79.9685 34.2826 79.9685C33.5526 80.7385 33.6926 76.7985 33.6926 76.7985C31.9226 80.8085 31.4726 77.4285 31.4726 77.4285C33.4026 80.9585 30.0626 76.1985 30.0626 76.1985C30.3626 72.2585 29.2426 73.6285 29.2426 73.6285C28.8026 78.1885 26.5626 74.4285 26.5626 74.4285C27.5226 70.9685 25.6526 76.2685 25.6526 76.2685C24.0126 80.3385 25.5826 76.2685 25.5826 76.2685V76.2785ZM233.413 74.5685C233.183 75.8685 229.163 74.0385 229.163 74.0385C228.073 76.0985 229.003 78.1585 229.003 78.1585C229.283 75.2185 227.073 78.1985 227.073 78.1985C225.733 74.8585 224.303 76.2285 224.303 76.2285C224.603 75.2485 224.473 81.2685 224.473 81.2685C221.923 85.6885 220.913 77.3285 220.913 77.3285C220.183 79.0385 220.163 80.1985 220.163 80.1985C218.153 75.0985 217.753 78.9585 217.753 78.9585C220.243 76.8585 216.553 80.7385 216.553 80.7385C219.343 76.6185 215.983 84.1885 215.983 84.1885C217.503 86.9985 213.253 82.0385 213.253 82.0385C211.253 79.6885 211.183 81.5785 211.183 81.5785C211.183 80.7685 210.803 85.6985 210.803 85.6985C207.993 85.0985 209.393 87.0985 209.393 87.0985C207.573 92.2585 207.263 86.4685 207.263 86.4685C205.523 85.6985 205.683 87.3985 205.683 87.3985C206.063 87.5985 202.773 84.2885 202.773 84.2885C201.123 84.5585 202.283 88.5485 202.283 88.5485C202.263 92.0685 199.473 85.5085 199.473 85.5085C202.013 81.2285 198.273 87.6485 198.273 87.6485C198.443 93.1385 197.413 91.0285 197.413 91.0285C197.803 96.2485 194.663 87.9785 194.663 87.9785C196.253 88.2685 192.863 88.2185 192.863 88.2185C192.033 86.9685 191.473 89.7985 191.473 89.7985C188.893 94.7285 190.783 92.9585 190.783 92.9585C190.323 92.2285 187.763 90.3485 187.763 90.3485C188.933 91.8985 186.183 91.3585 186.183 91.3585C188.723 95.8785 184.613 92.0385 184.613 92.0385C185.233 91.3785 184.803 95.6485 184.803 95.6485C183.203 91.7785 182.183 94.6085 182.183 94.6085C180.793 97.7485 181.183 96.1385 181.183 96.1385C183.693 95.0785 179.043 96.1385 179.043 96.1385C177.663 100.618 179.923 99.5485 179.923 99.5485C180.603 97.5385 176.703 98.8285 176.703 98.8285C178.573 99.8885 174.743 99.9185 174.743 99.9185C173.333 98.5885 176.263 102.348 176.263 102.348C173.683 101.258 174.523 104.118 174.523 104.118C176.803 106.838 177.913 104.988 177.913 104.988C178.073 108.468 176.833 107.188 176.833 107.188C177.713 108.698 176.503 109.888 176.503 109.888C176.963 109.838 180.523 108.138 180.523 108.138C182.703 109.188 181.313 109.528 181.313 109.528C179.563 107.488 182.793 110.028 182.793 110.028C180.743 105.848 184.463 109.948 184.463 109.948C187.213 112.898 186.243 109.808 186.243 109.808C184.173 108.008 187.353 107.858 187.353 107.858C187.353 108.698 189.903 109.078 189.903 109.078C187.493 103.428 190.653 106.598 190.653 106.598C189.683 109.108 192.623 106.418 192.623 106.418C193.613 108.858 194.043 105.228 194.043 105.228C193.933 109.608 196.233 105.408 196.233 105.408C195.313 105.918 196.933 103.388 196.933 103.388C196.993 107.138 200.053 104.288 200.053 104.288C201.323 107.778 201.563 103.218 201.563 103.218C202.033 97.6185 202.093 101.158 202.093 101.158C199.193 100.168 201.273 97.7185 201.273 97.7185C199.333 98.0485 202.683 96.5985 202.683 96.5985C201.373 95.1285 204.523 95.9385 204.523 95.9385C206.983 99.9585 205.483 94.3285 205.483 94.3285C205.203 99.9285 207.673 94.0785 207.673 94.0785C206.883 94.1785 209.593 93.5585 209.593 93.5585C211.173 90.0785 209.283 90.4885 209.283 90.4885C206.343 86.4485 212.053 90.9685 212.053 90.9685C213.373 94.0185 211.793 87.8885 211.793 87.8885C211.173 82.4285 215.073 89.0285 215.073 89.0285C212.903 90.0285 214.743 85.8085 214.743 85.8085C216.533 85.5285 218.953 88.1685 218.953 88.1685C218.083 93.4085 217.383 83.3485 217.383 83.3485C214.893 82.0985 220.613 84.5285 220.613 84.5285C219.623 78.8285 220.263 81.1785 220.263 81.1785C218.533 78.0085 223.233 82.0785 223.233 82.0785C223.283 78.1285 223.463 79.4485 223.463 79.4485C222.733 80.1685 226.513 80.4885 226.513 80.4885C224.743 84.2485 227.063 78.2485 227.063 78.2485C228.993 81.5485 228.833 77.6285 228.833 77.6285C229.133 73.9385 231.473 78.1785 231.473 78.1785C231.033 82.4585 233.403 74.5885 233.403 74.5885C234.363 71.3385 233.403 74.5685 233.403 74.5685H233.413ZM97.5326 112.908C97.0826 114.498 95.6326 112.528 95.6326 112.528C93.5326 115.048 94.1526 116.368 94.1526 116.368C94.6926 112.788 92.3526 115.858 92.3526 115.858C89.7826 111.788 90.1826 113.248 90.1826 113.248C90.7526 112.058 89.2126 118.188 89.2126 118.188C84.2926 123.578 86.5926 113.578 86.5926 113.578C85.1926 115.668 85.3026 116.248 85.3026 116.248C81.4326 110.018 83.1526 114.598 83.1526 114.598C87.9426 112.028 81.6726 116.158 81.6726 116.158C87.0526 111.128 80.6126 119.478 80.6126 119.478C83.5426 122.908 78.2326 116.958 78.2326 116.958C74.3726 114.098 76.2526 116.238 76.2526 116.238C76.2426 115.248 75.4126 120.278 75.4126 120.278C69.9926 119.548 73.9126 121.508 73.9126 121.508C70.4026 127.808 71.8926 120.668 71.8926 120.668C68.5326 119.728 70.2726 121.448 70.2726 121.448C71.0026 121.698 67.6226 118.128 67.6226 118.128C64.4326 118.458 66.8726 122.348 66.8726 122.348C66.8426 126.648 64.2426 119.158 64.2426 119.158C69.1326 113.938 62.9526 121.238 62.9526 121.238C63.2826 127.938 61.9926 124.578 61.9926 124.578C62.7426 130.958 59.3626 121.428 59.3626 121.428C62.4326 121.778 57.5826 121.588 57.5826 121.588C55.9826 120.058 56.1526 123.078 56.1526 123.078C51.1726 129.088 55.1226 126.168 55.1226 126.168C54.2326 125.278 52.5326 123.118 52.5326 123.118C54.7926 125.018 50.8626 123.698 50.8626 123.698C55.7526 129.218 49.1126 123.928 49.1126 123.928C50.3126 123.118 48.1826 127.468 48.1826 127.468C45.0926 122.748 45.9326 125.688 45.9326 125.688C43.2526 129.518 44.3926 126.798 44.3926 126.798C49.2326 125.498 42.3826 125.968 42.3826 125.968C39.7126 131.438 41.4026 129.408 41.4026 129.408C42.7126 126.958 39.0226 126.988 39.0226 126.988C42.6226 128.288 37.0526 126.298 37.0526 126.298C34.3326 124.668 35.8326 128.838 35.8326 128.838C30.8626 127.508 33.7326 127.558 33.7326 127.558C38.1226 130.878 32.6926 130.978 32.6926 130.978C33.0026 135.228 30.5526 129.488 30.5526 129.488C32.2426 131.338 28.4526 128.088 28.4526 128.088C29.3526 128.028 27.5626 132.408 27.5626 132.408C31.7626 133.688 25.6426 131.858 25.6426 131.858C22.2826 129.368 23.8526 131.918 23.8526 131.918C19.9026 126.808 22.0926 132.158 22.0926 132.158C27.4026 135.758 20.2926 132.158 20.2926 132.158C16.3026 129.958 18.8026 133.878 18.8026 133.878C18.8026 134.908 16.6826 132.028 16.6826 132.028C12.0426 125.128 15.2526 134.148 15.2526 134.148C13.3926 137.218 13.3726 133.638 13.3726 133.638C15.2726 136.618 11.6726 134.228 11.6726 134.228C11.4526 139.568 9.73264 133.178 9.73264 133.178C7.95264 133.798 8.15262 134.618 8.15262 134.618C8.26262 139.198 6.05262 132.178 6.05262 132.178C8.50262 136.438 4.29264 132.178 4.29264 132.178C5.19264 125.338 1.90262 134.358 1.90262 134.358C-3.67738 133.148 4.79264 132.408 4.79264 132.408C1.05264 132.808 6.54264 132.798 6.54264 132.798C4.02264 130.998 8.19263 133.818 8.19263 133.818C12.9226 138.738 10.0226 133.548 10.0226 133.548C9.47262 140.388 11.5726 135.088 11.5726 135.088C10.0426 135.208 13.1626 136.248 13.1626 136.248C16.2026 131.998 15.3226 134.068 15.3226 134.068C9.66264 129.138 16.6826 136.508 16.6826 136.508C19.2326 140.228 18.8826 134.348 18.8826 134.348C17.6926 127.688 20.0626 137.598 20.0626 137.598C15.8826 138.818 22.3126 135.288 22.3126 135.288C25.7626 134.948 23.1426 140.028 23.1426 140.028C21.4726 146.428 25.8326 135.748 25.8326 135.748C21.0226 134.218 26.9526 138.978 26.9526 138.978C25.0526 132.008 29.2826 136.568 29.2826 136.568C25.9526 132.698 30.4526 139.428 30.4526 139.428C30.5526 134.598 32.6026 137.928 32.6026 137.928C31.1926 138.808 33.7226 140.938 33.7226 140.938C30.3026 145.528 35.7726 139.928 35.7726 139.928C39.5026 143.958 37.3626 140.888 37.3626 140.888C37.9426 136.378 38.6026 143.258 38.6026 143.258C37.7526 148.478 40.7026 142.098 40.7026 142.098C42.5426 138.138 42.9926 140.188 42.9926 140.188C39.8326 144.848 44.0626 143.188 44.0626 143.188C49.1326 149.978 45.8026 143.528 45.8026 143.528C50.4026 148.678 47.5726 143.758 47.5726 143.758C45.9726 138.698 48.8726 145.768 48.8726 145.768C48.2926 148.838 50.6126 146.048 50.6126 146.048C51.2726 149.528 52.1826 146.988 52.1826 146.988C55.6926 144.008 54.5526 144.868 54.5526 144.868C55.8026 144.518 55.7126 147.388 55.7126 147.388C50.3826 140.788 58.3426 144.308 58.3426 144.308C56.2826 138.128 59.1726 148.088 59.1726 148.088C60.0726 143.408 61.7626 145.188 61.7626 145.188C64.9426 142.138 63.2026 146.658 63.2026 146.658C60.5926 142.988 64.3326 149.318 64.3326 149.318C61.6826 145.598 65.8126 150.648 65.8126 150.648C67.1326 144.248 68.5126 147.288 68.5126 147.288C62.8726 142.778 70.3426 147.258 70.3426 147.258C75.4826 146.988 71.8826 148.318 71.8826 148.318C77.2326 151.898 73.0926 150.708 73.0926 150.708C69.3626 148.218 74.9926 150.388 74.9926 150.388C72.6326 155.168 76.5026 151.608 76.5026 151.608C75.5826 151.278 78.5326 150.718 78.5326 150.718C76.5126 155.378 80.4526 150.238 80.4526 150.238C81.5926 153.528 82.0026 151.328 82.0026 151.328C76.5326 153.128 83.1726 154.168 83.1726 154.168C77.6826 155.008 85.0926 153.658 85.0926 153.658C87.3226 148.098 87.1226 152.488 87.1226 152.488C81.5226 158.698 88.3426 155.558 88.3426 155.558C91.3226 153.458 90.3226 154.568 90.3226 154.568C95.0826 159.358 91.9026 156.098 91.9026 156.098C91.9526 155.488 93.7626 155.808 93.7626 155.808C90.9526 152.468 95.6926 154.028 95.6926 154.028C96.3126 148.898 97.4126 152.238 97.4126 152.238C95.5126 152.108 99.4426 156.478 99.4426 156.478C94.9626 162.808 101.103 154.918 101.103 154.918C99.3026 155.068 102.103 152.548 102.103 152.548C101.763 151.648 105.243 154.688 105.243 154.688C100.293 149.778 104.683 150.598 104.683 150.598C100.133 156.188 105.893 149.548 105.893 149.548C102.303 156.248 106.653 148.078 106.653 148.078C107.963 143.288 108.793 147.688 108.793 147.688C108.483 147.248 111.083 147.058 111.083 147.058C116.743 140.758 110.653 144.798 110.653 144.798C113.273 145.048 113.383 144.008 113.383 144.008C113.173 149.928 112.433 141.748 112.433 141.748C115.783 145.378 112.653 139.988 112.653 139.988C110.043 145.958 112.543 138.198 112.543 138.198C112.433 142.238 114.413 136.598 114.413 136.598C116.403 135.518 114.963 134.758 114.963 134.758C118.853 138.758 115.413 132.858 115.413 132.858C118.243 128.958 111.723 131.418 111.723 131.418C110.693 132.508 111.173 129.838 111.173 129.838C105.773 136.318 110.753 128.258 110.753 128.258C105.933 130.698 110.203 126.728 110.203 126.728C109.513 125.608 112.823 123.698 112.823 123.698C108.713 120.818 111.973 121.968 111.973 121.968C106.963 115.578 111.093 120.218 111.093 120.218C106.033 126.528 109.493 119.008 109.493 119.008C111.453 118.248 105.503 120.438 105.503 120.438C107.383 121.238 106.493 116.628 106.493 116.628C110.633 111.928 105.263 114.968 105.263 114.968C102.573 117.628 102.683 115.858 102.683 115.858C104.483 115.898 101.283 114.398 101.283 114.398C99.3626 120.238 99.4526 113.908 99.4526 113.908C97.3626 116.168 97.5526 112.898 97.5526 112.898C95.3626 117.368 97.5326 112.898 97.5326 112.898V112.908ZM160.663 113.128C160.223 114.698 158.573 112.838 158.573 112.838C156.513 115.328 157.573 116.848 157.573 116.848C158.103 113.308 155.803 116.728 155.803 116.728C153.283 112.708 152.843 114.998 152.843 114.998C153.403 113.818 154.013 119.888 154.013 119.888C149.193 125.218 149.463 117.188 149.463 117.188C148.093 119.258 149.843 120.188 149.843 120.188C146.053 114.038 147.083 120.368 147.083 120.368C151.783 117.838 147.053 122.618 147.053 122.618C152.323 117.658 148.893 125.548 148.893 125.548C151.763 128.928 145.473 125.928 145.473 125.928C141.693 123.098 143.773 127.338 143.773 127.338C143.763 126.358 146.953 129.988 146.953 129.988C141.643 129.268 147.493 131.718 147.493 131.718C144.053 137.938 146.023 133.208 146.023 133.208C142.733 132.278 146.333 134.888 146.333 134.888C147.053 135.128 142.523 136.788 142.523 136.788C139.393 137.118 146.583 138.188 146.583 138.188C146.553 142.438 143.203 140.568 143.203 140.568C147.993 135.408 145.303 141.958 145.303 141.958C145.623 148.568 148.673 142.608 148.673 142.608C149.413 148.908 145.933 145.618 145.933 145.618C148.943 145.968 146.553 147.408 146.553 147.408C144.993 145.898 148.463 148.358 148.463 148.358C143.583 154.298 151.643 147.968 151.643 147.968C150.773 147.088 150.223 151.678 150.223 151.678C152.433 153.548 151.753 152.778 151.753 152.778C156.543 158.228 153.203 153.998 153.203 153.998C154.383 153.198 156.203 151.948 156.203 151.948C153.173 147.288 156.973 154.638 156.973 154.638C154.353 158.418 158.833 154.328 158.833 154.328C163.573 153.048 160.523 155.748 160.523 155.748C157.903 161.148 162.153 152.578 162.153 152.578C163.443 150.158 164.103 155.328 164.103 155.328C167.633 156.608 166.023 156.228 166.023 156.228C163.363 154.618 167.473 153.798 167.473 153.798C162.603 152.478 169.493 155.208 169.493 155.208C173.803 158.488 170.663 151.828 170.663 151.828C170.963 156.028 172.743 153.378 172.743 153.378C174.403 155.198 174.843 154.798 174.843 154.798C175.723 154.738 175.713 150.478 175.713 150.478C179.833 151.738 177.623 150.998 177.623 150.998C174.323 148.538 179.403 150.898 179.403 150.898C175.533 145.858 181.133 150.588 181.133 150.588C186.333 154.138 182.923 150.498 182.923 150.498C179.013 148.328 184.293 148.708 184.293 148.708C184.293 149.728 186.523 150.408 186.523 150.408C181.973 143.598 187.783 148.188 187.783 148.188C185.953 151.218 189.683 148.538 189.683 148.538C191.553 151.478 191.313 147.788 191.313 147.788C191.093 153.068 193.343 148.638 193.343 148.638C191.593 149.248 194.753 147.038 194.753 147.038C194.863 151.558 197.133 149.218 197.133 149.218C199.533 153.428 198.893 148.998 198.893 148.998C199.783 142.248 200.313 147.458 200.313 147.458C194.843 146.258 201.253 144.058 201.253 144.058C197.593 144.448 202.993 143.778 202.993 143.778C200.523 141.998 204.893 144.098 204.893 144.098C209.533 148.948 206.473 143.148 206.473 143.148C205.933 149.898 208.493 143.958 208.493 143.958C206.993 144.078 210.413 144.398 210.413 144.398C213.393 140.198 211.523 141.528 211.523 141.528C205.983 136.658 213.753 143.208 213.753 143.208C216.253 146.888 214.873 140.338 214.873 140.338C213.713 133.758 217.283 142.818 217.283 142.818C213.193 144.028 218.373 139.788 218.373 139.788C221.753 139.458 221.113 143.748 221.113 143.748C219.473 150.068 221.763 138.738 221.763 138.738C217.053 137.228 224.133 141.198 224.133 141.198C222.263 134.318 225.233 138.028 225.233 138.028C221.973 134.208 227.503 140.118 227.503 140.118C227.603 135.358 228.823 137.848 228.823 137.848C227.443 138.718 231.103 140.108 231.103 140.108C227.753 144.638 232.543 138.328 232.543 138.328C236.193 142.308 234.383 138.528 234.383 138.528C234.953 134.078 236.493 140.168 236.493 140.168C235.663 145.328 237.913 138.248 237.913 138.248C239.723 134.338 239.223 135.568 239.223 135.568C236.123 140.168 241.433 137.868 241.433 137.868C246.403 144.578 243.153 137.478 243.153 137.478C247.663 142.568 244.863 136.978 244.863 136.978C243.293 131.978 246.853 138.318 246.853 138.318C246.283 141.348 248.563 137.898 248.563 137.898C249.213 141.338 250.363 138.158 250.363 138.158C253.803 135.218 251.753 135.298 251.753 135.298C252.983 134.948 253.753 137.218 253.753 137.218C248.533 130.708 253.443 135.238 253.443 135.238C251.423 129.138 253.743 133.448 253.743 133.448C254.623 128.828 251.543 136.658 251.543 136.658C254.663 133.638 249.933 135.368 249.933 135.368C247.373 131.748 248.533 132.858 248.533 132.858C245.933 129.188 246.953 131.688 246.953 131.688C248.253 125.368 244.583 135.288 244.583 135.288C239.063 130.838 242.753 135.468 242.753 135.468C247.793 135.208 241.123 134.528 241.123 134.528C246.363 138.058 239.753 132.228 239.753 132.228C236.093 129.768 237.883 132.658 237.883 132.658C235.573 137.378 236.313 131.508 236.313 131.508C235.413 131.178 234.323 132.478 234.323 132.478C232.343 137.078 232.413 133.008 232.413 133.008C233.523 136.258 230.833 131.938 230.833 131.938C225.473 133.718 229.653 129.108 229.653 129.108C224.273 129.938 227.743 129.598 227.743 129.598C229.933 124.108 225.683 130.718 225.683 130.718C220.203 136.848 224.593 127.608 224.593 127.608C227.513 125.538 222.583 128.478 222.583 128.478C227.243 133.208 221.163 126.828 221.163 126.828C221.213 126.228 219.333 126.918 219.333 126.918C216.583 123.618 217.153 128.378 217.153 128.378C217.763 123.318 214.993 129.758 214.993 129.758C213.133 129.628 214.343 125.078 214.343 125.078C209.953 131.328 212.343 125.788 212.343 125.788C210.583 125.938 210.163 127.188 210.163 127.188C209.833 126.298 209.293 123.518 209.293 123.518C204.443 118.668 206.653 126.678 206.653 126.678C202.193 132.198 204.943 126.268 204.943 126.268C201.423 132.878 203.113 126.288 203.113 126.288C204.403 121.558 201.773 124.458 201.773 124.458C201.473 124.028 200.473 122.498 200.473 122.498C206.023 116.288 198.403 123.448 198.403 123.448C200.973 123.698 197.263 120.878 197.263 120.878C197.053 126.718 195.133 122.008 195.133 122.008C198.413 125.598 193.363 121.768 193.363 121.768C190.803 127.668 191.543 121.728 191.543 121.728C191.433 125.718 190.263 119.638 190.263 119.638C192.213 118.578 188.673 118.728 188.673 118.728C192.483 122.678 187.083 117.798 187.083 117.798C189.863 113.948 184.503 120.788 184.503 120.788C183.503 121.868 182.733 120.628 182.733 120.628C177.443 127.028 181.023 120.238 181.023 120.238C176.303 122.648 179.313 119.868 179.313 119.868C178.633 118.758 178.433 115.958 178.433 115.958C174.413 113.108 176.713 115.508 176.713 115.508C171.803 109.198 175.023 114.918 175.023 114.918C170.063 121.148 173.173 115.048 173.173 115.048C175.093 114.298 170.683 118.498 170.683 118.498C172.523 119.288 169.623 114.688 169.623 114.688C173.683 110.048 167.973 113.708 167.973 113.708C165.333 116.338 165.913 115.398 165.913 115.398C167.673 115.438 164.263 114.298 164.263 114.298C162.383 120.058 162.483 114.058 162.483 114.058C160.433 116.288 160.673 113.138 160.673 113.138C158.523 117.548 160.663 113.138 160.663 113.138V113.128ZM128.973 148.848C128.803 152.908 127.053 148.468 127.053 148.468C126.243 154.898 125.643 152.368 125.643 152.368C125.853 143.218 123.863 151.948 123.863 151.948C122.863 141.548 121.383 149.578 121.383 149.578C121.603 146.538 121.263 154.638 121.263 154.638C119.353 168.408 117.643 150.728 117.643 150.728C117.103 156.068 117.133 153.718 117.133 153.718C115.633 137.828 114.443 153.038 114.443 153.038C116.303 146.488 113.733 155.188 113.733 155.188C115.813 142.348 114.643 158.538 114.643 158.538C115.773 167.288 111.243 157.938 111.243 157.938C109.743 150.628 109.213 158.908 109.213 158.908C109.213 156.388 111.763 162.188 111.763 162.188C109.663 160.318 112.053 163.878 112.053 163.878C110.693 179.958 110.453 165.078 110.453 165.078C109.153 162.668 110.703 166.658 110.703 166.658C110.983 167.288 106.863 168.528 106.863 168.528C105.623 169.368 110.913 169.988 110.913 169.988C110.903 180.968 107.373 172.148 107.373 172.148C109.273 158.818 109.313 173.668 109.313 173.668C109.443 190.768 112.563 174.898 112.563 174.898C112.853 191.178 109.193 177.248 109.193 177.248C110.383 178.148 109.243 179.028 109.243 179.028C108.623 175.128 110.663 180.528 110.663 180.528C108.733 195.878 113.723 181.658 113.723 181.658C113.383 179.378 110.553 184.128 110.553 184.128C111.433 188.968 111.093 185.798 111.093 185.798C112.983 199.898 111.293 187.548 111.293 187.548C111.763 185.488 114.833 188.508 114.833 188.508C113.633 176.458 113.023 190.728 113.023 190.728C111.983 200.508 114.133 192.258 114.133 192.258C116.013 188.948 113.293 194.258 113.293 194.258C112.263 208.228 116.763 195.198 116.763 195.198C117.273 188.948 114.353 197.598 114.353 197.598C115.753 200.908 113.683 199.568 113.683 199.568C112.633 195.418 116.253 200.718 116.253 200.718C114.323 197.318 115.003 202.828 115.003 202.828C116.703 211.318 118.463 203.758 118.463 203.758C118.583 214.608 117.013 205.918 117.013 205.918C117.673 210.628 115.663 208.058 115.663 208.058C116.013 207.908 120.033 208.758 120.033 208.758C121.663 212.028 119.553 210.668 119.553 210.668C118.253 204.308 119.683 212.428 119.683 212.428C118.153 199.388 120.003 214.148 120.003 214.148C122.063 223.338 120.093 215.918 120.093 215.918C118.543 210.308 121.893 217.278 121.893 217.278C121.893 219.898 120.163 219.488 120.163 219.488C118.363 201.868 122.383 220.748 122.383 220.748C121.663 228.578 122.003 222.638 122.003 222.638C122.743 230.238 122.723 224.258 122.723 224.258C122.633 237.898 121.813 226.258 121.813 226.258C121.123 227.838 123.383 227.688 123.383 227.688C123.423 239.368 121.113 229.988 121.113 229.988C122.063 240.868 121.263 231.738 121.263 231.738C121.613 214.288 122.753 233.198 122.753 233.198C120.593 230.098 126.123 234.268 126.123 234.268C124.673 235.288 126.323 236.018 126.323 236.018C125.343 231.428 125.913 237.898 125.913 237.898C127.743 250.448 126.793 239.508 126.793 239.508C126.583 256.958 125.863 241.478 125.863 241.478C125.273 241.798 125.313 243.368 125.313 243.368C126.493 232.518 128.123 244.628 128.123 244.628C125.933 232.038 126.283 246.738 126.283 246.738C127.273 256.238 129.083 248.028 129.083 248.028C128.623 231.018 126.423 250.258 126.423 250.258C124.803 253.388 129.383 251.558 129.383 251.558C130.723 250.688 125.183 253.968 125.183 253.968C124.533 270.308 130.153 255.008 130.153 255.008C128.293 251.098 127.473 257.148 127.473 257.148C126.733 239.368 130.543 258.518 130.543 258.518C129.253 248.638 128.223 260.568 128.223 260.568C128.263 248.248 128.563 260.478 128.563 260.478C128.013 262.728 129.653 260.668 129.653 260.668C128.333 272.388 128.423 258.758 128.423 258.758C129.863 269.058 129.223 257.108 129.223 257.108C129.453 245.588 131.483 255.688 131.483 255.688C131.153 269.018 130.133 253.728 130.133 253.728C130.843 243.608 128.023 251.618 128.023 251.618C126.803 263.518 130.943 250.338 130.943 250.338C132.913 267.688 131.153 248.608 131.153 248.608C132.933 261.758 131.253 246.858 131.253 246.858C130.633 233.938 133.183 245.448 133.183 245.448C132.953 253.288 133.343 243.718 133.343 243.718C133.603 252.598 134.183 242.118 134.183 242.118C135.543 234.518 131.913 239.878 131.913 239.878C132.403 238.978 134.383 238.618 134.383 238.618C132.313 221.778 131.163 236.148 131.163 236.148C130.363 220.368 134.923 235.178 134.923 235.178C135.273 223.228 131.893 232.718 131.893 232.718C133.123 224.918 133.313 231.238 133.313 231.238C132.303 221.868 135.943 230.048 135.943 230.048C134.913 220.558 137.233 228.558 137.233 228.558C137.743 212.218 133.783 225.948 133.783 225.948C131.603 214.428 133.713 224.128 133.713 224.128C135.703 223.448 134.753 222.578 134.753 222.578C136.823 231.718 137.143 221.358 137.143 221.358C135.693 214.988 136.813 219.478 136.813 219.478C135.903 231.678 138.033 217.978 138.033 217.978C137.673 217.128 137.143 215.958 137.143 215.958C136.363 227.848 136.683 214.038 136.683 214.038C137.123 222.438 137.813 212.528 137.813 212.528C135.693 217.118 140.703 211.468 140.703 211.468C138.573 213.608 140.263 209.558 140.263 209.558C141.133 195.368 139.193 207.478 139.193 207.478C137.023 223.338 142.343 206.488 142.343 206.488C143.503 201.128 141.503 204.468 141.503 204.468C143.343 216.698 143.183 203.098 143.183 203.098C143.203 201.548 143.113 201.268 143.113 201.268C142.023 192.728 141.663 199.088 141.663 199.088C141.903 186.008 140.293 196.928 140.293 196.928C139.553 196.588 145.003 196.328 145.003 196.328C143.263 212.488 144.283 194.338 144.283 194.338C143.583 194.728 142.863 192.178 142.863 192.178C142.733 189.878 146.553 191.298 146.553 191.298C144.633 178.758 143.343 188.708 143.343 188.708C141.583 202.988 143.723 187.018 143.723 187.018C142.333 204.118 143.653 185.218 143.653 185.218C144.163 172.988 145.453 183.848 145.453 183.848C145.333 182.728 147.373 182.488 147.373 182.488C149.563 166.418 146.323 180.468 146.323 180.468C147.343 181.108 148.843 179.208 148.843 179.208C148.763 194.318 147.573 177.168 147.573 177.168C148.873 186.448 147.673 175.418 147.673 175.418C146.663 190.668 147.543 173.628 147.543 173.628C147.503 183.938 149.493 172.148 149.493 172.148C150.263 169.398 150.193 170.438 150.193 170.438C151.703 180.648 150.853 168.668 150.853 168.668C151.953 158.718 147.363 166.788 147.363 166.788C146.963 169.568 146.983 165.268 146.983 165.268C144.893 181.808 146.633 163.768 146.633 163.768C144.763 169.998 146.083 162.328 146.083 162.328C145.813 159.458 148.533 159.138 148.533 159.138C146.943 151.778 147.503 157.448 147.503 157.448C145.563 141.138 146.413 155.788 146.413 155.788C144.453 171.898 144.673 154.778 144.673 154.778C145.433 152.838 140.863 156.688 140.863 156.688C141.593 158.738 141.433 152.768 141.433 152.768C143.033 140.758 140.103 151.238 140.103 151.238C139.063 158.038 137.613 152.308 137.613 152.308C138.313 152.408 136.213 150.878 136.213 150.878C135.473 165.778 134.463 150.328 134.463 150.328C133.653 156.088 132.333 152.258 132.333 152.258C131.483 163.668 130.823 149.968 130.823 149.968C130.383 132.238 129.013 148.868 129.013 148.868C127.743 156.078 128.973 148.848 128.973 148.848ZM75.0026 156.848C74.7826 158.238 72.7626 156.678 72.7626 156.678C71.7126 158.888 71.9626 160.778 71.9626 160.778C72.2326 157.638 70.1026 160.738 70.1026 160.738C68.8226 157.168 67.1926 158.898 67.1926 158.898C67.4726 157.858 67.8026 163.948 67.8026 163.948C65.3526 168.668 63.7726 160.438 63.7726 160.438C63.0726 162.268 63.3826 163.408 63.3826 163.408C61.4526 157.958 60.6926 162.668 60.6926 162.668C63.0826 160.418 59.8926 164.788 59.8926 164.788C62.5726 160.388 60.5026 168.238 60.5026 168.238C61.9626 171.238 57.1726 167.208 57.1726 167.208C55.2526 164.698 55.0626 167.598 55.0626 167.598C55.0626 166.728 56.3626 171.548 56.3626 171.548C53.6626 170.908 55.6426 173.398 55.6426 173.398C53.8926 178.908 53.4326 173.668 53.4326 173.668C51.7626 172.848 52.3626 175.158 52.3626 175.158C52.7326 175.378 48.4326 173.468 48.4326 173.468C46.8426 173.758 49.7126 177.588 49.7126 177.588C49.7026 181.348 45.9026 175.928 45.9026 175.928C48.3426 171.358 45.6726 178.378 45.6726 178.378C45.8326 184.238 46.2526 181.838 46.2526 181.838C46.6326 187.418 42.4926 180.118 42.4926 180.118C44.0226 180.428 40.9426 181.028 40.9426 181.028C40.1426 179.688 40.2526 182.998 40.2526 182.998C37.7726 188.258 40.5726 186.268 40.5726 186.268C40.1326 185.488 36.9226 184.548 36.9226 184.548C38.0526 186.208 35.6126 185.768 35.6126 185.768C38.0526 190.598 34.0826 186.698 34.0826 186.698C34.6826 185.988 34.6326 190.348 34.6326 190.348C33.0926 186.218 31.8226 189.618 31.8226 189.618C30.4926 192.968 30.8226 191.268 30.8226 191.268C33.2326 190.138 28.6126 191.308 28.6126 191.308C27.2826 196.098 29.0426 194.898 29.0426 194.898C29.6926 192.758 25.6626 194.518 25.6626 194.518C27.4626 195.658 28.6426 195.148 28.6426 195.148C27.2826 193.728 29.4026 192.408 29.4026 192.408C26.9226 191.238 31.7226 193.298 31.7226 193.298C33.9126 196.208 32.1426 189.718 32.1426 189.718C32.2926 193.438 34.5326 190.808 34.5326 190.808C35.3726 192.428 36.8726 191.818 36.8726 191.818C37.3226 191.768 36.9926 187.378 36.9926 187.378C39.0826 188.498 39.0026 187.568 39.0026 187.568C37.3226 185.388 40.7726 187.188 40.7726 187.188C38.8026 182.718 42.4726 186.628 42.4726 186.628C45.1226 189.778 44.2626 186.298 44.2626 186.298C42.2726 184.378 45.4326 184.338 45.4326 184.338C45.4326 185.238 47.8726 185.788 47.8726 185.788C45.5626 179.748 48.9226 183.428 48.9226 183.428C47.9926 186.108 50.8826 183.598 50.8826 183.598C51.8326 186.198 52.4726 182.708 52.4726 182.708C52.3626 187.388 54.5826 183.408 54.5826 183.408C53.6926 183.948 55.9026 181.708 55.9026 181.708C55.9626 185.718 58.4126 183.768 58.4126 183.768C59.6326 187.498 60.1626 183.478 60.1626 183.478C60.6126 177.498 61.5426 181.878 61.5426 181.878C58.7626 180.818 62.3826 178.428 62.3826 178.428C60.5226 178.778 64.1126 178.078 64.1126 178.078C62.8526 176.498 66.0026 178.298 66.0026 178.298C68.3626 182.598 67.4126 177.208 67.4126 177.208C67.1426 183.188 69.4726 177.718 69.4726 177.718C68.7126 177.828 71.4526 177.688 71.4526 177.688C72.9726 173.968 71.6326 174.658 71.6326 174.658C68.8126 170.338 74.1826 175.678 74.1826 175.678C75.4526 178.938 74.2326 172.648 74.2326 172.648C73.6426 166.818 77.2726 174.198 77.2726 174.198C75.1926 175.268 76.9226 171.058 76.9226 171.058C78.6426 170.758 81.1926 173.278 81.1926 173.278C80.3626 178.878 78.7126 168.898 78.7126 168.898C76.3126 167.558 81.9926 169.148 81.9926 169.148C81.0426 163.048 79.7126 166.948 79.7126 166.948C78.0526 163.558 82.2626 165.648 82.2626 165.648C82.3126 161.428 80.0226 164.648 80.0226 164.648C79.3226 165.418 81.7826 162.068 81.7826 162.068C80.0826 166.088 79.5026 161.338 79.5026 161.338C81.3626 164.868 78.5426 159.718 78.5426 159.718C78.8326 155.768 77.3626 156.988 77.3626 156.988C76.9426 161.558 75.3426 158.598 75.3426 158.598C76.2626 155.128 74.9326 156.808 74.9326 156.808C73.3526 160.888 75.0026 156.848 75.0026 156.848ZM182.193 157.228C181.963 158.578 179.813 157.228 179.813 157.228C178.753 159.368 179.813 161.368 179.813 161.368C180.083 158.318 178.243 161.868 178.243 161.868C176.943 158.408 174.793 161.748 174.793 161.748C175.083 160.738 178.363 165.268 178.363 165.268C175.873 169.848 173.093 165.728 173.093 165.728C172.383 167.508 175.493 167.738 175.493 167.738C173.533 162.448 174.133 170.248 174.133 170.248C176.563 168.068 176.213 171.348 176.213 171.348C178.933 167.078 179.553 170.588 179.553 170.588C181.033 173.498 178.743 173.898 178.743 173.898C176.793 171.468 179.443 175.908 179.443 175.908C179.443 175.068 182.973 173.778 182.973 173.778C180.233 173.158 184.803 173.938 184.803 173.938C183.023 179.288 185.543 175.918 185.543 175.918C183.843 175.118 187.183 176.458 187.183 176.458C187.553 176.668 186.943 180.738 186.943 180.738C185.323 181.018 190.183 177.878 190.183 177.878C190.173 181.528 190.563 182.028 190.563 182.028C193.043 177.588 192.823 180.968 192.823 180.968C192.983 186.658 195.403 178.598 195.403 178.598C195.783 184.018 196.033 182.678 196.033 182.678C197.593 182.978 197.643 183.468 197.643 183.468C196.833 182.168 199.663 182.948 199.663 182.948C197.143 188.058 202.213 180.868 202.213 180.868C201.763 180.108 202.773 184.868 202.773 184.868C203.913 186.478 204.503 185.288 204.503 185.288C206.983 189.978 206.103 186.058 206.103 186.058C206.713 185.368 208.873 183.628 208.873 183.628C207.313 179.618 209.763 186.388 209.763 186.388C208.403 189.638 211.683 186.348 211.683 186.348C214.133 185.248 212.883 188.188 212.883 188.188C211.533 192.838 215.693 185.918 215.693 185.918C216.353 183.838 216.273 189.288 216.273 189.288C218.093 190.388 217.503 190.998 217.503 190.998C216.123 189.618 219.993 189.618 219.993 189.618C217.473 188.488 220.973 191.898 220.973 191.898C223.203 194.718 223.833 189.708 223.833 189.708C223.993 193.318 224.723 192.188 224.723 192.188C225.583 193.758 225.633 194.568 225.633 194.568C226.083 194.518 228.893 191.558 228.893 191.558C231.023 192.648 230.163 193.128 230.163 193.128C228.463 191.008 230.573 194.488 230.573 194.488C228.573 190.148 229.423 194.488 229.423 194.488C232.113 197.548 228.193 193.138 228.193 193.138C226.173 191.268 225.903 193.188 225.903 193.188C225.903 194.058 225.823 190.348 225.823 190.348C223.473 184.488 223.263 190.728 223.263 190.728C222.323 193.338 222.343 188.988 222.343 188.988C223.303 191.518 220.733 188.138 220.733 188.138C220.623 192.678 220.163 185.978 220.163 185.978C219.263 186.498 218.013 185.798 218.013 185.798C218.073 189.688 218.343 182.568 218.343 182.568C219.583 186.188 217.123 181.268 217.123 181.268C217.583 175.458 215.023 181.008 215.023 181.008C212.193 179.978 211.663 182.198 211.663 182.198C209.773 182.538 210.393 180.898 210.393 180.898C209.113 179.368 209.543 179.118 209.543 179.118C211.943 183.298 207.833 178.328 207.833 178.328C207.553 184.138 207.363 176.168 207.363 176.168C206.593 176.268 206.653 174.298 206.653 174.298C208.193 170.688 203.613 174.928 203.613 174.928C200.743 170.738 203.813 172.108 203.813 172.108C205.103 175.268 200.763 172.698 200.763 172.698C200.163 167.038 201.563 169.308 201.563 169.308C199.453 170.348 198.403 170.038 198.403 170.038C200.153 169.748 200.153 165.508 200.153 165.508C199.303 170.948 195.713 167.978 195.713 167.978C193.283 166.678 196.123 164.598 196.123 164.598C195.163 158.678 193.143 166.088 193.143 166.088C191.453 162.798 193.013 163.058 193.013 163.058C193.063 158.958 190.623 163.948 190.623 163.948C189.913 164.698 190.473 160.798 190.473 160.798C188.743 164.698 188.333 161.358 188.333 161.358C190.223 164.788 187.063 160.188 187.063 160.188C187.363 156.358 186.083 157.698 186.083 157.698C185.653 162.138 183.963 158.888 183.963 158.888C184.893 155.518 180.333 159.798 180.333 159.798C178.733 163.758 182.173 157.248 182.173 157.248C184.743 163.018 182.193 157.228 182.193 157.228ZM97.0626 179.928C96.9126 182.068 94.6226 179.968 94.6226 179.968C93.9426 183.368 94.6226 184.138 94.6226 184.138C94.7926 179.298 92.9326 184.578 92.9326 184.578C92.0926 179.078 89.5526 183.938 89.5526 183.938C89.7426 182.328 92.2126 188.248 92.2126 188.248C90.6126 195.528 87.0626 186.858 87.0626 186.858C86.6026 189.678 88.1226 189.658 88.1226 189.658C86.8626 181.258 85.4426 190.138 85.4426 190.138C87.0026 186.678 85.6126 192.288 85.6126 192.288C87.3626 185.508 87.5026 195.198 87.5026 195.198C88.4526 199.818 84.0726 195.538 84.0726 195.538C82.8126 191.678 82.3626 196.828 82.3626 196.828C82.3626 195.498 85.4026 199.638 85.4026 199.638C83.6326 198.648 85.7226 201.518 85.7226 201.518C84.5826 210.018 83.9726 202.798 83.9726 202.798C82.8726 201.528 83.8326 204.568 83.8326 204.568C84.0726 204.898 79.6126 205.088 79.6126 205.088C78.5726 205.528 82.8526 207.908 82.8526 207.908C82.8526 213.708 78.7426 208.398 78.7426 208.398C80.3326 201.358 79.8226 210.568 79.8226 210.568C79.9326 219.608 82.1226 213.188 82.1226 213.188C82.3726 221.788 78.0326 213.588 78.0326 213.588C79.0326 214.058 77.1826 215.108 77.1826 215.108C76.6626 213.048 77.6226 217.098 77.6226 217.098C76.0026 225.208 79.6026 219.688 79.6026 219.688C79.3126 218.478 75.6026 220.018 75.6026 220.018C76.3426 222.578 75.1226 221.678 75.1226 221.678C76.7126 229.128 74.3026 223.208 74.3026 223.208C74.6926 222.118 76.6526 226.018 76.6526 226.018C75.6426 219.648 73.8926 226.768 73.8926 226.768C73.0226 231.938 73.8926 228.638 73.8926 228.638C75.4726 226.888 72.0426 229.738 72.0426 229.738C71.1726 237.118 74.2626 232.558 74.2626 232.558C74.6926 229.258 70.8926 233.018 70.8926 233.018C72.0626 234.768 69.1826 234.168 69.1826 234.168C68.2926 231.978 70.5326 236.638 70.5326 236.638C68.9126 234.838 68.7726 239.218 68.7726 239.218C70.2026 243.708 69.0626 235.618 69.0626 235.618C69.1626 241.348 71.6426 235.378 71.6426 235.378C72.1926 237.868 74.1426 235.088 74.1426 235.088C74.4326 235.008 71.9326 231.258 71.9326 231.258C73.3026 232.988 73.7226 230.438 73.7226 230.438C72.6226 227.078 75.0126 229.248 75.0126 229.248C73.7226 222.358 76.1526 227.938 76.1526 227.938C77.8826 232.798 77.4826 226.778 77.4826 226.778C76.1826 223.818 77.4326 224.538 77.4326 224.538C77.4326 225.928 80.2326 224.558 80.2326 224.558C78.7226 215.248 79.8626 222.038 79.8626 222.038C79.2526 226.178 81.5826 221.208 81.5826 221.208C82.2026 225.218 82.4326 219.668 82.4326 219.668C82.3626 226.878 84.5626 219.198 84.5626 219.198C83.9826 220.028 84.7626 217.088 84.7626 217.088C84.8026 223.258 87.9426 217.558 87.9426 217.558C88.7426 223.308 89.2426 216.418 89.2426 216.418C89.5326 207.198 89.5326 214.378 89.5326 214.378C87.7126 212.738 88.4126 211.028 88.4126 211.028C87.1926 211.568 89.7126 209.858 89.7126 209.858C88.8926 207.428 91.4726 209.118 91.4726 209.118C93.0126 215.748 92.2726 207.488 92.2726 207.488C92.0926 216.708 94.3926 207.128 94.3926 207.128C93.8926 207.298 96.2226 206.488 96.2226 206.488C97.2126 200.748 95.4726 203.538 95.4726 203.538C93.6326 196.888 98.2126 203.648 98.2126 203.648C99.0426 208.668 97.1326 200.828 97.1326 200.828C96.7426 191.838 100.533 201.028 100.533 201.028C99.1726 202.678 99.0126 198.218 99.0126 198.218C100.143 197.758 103.783 198.948 103.783 198.948C103.243 207.588 100.363 195.218 100.363 195.218C98.7926 193.148 103.733 195.028 103.733 195.028C103.113 185.628 101.723 192.418 101.723 192.418C100.643 187.198 104.643 191.718 104.643 191.718C104.673 185.208 103.053 189.798 103.053 189.798C102.593 190.988 105.783 188.278 105.783 188.278C104.673 194.468 104.013 186.898 104.013 186.898C105.233 192.338 103.753 185.228 103.753 185.228C103.943 179.138 103.913 182.458 103.913 182.458C103.633 189.498 101.423 182.698 101.423 182.698C102.023 177.348 98.6626 184.088 98.6626 184.088C97.6326 190.378 97.0526 179.938 97.0526 179.938L97.0626 179.928ZM159.933 180.148C159.783 182.218 157.423 180.188 157.423 180.188C156.713 183.478 157.163 184.408 157.163 184.408C157.343 179.728 155.503 184.678 155.503 184.678C154.633 179.368 152.103 184.048 152.103 184.048C152.293 182.498 155.453 187.738 155.453 187.738C153.793 194.778 150.223 188.308 150.223 188.308C149.753 191.038 152.643 190.218 152.643 190.218C151.333 182.098 150.983 192.428 150.983 192.428C152.603 189.078 152.713 193.808 152.713 193.808C154.523 187.248 156.143 194.178 156.143 194.178C157.133 198.648 154.153 196.978 154.153 196.978C152.853 193.238 153.923 199.048 153.923 199.048C153.923 197.758 158.033 198.718 158.033 198.718C156.203 197.758 159.593 199.768 159.593 199.768C158.413 207.978 159.313 201.808 159.313 201.808C158.183 200.578 160.573 202.908 160.573 202.908C160.823 203.228 158.673 206.718 158.673 206.718C157.593 207.148 162.763 205.408 162.763 205.408C162.763 211.018 161.173 209.228 161.173 209.228C162.823 202.418 163.603 209.318 163.603 209.318C163.713 218.058 166.983 208.518 166.983 208.518C167.233 216.838 165.413 212.318 165.413 212.318C166.453 212.778 166.353 213.778 166.353 213.778C165.813 211.788 168.313 214.328 168.313 214.328C166.633 222.168 171.533 213.808 171.533 213.808C171.233 212.638 169.923 217.478 169.923 217.478C170.683 219.948 171.153 218.678 171.153 218.678C172.803 225.878 172.093 220.118 172.093 220.118C172.503 219.068 175.683 219.398 175.683 219.398C174.643 213.238 175.003 222.178 175.003 222.178C174.103 227.168 176.643 223.078 176.643 223.078C178.273 221.388 176.703 225.238 176.703 225.238C175.803 232.378 180.243 224.658 180.243 224.658C180.683 221.468 179.003 227.818 179.003 227.818C180.223 229.508 179.163 229.868 179.163 229.868C178.243 227.748 181.973 229.898 181.973 229.898C180.293 228.158 181.633 232.318 181.633 232.318C183.113 236.658 185.183 231.828 185.183 231.828C185.283 237.368 184.663 234.368 184.663 234.368C185.233 236.778 184.213 236.838 184.213 236.838C184.513 236.758 188.523 235.838 188.523 235.838C189.943 237.508 187.273 237.448 187.273 237.448C186.133 234.198 186.353 237.228 186.353 237.228C185.023 230.568 185.763 235.598 185.763 235.598C187.553 240.288 185.403 233.868 185.403 233.868C184.053 231.008 183.423 232.808 183.423 232.808C183.423 234.148 184.803 230.368 184.803 230.368C183.233 221.368 182.423 229.458 182.423 229.458C181.793 233.458 182.523 227.548 182.523 227.548C183.163 231.428 181.583 226.058 181.583 226.058C181.513 233.028 182.193 223.958 182.193 223.958C181.593 224.758 180.443 222.778 180.443 222.778C180.483 228.748 182.373 220.198 182.373 220.198C183.203 225.758 181.993 218.508 181.993 218.508C182.303 209.588 180.333 217.288 180.333 217.288C178.453 215.708 176.853 216.688 176.853 216.688C175.593 217.208 176.423 214.978 176.423 214.978C175.573 212.628 176.603 213.068 176.603 213.068C178.203 219.478 175.543 211.578 175.543 211.578C175.363 220.498 176.233 209.528 176.233 209.528C175.713 209.688 176.573 207.608 176.573 207.608C177.603 202.058 173.643 206.688 173.643 206.688C171.733 200.258 175.243 204.408 175.243 204.408C176.103 209.268 172.323 203.448 172.323 203.448C171.923 194.758 174.723 200.958 174.723 200.958C173.313 202.558 171.633 200.078 171.633 200.078C172.793 199.638 175.413 197.068 175.413 197.068C174.853 205.418 170.353 197.068 170.353 197.068C168.733 195.068 172.403 194.388 172.403 194.388C171.763 185.308 169.103 194.248 169.103 194.248C167.983 189.198 170.413 191.398 170.413 191.398C170.443 185.108 167.813 190.828 167.813 190.828C167.343 191.978 169.143 187.868 169.143 187.868C167.993 193.858 166.903 187.178 166.903 187.178C168.163 192.438 166.233 185.408 166.233 185.408C166.433 179.528 166.333 182.588 166.333 182.588C166.043 189.398 163.723 182.658 163.723 182.658C164.343 177.488 161.313 184.208 161.313 184.208C160.243 190.288 159.963 180.128 159.963 180.128C161.673 188.988 159.933 180.148 159.933 180.148Z" fill="black"/>
</svg>
