<svg width="245" height="249" viewBox="0 0 245 249" fill="none" xmlns="http://www.w3.org/2000/svg">
<path d="M150.4 0.538996C148.393 4.14553 147.008 20.9095 147.102 7.14492C150.758 15.1101 143.504 33.8586 146.707 7.61613C143.871 15.0104 149.505 21.7342 153.735 10.543C151.248 11.2861 143.655 34.8645 145.294 19.1607C148.092 23.184 148.497 15.9256 149.58 16.4784C148.855 18.5535 148.176 23.7549 146.565 14.3852C146.434 20.8189 147.668 30.0346 154.488 40.6548C147.734 37.8095 146.123 17.4027 146.942 32.5084C142.986 30.9498 152.095 30.7958 149.062 32.9525C139.867 39.4406 154.234 46.6627 145.011 35.3357C145.595 51.4563 148.845 38.8697 146.349 49.6077C146.584 54.7276 145.727 32.1913 144.229 39.9571C148.167 50.7948 143.673 51.8913 146.989 42.6122C142.788 44.8685 146.82 56.6577 147.639 43.9261C140.857 53.613 146.82 45.3397 146.132 41.6063C144.549 59.7659 143.183 45.4575 150.381 53.0693C141.328 55.8693 144.191 57.1833 137.804 65.3478C139.735 51.4291 141.365 66.8339 144.917 71.401C137.597 65.5381 146.829 66.0002 137.842 62.5206C143.136 69.0631 141.77 50.4777 140.602 51.2751C142.241 54.7185 143.965 62.2578 146.029 58.7056C137.305 54.6188 138.115 67.3867 135.93 73.9745C131.832 68.4288 133.537 56.2137 140.169 54.8816C133.311 68.7369 134.733 74.8897 136.598 72.9143C134.818 68.0754 136.259 63.0462 133.885 70.5945C133.48 84.8122 131.455 72.1803 134.677 59.9652C130.258 68.3925 138.256 84.8031 136.485 62.4028C130.494 67.2417 136.58 62.5206 131.219 62.2578C133.65 86.5973 129.467 84.2776 128.713 73.3311C126.179 69.7971 126.076 92.8046 128.987 71.5369C125.878 95.1334 126.697 94.2544 128.732 95.514C125.105 72.2437 132.369 97.5075 124.568 72.5156C124.719 77.5176 129.486 98.1872 127.564 90.5754C129.156 92.0706 129.184 97.5982 124.031 82.864C122.863 79.6743 117.126 76.2761 116.674 88.5818C119.66 79.7558 120.781 91.545 123.89 89.8142C121.441 88.9987 122.251 94.78 125.331 89.5786C125.699 99.7277 124.841 112.051 120.103 112.758C123.702 97.8791 120.489 101.495 126.424 107.131C118.859 96.3839 123.57 91.8169 121.139 109.206C123.89 97.8428 117.361 101.458 118.577 116.057C121.017 102.419 125.265 99.2836 120.48 103.615C122.75 110.448 118.633 118.395 118.775 109.868C122.458 121.041 120.583 101.087 118.614 116.102C123.937 124.566 121.657 119.89 124.719 99.6552C126.575 112.831 125.501 103.117 125.689 106.723C123.08 116.709 126.876 102.075 126.726 103.497C124.493 106.605 128.101 110.801 125.849 124.765C131.624 112.767 128.572 106.161 129.806 111.526C132.331 120.651 129.166 103.524 126.763 128.942C133.998 116.827 134.893 112.776 126.415 126.994C126.999 122.056 130.032 121.72 136.156 121.186C130.645 109.686 139.98 120.914 136.608 115.051C133.122 124.257 142.609 133.21 142.901 125.562C145.068 121.512 142.609 111.861 147.771 110.058C143.834 121.593 146.829 115.731 145.247 122.364C142.694 115.259 145.623 122.309 150.353 127.329C150.777 119.89 150.409 118.204 145.887 117.525C150.899 110.23 150.701 109.27 152.529 115.096C154.922 103.688 154.187 123.578 150.711 110.692C149.674 108.309 148.713 105.835 155.732 124.738C149.627 120.352 150.569 106.306 159.133 120.18C158.191 117.253 151.069 95.0428 149.721 113.284C150.013 105.201 153.819 102.482 161.139 107.584C158.002 106.035 158.049 98.6675 154.319 92.0434C153.819 91.9981 157.437 98.4318 155.892 90.6842C154.63 100.289 163.108 80.9248 160.772 92.3696C153.395 89.3702 156.241 78.4962 156.231 73.9292C157.569 84.9934 161.846 92.0525 163.513 78.8768C164.465 80.6257 153.593 75.1163 155.411 64.3692C157.135 70.0327 158.746 76.1765 162.307 72.2981C158.652 61.0254 157.418 69.4074 162.769 80.0911C161.149 61.4513 162.185 68.465 163.447 80.3267C161.139 59.1859 155.911 64.0157 161.271 71.9447C161.092 61.7503 163.513 46.998 160.527 70.6126C163.023 47.4239 158.831 44.642 158.539 61.2701C154.997 43.2646 158.991 64.2423 164.116 44.6601C154.517 39.7034 156.674 48.6019 156.033 40.4464C148.93 37.5467 152.99 50.9126 150.607 34.0308C150.927 37.2658 160.583 31.2398 158.285 21.9516C157.088 42.4128 151.144 42.2497 153.932 36.3143C147.3 21.7613 146.952 36.0969 148.497 40.1021C156.033 23.4559 153.122 32.3544 152.745 9.3016C147.291 22.0604 146.5 8.4498 154.714 33.324C148.129 9.91778 150.155 24.2442 143.655 5.2601C143.871 31.2398 150.089 18.8616 152.689 19.9853C149.053 22.5859 148.742 8.15077 149.976 15.6901C142.731 3.67432 147.913 -1.86233 150.362 0.557124L150.4 0.538996ZM93.2163 15.9981C93.1127 19.206 93.9794 26.9265 93.6967 18.8526C97.7288 23.8727 91.3039 33.5324 93.8663 20.8824C91.7655 24.2352 97.6063 27.6786 101.478 21.4261C99.0853 22.7219 92.5286 35.3719 93.612 28.1589C96.1273 30.678 98.3411 26.4553 99.4151 27.1802C98.6614 28.2585 98.8781 31.3757 96.5795 26.5368C97.4085 30.7324 97.9549 35.4625 105.736 40.0205C99.8861 39.4587 99.9709 30.2883 99.7165 38.9694C97.465 37.2296 106.396 36.2147 104.917 39.1144C101.921 43.8446 101.186 44.7688 104.531 41.2257C104.229 49.0912 107.121 42.5487 104.22 47.6323C104.276 51.1845 103.259 39.5403 101.836 44.4607C105.454 49.1275 101.799 49.6621 105.699 43.9352C102.006 46.0103 105.115 52.5709 105.661 46.8983C101.817 52.8065 109.533 49.8796 110.833 48.3844C108.553 56.8299 103.928 48.9644 108.271 52.8699C100.48 57.0292 109.194 57.7179 105.548 63.7439C106.236 55.6156 109.062 63.1096 107.931 64.9672C102.543 63.753 109.401 65.8009 107.319 64.9038C111.784 68.7187 108.902 58.6513 110.305 59.5031C110.889 60.817 113.292 64.6772 114.234 62.3756C107.658 61.6416 108.996 68.7006 108.742 72.0715C106.226 68.7369 108.742 62.8649 115.298 61.705C109.363 69.7699 108.676 73.8567 111.992 74.645C110.635 72.579 113.744 68.61 111.879 74.7629C114.074 82.1118 114.893 74.6722 118.407 67.8941C116.561 72.6877 122.665 82.0393 121.318 70.9026C115.176 67.9666 124.87 69.1537 122.232 66.2993C126.019 76.1312 121.111 74.4548 123.447 64.6772C121.158 62.8559 121.874 73.8295 124.182 62.8468C121.563 73.6664 122.392 71.8359 124.116 72.0172C119.962 58.1801 128.779 69.8877 121.101 54.6642C122.175 56.3406 127.941 67.0242 127.102 62.1853C127.507 60.6811 125.793 61.7232 116.73 53.6402C116.391 51.991 113.141 47.9857 113.555 52.5075C116.872 46.5449 112.905 50.3236 117.767 48.4932C113.81 46.255 119.359 47.8679 115.364 43.3733C116.466 48.1488 116.542 52.2356 113.339 52.1359C114.639 43.0743 110.192 44.941 113.461 47.3877C107.865 40.4646 112.783 37.1933 111.539 44.8051C112.124 38.9331 104.87 40.3377 104.163 47.877C107.96 39.4587 111.549 36.4593 109.25 37.3292C108.487 40.8633 103.268 44.9591 100.715 40.5552C104.625 44.9501 104.775 32.7984 103.909 39.1869C105.868 42.6575 102.213 40.7092 102.26 30.2521C103.824 35.6891 104.662 30.1977 104.813 30.6871C100.866 35.8431 102.335 27.8508 100.47 28.5848C98.5861 28.8113 102.58 30.5149 100.677 36.3506C104.615 30.1524 99.4999 25.83 99.6035 28.6029C100.79 31.9466 97.1824 21.716 97.0316 32.5719C101.252 25.4041 98.3882 23.3109 88.553 30.6599C88.2516 26.7362 90.9647 24.7154 96.1273 23.0662C88.9393 16.6868 94.1395 22.9575 89.5611 20.393C85.8211 24.6792 91.1437 14.7658 93.2069 16.0163L93.2163 15.9981ZM200.791 43.3733C200.687 44.7235 197.682 53.1055 194.413 44.4064C197.654 50.1968 194.78 59.5756 198.455 48.2666C194.272 51.5107 197.484 54.8726 199.566 48.8285C198.087 49.2 191.257 60.5361 193.433 52.6887C196.024 56.0596 196.373 53.7852 197.447 55.4253C196.702 55.5612 195.044 56.8027 192.68 51.2026C192.557 54.4195 192.096 59.0228 197.305 64.342C191.21 62.9193 191.342 53.169 192.067 59.8112C187.724 59.938 194.13 61.6779 190.607 63.6623C186.519 66.4533 184.851 67.3504 187.423 63.0371C189.938 74.2735 190.098 69.788 184.22 76.5117C184.324 79.0671 184.295 66.8973 182.854 69.8786C184.672 76.2036 179.849 76.7564 181.959 73.023C178.125 73.2495 182.43 78.6865 183.052 71.41C177.041 78.0613 183.155 76.1946 182.552 75.6871C180.207 82.9546 176.382 73.5305 180.989 76.4302C171.917 78.7318 176.118 82.1118 171.295 88.9081C171.125 78.3241 173.188 86.4795 172.058 89.2161C166.396 88.1016 175.534 89.2343 168.403 89.3068C169.326 89.4064 168.224 82.3837 167.809 83.2355C168.431 85.4103 169.957 90.0861 170.946 88.7631C163.108 86.2711 163.617 92.1974 162.402 96.393C158.765 94.0732 161.328 88.4187 164.389 90.0136C160.094 96.9367 163.231 100.924 165.718 99.9361C163.306 98.8759 163.645 97.725 159.754 102.854C162.006 109.061 163.768 102.736 168.403 95.2784C164.484 99.9451 169.91 108.155 167.508 96.5017C163.975 98.9212 172.086 96.5651 168.28 96.4292C171.266 107.693 171.012 105.174 169.505 97.4351C169.034 95.668 169.778 108.073 174.14 97.4441C171.389 107.883 171.276 106.089 173.075 106.261C172.576 92.8136 182.684 105.899 177.55 89.3249C178.624 92.7321 183.692 103.978 185.642 97.4532C185.171 92.3152 187.187 91.4544 186.387 80.0095C187.018 77.5085 182.665 75.3609 183.099 79.7014C187.527 73.9292 184.342 78.4691 191.38 76.693C189.203 75.379 188.148 76.0043 190.88 72.4974C192.981 77.1189 193.999 82.8277 191.577 82.728C193.933 73.9292 189.307 74.8353 193.735 76.2943C188.808 70.4676 194.865 68.1841 194.488 76.4211C195.148 69.8333 187.583 69.3802 186.886 75.7687C190.824 68.4922 195.534 66.4805 193.075 68.1932C193.311 70.7032 188.827 72.8599 187.178 67.6948C192.218 72.8236 192.331 61.9406 192.369 68.9996C195.412 72.3253 191.625 69.5343 192.67 58.5063C195.251 63.7348 196.08 58.4247 197.192 59.7749C194.036 63.8617 195.628 57.002 194.658 56.8027C192.68 56.993 196.825 57.736 196.712 63.3543C200.885 55.5431 196.514 50.4324 196.665 51.2932C199.839 55.4072 197.983 46.3818 196.787 58.6422C204.145 51.6738 205.049 47.8407 192.925 54.0389C192.614 51.112 198.615 42.1681 200.781 43.3733H200.791ZM45.5383 47.0342C46.3202 49.7527 44.9919 52.9787 42.7498 46.2187C48.7319 48.9009 41.3273 57.3192 47.0456 49.3903C42.4295 50.668 49.8341 52.3262 54.9495 47.3423C53.1785 48.5022 44.0216 58.5516 47.9217 54.1748C51.4262 55.226 52.9147 52.4712 54.064 52.3534C54.3655 53.0512 54.7235 56.3134 52.5096 53.1508C54.2053 55.6156 54.8459 57.2014 64.8224 59.2584C55.8728 59.204 55.6655 53.5496 58.6707 60.7445C55.6843 56.8933 67.5356 58.9503 64.8789 60.8804C59.0475 64.2785 58.4446 66.6889 62.9571 64.6954C64.3514 69.8152 68.4776 64.0611 65.6231 67.3686C66.3014 69.9964 67.724 63.318 66.0094 66.843C70.7292 69.8786 66.0565 69.643 71.219 65.9096C65.7833 67.577 72.9901 72.7512 74.488 69.3712C65.1427 73.5395 75.5996 71.3557 74.6576 69.788C74.3655 75.2884 71.7749 70.1686 82.2695 72.1168C68.2704 74.8716 75.7504 78.0341 70.1357 81.6859C74.6858 76.3939 81.7608 80.3629 83.3528 80.9882C74.5634 79.9189 86.3486 80.9882 75.2605 80.7164C83.4942 82.6102 81.2614 76.9558 84.4927 78.7319C86.3957 78.6775 89.7212 80.6076 92.1894 78.1972C80.5266 78.9403 84.2478 85.3559 87.5827 87.866C82.8818 85.6912 83.9275 79.4658 94.017 78.7137C86.8102 83.3805 88.7697 86.3527 93.5837 85.6912C89.8343 82.8549 91.822 79.04 87.2436 81.2782C91.1626 85.1566 92.8583 81.8128 100.48 77.3998C88.7415 79.0218 100.941 81.2238 96.2592 70.6579C89.3067 71.3829 97.107 68.8818 88.7792 68.8003C93.4235 75.4787 92.5003 74.3913 90.164 68.8819C84.2007 68.6009 85.3594 72.7149 88.7886 63.7439C84.5116 71.3829 82.4485 70.7848 85.2558 70.9026C81.5535 62.1672 92.8677 70.0689 83.4188 59.8293C81.7419 59.7024 86.782 68.4741 82.5992 65.9096C83.8522 66.109 81.6477 67.0605 73.6119 59.9833C74.601 58.9141 68.3457 58.0713 68.082 61.6053C72.5568 56.8117 66.6688 58.9594 75.204 56.8661C70.8799 56.5943 69.7683 59.1406 73.0655 57.3917C73.9228 59.5937 74.0452 62.5296 68.8168 61.56C71.5393 57.1561 64.8695 58.3703 70.8045 60.8713C61.6853 56.0415 68.1667 53.6039 66.1224 58.2435C67.6769 54.4195 55.496 56.2409 54.9307 61.1523C59.5845 55.3528 66.3862 52.1813 61.0918 52.4259C61.0447 55.6337 53.1219 59.2131 50.145 57.2467C56.5134 59.793 55.2227 51.5651 53.8285 55.4072C57.6156 58.2525 51.3037 57.8991 51.9914 51.0848C54.5444 54.3107 54.3655 50.7314 54.6293 50.7404C48.7884 54.1023 51.7842 50.3871 49.3348 50.8673C45.3122 50.7042 51.2378 50.9036 47.1869 54.3923C54.2053 50.3508 45.51 48.1307 46.2731 49.934C49.7493 52.6978 44.4455 44.8141 41.1294 53.0693C49.2123 48.0854 48.2044 47.6323 33.348 54.2292C32.8581 52.2628 42.194 46.2368 45.5571 47.0524L45.5383 47.0342ZM234.988 93.3211C232.934 94.2091 228.742 93.7107 221.695 97.9335C226.811 100.561 217.409 107.068 222.279 95.6771C214.724 99.637 221.3 103.071 223.636 100.888C221.855 100.226 212.538 106.506 216.523 100.407C219.123 102.346 218.737 100.552 218.944 101.341C218.313 102.029 218.671 102.537 215.478 99.4467C214.347 102.781 211.182 107.04 218.464 111.761C209.392 109.913 210.146 102.564 210.343 106.053C202.543 107.657 212.661 108.816 204.267 110.747C199.302 113.193 198.699 112.876 204.248 110.031C202.807 115.06 206.038 111.209 200.282 114.453C201.931 115.232 202.43 105.98 201.639 107.638C203.57 112.432 195.958 113.103 198.351 111.254C192.84 111.091 201.13 114.38 202.656 109.27C192.218 114.281 200.942 112.151 199.039 112.432C195.883 116.927 191.332 110.991 199.152 111.997C185.916 112.015 190.673 115.169 182.11 120.578C183.871 114.48 190.108 117.452 188.864 117.153C178.991 117.026 189.1 114.462 177.833 118.748C184.295 119.7 180.131 113.266 180.574 114.136C180.602 114.978 183.023 115.957 183.645 114.489C172.755 114.344 176.533 120.669 176.099 123.152C168.478 120.116 167.658 114.879 176.015 115.042C167.734 120.524 171.606 124.366 171.775 124.62C171.728 124.538 169.043 123.478 164.389 128.39C170.23 131.271 170.032 131.634 178.69 127.302C174.394 129.785 182.958 133.7 180.094 125.1C173.97 127.601 183.805 126.043 177.249 126.867C182.91 131.588 184.785 131.425 184.295 126.015C183.014 123.94 184.192 130.637 190.522 123.614C187.121 131.108 186.942 132.331 190.73 132.449C188.855 123.859 203.174 131.597 192.633 117.914C195.666 118.657 205.548 123.678 206.999 121.158C210.174 121.358 208.893 120.461 202.618 114.389C204.559 113.338 200.113 112.514 201.742 115.975C207.244 111.254 202.223 113.347 211.851 111.272C209.354 111 210.127 113.519 215.374 111.798C217.202 113.945 218.276 115.903 212.953 114.933C217.616 110.629 212.746 112.731 220.668 115.196C211.399 109.532 217.984 106.216 215.911 109.84C219.387 106.995 208.921 107.892 210.249 113.619C214.978 107.91 221.874 104.766 216.495 104.992C219.302 107.249 213.151 110.783 212.981 104.34C220.395 107.729 219.086 101.449 218.605 106.107C223.41 108.001 219.849 105.844 221.507 98.2597C225.04 101.404 225.803 96.9911 227.951 99.6914C223.919 101.178 228.855 95.7405 228.271 94.3994C225.143 95.1243 231.549 92.5146 234.978 93.312L234.988 93.3211ZM117.682 89.9048C116.429 90.0589 110.324 95.9127 99.726 88.1922C108.374 92.2156 93.3387 100.661 103.278 90.3851C89.0147 92.9224 100.376 92.134 106.528 85.5824C104.003 86.7786 85.6326 98.1872 93.9134 92.9405C98.7839 92.3515 100.772 87.3404 100.225 86.2893C99.8579 87.1048 102.42 93.312 93.4989 84.2051C92.1988 86.0174 86.1602 90.7294 99.6694 95.0881C84.4362 92.1612 87.611 82.7099 86.9327 87.9203C73.1408 86.5973 91.1531 88.5456 79.7824 88.6815C68.6001 91.5812 66.4051 92.279 74.9119 84.3772C73.0372 91.246 79.0853 87.4129 69.1276 92.1702C71.2755 93.2667 73.9793 82.6284 71.5582 84.7669C76.0047 89.2071 59.8483 90.7385 65.1521 87.3042C55.6561 87.286 72.114 89.5333 72.9807 85.4556C53.3103 89.2524 70.4748 87.4673 67.7334 86.5521C62.6462 92.0525 54.1299 84.2776 69.5798 86.5521C46.4333 87.6485 56.9844 86.3527 40.8374 94.0823C44.0216 86.108 53.8191 92.6958 51.3697 93.4117C33.6965 92.0253 57.9171 93.1127 35.8821 92.6505C48.8167 93.9554 42.778 85.4103 46.1883 84.4679C47.0739 84.5585 50.6631 87.7029 51.6994 87.7753C31.2942 86.5339 36.4851 90.9832 35.6749 92.8499C23.9933 91.2278 25.9716 87.9022 42.4483 87.0232C25.0578 92.4512 27.8369 93.0492 34.2618 91.3728C26.1788 90.9379 29.9754 89.5152 20.3098 93.9282C20.4228 97.6888 16.2871 94.5444 24.3795 91.2188C12.8015 93.2577 27.8934 98.9755 20.7808 88.9443C6.60271 93.5567 22.2033 92.6143 4.37943 91.6084C12.2739 100.434 8.72234 100.978 3.33372 95.6318C-1.7817 94.2454 0.422741 102.356 9.57963 93.1217C-0.44396 101.105 -1.72516 102.22 1.73223 104.168C-3.4303 93.2395 19.98 101.676 4.8316 92.6414C5.22727 94.5988 21.1482 101.794 19.4996 98.8124C25.5665 99.9542 22.2221 104.829 13.4232 95.079C15.298 94.7347 5.19902 93.7651 6.48965 98.7762C17.7379 93.3483 9.26875 95.9943 28.2514 93.7017C21.8171 94.2907 22.4294 97.0998 30.5029 95.9761C34.8741 98.6856 36.0517 103.162 27.0361 102.183C34.0074 96.9095 22.1751 100.135 35.2604 102.899C19.7822 97.426 33.0653 93.8285 31.0587 99.3743C35.8067 95.8312 16.2023 97.7975 16.9277 104.422C26.7252 97.8156 38.8308 95.3328 29.6928 95.7677C33.1878 99.3471 19.8953 103.37 17.8227 100.933C30.8892 104.956 29.3819 95.5231 27.6485 101.051C36.6546 105.273 28.2231 103.796 31.3131 96.7736C37.1068 101.576 37.7192 96.5108 39.1511 97.571C31.7088 102.392 38.2561 98.8215 35.4017 100.289C31.4261 100.244 42.7875 99.7186 38.7649 104.838C53.9039 101.051 40.9599 99.3652 44.2006 102.374C51.7465 105.591 44.4078 98.5315 39.038 108.128C58.9439 104.286 59.7729 104.512 36.0234 110.991C36.0234 108.699 43.3998 106.95 60.3947 105.482C41.007 102.238 63.0136 107.901 51.7088 106.859C41.0446 109.206 67.7899 111.091 67.0268 107.194C65.3029 106.515 55.4488 104.548 61.5628 104.748C49.7022 108.363 56.9844 106.415 53.7814 108.11C47.0927 107.493 53.8285 112.423 68.1196 116.555C68.6566 110.919 68.9675 109.351 54.6669 111.807C68.7414 112.024 72.5944 110.547 77.3707 115.903C83.0702 111.435 78.0679 117.96 67.4414 113.819C68.1291 114.145 66.1978 116.609 85.5384 125.272C68.0066 124.267 62.4861 118.404 85.8682 124.557C83.4 124.665 71.1908 117.588 65.1804 126.351C66.8761 123.542 72.8676 122.826 90.5314 125.182C77.3519 125.635 84.8978 125.626 72.6321 124.457C73.2162 125.698 78.0961 125.499 75.9294 123.369C72.6227 128.752 96.3816 123.333 92.7264 129.432C72.7923 128.254 79.6694 123.442 78.115 120.751C81.6289 126.342 96.2403 131.28 100.612 127.021C99.1042 124.593 81.789 121.34 92.7923 120.905C95.7881 122.219 93.7721 122.264 107.244 123.46C100.122 118.848 99.3491 121.584 113.395 125.571C111.982 116.455 112.566 117.751 116.25 121.485C118.775 111.743 105.435 111.988 121.959 113.438C124.304 111.607 125.143 103.47 117.295 110.357C123.843 99.8183 113.433 98.1781 112.312 105.047C101.488 97.0907 114.79 104.757 124.823 94.3632C103.278 95.6499 108.958 96.0305 102.92 92.4421C94.1866 92.0162 111.257 88.9987 117.672 89.9502L117.682 89.9048ZM165.558 122.699C165.247 123.714 158.294 128.453 148.789 121.892C157.296 125.798 141.525 134.008 151.304 124.103C138.162 126.55 149.345 125.689 155.402 120.216C152.906 122.309 135.732 132.449 143.871 128.344C147.734 127.71 148.761 123.723 148.205 121.775C147.837 123.469 148.497 125.988 143.41 123.36C142.119 124.194 138.021 126.079 152.246 129.405C135.355 128.335 137.54 123.696 140.602 131.425C126.999 129.25 143.796 127.601 131.634 127.728C122.477 131.425 124.031 133.908 134.281 131.57C133.367 138.212 139.321 133.691 127.611 137.397C130.654 139.327 132.378 132.64 130.918 135.566C135.289 138.974 119.34 137.796 124.559 133.609C117.069 135.367 132.359 141.058 137.87 137.161C119.406 140.813 135.355 137.352 132.642 135.603C129.505 143.586 122.044 138.747 139.151 142.743C117.267 143.794 127.63 144.293 112.632 148.28C116.693 144.157 130.079 151.442 132.34 153.037C114.912 151.732 137.833 151.905 116.108 151.497C129.778 154.532 122.891 149.893 132.83 148.95C134.629 150.817 138.153 153.88 141.026 153.101C121.865 151.905 129.778 157.967 129.919 161.573C120.272 158.239 123.174 153.282 141.271 151.533C126 158.574 130.607 161.8 138.803 162.869C132.708 159.797 137.39 157.559 129.74 159.154C133.565 165.425 134.14 160.658 144.907 156.617C136.325 154.922 152.124 165.869 147.941 157.985C135.845 159.806 154.94 155.312 142.034 155.212C153.574 164.618 151.954 165.207 151.342 159.154C149.119 161.446 154.111 166.494 166.895 159.38C159.82 168.841 160.433 169.076 167.574 167.4C161.573 159.525 182.788 170.309 166.01 160.758C168.28 163.549 184.926 169.538 184.258 163.947C189.316 163.268 188.836 166.258 176.476 161.265C179.265 160.06 169.316 158.221 171.53 162.171C182.628 157.813 175.242 163.05 193.951 161.718C188.553 161.41 188.233 161.437 197.126 158.565C201.45 162.96 201.676 168.17 192.802 168.098C200.612 162.144 189.882 161.7 203.711 163.476C187.545 159.081 199.707 158.266 196.815 165.388C202.43 160.196 183.127 160.314 184.776 164.908C194.441 160.332 205.435 160.622 196.448 162.815C200.828 163.576 188.685 165.669 187.574 160.64C199.519 165.415 198.049 157.206 195.412 163.44C205.228 165.724 197.861 163.404 201.855 155.765C206.641 160.395 207.253 157.296 207.734 158.311C200.433 162.081 205.925 151.461 207.819 157.441C202.986 157.369 212.322 158.601 207.451 162.624C223.316 157.197 212.444 155.611 216.57 159.444C224.964 161.637 217.748 153.019 212.472 160.459C232.105 159.516 234.809 154.36 212.369 159.725C214.272 158.429 222.505 157.613 240.207 153.445C222.053 149.449 243.73 154.931 233.537 153.064C222.1 155.285 246.594 156.173 244.917 152.376C242.279 151.751 232.548 149.929 237.635 150.156C223.137 154.505 228.45 148.108 222.487 151.515C214.008 150.083 221.573 156.707 230.975 158.945C228.704 156.136 224.361 154.596 209.317 152.53C221.318 150.119 223.25 151.352 227.018 153.889C230.777 149.585 223.052 155.837 211.653 150.98C209.514 153.146 205.708 151.986 222.892 156.743C203.749 154.868 194.573 150.128 215.732 157.867C213.301 156.2 202.204 147.6 196.278 154.261C196.08 151.551 202.939 155.402 214.696 152.231C199.83 151.769 204.437 152.729 190.466 152.503C189.185 151.017 192.152 152.539 188.158 147.8C183.023 152.104 206.415 146.051 200.923 151.959C179.425 149.92 184.342 145.253 181.893 142.625C183.466 148.95 195.063 151.959 196.542 146.993C189.42 148.117 177.126 144.003 176.721 140.967C178.737 142.2 180.47 143.948 187.244 142.49C178.341 138.013 174.762 143.332 187.649 146.232C183.466 137.388 180.32 139.472 180.226 143.033C183.598 139.028 165.784 138.249 179.246 142.263C178.775 137.85 178.681 130.818 170.956 139.164C176.457 128.942 167.121 125.526 163.146 135.757C152.501 128.063 163.758 134.506 172.689 125.3C154.234 124.792 158.888 130.428 153.857 128.716C146.189 125.59 153.838 132.902 149.194 125.744C150.013 127.302 159.255 121.775 165.567 122.69L165.558 122.699ZM114.516 124.973C113.461 126.695 110.23 141.275 103.796 125.227C106.443 133.899 100.225 147.7 104.295 120.298C98.718 127.529 102.383 134.135 103.739 123.243C103.146 122.155 96.6266 145.126 100.075 128C100.96 131.951 101.346 124.892 100.546 124.547C99.8202 126.577 100.075 128.951 97.5592 119.808C95.5432 124.312 93.0467 133.337 98.8027 144.655C92.1612 140.976 92.4061 121.059 91.3321 133.111C88.4117 133.446 90.7857 136.065 83.1173 135.494C80.5832 143.613 80.8187 147.165 85.6515 139.671C84.3609 154.505 84.7377 140.469 80.423 150.047C82.5238 156.843 84.4739 135.784 84.8602 145.172C85.9341 153.971 79.6505 153.273 81.0448 143.368C76.8997 147.383 80.8281 160.667 86.3203 150.971C78.7273 160.413 84.5587 152.367 82.9383 147.845C82.3354 165.597 75.3735 151.669 86.2167 160.939C77.3236 163.667 81.9774 165.859 75.6938 173.816C79.4715 161.202 79.1324 176.235 82.6934 180.757C75.496 175.048 82.6651 176.398 74.78 174.812C79.9708 181.219 79.594 162.208 81.2238 163.014C81.902 166.394 81.7231 171.976 82.8065 168.542C76.1178 166.349 79.707 180.585 80.3477 186.148C75.383 179.86 74.2431 168.877 80.7622 167.599C79.6694 183.82 78.2374 194.358 82.8818 196.062C80.2158 190.462 80.6868 185.587 76.4852 192.963C80.7621 207.733 78.7367 198.128 84.7094 187.154C79.4338 195.391 85.4348 210.533 83.7203 189.619C78.7744 195.237 82.8347 191.549 78.52 193.108C82.7688 216.886 84.2667 214.638 82.5992 202.233C81.9774 201.508 85.6326 226.654 86.5841 209.546C84.4833 232.571 85.2935 230.84 88.2327 232.091C85.595 209.401 92.7076 236.731 85.9812 209.709C87.074 215.49 93.6119 235.652 93.5931 229.137C94.2149 230.623 93.3199 236.006 87.3189 221.661C88.9675 219.459 86.1225 217.031 87.5545 228.167C90.4654 217.819 85.0674 226.663 90.8705 224.117C90.343 224.225 91.172 228.974 96.0707 224.814C96.4099 234.728 96.4947 245.865 91.8314 246.581C95.383 232.1 93.188 235.625 99.0288 241.144C91.5959 230.686 96.2121 226.237 93.8098 243.21C96.5229 232.136 89.1936 234.773 90.4089 249C92.7829 233.912 96.9563 229.98 92.246 232.408C93.5554 238.162 87.6393 245.004 89.693 235.788C92.3402 244.886 90.4843 221.86 88.5436 233.804C92.8583 242.059 90.6444 237.474 91.8032 217.746C93.6214 227.895 94.441 214.829 95.562 215.644C92.0764 224.479 92.9902 209.283 90.9836 209.763C89.7306 211.911 93.2822 215.119 92.0104 227.841C96.7302 215.236 90.9459 206.981 91.2191 211.313C94.6294 219.323 93.4141 201.744 92.001 225.639C98.1527 212.917 96.2215 208.069 86.0472 221.018C87.5827 214.412 92.4626 212.318 98.4636 209.102C91.2097 197.865 94.733 206.075 93.3293 199.424C89.9285 207.516 100.169 214.475 99.5375 207.017C99.839 200.348 95.562 189.13 97.8418 184.653C93.9982 194.086 97.8984 190.163 97.286 196.624C95.7222 189.673 97.6534 195.618 101.356 200.493C101.789 193.244 102.383 191.595 97.0316 190.933C103.833 181.989 105.51 179.189 104.465 183.04C106.829 171.922 106.141 191.332 102.759 178.763C102.665 175.51 102.646 173.961 108.591 191.459C102.618 188.958 101.742 175.275 111.068 190.58C109.203 186.792 102.166 165.098 102.741 181.935C103.965 174.93 107.734 173.172 114.931 179.026C110.004 180.168 112.821 173.816 108.233 170.898C108.685 171.74 110.4 178.011 109.825 170.454C105.765 179.778 118.775 159.96 116.457 171.079C110.183 169.058 113.932 158.438 113.942 152.167C115.261 162.026 117.54 168.886 120.122 154.233C120.15 157.659 111.323 152.249 117.795 144.411C117.616 148.126 122.043 151.37 117.079 146.676C115.355 136.545 116.014 143.794 121.262 154.161C115.911 137.805 116.956 141.901 115.393 151.642C116.806 131.915 109.815 139.273 115.053 149.648C113.932 139.68 114.479 124.375 111.549 146.477C113.998 124.747 112.114 122.635 114.507 124.991L114.516 124.973ZM69.7871 115.875C68.6849 116.791 65.6137 120.959 59.82 115.06C63.7013 118.666 56.617 126.233 61.1483 118.232C53.9792 120.434 58.2845 120.288 60.4324 115.277C58.699 117.343 49.9283 126.568 53.6212 123.043C55.1285 123.197 55.6561 118.612 54.9119 117.588C55.2039 119.201 54.601 121.566 52.4813 119.283C51.3603 120.85 49.2689 122.454 56.0706 125.454C46.5181 125.39 47.1775 120.588 48.2609 126.913C39.9142 124.865 47.5637 123.288 41.3744 124.312C35.7502 128.634 37.9547 131.96 41.299 129.939C39.8859 135.104 41.0446 128.399 35.5712 135.367C36.1836 136.201 36.5981 128.544 34.9118 130.274C37.625 135.15 30.4464 135.82 33.5835 133.863C28.3362 133.727 35.2038 138.031 36.5887 132.803C26.697 137.904 34.8647 136.599 33.9603 136.835C30.9363 141.484 27.5825 133.591 32.0667 138.285C20.4322 141.049 26.6876 143.305 18.5669 147.89C18.2937 140.741 23.2302 147.473 21.054 149.005C11.6898 147.917 24.8223 149.893 14.2052 150.518C20.2438 152.43 16.2683 144.909 18.4539 144.873C17.493 147.546 17.8886 150.4 19.3489 152.512C8.13826 151.433 10.7572 156.073 9.41006 157.695C4.94467 155.502 7.82739 153.771 17.5307 147.573C10.6724 152.276 12.5471 155.275 17.1915 154.605C13.6022 150.844 16.4473 147.917 12.0667 148.361C14.9588 153.191 15.7219 149.802 22.1562 146.259C17.2669 147.002 25.3404 150.147 22.7026 142.236C18.8684 142.97 30.9645 139.554 25.7832 137.66C31.1718 146.214 29.3819 145.117 28.0912 141.384C25.0484 136.563 28.9862 146.187 35.9481 137.152C32.7921 145.761 33.5646 146.069 38.1337 144.374C34.5915 137.379 45.4253 148.081 39.1982 137.759C41.2802 138.548 49.7587 142.852 49.4008 139.363C54.3278 138.656 55.0061 141.438 51.04 136.128C51.982 135.041 47.8464 132.386 48.4964 135.041C54.6198 132.023 49.8907 135.104 59.9048 134.814C56.6641 133.627 57.446 134.379 61.5063 131.706C64.1724 135.748 64.2948 139.626 60.2251 140.469C63.7296 134.207 59.1983 134.524 65.7833 135.222C57.9924 132.168 65.1427 131.525 64.1253 138.031C66.5087 132.359 56.6547 132.377 57.0127 135.521C62.4107 130.583 68.0254 130.12 63.8992 131.28C65.6608 132.694 58.0301 134.488 56.9844 130.682C64.0311 134.171 63.739 126.777 63.3339 131.57C67.8653 133.537 62.6839 132.259 64.2383 124.484C69.5045 126.84 66.5181 120.515 67.7051 118.712C62.0716 122.101 65.8398 118.349 63.4564 118.83C60.5077 118.666 65.2746 119.79 62.3071 123.315C69.9284 119.237 66.5558 115.078 69.7777 115.903L69.7871 115.875ZM157.644 164.047C156.542 164.926 153.33 168.904 147.319 163.223C152.359 171.26 141.186 174.069 144.078 164.6C138.52 167.626 144.983 171.043 149.156 167.998C146.443 167.337 135.402 175.329 138.36 169.294C140.923 172.121 147.121 167.645 141.676 172.058C143.862 173.643 146.104 175.945 145.774 172.891C144.644 175.302 141.516 178.627 149.608 183.312C144.427 181.482 149.872 176.018 151.935 183.077C145.181 182.877 154.206 184.055 148.723 185.07C144.776 187.481 146.999 187.163 153.395 184.354C152.906 190.226 156.09 186.429 151.351 190.543C154.856 193.117 158.162 184.862 159.274 186.493C162.11 190.344 152.727 191.921 159.773 189.211C157.164 189.945 167.197 194.096 171.521 189.03C162.176 193.099 170.748 191.005 169.806 190.398C169.514 196.642 165.981 194.395 179.302 192.664C168.129 197.204 178.436 197.63 174.705 199.388C177.371 195.156 183.504 200.801 183.212 202.305C175.364 201.3 189.976 201.454 180.772 199.406C188.064 202.151 185.831 196.696 188.12 196.66C190.023 197.494 194.291 198.454 196.759 196.089C186.038 195.962 189.759 202.233 190.268 204.698C187.451 200.783 190.381 195.591 201.413 197.575C191.38 203.003 191.455 201.39 193.443 202.559C189.693 199.777 191.681 197.838 187.103 199.098C186.311 204.643 183.297 198.708 188.092 191.712C182.006 194.168 189.495 198.934 184.813 191.323C177.861 191.993 188.487 189.547 181.102 188.559C183.862 194.096 179.17 194.857 174.008 189.492C168.987 187.435 170.145 192.22 173.575 182.56C168.355 189.963 167.234 189.383 169.1 189.501C165.397 181.001 177.654 189.538 168.205 179.588C167.47 181.219 173.452 187.97 171.153 185.487C174.291 184.771 173.028 185.668 166.876 179.66C166.924 178.618 159.726 177.803 159.462 181.228C165.821 176.552 161.818 178.609 172.237 176.543C166.971 176.28 164.917 178.772 167.272 177.078C170.014 179.189 170.136 182.007 165.85 181.038C168.572 175.891 160.96 177.975 166.895 179.515C157.776 174.803 165.2 172.411 163.155 176.878C164.71 173.172 153.471 174.051 152.906 178.818C157.559 173.163 164.361 171.849 159.067 172.058C158.078 175.193 150.155 175.066 149.062 170.472C153.546 173.825 149.429 166.72 146.151 171.324C151.822 173.181 148.337 171.949 150.908 164.437C153.461 168.442 154.309 163.241 157.672 164.029L157.644 164.047ZM75.2699 140.858C74.2242 142.299 71.3509 150.273 68.2892 140.994C70.39 146.15 65.9152 156.997 68.4305 143.903C62.618 148.271 65.5855 149.077 66.5935 141.719C66.0942 143.93 61.5063 158.8 64.4267 152.24C65.0297 153.001 63.4752 146.83 62.6556 145.734C62.8346 147.745 63.0513 151.85 61.7136 147.754C60.6585 150.219 58.3975 154.17 62.3448 158.864C56.5699 159.163 58.52 150.572 60.1403 159.471C55.1191 156.762 59.2548 154.813 54.0546 156.807C54.8742 163.467 52.2458 168.052 53.6589 166.177C52.4248 174.296 53.3951 165.705 49.5986 170.952C51.5204 174.586 52.3777 164.382 52.8487 169.43C53.6212 174.241 47.2058 173.861 48.242 167.944C46.471 170.961 51.398 179.543 53.8097 174.568C47.2246 179.733 51.0871 173.027 49.5704 174.178C48.2609 184.708 45.5477 178.41 51.6994 183.312C42.128 183.901 46.0753 186.411 40.6019 192.573C42.2128 185.088 46.8572 194.63 47.6203 196.524C38.5388 192.492 47.1681 195.455 39.5373 195.409C43.9368 199.324 42.9665 190.743 45.2934 191.585C44.926 192.945 43.5411 195.083 44.4643 194.521C37.9923 194.639 42.1186 203.746 39.9801 209.011C36.5698 203.755 36.259 194.947 42.7309 192.845C38.7554 200.23 41.8172 203.52 45.0955 202.468C39.0663 195.781 44.031 189.9 43.1549 190.716C44.389 197.394 44.2665 189.746 47.7333 181.844C45.0013 185.858 50.0885 194.549 48.779 182.116C43.6353 181.074 54.1959 177.649 50.682 174.794C54.4314 186.81 53.3009 185.994 52.8299 178.709C55.2793 175.012 52.2081 183.657 58.2374 169.593C57.5402 179.878 58.3692 178.029 62.8912 179.117C60.6585 165.796 67.4885 178.854 61.7795 163.168C62.8441 165.832 67.6015 177.766 67.724 173.707C69.0523 173.118 68.2892 174.251 64.0028 165.008C65.5384 164.21 63.2774 162.887 64.634 169.384C67.903 162.325 63.9745 165.343 69.7023 162.552C68.6001 163.023 70.3806 165.624 73.8851 163.757C74.0358 166.874 74.1018 172.058 70.0038 170.137C73.1597 161.718 70.6444 164.555 75.741 167.074C70.2299 159.951 73.2068 156.608 71.9727 164.491C74.4221 158.429 69.1465 159.879 69.3726 167.663C72.1799 159 75.7221 155.937 72.5285 156.861C74.5822 160.504 71.3038 164.745 71.5864 160.196C75.4301 164.763 73.7155 153.155 72.8676 159.779C75.7221 162.479 73.9887 158.665 74.9779 146.957C75.5808 152.593 73.5836 146.93 71.8596 148.371C68.9015 151.886 72.2176 143.658 71.3132 142.607C69.4574 143.776 73.2633 139.572 75.2982 140.858H75.2699ZM126.377 170.236C125.331 171.586 123.259 178.156 119.048 169.457C121.356 174.341 116.58 184.626 119.33 172.411C113.254 175.655 116.476 176.298 116.683 169.348C117.088 171.532 112.124 184.68 116.193 178.645C115.958 179.298 114.432 175.211 112.679 174.133C113.819 176.081 114.045 179.135 113.565 175.347C112.5 177.658 111.097 182.261 115.374 186.674C110.211 186.158 112.227 176.407 112.953 183.956C109.542 183.176 117.851 182.198 115.251 183.276C111.153 187.879 108.544 186.058 113.009 186.275C113.64 194.793 119.453 187.589 116.401 194.313C116.504 198.681 121.186 188.323 116.919 194.929C119.688 199.442 116.73 199.995 119.792 194.449C115.948 196.488 121.214 203.737 121.836 198.273C117.691 204.018 125.708 199.433 126.989 197.113C124.644 206.193 118.925 199.487 127.31 205.105C121.987 207.407 128.082 208.975 125.133 213.052C125.915 206.093 128.93 214.249 128.732 215.173C124.003 214.058 134.102 216.097 130.711 214.357C135.411 218.082 132.425 208.34 133.904 209.192C135.468 210.461 137.946 213.324 138.935 213.814C132.962 213.134 137.239 219.966 137.908 222.35C133.32 220.03 133.056 215.282 139.896 215.064C135.581 222.893 138.727 225.068 142.166 224.987C139.745 222.114 141.026 220.963 138.077 224.28C140.338 231.393 142.091 225.068 146.735 218.517C143.749 223.183 148.242 232.299 144.889 221.552C142.289 223.972 149.476 221.616 146.594 221.48C149.59 233.65 147.442 232.037 144.992 225.204C141.695 222.531 142.439 231.312 143.984 220.682C141.224 231.121 142.053 230.233 143.862 229.499C140.536 217.864 145.944 230.949 139.849 216.188C139.038 216.876 144.116 224.497 141.356 218.879C143.72 219.178 144.785 221.942 139.264 211.403C138.963 207.996 133.65 206.755 131.266 211.095C134.761 205.323 130.626 208.957 136.74 206.274C134.554 205.867 135.393 207.398 138.125 204.797C138.341 208.513 138.426 212.409 135.044 211.403C137.409 203.511 134.658 204.417 139.095 206.782C132.265 200.049 135.506 197.765 133.245 205.096C135.798 199.415 129.156 199.868 130.343 207.162C132.406 198.98 135.242 196.968 130.89 197.775C133.019 200.285 128.515 204.254 128.751 199.088C131.916 204.217 130.145 192.428 128.299 199.487C133.235 202.813 131.323 200.928 134.253 189.9C134.017 195.129 132.02 189.818 130.296 190.262C128.073 195.255 131.558 187.49 131.53 188.196C128.6 189.293 129.929 190.036 126.989 196.56C133.066 189.655 129.618 186.357 130.711 188.124C132.953 191.332 128.261 182.306 126.123 193.661C132.548 186.692 133.452 184.671 126.028 190.87C121.94 187.943 124.747 183.249 131.125 180.711C122.665 174.504 128.242 180.576 122.524 178.093C118.586 181.337 127.018 183.095 126.443 178.365C125.859 176.344 124.191 169.022 126.368 170.227L126.377 170.236Z" fill="black"/>
</svg>
