<svg width="204" height="210" viewBox="0 0 204 210" fill="none" xmlns="http://www.w3.org/2000/svg">
<path d="M126.123 0C124.463 0.842369 125.293 2.52711 128.612 5.89659C128.612 5.89659 126.953 7.58133 126.123 7.58133C127.782 8.42369 128.612 10.1084 130.272 10.9508C128.612 10.9508 127.782 10.1084 126.123 10.1084C126.953 10.9508 126.953 11.7932 127.782 12.6355C126.953 12.6355 126.123 13.4779 126.123 13.4779C126.123 15.1627 128.612 16.8474 129.442 18.5321C128.612 18.5321 126.123 17.6898 126.123 19.3745C126.953 21.0592 128.612 22.744 129.442 24.4287C124.463 23.5863 136.91 28.6406 125.293 26.1135C126.123 26.9558 126.953 28.6406 127.782 29.4829H124.463C126.123 31.1677 126.953 32.8524 127.782 34.5371C126.953 34.5371 125.293 33.6948 124.463 33.6948C124.463 33.6948 123.634 34.5371 123.634 35.3795C123.634 37.0643 125.293 37.9066 126.123 39.5914H122.804C122.804 41.2761 120.314 42.1185 123.634 44.6456H121.974C121.974 45.488 122.804 46.3303 120.314 47.1727C121.144 48.0151 121.144 49.6998 121.974 50.5422C121.144 49.6998 119.485 48.8574 117.825 50.5422C117.825 51.3845 118.655 52.2269 118.655 53.0693H116.995C117.825 53.9116 117.825 54.754 118.655 55.5964C116.995 55.5964 115.336 55.5964 114.506 56.4388C114.506 57.2811 116.166 58.9659 116.995 59.8082H115.336C114.506 61.493 112.017 62.3353 112.847 64.8624H110.357C110.357 65.7048 111.187 66.5472 111.187 67.3896C110.357 67.3896 109.528 66.5472 108.698 69.0743H107.038C107.038 69.9167 107.868 69.9167 107.868 70.759C106.209 70.759 104.549 69.9167 103.719 71.6014C102.89 74.1285 107.038 76.6556 103.719 78.3404L104.549 79.1827L102.06 81.7098C102.89 82.5522 103.719 82.5522 104.549 83.3946L102.89 85.0793C103.719 85.0793 104.549 85.9217 105.379 85.9217C104.549 86.7641 104.549 87.6064 103.719 88.4488H106.209C105.379 89.2912 104.549 90.9759 103.719 91.8183C105.379 91.8183 106.209 90.9759 107.868 90.9759C107.868 91.8183 107.038 92.6606 107.038 93.503C107.868 93.503 108.698 92.6606 109.528 92.6606V95.1878H111.187V97.7149H112.847C113.676 98.5572 114.506 100.242 114.506 101.084C116.166 100.242 116.995 99.3996 117.825 98.5572C118.655 99.3996 118.655 101.084 119.485 101.084H125.293C126.123 101.084 126.953 100.242 126.953 100.242V97.7149H129.442C129.442 96.8725 128.612 95.1878 128.612 94.3454C129.442 94.3454 131.101 95.1878 131.931 95.1878C131.101 94.3454 130.272 92.6606 130.272 91.8183C131.101 90.1335 134.42 90.9759 134.42 89.2912C134.42 88.4488 131.931 86.7641 132.761 85.0793C132.761 84.2369 134.42 83.3946 135.25 82.5522C136.91 80.0251 134.42 77.498 135.25 74.1285C135.25 73.2861 137.739 73.2861 137.739 73.2861C137.739 71.6014 136.91 70.759 136.08 69.0743C136.91 69.0743 137.739 68.2319 138.569 68.2319C138.569 67.3896 137.739 66.5472 137.739 66.5472C139.399 63.1777 136.91 61.493 136.08 58.9659C136.91 58.9659 137.739 58.1235 138.569 58.1235C137.739 56.4388 136.91 55.5964 136.91 53.9116C136.91 53.9116 138.569 53.0693 139.399 53.0693C135.25 52.2269 136.08 49.6998 135.25 47.1727C135.25 46.3303 137.739 45.488 137.739 44.6456C137.739 43.8032 136.91 42.9608 136.08 42.1185C136.91 42.1185 136.91 41.2761 137.739 41.2761C135.25 37.9066 135.25 34.5371 136.08 31.1677C132.761 29.4829 132.761 26.1135 131.931 23.5863C131.931 22.744 134.42 22.744 134.42 21.9016C133.591 19.3745 134.42 16.005 129.442 15.1627C130.272 14.3203 131.101 14.3203 131.931 13.4779C132.761 12.6355 131.931 10.9508 129.442 10.1084C129.442 9.26606 130.272 9.26606 130.272 8.42369C130.272 6.73896 128.612 5.89659 126.953 5.05422L127.782 4.21185C127.782 2.52711 126.953 1.68474 126.123 0ZM76.3375 9.26606C76.3375 10.9508 78.8267 10.9508 81.316 11.7932C82.1458 12.6355 80.4862 13.4779 79.6565 14.3203C81.316 14.3203 82.9755 15.1627 84.635 15.1627C82.9755 16.005 82.1458 16.005 80.4862 16.8474C81.316 17.6898 82.9755 17.6898 83.8053 18.5321C82.9755 18.5321 82.9755 19.3745 82.1458 19.3745C82.9755 21.0592 84.635 21.9016 87.1243 21.9016C86.2945 22.744 85.4648 23.5863 84.635 25.2711C86.2945 25.2711 88.7838 25.2711 90.4433 27.7982C90.4433 28.6406 89.6135 28.6406 89.6135 29.4829L90.4433 30.3253C89.6135 31.1677 87.954 31.1677 87.1243 32.01C88.7838 32.01 89.6135 32.8524 91.2731 32.8524C90.4433 33.6948 88.7838 33.6948 87.954 34.5371C89.6135 35.3795 91.2731 37.0643 92.9326 37.9066C92.1028 37.9066 90.4433 37.9066 89.6135 38.749C88.7838 41.2761 92.9326 41.2761 93.7623 42.9608C92.9326 42.9608 92.1028 42.9608 91.2731 43.8032C91.2731 45.488 90.4433 47.1727 94.5921 48.0151C94.5921 48.8574 93.7623 48.8574 93.7623 49.6998L94.5921 50.5422C94.5921 51.3845 93.7623 51.3845 93.7623 52.2269C94.5921 52.2269 96.2516 53.0693 97.0813 53.0693C96.2516 53.9116 94.5921 54.754 95.4218 56.4388C96.2516 57.2811 97.9111 56.4388 98.7409 58.9659C99.5706 58.9659 100.4 58.1235 100.4 58.1235C102.06 58.9659 102.89 60.6506 103.719 61.493C102.06 56.4388 105.379 59.8082 107.038 57.2811C107.868 55.5964 104.549 55.5964 107.868 53.0693C107.038 53.0693 107.038 52.2269 106.209 52.2269C106.209 51.3845 107.038 50.5422 107.038 50.5422C105.379 48.8574 107.038 47.1727 105.379 46.3303C106.209 45.488 107.038 45.488 107.038 44.6456C106.209 42.9608 105.379 41.2761 101.23 41.2761C100.4 41.2761 100.4 38.749 100.4 37.9066C100.4 37.9066 99.5706 37.0643 98.7409 37.0643C97.0813 35.3795 102.06 34.5371 96.2516 32.8524V31.1677C95.4218 30.3253 94.5921 30.3253 93.7623 30.3253C93.7623 29.4829 94.5921 28.6406 94.5921 27.7982H92.1028C92.9326 26.9558 92.9326 26.1135 93.7623 25.2711H89.6135C89.6135 24.4287 90.4433 23.5863 90.4433 22.744C89.6135 21.9016 88.7838 21.9016 87.954 21.9016C87.954 21.0592 88.7838 21.0592 88.7838 20.2169C87.954 20.2169 87.1243 19.3745 86.2945 19.3745C86.2945 18.5321 87.1243 18.5321 87.1243 17.6898C86.2945 17.6898 85.4648 16.8474 84.635 16.8474C83.8053 16.005 82.9755 15.1627 84.635 13.4779C82.9755 12.6355 80.4862 12.6355 78.8267 12.6355C78.8267 11.7932 79.6565 10.9508 79.6565 10.1084C78.8267 9.26606 77.1672 9.26606 76.3375 9.26606ZM170.93 34.5371L170.1 35.3795C170.1 37.0643 171.759 37.9066 171.759 39.5914L170.93 40.4337C170.1 40.4337 169.27 39.5914 168.44 39.5914C169.27 41.2761 169.27 42.9608 170.1 44.6456C169.27 43.8032 167.611 42.9608 166.781 42.1185C166.781 42.9608 167.611 43.8032 167.611 44.6456H165.951V50.5422C165.121 49.6998 163.462 49.6998 162.632 49.6998C165.121 53.0693 163.462 55.5964 160.972 57.2811C160.143 57.2811 159.313 56.4388 158.483 55.5964V59.8082L155.994 57.2811V63.1777C155.164 62.3353 154.334 60.6506 153.505 60.6506C151.845 61.493 151.845 64.0201 151.845 66.5472C150.186 64.0201 148.526 64.8624 147.696 66.5472C147.696 68.2319 148.526 69.0743 148.526 70.759C145.207 68.2319 146.037 70.759 144.377 71.6014V74.9709C143.548 74.1285 141.888 73.2861 141.058 74.9709C141.058 75.8133 142.718 76.6556 140.229 79.1827C141.058 79.1827 142.718 80.0251 142.718 80.0251C142.718 81.7098 141.888 83.3946 141.058 85.0793C141.888 84.2369 143.548 84.2369 144.377 83.3946V85.0793H147.696C147.696 85.0793 148.526 84.2369 148.526 83.3946C149.356 83.3946 149.356 84.2369 150.186 84.2369V82.5522C151.845 80.8675 154.334 80.8675 155.164 78.3404C155.994 79.1827 155.994 80.0251 158.483 77.498C156.824 72.4438 159.313 69.0743 162.632 65.7048C162.632 64.8624 161.802 64.0201 161.802 63.1777H163.462C163.462 62.3353 162.632 60.6506 162.632 59.8082H165.121C165.121 58.9659 164.292 58.1235 164.292 57.2811H167.611C166.781 56.4388 165.951 54.754 165.121 53.9116H167.611C166.781 53.0693 166.781 51.3845 165.951 50.5422H168.44C168.44 49.6998 167.611 48.8574 167.611 48.0151C168.44 47.1727 169.27 47.1727 170.1 47.1727C170.1 46.3303 169.27 46.3303 169.27 45.488C169.27 44.6456 170.1 43.8032 171.759 42.9608C170.93 41.2761 170.93 39.5914 170.1 37.9066H172.589C173.419 37.0643 174.249 35.3795 170.93 34.5371ZM32.3604 36.2219C33.1902 37.9066 34.8497 36.2219 37.339 35.3795C38.1687 35.3795 38.1687 37.9066 38.1687 38.749C39.8282 37.9066 40.658 37.9066 42.3175 37.0643C41.4878 37.9066 41.4878 39.5914 40.658 40.4337H43.1473V42.1185C44.8068 42.9608 47.296 42.1185 48.9555 41.2761C48.1258 42.1185 46.4663 42.9608 48.1258 45.488C51.4448 42.9608 53.1043 45.488 55.5936 47.1727C54.7638 48.0151 53.9341 49.6998 53.1043 50.5422C54.7638 50.5422 55.5936 49.6998 57.2531 49.6998C56.4233 50.5422 56.4233 51.3845 55.5936 52.2269H61.4019L58.9126 54.754C58.9126 55.5964 59.7424 56.4388 59.7424 56.4388H64.7209C62.2316 58.1235 63.0614 60.6506 64.7209 61.493C66.3804 61.493 67.2102 60.6506 68.8697 60.6506C68.8697 61.493 68.0399 62.3353 68.0399 63.1777C68.8697 63.1777 69.6994 64.0201 70.5292 65.7048C71.3589 64.8624 72.1887 64.8624 73.0184 64.0201C72.1887 65.7048 72.1887 67.3896 75.5077 68.2319C76.3375 68.2319 76.3375 66.5472 77.1672 66.5472C77.997 66.5472 77.997 67.3896 78.8267 67.3896V64.8624C80.4862 64.0201 82.1458 64.8624 83.8053 64.8624C78.8267 64.0201 82.1458 61.493 81.316 58.9659C81.316 58.1235 79.6565 57.2811 78.8267 57.2811C78.8267 56.4388 79.6565 56.4388 79.6565 55.5964C76.3375 56.4388 76.3375 53.0693 74.678 51.3845H73.0184V48.8574C71.3589 47.1727 68.8697 48.8574 66.3804 48.8574C65.5507 48.8574 64.7209 48.0151 63.8911 46.3303H62.2316L59.7424 43.8032C58.9126 43.8032 58.0829 44.6456 57.2531 44.6456C56.4233 43.8032 56.4233 42.9608 56.4233 42.1185C55.5936 42.9608 54.7638 42.9608 53.9341 43.8032V41.2761C53.1043 41.2761 51.4448 42.1185 50.6151 42.1185C50.6151 41.2761 51.4448 39.5914 51.4448 38.749C49.7853 39.5914 48.9555 40.4337 47.296 41.2761V38.749C46.4663 38.749 44.8068 39.5914 43.977 39.5914V37.9066C43.1473 37.9066 42.3175 38.749 41.4878 38.749C40.658 37.9066 41.4878 37.0643 40.658 36.2219H37.339L36.5092 34.5371C34.8497 33.6948 34.02 34.5371 32.3604 36.2219ZM199.141 79.1827C197.482 79.1827 196.652 74.1285 194.992 83.3946C194.992 83.3946 193.333 84.2369 192.503 81.7098C191.673 83.3946 191.673 85.0793 190.844 86.7641C190.014 85.9217 190.014 84.2369 189.184 83.3946C189.184 84.2369 188.354 85.0793 188.354 85.9217C187.525 85.9217 187.525 85.0793 186.695 85.0793L184.206 90.1335L181.716 87.6064C180.887 90.1335 180.887 91.8183 178.397 93.503L177.568 92.6606C176.738 92.6606 176.738 93.503 175.908 93.503C175.908 92.6606 175.078 90.9759 175.078 90.1335C174.249 91.8183 174.249 92.6606 173.419 94.3454C172.589 93.503 172.589 92.6606 171.759 91.8183C170.93 93.503 170.1 94.3454 169.27 96.0301C168.44 95.1878 168.44 94.3454 167.611 93.503C165.951 92.6606 164.292 95.1878 163.462 97.7149C162.632 96.8725 162.632 95.1878 161.802 94.3454C160.972 96.0301 158.483 93.503 158.483 98.5572C157.653 97.7149 156.824 97.7149 155.164 98.5572C154.334 98.5572 154.334 97.7149 153.505 97.7149V101.084C151.845 100.242 150.186 99.3996 149.356 100.242C149.356 101.084 151.015 102.769 147.696 103.611C151.015 105.296 146.867 106.139 146.867 108.666C150.186 106.981 150.186 111.193 152.675 111.193C154.334 111.193 154.334 110.35 155.164 109.508L156.824 111.193C157.653 108.666 160.972 109.508 162.632 108.666C163.462 107.823 163.462 106.981 164.292 106.981C165.121 106.981 165.121 108.666 165.951 108.666C167.611 107.823 170.1 106.981 169.27 102.769C171.759 101.927 173.419 100.242 175.908 100.242C176.738 100.242 176.738 97.7149 177.568 96.8725H180.057V94.3454C180.887 94.3454 181.716 95.1878 182.546 95.1878C182.546 94.3454 183.376 92.6606 183.376 91.8183L185.865 94.3454V89.2912L187.525 90.9759C187.525 90.1335 188.354 88.4488 188.354 87.6064C189.184 87.6064 190.014 88.4488 190.844 85.0793C191.673 85.0793 191.673 85.9217 192.503 85.9217C192.503 85.0793 193.333 84.2369 193.333 83.3946C194.163 82.5522 194.992 81.7098 196.652 83.3946C197.482 81.7098 198.311 80.8675 199.141 79.1827ZM91.2731 76.6556L89.6135 74.9709C88.7838 75.8133 87.954 77.498 87.1243 77.498C85.4648 77.498 84.635 74.9709 84.635 73.2861C83.8053 74.1285 82.9755 75.8133 82.1458 76.6556C82.1458 74.9709 82.9755 73.2861 82.1458 72.4438C81.316 72.4438 82.9755 76.6556 78.8267 71.6014C77.997 71.6014 76.3375 73.2861 74.678 74.1285C74.678 72.4438 74.678 70.759 72.1887 70.759C71.3589 70.759 70.5292 73.2861 69.6994 73.2861C68.0399 73.2861 65.5507 73.2861 63.8911 69.0743C63.0614 69.9167 63.0614 71.6014 62.2316 72.4438C61.4019 71.6014 61.4019 69.9167 60.5721 69.0743L57.2531 72.4438C56.4233 71.6014 57.2531 69.0743 53.9341 69.9167C52.2746 69.9167 51.4448 71.6014 50.6151 72.4438C49.7853 71.6014 49.7853 69.9167 48.9555 69.9167C47.296 69.9167 45.6365 68.2319 43.977 72.4438C42.3175 70.759 40.658 71.6014 38.9985 71.6014C38.1687 72.4438 38.1687 73.2861 37.339 74.1285C36.5092 73.2861 36.5092 72.4438 35.6795 71.6014C34.8497 70.759 34.02 71.6014 32.3604 73.2861L30.7009 72.4438C29.8712 73.2861 29.8712 74.9709 29.0414 74.9709C27.3819 74.9709 26.5522 73.2861 25.7224 72.4438C24.8927 74.1285 24.8927 74.9709 24.0629 76.6556C20.7439 74.9709 17.4249 76.6556 14.9356 78.3404C14.9356 77.498 14.1058 77.498 14.1058 76.6556C13.2761 79.1827 10.7868 80.0251 7.4678 79.1827C6.63804 79.1827 6.63804 80.8675 5.80829 80.8675C4.97853 80.8675 4.97853 80.0251 4.14878 79.1827C2.48927 78.3404 1.65951 80.0251 0 81.7098C1.65951 80.0251 3.31902 78.3404 5.80829 80.0251C5.80829 80.0251 6.63804 79.1827 7.4678 79.1827C9.12731 80.0251 8.29755 82.5522 12.4463 79.1827V80.8675L14.9356 78.3404C14.9356 79.1827 15.7653 80.0251 15.7653 80.8675C16.5951 80.0251 17.4249 80.0251 18.2546 79.1827C18.2546 80.0251 17.4249 81.7098 17.4249 82.5522C19.0844 81.7098 19.9141 80.0251 21.5736 79.1827V81.7098L24.0629 79.1827V81.7098C24.8927 81.7098 25.7224 80.8675 26.5522 80.8675V82.5522C27.3819 82.5522 28.2117 81.7098 29.0414 81.7098C30.7009 82.5522 29.8712 84.2369 29.8712 85.0793C31.5307 84.2369 33.1902 82.5522 34.8497 82.5522V85.0793H37.339C38.1687 85.9217 38.9985 87.6064 39.8282 88.4488C40.658 88.4488 42.3175 87.6064 43.1473 86.7641V89.2912C43.977 88.4488 45.6365 87.6064 46.4663 86.7641C46.4663 87.6064 45.6365 89.2912 45.6365 90.1335C46.4663 89.2912 48.1258 89.2912 48.9555 88.4488C48.9555 90.1335 48.1258 91.8183 49.7853 93.503C51.4448 90.9759 54.7638 90.1335 54.7638 92.6606C55.5936 95.1878 57.2531 93.503 57.2531 96.0301C58.9126 96.0301 60.5721 95.1878 61.4019 96.0301C62.2316 96.8725 60.5721 99.3996 61.4019 100.242H64.7209C64.7209 101.084 63.8911 101.927 63.8911 102.769H66.3804V104.454C68.0399 105.296 70.5292 102.769 72.1887 103.611C72.1887 104.454 71.3589 106.139 71.3589 106.981C73.0184 106.981 74.678 106.139 75.5077 105.296C75.5077 106.139 76.3375 107.823 76.3375 108.666C77.1672 104.454 80.4862 102.769 83.8053 105.296C84.635 104.454 81.316 101.927 87.1243 104.454V101.927C89.6135 100.242 92.1028 98.5572 94.5921 97.7149C91.2731 96.0301 93.7623 93.503 93.7623 90.9759C96.2516 92.6606 97.9111 90.1335 97.9111 87.6064C97.9111 85.9217 96.2516 85.0793 93.7623 85.0793C94.5921 84.2369 97.0813 83.3946 96.2516 80.8675C92.9326 82.5522 92.9326 78.3404 91.2731 76.6556ZM133.591 106.981L132.761 106.139C131.931 106.981 130.272 108.666 129.442 108.666C128.612 108.666 127.782 106.139 127.782 105.296C126.953 106.981 126.953 107.823 126.123 109.508C125.293 107.823 125.293 106.981 124.463 105.296C123.634 106.139 123.634 106.981 122.804 107.823C121.974 106.981 121.974 106.139 121.144 106.139C119.485 106.139 118.655 108.666 119.485 111.193C118.655 110.35 116.995 109.508 115.336 109.508C115.336 110.35 116.166 112.035 116.166 112.878C116.166 113.72 116.166 114.562 113.676 114.562L112.847 116.247C112.017 116.247 110.357 115.405 109.528 115.405C110.357 116.247 110.357 117.089 111.187 117.932H107.868C108.698 119.616 109.528 120.459 110.357 122.144C109.528 122.144 107.868 122.144 107.038 122.986C106.209 124.671 107.868 126.355 110.357 127.198C109.528 128.04 108.698 128.04 107.868 128.883C107.868 129.725 107.038 132.252 112.017 131.41C112.017 132.252 111.187 133.094 111.187 133.937C112.017 133.937 112.847 134.779 113.676 136.464C114.506 135.621 115.336 135.621 116.166 134.779C116.166 136.464 116.995 137.306 117.825 138.991C118.655 138.149 119.485 138.149 120.314 137.306C120.314 138.149 121.144 138.149 121.144 138.991C123.634 134.779 123.634 139.833 126.123 140.676C126.953 140.676 127.782 138.149 128.612 138.149C131.101 138.991 132.761 140.676 136.08 139.833C137.739 143.203 140.229 139.833 142.718 140.676C143.548 141.518 144.377 142.36 146.037 140.676C146.867 141.518 146.867 142.36 147.696 143.203C149.356 144.045 151.015 142.36 152.675 139.833C153.505 138.991 155.164 139.833 155.994 140.676C156.824 140.676 156.824 139.833 157.653 139.833C158.483 139.833 160.143 141.518 160.972 141.518C161.802 141.518 161.802 139.833 162.632 138.991C163.462 139.833 163.462 140.676 164.292 140.676C165.121 140.676 165.121 138.991 165.951 138.991C166.781 138.991 166.781 139.833 167.611 140.676C168.44 139.833 168.44 138.991 169.27 138.149C170.1 138.991 170.1 140.676 170.93 141.518C171.759 139.833 172.589 138.991 173.419 137.306C173.419 138.149 174.249 138.149 174.249 138.991C175.078 138.149 175.908 137.306 176.738 137.306L177.568 138.149C179.227 138.149 177.568 133.094 181.716 138.149L183.376 136.464C184.206 135.621 185.865 136.464 186.695 138.149C188.354 137.306 189.184 135.621 190.014 133.937C190.844 137.306 193.333 133.937 194.992 133.937C197.482 134.779 199.971 134.779 201.63 131.41C202.46 131.41 202.46 132.252 203.29 132.252V128.883C202.46 129.725 201.63 131.41 200.801 132.252C199.141 132.252 199.141 128.04 197.482 128.883C195.822 129.725 195.822 133.094 193.333 133.094C192.503 133.094 191.673 132.252 190.844 130.567C190.014 130.567 190.014 131.41 189.184 131.41L188.354 130.567C186.695 133.094 183.376 132.252 182.546 129.725C181.716 128.883 180.057 129.725 179.227 131.41V128.883C178.397 128.883 180.057 133.094 175.908 128.04C174.249 127.198 171.759 129.725 170.1 130.567C170.1 128.883 170.93 128.04 170.93 126.355C169.27 126.355 168.44 127.198 166.781 128.04V125.513C165.121 127.198 163.462 127.198 160.972 127.198C156.824 126.355 164.292 123.828 157.653 123.828V122.144C155.994 121.301 153.505 122.986 152.675 121.301C152.675 119.616 151.845 118.774 151.015 117.932C148.526 121.301 146.867 117.932 144.377 117.932C144.377 117.089 145.207 115.405 145.207 114.562C144.377 112.878 143.548 110.35 138.569 113.72C139.399 112.878 140.229 111.193 138.569 109.508C137.739 109.508 136.91 110.35 136.08 110.35C136.91 107.823 134.42 108.666 133.591 106.981ZM94.5921 115.405C93.7623 114.562 92.9326 114.562 90.4433 115.405C89.6135 116.247 88.7838 113.72 88.7838 112.035C87.954 112.878 87.1243 114.562 86.2945 115.405V111.193C85.4648 112.035 85.4648 112.878 84.635 112.878C83.8053 112.878 83.8053 111.193 82.9755 111.193C81.316 111.193 80.4862 112.878 80.4862 115.405C79.6565 114.562 78.8267 113.72 77.1672 112.878C78.8267 116.247 74.678 120.459 71.3589 119.616C72.1887 120.459 72.1887 122.144 73.0184 122.986H69.6994C70.5292 124.671 71.3589 125.513 72.1887 127.198C71.3589 127.198 70.5292 127.198 69.6994 128.04C68.8697 129.725 67.2102 130.567 70.5292 133.094C69.6994 133.094 68.8697 133.937 68.0399 133.937C68.8697 135.621 65.5507 136.464 69.6994 139.833C68.8697 139.833 68.8697 140.676 68.0399 140.676C69.6994 143.203 65.5507 144.045 68.8697 146.572C68.0399 146.572 66.3804 147.415 66.3804 149.099C66.3804 149.942 68.0399 149.942 68.0399 150.784C68.0399 151.627 66.3804 151.627 66.3804 152.469L68.8697 154.996C68.0399 154.996 66.3804 156.681 66.3804 157.523C70.5292 160.05 68.0399 164.262 69.6994 167.632L68.0399 169.316C70.5292 170.159 68.8697 172.686 70.5292 174.37C69.6994 175.213 69.6994 176.055 70.5292 177.74C70.5292 178.582 68.0399 179.425 68.8697 181.109C69.6994 182.794 72.1887 183.637 72.1887 184.479C73.0184 187.006 75.5077 189.533 73.0184 192.903C73.8482 193.745 74.678 193.745 75.5077 194.587L74.678 196.272C75.5077 197.114 76.3375 197.114 77.1672 197.957L75.5077 199.642C76.3375 200.484 77.1672 200.484 77.997 201.326C77.1672 202.169 75.5077 202.169 74.678 203.011C76.3375 203.853 77.1672 203.853 78.8267 204.696L77.1672 206.381C77.997 207.223 79.6565 207.223 80.4862 208.065L78.8267 209.75H80.4862L78.8267 208.065C78.8267 207.223 77.997 206.381 80.4862 205.538C78.8267 204.696 77.997 203.011 77.1672 201.326C77.997 201.326 78.8267 200.484 78.8267 200.484C78.8267 198.799 79.6565 196.272 80.4862 194.587C80.4862 193.745 78.8267 192.06 77.997 191.218H79.6565C78.8267 190.376 77.997 188.691 77.1672 187.848H80.4862C79.6565 187.006 77.997 186.164 77.1672 185.321C78.8267 184.479 81.316 184.479 81.316 182.794C81.316 181.952 77.1672 178.582 79.6565 176.898H81.316C82.1458 174.37 81.316 172.686 81.316 170.159C82.1458 168.474 83.8053 169.316 84.635 169.316C85.4648 168.474 84.635 166.789 83.8053 165.947H86.2945C87.954 163.42 88.7838 160.05 86.2945 157.523C87.1243 157.523 88.7838 158.365 89.6135 158.365C89.6135 156.681 89.6135 155.838 88.7838 154.154C89.6135 154.154 91.2731 154.996 92.1028 154.996C91.2731 153.311 88.7838 151.627 91.2731 149.099H94.5921V147.415H97.0813C94.5921 145.73 97.9111 144.045 97.0813 142.36C98.7409 143.203 100.4 142.36 101.23 140.676C101.23 138.991 98.7409 138.149 99.5706 136.464C100.4 134.779 99.5706 133.094 102.89 133.094C102.06 131.41 105.379 128.04 98.7409 127.198C99.5706 126.355 100.4 124.671 100.4 122.986C97.0813 124.671 98.7409 121.301 97.0813 119.616H94.5921C93.7623 118.774 94.5921 117.089 94.5921 115.405ZM53.9341 100.242C53.1043 100.242 53.1043 99.3996 52.2746 99.3996C51.4448 100.242 51.4448 101.927 50.6151 102.769C49.7853 102.769 48.1258 101.084 47.296 100.242C46.4663 101.927 46.4663 102.769 45.6365 104.454C44.8068 103.611 44.8068 101.927 43.977 101.084C43.977 101.927 43.1473 102.769 43.1473 103.611C42.3175 103.611 42.3175 102.769 41.4878 102.769C39.8282 103.611 38.9985 105.296 38.9985 106.981C37.339 106.139 35.6795 105.296 34.8497 106.139C34.02 107.823 35.6795 110.35 34.02 111.193C33.1902 111.193 31.5307 109.508 30.7009 112.878C29.8712 112.035 29.0414 112.035 28.2117 111.193V115.405C27.3819 114.562 26.5522 114.562 25.7224 113.72C24.8927 115.405 24.0629 117.089 24.0629 118.774C23.2331 117.932 24.0629 115.405 20.7439 117.932C19.9141 119.616 19.9141 121.301 19.0844 122.986C16.5951 121.301 15.7653 122.986 14.1058 123.828C13.2761 124.671 14.1058 126.355 14.1058 128.04C13.2761 128.04 12.4463 127.198 12.4463 127.198C10.7868 128.883 9.12731 129.725 9.12731 133.094H6.63804C7.4678 133.094 9.12731 135.621 9.95706 130.567C10.7868 130.567 10.7868 131.41 11.6166 131.41C11.6166 129.725 12.4463 128.883 12.4463 127.198C13.2761 127.198 14.1058 128.04 14.9356 128.883C15.7653 127.198 15.7653 125.513 16.5951 125.513C19.0844 124.671 21.5736 122.986 23.2331 121.301L24.8927 122.986C24.0629 119.616 26.5522 121.301 28.2117 119.616C29.0414 120.459 29.8712 121.301 31.5307 119.616C31.5307 120.459 31.5307 122.144 34.02 121.301C35.6795 120.459 36.5092 117.932 37.339 117.089C39.8282 116.247 41.4878 117.089 43.977 117.089C43.977 117.089 44.8068 115.405 44.8068 114.562L46.4663 116.247C46.4663 115.405 47.296 114.562 47.296 113.72L48.9555 115.405C48.9555 114.562 49.7853 113.72 49.7853 112.878L52.2746 115.405V111.193C53.1043 111.193 53.1043 112.035 53.9341 112.035C53.9341 111.193 53.1043 110.35 53.1043 109.508H55.5936C55.5936 108.666 54.7638 108.666 54.7638 107.823C57.2531 106.139 54.7638 103.611 55.5936 101.084C54.7638 101.084 54.7638 101.927 53.9341 101.927V100.242ZM131.101 144.888C130.272 144.888 130.272 144.045 129.442 144.045C129.442 149.099 126.123 146.572 123.634 145.73C124.463 146.572 124.463 148.257 125.293 149.099C123.634 148.257 121.974 148.257 120.314 147.415C120.314 149.099 125.293 147.415 120.314 151.627C121.974 152.469 123.634 153.311 125.293 153.311C124.463 154.154 123.634 154.996 123.634 156.681C126.123 155.838 129.442 156.681 130.272 159.208C130.272 160.05 129.442 161.735 129.442 162.577C130.272 162.577 131.931 161.735 132.761 161.735V164.262C134.42 165.104 136.08 164.262 137.739 163.42C137.739 164.262 136.08 165.947 139.399 166.789C141.058 166.789 142.718 166.789 144.377 165.947C144.377 166.789 143.548 167.632 143.548 168.474C145.207 169.316 146.037 171.843 150.186 168.474C150.186 171.843 153.505 171.843 156.824 171.001V173.528C157.653 174.37 159.313 174.37 160.972 173.528C160.972 174.37 161.802 175.213 161.802 175.213C162.632 175.213 164.292 174.37 165.121 173.528C165.121 174.37 165.121 176.055 165.951 176.898C168.44 175.213 170.1 174.37 171.759 176.898C170.1 177.74 168.44 174.37 166.781 176.055V174.37C164.292 175.213 161.802 173.528 160.972 171.001H159.313C159.313 170.159 160.143 169.316 160.143 168.474C158.483 166.789 155.994 168.474 153.505 167.632C151.015 166.789 151.015 164.262 149.356 161.735H146.867C146.867 160.893 147.696 160.893 147.696 160.05H144.377C145.207 159.208 145.207 158.365 146.037 157.523H142.718L145.207 154.996C143.548 154.996 141.888 155.838 140.229 155.838C141.058 154.996 141.058 154.154 141.888 153.311C141.058 153.311 139.399 154.154 138.569 154.154C138.569 153.311 139.399 152.469 139.399 151.627H136.91C136.91 150.784 137.739 150.784 137.739 149.942C135.25 150.784 134.42 148.257 134.42 146.572H128.612C129.442 145.73 130.272 145.73 131.101 144.888ZM60.5721 125.513H58.9126C58.0829 126.355 58.0829 128.04 57.2531 128.883C55.5936 129.725 54.7638 128.04 53.9341 127.198C53.9341 128.883 54.7638 130.567 54.7638 132.252L51.4448 128.883V132.252H48.9555C48.1258 133.937 48.9555 135.621 49.7853 137.306C48.9555 136.464 47.296 135.621 45.6365 137.306C48.9555 139.833 46.4663 143.203 44.8068 145.73C43.977 145.73 43.1473 144.888 42.3175 144.888C43.1473 145.73 43.1473 147.415 43.977 148.257H40.658C41.4878 149.942 41.4878 151.627 42.3175 153.311C41.4878 153.311 39.8282 151.627 38.9985 154.996C38.9985 156.681 38.9985 158.365 39.8282 160.05C37.339 159.208 37.339 160.893 36.5092 162.577C36.5092 163.42 37.339 165.104 38.1687 165.947C34.8497 165.104 35.6795 167.632 34.8497 169.316C34.8497 170.159 35.6795 171.843 36.5092 172.686C35.6795 172.686 33.1902 171.843 33.1902 173.528C33.1902 175.213 34.8497 176.898 33.1902 179.425C33.1902 177.74 32.3604 176.055 33.1902 175.213H36.5092C33.1902 171.843 36.5092 169.316 38.1687 166.789V164.262C38.9985 164.262 38.9985 165.104 39.8282 165.104C38.9985 161.735 43.1473 160.893 43.977 158.365C44.8068 158.365 44.8068 159.208 45.6365 159.208C48.9555 157.523 45.6365 154.154 48.1258 151.627C49.7853 149.942 50.6151 149.099 53.1043 149.942V147.415C53.9341 147.415 53.9341 148.257 54.7638 148.257V144.888C55.5936 145.73 56.4233 145.73 57.2531 146.572C57.2531 145.73 56.4233 144.045 56.4233 143.203C57.2531 144.045 58.9126 144.045 59.7424 144.888C58.9126 143.203 58.9126 142.36 58.0829 140.676C58.9126 140.676 59.7424 141.518 60.5721 141.518C60.5721 140.676 59.7424 139.833 59.7424 138.991H61.4019V136.464H63.8911C63.8911 135.621 63.0614 135.621 63.0614 134.779C63.0614 133.094 63.8911 131.41 63.8911 130.567C63.0614 129.725 61.4019 129.725 59.7424 129.725C59.7424 128.04 60.5721 127.198 60.5721 125.513ZM105.379 152.469C104.549 152.469 104.549 151.627 103.719 151.627C102.89 152.469 102.89 154.154 102.06 154.996C100.4 154.996 99.5706 153.311 97.9111 152.469C98.7409 154.154 99.5706 154.996 100.4 156.681C98.7409 155.838 97.0813 155.838 95.4218 154.996C96.2516 155.838 96.2516 156.681 97.0813 157.523C96.2516 157.523 96.2516 158.365 95.4218 158.365C95.4218 159.208 96.2516 159.208 96.2516 160.05C97.0813 160.893 98.7409 160.893 99.5706 161.735C98.7409 162.577 96.2516 160.05 97.0813 164.262C97.9111 165.104 101.23 165.104 101.23 166.789C100.4 168.474 103.719 169.316 100.4 171.843C101.23 171.843 102.89 172.686 103.719 172.686C102.89 173.528 102.89 174.37 102.06 175.213C103.719 176.055 105.379 176.055 107.038 176.055C106.209 176.898 103.719 177.74 106.209 180.267C107.868 181.109 109.528 181.952 111.187 181.952L109.528 183.637C110.357 185.321 112.017 187.006 115.336 187.006C115.336 187.848 114.506 187.848 114.506 188.691C115.336 188.691 116.166 188.691 116.166 191.218C116.995 192.06 118.655 192.06 119.485 192.06C118.655 192.903 117.825 194.587 118.655 195.43C119.485 196.272 121.144 195.43 121.974 196.272V197.957H125.293C126.123 198.799 125.293 200.484 124.463 201.326H128.612C128.612 202.169 127.782 202.169 126.953 202.169C125.293 201.326 125.293 198.799 123.634 198.799C123.634 197.957 124.463 197.957 124.463 197.114C123.634 197.114 121.974 197.114 121.974 196.272C121.144 194.587 121.144 192.06 119.485 190.376C120.314 190.376 121.974 190.376 121.144 187.848C120.314 186.164 118.655 186.164 116.166 185.321C116.166 185.321 115.336 184.479 115.336 183.637L116.166 182.794C115.336 181.952 115.336 180.267 115.336 179.425L116.166 178.582C115.336 177.74 114.506 177.74 113.676 176.898C114.506 176.898 114.506 176.055 115.336 176.055C114.506 175.213 113.676 175.213 112.847 174.37L114.506 172.686C113.676 172.686 112.847 171.843 112.017 171.843C113.676 171.001 114.506 171.001 116.166 170.159C114.506 169.316 112.847 169.316 111.187 168.474C112.017 168.474 112.847 167.632 113.676 167.632C112.847 167.632 111.187 166.789 110.357 166.789C111.187 165.947 112.017 165.947 112.017 165.104C112.017 164.262 110.357 164.262 110.357 163.42C110.357 162.577 111.187 162.577 112.017 161.735C108.698 161.735 109.528 158.365 110.357 156.681C108.698 155.838 107.038 155.838 105.379 155.838V152.469Z" fill="black"/>
</svg>
