<svg width="195" height="195" viewBox="0 0 195 195" fill="none" xmlns="http://www.w3.org/2000/svg">
<path d="M146.064 3.80875L142.99 5.34047L144.655 8.22094L143.363 9.06577L140.641 8.87637L142.896 12.2702L138.796 11.0356L139.485 13.3254L137.309 13.4698L137.231 15.2022L138.281 17.833L135.507 17.4788L133.897 18.0229L135.362 21.0314L134.986 22.584L133.269 23.0366L132.6 24.3472L129.284 23.4576L130.786 26.587L127.564 25.7451L127.692 27.7304L128.604 30.4014L125.407 29.5449L124.301 30.4852L124.029 32.1551L124.758 34.705L121.636 33.8779L120.788 35.0419L119.73 36.0151L120.73 38.8143L118.417 38.6766L117.898 40.1375L116.178 40.5241L117.11 43.2793L114.414 42.7896L112.795 43.2642L113.169 45.5318L111.184 45.691L112.116 48.4463L110.014 48.4992L107.972 48.6108L109.48 51.8537L107.982 52.4456L106.866 53.3712L105.882 54.4105L104.759 55.3324L104.712 57.1637L102.449 57.1249L102.703 59.1836L101.311 59.8855L100.639 61.1668L98.9253 61.6486L98.8586 63.3773L96.2584 63.2869L95.2844 64.4141L95.2864 66.1502L96.7671 68.558L96.1784 69.6049L95.2417 70.6589L95.4929 71.9777L94.4289 73.2989L93.8512 74.8037L96.1202 75.6849L94.8523 77.5297L97.2558 77.9166L95.7876 80.2959L98.3584 80.1775L96.4027 83.6186L100.164 81.9483L99.5824 84.6508L102.077 83.6167L102.067 86.1036L104.042 85.3766L104.361 87.9664L106.124 87.3711L107.321 88.222L108.392 90.1532L110.072 89.0451L111.569 87.1602L112.985 89.2859L114.439 89.0309L115.83 88.5414L117.662 89.338L119.069 88.5702L120.674 88.1249L120.65 85.4731L122.925 85.7023L121.566 82.7196L124.667 82.946L122.757 80.4572L124.076 79.5062L126.312 78.8014L127.496 77.6525L124.92 75.3132L124.961 73.8482L125.86 72.6367L127.817 71.6973L127.598 70.1551L128.61 68.9364L127.918 67.2912L127.562 65.7342L128.473 64.4824L130.791 63.5617L130.428 62.001L129.544 60.3227L132.073 59.4351L131.373 57.8045L132.703 56.6374L132.621 55.1466L131.416 53.4057L130.277 51.6795L134.054 51.0604L133.449 49.4592L132.284 47.7293L135.245 46.9337L132.643 44.8765L132.951 43.474L132.909 41.9942L134.376 40.8602L135.944 39.7592L135.144 38.0956L137.21 37.1196L136.272 35.4229L136.45 33.991L136.477 32.5186L138.167 31.4617L138.912 30.1805L139.674 28.8993L137.29 26.7873L137.458 25.3407L137.824 23.9492L138.182 22.5541L141.376 21.9602L141.825 20.6017L142.4 19.28L142.423 17.7967L139.864 15.5124L143.035 14.999L144.003 13.8132L142.938 11.9589L144.082 10.8355L144.62 9.51382L143.383 7.55311L145.467 6.78961L146.021 3.80505L146.064 3.80875ZM92.3167 0.768629L91.8603 2.16L94.7557 3.76702L94.0531 5.14352L91.6025 6.39382L95.2898 8.10048L91.1241 9.19529L92.8969 10.7646L91.1019 12.0265L91.9338 13.5217L94.198 15.1757L91.6291 16.338L90.5329 17.6335L93.3535 19.387L93.8374 20.8892L92.5928 22.1735L92.6753 23.6277L89.3634 24.5769L92.2473 26.4549L89.0231 27.3565L90.1247 28.9801L92.2448 30.8098L89.0215 31.6565L88.5222 33.0075L89.1212 34.5684L91.0691 36.2917L87.995 37.3253L88.0119 38.8014L87.8511 40.2883L90.5023 41.5215L88.7364 43.0105L89.4077 44.3407L88.5183 45.8525L91.2258 46.7268L89.2509 48.6075L88.9337 50.3653L91.2074 50.7045L91.2483 52.7373L93.6029 51.1426L94.394 52.9308L95.8415 54.4448L96.7683 50.9955L98.0129 51.3446L99.0851 50.8951L99.8996 50.0095L100.691 48.9737L99.9392 47.464L101.901 46.4257L100.525 44.9666L101.223 43.6341L100.955 42.2786L101.995 40.8622L100.972 39.528L103.044 37.9001L103.003 36.3654L101.801 35.1336L99.0582 34.435L98.8188 33.0576L99.0491 31.5232L98.2567 30.2881L98.8911 28.6369L99.2305 27.0842L96.9063 26.2579L98.2716 24.4352L95.9589 23.5686L97.9965 21.6183L95.557 20.7516L98.8158 18.5571L94.777 18.0185L96.8281 16.1305L94.2952 15.2161L96.0515 13.4084L94.2495 12.3225L96.1399 10.5187L94.7413 9.3526L94.9599 7.87675L96.3448 6.19323L94.8266 5.03072L92.6873 3.96649L94.6024 2.20291L94.0316 0.462603L92.338 0.797955L92.3167 0.768629ZM178.116 43.2131L176.709 43.5378L176.772 46.8928L175.256 47.0049L172.982 45.512L173.357 49.6073L170.372 46.5424L169.911 48.9008L167.954 47.9942L167.09 49.4914L166.804 52.3261L164.55 50.6867L162.902 50.3994L162.796 53.769L161.755 54.973L160.048 54.5538L158.847 55.3804L156.409 52.9827L156.232 56.4731L153.877 54.1267L153.041 55.9243L152.519 58.7221L150.212 56.3538L148.82 56.6125L147.788 57.9411L147.281 60.5337L144.886 58.3888L143.635 59.1714L142.292 59.7964L142.543 62.7488L140.396 61.9849L139.59 63.2624L137.861 63.2754L138.444 66.0926L135.865 65.3576L134.206 65.9969L135.031 68.1624L133.308 69.2485L135.821 70.5036L134.666 72.1104L134.058 74.1536L137.471 73.2192L137.759 74.4831L138.662 75.1835L139.81 75.4373L141.083 75.5887L142 74.1465L143.848 75.3203L144.404 73.3613L145.88 73.2748L146.902 72.3382L148.627 72.5083L149.253 70.9266L151.673 71.8849L152.958 71.0547L153.412 69.3666L152.661 66.6116L153.719 65.6933L155.138 65.0976L155.803 63.7577L157.529 63.448L159.026 62.9294L158.586 60.4713L160.818 60.7152L160.422 58.2425L163.098 58.9996L162.639 56.4206L166.119 58.1234L164.588 54.3238L167.213 55.1284L166.744 52.4432L169.151 53.0352L169.188 50.9036L171.663 51.6128L171.97 49.7854L173.334 49.208L175.456 49.5434L175.7 47.6097L175.556 45.1922L178.008 45.9454L179.211 44.5474L178.09 43.2461L178.116 43.2131ZM44.9323 17.5057L45.2356 18.971L48.5805 18.934L48.6719 20.5126L47.1571 22.859L51.2424 22.5076L48.1583 25.585L50.5057 26.0817L49.5792 28.1099L51.0614 29.0233L53.8752 29.352L52.2159 31.6799L51.903 33.3937L55.2559 33.5361L56.4345 34.636L55.9902 36.412L56.7896 37.6691L54.3627 40.1867L57.8267 40.4134L55.4518 42.8468L57.2205 43.7495L59.9909 44.3052L57.606 46.6873L57.855 48.1527L59.1825 49.2271L61.7628 49.6581L59.7443 52.2457L60.6089 53.4991L61.2691 54.8513L64.2545 54.6307L63.5705 56.9119L64.9236 57.741L65.1269 59.5798L67.8769 58.6485L67.7184 61.3917L69.0764 62.8324L70.8136 61.0979L72.6834 62.0154L72.8233 59.0781L74.7693 59.5268L76.8963 59.2834L74.5893 56.6477L75.4979 55.7732L75.6653 54.5574L75.4457 53.3009L75.2419 51.9601L73.651 51.2774L74.5887 49.2272L72.6128 48.837L72.4659 47.3315L71.5251 46.3161L71.6111 44.5141L69.9556 44.0291L70.5935 41.4475L69.6843 40.2636L68.0012 39.9213L65.2385 40.7355L64.2882 39.6321L63.7025 38.1518L62.373 37.4363L62.1036 35.656L61.6277 34.1026L59.1542 34.4921L59.4578 32.2106L56.9705 32.5561L57.799 29.8319L55.2056 30.2433L56.9891 26.6959L53.1398 28.1829L54.0003 25.5027L51.3051 25.9359L51.9448 23.4752L49.8082 23.3999L50.5687 20.8624L48.7372 20.5091L48.1831 19.0911L48.554 16.9085L46.3282 16.5108L44.9863 17.5241L44.9323 17.5057ZM194.991 92.5179L192.134 90.5703L190.479 93.5281L189.077 92.8492L187.821 90.3903L186.06 94.1429L184.973 89.9518L183.361 91.7779L182.092 89.9856L180.564 90.8486L178.865 93.1654L177.706 90.5894L176.389 89.493L174.577 92.3702L173.04 92.8778L171.744 91.6349L170.26 91.7361L169.33 88.3911L167.386 91.3304L166.502 88.0734L164.839 89.2L162.958 91.3592L162.121 88.1169L160.737 87.6321L159.147 88.2789L157.47 90.3393L156.274 87.3201L154.761 87.4799L153.378 87.4016L152.165 90.1145L150.67 88.3916L149.38 89.1449L147.841 88.3596L147.2 91.1793L145.154 89.4705L143.337 89.5493L143.522 91.8863L141.609 92.5438L143.721 94.4247L142.123 95.6392L140.877 97.495L144.421 97.6888L144.469 98.9965L145.346 99.9057L146.577 100.46L147.909 101.011L149.436 99.9901L150.813 101.819L152.279 100.279L153.763 100.87L155.229 100.519L156.736 101.455L157.994 100.233L159.901 102.037L161.386 101.807L162.537 100.493L163.233 97.6738L164.665 97.3712L166.235 97.5632L167.527 96.7367L169.195 97.3572L170.769 97.6811L171.694 95.3195L173.506 96.6874L174.47 94.3369L176.402 96.3752L177.368 93.8965L179.513 97.1693L180.186 93.0641L182.067 95.1134L183.067 92.5321L184.866 94.2809L186.014 92.4397L187.818 94.3204L189.051 92.8821L190.555 93.0777L192.248 94.4492L194.977 92.5289L194.991 92.5179ZM82.9722 70.7277L81.7482 69.7523L79.2491 72.0208L78.1456 70.9868L77.5608 68.2796L75.0174 71.5406L74.8565 67.2038L72.9312 68.6854L72.0021 66.6883L70.3551 67.2874L68.3523 69.3293L67.5829 66.6109L66.4284 65.3571L64.3148 68.0069L62.7767 68.357L61.6383 67.0007L60.1821 66.9774L59.5176 63.5741L57.4013 66.3887L56.7026 63.0879L54.9979 64.1375L53.0595 66.2307L52.3458 62.9592L51.0063 62.4232L49.4213 62.9894L47.5261 64.8739L46.8038 61.6903L45.3864 61.5022L44.0423 61.0284L42.0507 63.279L41.0983 61.1501L39.5763 61.3977L38.4414 60.0524L36.4512 62.2115L35.6445 59.5663L34.486 58.3382L32.6597 59.7502L31.6282 58.0425L29.6024 60.1649L28.6207 58.2886L27.6341 56.493L25.3798 59.3294L24.2049 58.2221L22.8956 57.6092L21.5405 57.1391L20.2464 56.4786L18.5324 57.1912L17.6996 55.0587L15.8792 56.0862L14.7182 55.0229L13.2755 54.831L12.2731 53.3504L10.599 53.8249L10.001 51.2678L8.7357 50.622L6.20271 51.3411L9.00923 50.9738L10.1216 51.9016L10.9267 53.2538L12.3433 53.7277L12.8822 55.424L13.5918 56.8568L15.9595 56.0533L16.0254 58.3388L18.4143 57.5646L18.0481 60.3772L20.529 59.5115L19.3544 63.2867L22.8878 61.14L22.486 63.916L25.0618 63.0064L24.8342 65.5298L26.9405 65.2205L26.6209 67.8353L28.4721 67.8481L29.2565 69.1344L29.2624 71.3247L31.2057 71.246L33.5658 70.6878L33.214 73.277L34.3379 74.1645L35.5245 74.9824L35.708 76.9311L36.8544 77.7746L37.6318 79.039L40.128 78.3564L40.0202 80.6272L43.0621 79.3372L42.2462 82.4094L45.1921 81.2365L45.678 82.8412L45.4964 85.2034L46.0634 86.7203L49.2602 85.251L50.5871 85.9005L51.2982 87.2418L51.275 89.4357L52.7606 89.8986L53.3903 91.346L55.1824 91.4392L56.7421 91.7924L57.4492 93.1592L57.229 95.6679L58.8 95.9991L60.6967 95.8873L60.4265 98.5828L62.2201 98.5845L62.7842 100.285L64.2299 100.755L66.2826 100.16L68.1882 99.4803L68.0631 103.33L69.8396 102.797L71.4442 101.428L72.902 104.147L74.0278 100.947L75.2902 100.622L76.3859 99.8251L78.0702 100.325L79.952 100.704L80.4875 98.8913L82.7454 99.3147L82.907 97.3114L83.7229 96.1035L84.3127 94.7525L86.2551 94.2672L87.3381 93.1218L88.3717 91.8958L86.2569 89.4874L86.4519 88.1288L86.7404 86.8178L86.9168 85.4958L89.9328 84.2387L89.9682 82.6601L89.9895 81.0559L89.2913 79.5828L85.8883 79.1657L88.0239 76.7394L87.7599 75.0726L85.5724 74.7775L85.1115 73.1948L83.9789 72.1645L82.9903 70.7278L82.9722 70.7277ZM128.278 94.0547L126.883 93.0754L124.666 95.6445L123.438 94.9071L121.957 92.5543L120.97 96.564L118.708 92.9174L117.86 95.2534L115.809 94.3724L114.946 96.0088L115.174 98.8293L112.573 97.8525L110.824 98.2611L112.12 101.368L111.862 102.833L110.248 103.385L109.843 104.728L106.394 104.721L108.79 107.236L105.47 107.739L106.461 109.527L108.641 111.239L105.546 112.438L105.323 113.976L106.341 115.372L108.773 116.254L106.365 118.449L107.054 119.816L107.641 121.241L110.564 120.841L110.112 123.093L111.565 123.549L112.25 125.209L114.606 123.486L114.98 126.215L116.024 127.578L117.975 126.331L118.9 128.105L121.005 126.059L121.921 127.958L122.9 129.768L125.14 126.924L126.319 128.006L127.636 128.586L128.996 128.994L130.316 129.585L131.97 128.777L132.938 130.84L134.674 129.677L135.909 130.63L137.361 130.679L138.503 132.046L140.114 131.392L141.011 133.862L142.358 134.347L143.955 133.74L145.901 131.596L147.257 132.029L148.503 132.961L149.994 132.845L151.144 134.179L152.36 135.206L154.23 133.512L155.206 135.56L157.084 133.87L157.889 136.57L159.805 134.751L160.295 138.656L162.635 135.227L163.42 137.898L165.395 135.98L166.246 138.343L168.043 137.166L168.838 139.657L170.539 138.882L171.787 139.704L172.691 141.679L174.429 140.794L176.373 139.313L177.102 141.808L178.484 142.153L179.901 142.415L180.831 144.126L182.217 144.446L183.414 145.297L185.482 143.713L186.202 145.853L186.719 144.289L187.604 143.089L184.823 144.632L184.147 143.096L184.079 140.745L183.38 139.308L180.331 141.075L178.948 140.535L178.127 139.248L178.002 137.062L176.497 136.69L175.798 135.272L174.005 135.252L172.433 134.939L171.697 133.576L171.906 131.071L170.35 130.729L168.45 130.793L168.829 128.116L167.059 128.015L166.655 126.286L165.305 125.681L163.192 125.95L161.124 126.167L162.405 122.502L160.702 122.288L158.612 122.513L159.357 119.507L156.279 120.852L155.202 119.924L153.879 119.267L153.6 117.436L153.398 115.524L151.554 115.46L151.695 113.16L149.741 113.205L148.559 112.38L147.265 111.683L147.126 109.683L146.323 108.433L145.527 107.169L142.555 108.411L141.342 107.645L140.258 106.732L139.167 105.833L139.996 102.648L138.927 101.687L137.933 100.635L136.554 100.051L133.475 101.663L134.136 98.4848L133.316 97.1618L131.204 97.6432L130.429 96.2324L129.239 95.4035L128.281 94.0657L128.278 94.0547ZM92.1452 108.579L90.9068 107.596L88.4357 109.935L87.3129 108.974L86.4155 106.329L84.4383 109.989L83.2969 105.798L81.8129 107.8L80.133 106.315L78.8191 107.629L78.2214 110.416L76.0012 108.729L74.1792 108.694L74.7868 112.031L74.3637 113.375L72.765 113.667L72.3543 114.915L68.8946 114.875L71.2608 117.43L67.9085 117.713L68.7352 119.538L70.6122 121.631L67.3111 122.115L66.6818 123.436L67.1422 125.056L68.9199 127.006L65.7178 127.651L65.4819 129.072L64.9718 130.427L67.1581 132.429L65.0272 133.39L65.2534 134.917L63.9021 136.074L66.0456 138.035L63.416 138.908L62.1981 140.105L63.6161 141.89L61.9289 142.976L64.0689 144.926L62.2192 145.976L60.4489 147.047L63.3291 149.163L62.2703 150.386L61.706 151.722L61.2933 153.099L60.6965 154.428L61.4824 156.084L59.4128 157.067L60.538 158.805L59.5585 160.049L59.4707 161.499L58.0691 162.63L58.6634 164.253L56.1719 165.104L55.6257 166.44L56.1514 168.056L58.1744 170.076L57.6642 171.431L56.6669 172.657L56.6979 174.159L55.2931 175.26L54.1913 176.442L55.7407 178.395L53.6293 179.265L55.1603 181.237L52.4146 181.894L54.0568 183.932L50.1366 184.155L53.3211 186.74L50.5946 187.324L52.2898 189.453L49.8558 190.103L50.1338 190.162L50.8465 190.701L50.676 188.851L51.8677 187.937L54.0232 187.726L53.7851 185.796L53.0566 183.477L55.6343 183.611L56.4318 182.421L57.1577 181.177L59.0722 180.852L59.8337 179.645L61.0356 178.781L60.2406 176.308L62.4873 176.292L61.0953 173.302L64.1611 173.972L62.902 171.058L64.476 170.496L66.8115 170.59L68.2958 169.972L66.7908 166.795L67.4206 165.437L68.7476 164.684L70.9218 164.667L71.3871 163.17L72.8248 162.519L72.9398 160.714L73.3266 159.139L74.7033 158.448L77.1772 158.733L77.5746 157.173L77.5826 155.257L80.2173 155.688L80.3683 153.901L82.0881 153.514L82.7217 152.149L82.4938 150.021L82.3161 147.936L85.9266 149.225L86.1526 147.504L85.9389 145.402L88.9207 146.111L87.5807 143.037L88.4855 141.939L89.1078 140.595L90.9139 140.253L92.8025 139.962L92.8025 138.097L95.0851 138.1L94.9344 136.14L95.6603 134.895L96.2358 133.537L98.1908 133.169L99.3331 132.174L100.469 131.12L98.6625 128.463L98.9573 127.21L99.2663 125.984L99.409 124.728L102.363 123.291L102.254 121.676L102.09 120.06L101.217 118.682L97.7637 118.683L99.6384 116.022L99.254 114.413L97.064 114.283L96.5918 112.722L95.5392 111.677L93.2865 112.309L93.0567 110.078L92.1665 108.609L92.1452 108.579ZM50.3536 94.6321L48.8067 93.6857L46.6993 96.3941L45.3771 95.6822L43.9725 93.2672L42.5239 97.1885L40.9382 93.1397L39.5479 95.1712L37.8904 93.6423L36.523 94.9009L35.6723 97.6508L33.6631 95.6747L32.0004 95.186L31.4589 98.5551L30.2499 99.6454L28.5601 99.0321L27.234 99.7304L25.0401 97.0509L24.4207 100.537L22.3018 97.9237L21.2209 99.6331L20.3448 102.379L18.2843 99.7402L16.8299 99.8377L15.5976 101.027L14.6057 103.539L12.6243 100.94L11.2265 101.352L9.77897 101.472L8.81038 104.346L7.06293 102.78L5.72736 103.622L4.12353 102.84L3.09108 105.626L0.803018 104.108L2.71007 105.663L4.28043 103.935L5.6158 105.438L7.25564 102.971L8.56658 104.646L9.87149 106.244L11.617 103.038L12.9911 103.914L14.4057 104.286L15.8372 104.499L17.2474 104.915L18.821 103.909L20.0334 105.866L21.6703 104.523L23.0159 105.367L24.4916 105.299L25.747 106.586L27.3313 105.825L28.3661 108.255L29.7326 108.684L31.3227 108.019L33.2159 105.802L34.5905 106.18L35.8671 107.035L37.2882 106.754L38.5786 107.883L40.0134 108.588L41.2751 106.436L42.7272 108.118L43.8955 105.918L45.5019 108.168L46.4237 105.741L48.664 108.933L48.5178 104.816L50.7825 106.203L49.9655 103.755L52.2846 103.739L51.0479 102.185L53.2774 100.942L51.911 99.5709L51.8262 98.0325L51.9981 95.6007L49.9441 96.0382L50.3182 94.5772L50.3536 94.6321ZM127.276 134.244L125.565 133.371L124.018 136.402L122.702 136.192L120.267 134.838L121.518 138.726L117.557 137.128L118.532 139.481L116.616 140.82L117.7 142.388L120.386 143.057L118.566 145.184L118.318 146.912L121.652 146.648L122.908 147.437L122.7 149.158L123.678 150.155L121.906 153.201L125.304 152.296L124.026 155.474L126.047 155.527L128.788 154.738L127.716 157.957L128.578 159.126L130.225 159.487L132.835 158.899L131.743 162.034L132.83 162.976L133.693 164.127L136.592 163.364L136.201 165.711L137.596 166.387L137.771 168.174L140.64 167.543L139.797 170.224L140.043 171.927L142.348 171.83L142.201 173.859L145.076 173.305L144.789 175.448L144.554 177.524L148.022 176.517L148.349 178.132L148.135 179.278L147.308 178.856L146.928 177.417L145.263 176.613L146.267 174.504L144.285 173.843L144.273 172.231L143.434 171.018L143.831 169.228L142.352 168.307L143.797 166.063L143.405 164.664L141.993 163.703L139.132 163.341L138.705 161.923L138.759 160.308L137.825 159.102L138.294 157.348L138.483 155.718L136.062 155.064L137.259 153.073L134.846 152.385L136.688 150.197L134.143 149.572L137.094 146.897L132.979 147.076L134.537 144.752L131.838 144.75L132.877 142.483L130.826 142.258L131.895 139.897L130.147 139.521L129.671 138.199L129.897 136.016L127.928 136.109L124.979 135.443L127.254 134.252L127.276 134.244ZM57.5887 119.626L55.8195 118.76L54.2611 121.813L52.8817 121.515L50.6908 119.806L50.9925 123.938L47.8094 121.03L47.5251 123.469L45.4189 122.837L44.7377 124.474L45.009 127.298L42.4159 126.288L40.7045 126.605L41.8399 129.778L41.3675 131.272L39.6309 131.567L38.8688 132.812L35.6405 131.644L36.9161 134.898L33.7781 133.748L33.7436 135.733L34.4181 138.496L31.3281 137.288L30.1489 138.089L29.7216 139.707L30.1773 142.33L27.1781 141.104L26.2127 142.143L25.0513 142.963L25.6908 145.882L23.4262 145.419L22.7274 146.788L20.9862 146.914L21.5285 149.794L18.9337 148.894L17.2745 149.108L17.3221 151.412L15.0925 152.655L16.6464 150.126L18.591 150.897L20.4967 151.602L20.3391 147.987L21.9325 148.043L23.3046 147.645L24.6138 147.105L26.0035 146.743L26.8047 145.085L28.8103 146.127L29.486 144.146L31.0327 144.17L32.2194 143.354L33.9264 143.791L34.8587 142.32L36.9693 143.831L38.33 143.473L39.3008 142.086L39.7475 139.222L41.1194 138.843L42.6613 138.947L43.8456 138.047L45.5043 138.561L47.0592 138.764L47.6224 136.329L49.5512 137.415L49.8286 134.954L52.1983 136.348L52.1556 133.733L55.3122 136.018L54.2473 132.032L56.7412 133.129L56.2714 130.481L58.6324 131.04L58.2067 129.05L60.7375 128.939L59.9807 127.279L60.4178 125.961L61.568 123.992L59.6882 123.254L57.1844 123.259L57.5777 119.629L57.5887 119.626ZM102.707 142.857L100.888 141.966L99.1236 144.96L97.8292 144.549L95.6202 142.84L96.6498 146.771L92.6766 145.269L93.7027 147.555L91.6834 148.564L92.4114 150.209L94.7392 151.739L92.2621 153.059L91.3232 154.49L94.4014 155.757L95.1306 157.098L94.1669 158.489L94.6617 159.757L91.8719 161.849L95.302 162.391L92.7313 164.604L94.4447 165.562L97.1737 166.216L94.6249 168.422L94.7551 169.836L95.9587 170.958L98.4681 171.759L95.9391 173.855L96.3749 175.185L96.5126 176.585L99.3627 177.375L97.8349 179.161L98.6777 180.422L97.9136 182.025L100.675 182.899L98.603 184.758L97.952 186.318L99.961 187.371L98.8122 189.018L101.548 189.962L100.225 191.631L98.978 193.274L102.45 194.124L100.95 194.844L100.371 194.345L100.556 192.935L100.943 191.536L99.916 190.034L101.82 188.753L100.449 187.214L101.235 185.852L101.116 184.416L102.339 183.102L101.522 181.596L103.874 180.416L104.232 179.039L103.494 177.536L101.217 175.82L101.547 174.41L102.39 173.078L102.184 171.598L103.447 170.35L104.409 169.069L102.646 167.32L104.648 166.238L102.908 164.464L105.564 163.521L103.671 161.743L107.513 160.926L103.875 159.069L106.351 157.859L104.031 156.546L106.038 154.94L104.381 153.569L106.444 151.889L105.091 150.562L105.271 149.02L106.397 146.992L104.494 146.086L102.182 146.336L102.736 142.854L102.707 142.857Z" fill="black"/>
</svg>
