<svg width="245" height="249" viewBox="0 0 245 249" fill="none" xmlns="http://www.w3.org/2000/svg">
<path d="M148.67 26.7864C153.09 19.7519 139.679 12.4244 141.712 0C143.746 37.7371 147.429 44.7635 148.934 37.0369C137.837 9.22463 147.333 13.7759 150.216 22.3085C147.141 25.1662 136.284 60.5504 141.272 45.1543C140.8 33.6174 140.343 40.717 147.221 13.7026C144.683 48.183 142.337 58.7836 145.203 46.4081C139.783 24.2544 151.689 48.5576 149.255 43.5097C141.056 29.3023 149.871 37.0125 141.024 55.8444C147.125 38.8526 148.622 52.8483 144.659 41.2625C149.167 72.7549 143.89 50.1941 140.976 46.7257C150.8 72.4781 146.388 36.0762 148.598 65.8751C144.739 54.6232 142.065 36.5322 137.293 56.6423C146.837 40.6926 147.942 64.7841 142.473 32.3717C142.977 74.5135 146.941 51.7491 143.978 64.8574C139.583 69.3435 151.12 43.5259 150.352 61.8124C149.607 71.3301 140.776 59.264 151.953 43.3875C139.126 49.4043 146.428 47.605 140.76 79.936C146.524 61.8449 138.87 76.9968 139.03 65.8426C134.682 73.2353 138.846 83.6161 139.935 53.8904C143.618 80.0337 146.628 42.9397 136.164 70.5404C136.3 48.3377 139.959 60.1596 138.99 58.0265C133.009 49.388 130.951 90.8215 140.423 72.5432C136.996 95.6577 140.511 79.5533 144.451 43.8923C140.279 79.9767 134.386 73.162 135.067 89.6247C140.047 75.3684 133.545 51.1141 128.341 57.7008C137.028 89.2664 137.381 63.571 129.358 62.8627C123.185 64.8411 135.955 103.783 138.502 65.354C124.57 69.1725 138.197 78.3565 125.426 70.7683C135.395 86.8728 127.436 84.7396 124.153 63.229C128.982 59.2559 121.831 92.6778 120.534 63.8152C123.633 91.2856 130.727 94.7052 128.125 104.125C127.028 70.0274 133.746 91.3182 115.834 76.264C124.834 70.003 131.4 90.6668 126.9 105.745C128.157 83.266 131.856 127.28 121.007 107.382C122.264 111.721 126.82 77.5179 122.12 99.7286C129.134 100.494 116.947 105.973 126.075 114.644C123.321 110.386 130.527 87.2066 130.735 79.2765C122.616 111.933 122.312 99.9729 128.541 101.675C125.298 116.802 117.908 126.653 126.251 130.936C128.613 116.216 119.517 115.32 129.838 139.306C124.65 128.819 121.319 114.205 128.005 126.597C132.456 102.31 123.417 121.956 123.929 117.079C125.547 118.17 115.81 132.792 130.791 119.383C126.315 110.484 118.741 127.744 117.964 103.889C135.339 110.427 132.112 121.589 134.594 101.251C137.861 141.341 136.068 101.52 137.429 112.348C134.53 122.794 134.178 115.768 130.847 120.905C121.559 117.486 126.283 125.164 132.056 147.342C134.762 126.409 132.545 100.632 138.093 138.915C130.927 123.503 139.15 100.29 135.531 131.644C132.777 101.878 135.155 103.954 132.272 114.653C130.631 148.319 148.654 112.894 155.588 125.782C147.541 98.0433 153.226 131.262 144.659 112.617C144.915 136.391 149.887 137.563 155.916 118.748C147.045 107.227 155.668 115.63 146.148 86.4494C144.387 136.147 145.5 134.079 147.998 137.914C153.33 108.09 152.634 142.546 154.195 128.567C149.871 120.36 143.626 97.9456 144.002 101.813C149.855 111.656 149.839 125.489 150.864 93.6386C155.868 83.8603 159.527 123.967 148.31 97.0907C160.696 118.837 157.414 83.844 154.723 117.624C147.741 100.982 147.381 80.9048 154.531 126.947C164.996 90.4633 158.895 86.8728 154.611 83.6161C146.444 101.259 160.752 96.3579 160.56 92.572C155.004 77.5341 155.004 80.2372 149.175 91.6357C150.256 110.639 149.471 106.959 156.605 85.3665C154.395 91.8962 155.988 73.1376 153.65 100.795C155.996 93.7526 159.736 73.7889 148.078 81.4259C157.229 76.9561 159.76 65.2971 157.414 81.2468C155.684 63.9048 156.589 75.7348 159.832 49.0949C146.829 61.9508 156.397 91.0169 162.426 73.8215C155.428 60.7377 149.567 49.8603 156.565 99.0447C160.248 82.3704 151.793 55.2745 156.349 90.9518C164.179 65.9565 160.008 78.5926 156.461 88.0696C160.512 68.0001 166.678 29.7338 153.026 63.742C149.495 59.9398 151.385 57.8636 155.588 46.7094C146.356 31.2888 152.962 59.3617 153.202 54.9651C153.53 33.5685 155.748 30.2711 154.411 38.3233C142.153 39.3573 152.658 47.0676 148.806 23.0168C145.74 45.081 159.143 26.933 143.706 19.9636C149.847 58.4091 144.859 44.9426 154.555 30.8003C153.49 31.3458 147.99 60.6318 148.334 25.614C141.864 10.9181 144.995 46.6361 145.964 23.2448C147.325 33.0068 140.079 1.31082 148.71 26.762L148.67 26.7864ZM100.141 35.1888C105.874 33.3324 98.0112 29.5139 97.2586 22.1945C99.8368 40.4809 101.71 45.8464 103.392 41.7429C94.7204 28.8463 103.424 31.2644 106.138 34.2118C103.344 36.3856 94.28 53.9881 98.0512 46.8804C97.9231 41.3277 99.1802 45.0077 104.809 32.1356C102.639 48.9891 101.422 53.7276 102.823 48.3459C100.117 38.4048 110.622 50.0801 109.285 48.2563C102.367 42.3617 108.908 43.6725 102.735 55.5595C107.523 47.5968 110.166 54.0288 107.804 48.753C113.128 64.1246 104.977 52.661 107.283 51.8061C114.425 64.1083 111.19 46.6117 112.159 60.5097C108.989 56.3899 106.578 47.2549 102.607 57.7578C111.23 50.9105 111.399 61.2587 108.132 45.7731C108.22 65.3622 111.295 56.6831 108.852 62.0892C106.675 65.4762 118.357 54.3219 119.317 62.9766C117.228 67.4546 107.844 60.355 115.546 53.3694C104.857 58.7348 116.123 58.3521 112.824 75.3277C116.683 65.411 111.27 72.4048 108.684 67.0231C106.226 72.1443 109.133 77.0863 114.914 64.3608C116.627 77.1678 118.917 59.093 110.854 73.0969C111.631 63.343 115.074 70.288 115.618 68.3177C111.335 64.605 110.79 84.072 119.085 76.3047C116.019 87.4671 118.044 80.1721 122.096 65.2075C118.693 82.2157 115.682 76.1826 116.515 88.1999C122.408 80.5059 118.757 68.1792 115.754 71.5662C119.862 86.1889 125.378 74.9206 121.271 73.6098C116.179 73.7157 126.571 90.4551 128.477 70.3124C118.645 72.3234 130.391 77.5179 121.471 73.9925C131.119 81.3933 124.922 78.2425 120.646 65.5983C126.475 63.5873 120.206 78.2588 122.688 64.2142C124.201 76.8747 129.19 77.9901 126.419 81.1654C126.868 63.4082 133.826 74.139 119.157 64.1409C127.564 61.1285 132.553 69.7913 128.309 75.2382C129.374 63.6931 131.936 84.3081 123.113 73.1294C124.137 73.7808 128.549 57.8473 124.842 67.4546C131.215 66.4043 121.863 69.026 129.398 71.2813C124.706 67.6419 125.138 57.6194 125.603 49.616C119.862 64.8004 118.821 59.0442 123.425 59.4431C118.733 64.0025 116.867 67.5442 117.46 68.1385C119.678 60.3631 112.672 57.7089 121.423 69.2621C115.954 63.0255 111.551 56.4062 115.426 62.8789C119.742 49.7218 114.193 57.8392 115.066 54.5743C114.337 55.4292 104.961 62.1543 114.729 55.5188C112.183 50.7396 106.771 56.4144 106.915 44.9182C118.605 48.3703 114.465 53.3368 114.257 42.9072C116.923 60.8679 116.299 40.7333 117.388 44.6821C113.496 50.0231 112.544 46.4488 108.42 48.8914C100.958 46.2372 105.666 48.3866 110.142 58.1079C111.102 47.0106 108.324 35.1318 111.343 53.1007C105.137 45.2113 112.319 32.8114 108.708 47.3607C105.41 32.9905 105.225 33.6825 101.086 39.7237C97.699 52.661 107.467 34.9934 112.928 40.3751C104.617 26.5829 107.091 42.9234 98.5156 34.4316C97.8911 45.0322 102.415 45.1136 106.53 35.2213C98.6678 29.2534 105.193 32.2007 96.1376 20.6313C93.8957 44.1854 93.1831 23.2692 100.133 35.1481L100.141 35.1888ZM192.331 58.9953C195.982 55.3559 185.045 52.7994 182.603 44.7635C184.429 64.2061 189.041 68.5375 192.475 65.6146C181.53 52.2295 188.256 54.5906 189.409 57.8555C187.335 59.2396 177.799 76.0605 182.699 68.2199C182.451 64.0839 182.083 68.8143 188.064 57.2041C185.782 72.8445 182.867 76.8258 184.477 69.8157C179.841 59.4838 189.401 72.1361 186.102 70.0681C178.848 63.2209 188.456 65.8018 180.121 74.424C184.525 67.0882 184.613 75.344 180.449 70.7032C185.461 84.7152 175.949 72.8933 177.535 71.3464C187.631 86.9623 181.634 70.8497 180.353 86.5797C176.974 81.4015 175.277 71.6232 171.073 80.628C178.584 74.2042 178.031 85.6678 172.739 70.752C172.979 90.0399 177.062 79.2195 174.46 84.2104C170.553 88.2976 181.242 77.7703 180.569 87.5485C178.415 91.0332 168.511 82.3866 176.718 75.0753C165.46 78.845 173.171 80.8641 168.887 98.1247C173.059 87.4101 167.19 94.3225 164.468 87.1089C161.169 92.4417 163.347 96.6592 167.054 86.0586C166.437 95.845 170.553 80.0418 158.575 92.7756C159.391 83.5102 164.724 91.3345 165.284 90.2109C158.39 85.6108 154.419 105.371 161.689 97.278C159.351 108.864 167.174 99.9566 165.773 86.1889C165.396 104.231 157.189 102.863 157.157 112.682C163.507 104.899 160.28 93.1745 157.926 95.7147C159.792 112.088 167.27 99.8833 163.491 97.1314C158.118 97.9374 169.96 115.727 172.074 95.4868C161.545 97.4652 174.028 102.871 164.484 99.2564C173.067 106.462 165.565 104.141 162.722 92.2626C168.975 88.6314 165.404 105.745 167.927 87.6381C171.297 101.878 177.463 104.687 176.894 105.534C177.375 86.9216 183.075 96.6755 168.311 86.9623C178.96 81.3282 183.332 88.2324 181.987 93.1745C183.091 81.3119 186.799 100.787 177.415 89.6084C179.304 91.1798 182.419 74.8392 179.216 85.3584C185.982 84.5198 176.061 86.2296 184.012 88.6395C182.411 85.7736 187.984 74.5298 188.352 70.5892C182.139 85.22 181.082 79.0974 186.991 78.6984C184.405 85.3584 178.92 90.5936 186.278 92.7837C188.024 83.38 179.568 81.605 188.224 91.538C183.956 86.1726 181.058 79.3172 186.887 85.6922C190.65 72.4618 183.716 79.2602 183.948 75.8569C184.789 76.606 176.478 84.2023 188.68 77.5504C184.965 72.4618 178.367 78.7391 177.679 66.673C192.708 70.06 189.993 75.2463 192.259 64.8981C193.484 82.3459 192.756 61.0471 196.327 64.2712C193.885 67.9431 192.051 62.9034 187.703 63.7664C180.521 61.8287 185.437 64.8167 191.122 75.401C193.684 64.2386 191.675 50.5197 194.157 68.0815C187.415 60.6481 184.925 46.8234 192.355 59.0035L192.331 58.9953ZM59.4345 60.6725C67.129 59.9968 53.005 56.3411 51.5798 50.2429C55.2469 61.6984 59.8588 66.5427 65.2154 64.2142C49.8023 54.9 62.3249 55.934 65.7278 57.0983C62.9494 58.8081 49.3379 71.9163 57.4167 67.5849C56.6161 63.9211 56.8403 65.8344 65.6798 57.367C63.3898 67.9024 61.3561 72.6409 65.0713 68.5945C59.4905 61.503 75.4481 68.6189 71.9971 66.8521C61.1399 63.2616 76.0325 66.8928 64.3746 73.3411C72.7498 67.5849 73.7666 70.4671 68.8665 66.4613C78.6428 76.0035 67.177 68.4642 70.9162 69.8402C82.8383 77.8761 76.8412 66.6974 79.3474 75.7999C74.5593 73.3493 72.3815 68.2362 66.3043 75.3929C79.5716 70.3205 79.4515 76.3129 72.8779 65.639C73.6545 79.3253 81.285 73.8541 77.714 78.2669C73.1821 80.7339 92.2223 72.3641 92.7748 77.5341C89.8603 81.2387 76.1607 76.6141 89.3879 72.2908C73.1021 74.2042 85.8969 74.7578 79.2033 85.6434C88.5232 80.8071 82.3259 84.5361 80.9487 80.457C76.2167 83.5916 81.3571 86.5797 84.5358 78.503C89.3959 87.9963 94.8726 76.4594 83.2547 83.7789C84.5278 78.1692 90.7651 82.1831 91.6458 81.719C84.1675 78.7554 81.3251 92.3196 94.6323 88.2894C91.7659 95.1204 97.2506 89.0141 104.633 78.1122C97.779 90.8704 90.0444 90.1213 92.4225 94.8191C101.798 90.3167 94.3281 81.141 90.2046 83.3392C95.1528 92.3685 103.015 84.7478 95.5211 83.3962C87.146 83.1601 104.321 93.5572 107.563 80.9293C91.5577 81.4178 112.568 85.1304 98.0913 82.8182C110.63 87.3287 97.3787 85.5212 92.1663 77.5097C102.199 74.5705 90.9172 82.232 91.2214 72.2583C95.1688 80.2209 104.289 80.9618 100.942 82.7693C97.2185 72.527 108.612 76.7688 84.0634 69.7343C98.0913 67.7314 103.32 73.8866 96.2657 77.5016C97.9952 69.6285 104.969 82.3541 90.3807 74.7741C92.0702 75.7511 96.0576 64.4666 89.0596 71.2813C96.3778 71.9815 79.0111 74.4891 88.9956 73.2597C84.4397 70.3124 90.2366 61.5437 87.194 60.6074C77.5779 69.7506 76.3848 65.639 85.4966 65.8996C79.4755 70.0193 67.6494 73.6912 77.0574 75.1323C80.9327 69.2458 69.1227 67.7803 83.7511 74.4973C75.1118 70.9719 67.7055 67.4221 74.6954 71.6314C81.7975 62.7568 71.901 66.4776 73.4624 64.0351C71.9411 65.3866 56.9684 71.1266 73.03 67.6093C67.3292 64.1491 58.3215 67.6826 57.2486 59.7932C78.5307 62.0322 71.4447 66.1275 72.9259 59.3373C77.3297 70.8253 74.9596 58.1567 76.7692 60.469C70.9082 63.9455 69.7793 62.4556 63.4619 64.0595C50.2747 62.0241 56.6881 63.1476 64.2225 69.2214C66.2082 62.5044 63.0455 55.5351 68.5782 67.3244C57.3607 62.6428 67.2891 53.7357 60.5234 62.1218C55.359 51.8957 54.7905 53.7195 47.8727 59.2721C43.573 68.3339 47.8726 52.8239 59.4184 60.6318L59.4345 60.6725ZM220.387 102.008C226.576 99.8915 208.353 93.3781 202.908 97.0581C205.663 107.96 210.755 111.331 215.463 107.911C196.903 100.046 208.697 100.29 210.427 101.121C207.472 103.596 193.004 116.452 201.747 112.959C198.905 107.952 198.2 108.782 206.439 99.1994C203.829 109.947 200.706 114.563 205.102 111.412C196.231 104.028 211.708 110.834 204.446 108.522C193.068 105.965 208.889 109.938 194.845 117.087C202.316 110.81 201.619 111.803 193.212 108.864C202.98 118.772 188.336 114.164 191.234 114.636C203.909 121.638 195.158 109.311 195.926 119.66C191.282 115.874 188.8 109.092 182.923 114.368C194.998 110.582 194.669 118.585 184.349 109.181C185.75 120.49 193.58 114.001 189.425 116.338C182.595 119.692 199.65 113.301 197.752 119.7C194.773 121.891 180.665 115.654 194.853 110.118C175.149 111.152 188.056 115.003 179.617 125.416C187.263 118.251 177.895 121.15 173.772 116.541C169.368 120.238 172.466 121.483 177.094 117.144C180.185 123.812 184.853 111.868 167.126 118.691C167.67 114.335 172.971 116.574 173.828 118.552C163.907 114.897 157.846 126.295 171.177 121.891C167.574 128.998 174.356 125.432 177.711 115.971C171.562 127.484 162.658 125.359 163.066 130.545C171.482 127.028 162.074 121.467 156.957 125.278C165.444 131.563 172.723 125.864 164.436 125.986C157.173 128.298 177.335 137.401 183.748 125.131C166.165 127.256 189.529 126.637 174.508 126.084C189.105 130.667 176.95 128.868 172.194 121.866C182.699 120.572 171.586 131.278 174.933 122.298C181.386 130.138 191.579 129.169 187.543 128.38C187.303 116.769 201.483 124.276 177.311 118.707C193.1 116.924 200.851 121.443 193.028 124.699C197.175 118.894 205.951 129.267 190.978 121.003C192.788 121.858 200.282 111.99 194.045 118.577C205.39 117.445 189.889 118.381 202.964 119.415C199.85 118.162 209.009 112.357 208.689 109.857C198.481 118.552 198.024 114.856 208.793 114.286C203.365 118.691 192.283 121.435 203.941 123.69C209.17 117.095 195.246 115.581 211.932 121.321C203.661 117.803 198.088 114.571 207.632 118.78C215.199 110.134 203.389 113.456 205.655 111.184C206.375 111.811 191.058 117.396 211.868 113.179C204.838 110.069 194.813 112.943 194.541 105.737C219.787 107.993 214.022 111.819 218.041 102.635C224.367 112.78 224.911 102.326 227.729 100.421C222.485 103.865 207.728 94.6319 220.419 102L220.387 102.008ZM120.262 99.6146C133.625 96.2521 101.782 94.1108 93.7516 87.2473C98.1954 100.934 107.78 105.379 117.26 101.65C81.5813 92.2056 104.008 90.9599 107.299 91.4484C102.543 93.2641 74.9837 107.927 91.7739 102.863C88.1709 97.1721 86.9138 98.4259 103.376 87.3369C97.8351 99.9403 92.8308 103.441 99.9249 99.6635C85.2244 90.9681 112.496 98.1654 101.11 95.4542C79.8918 91.3263 109.421 94.2167 83.7671 101.43C98.5076 93.3373 97.6909 95.8287 82.6542 91.3589C100.862 102.082 74.8796 96.1137 81.0608 94.8517C103.96 103.954 87.2341 90.447 89.7242 97.4408C80.5484 94.6482 77.5458 88.6558 66.0161 96.6185C88.7794 90.219 87.8346 96.187 69.8593 84.1616C72.0532 98.5644 85.8889 93.2722 79.0832 98.8168C66.8808 99.9322 99.8047 88.8756 96.9703 93.8014C91.3095 96.3498 63.8222 92.6941 89.8923 89.4374C57.0885 90.7808 80.8767 88.8756 67.2891 99.3785C81.1809 93.6549 62.0127 96.4068 55.1508 95.9427C47.3922 97.6688 57.9852 100.103 65.0873 89.3316C71.6929 98.9796 79.2433 85.8306 46.9599 93.2885C48.6493 86.946 62.7813 92.2952 63.606 91.6438C47.168 87.4915 38.4246 100.225 62.5251 93.9398C54.9106 101.512 64.3827 97.1233 75.9445 84.9269C62.1167 97.4815 46.0071 94.062 44.6779 99.289C61.9246 98.2794 43.9573 86.5389 32.8359 89.0548C40.2822 99.2645 56.4399 92.1731 37.9042 91.367C19.0962 92.0835 50.0585 104.817 54.7745 92.9628C19.5446 94.4609 56.536 96.8465 24.4848 94.2574C49.6582 101.21 24.4047 101.699 12.4346 92.7349C29.2008 91.2368 7.55842 104.345 11.6419 93.9317C19.4725 103.93 36.551 103.116 28.5442 106.047C26.3344 93.492 47.4803 103.726 0 98.2631C30.3378 93.6304 46.5595 102.31 34.6694 104.654C37.9442 97.5873 53.2052 113.57 24.1725 105.884C29.1207 107.765 41.195 94.4202 29.2168 101.308C50.1145 101.894 21.6824 103.865 45.903 106.918C39.4335 104.622 55.4231 96.6836 54.3822 92.9628C34.4292 104.972 34.4132 102.204 53.7577 103.311C43.3889 106.967 22.2989 109.377 43.1807 110.215C52.2684 106.079 26.4304 106.12 56.6961 116.313C41.9076 110.647 32.0913 104.988 49.6261 108.18C63.614 99.8589 40.9388 106.625 44.806 105.648C45.5427 105.493 18.1514 111.062 55.311 105.338C42.8124 103.287 24.5168 107.952 22.4911 100.991C67.9857 103.563 58.0973 106.38 63.3818 98.6295C72.0932 113.293 67.2491 99.867 70.9242 104.19C61.9566 108.155 62.389 103.84 52.0682 106.462C27.055 105.933 39.5776 108.937 55.4231 117.551C61.7484 109.938 57.705 99.5658 72.0932 111.966C50.2987 107.618 72.8378 99.2401 61.0278 111.453C50.8352 100.836 53.7496 101.927 45.2785 106.429C38.9131 117.323 72.1973 109.002 90.4208 110.883C69.1547 102.114 83.9273 114.986 61.0278 109.539C60.6995 117.144 72.8859 117.03 87.9147 109.507C63.9023 106.519 88.9235 110.867 62.9174 101.976C57.1445 118.512 57.2566 117.608 62.7813 118.373C79.6196 109.898 78.8589 124.642 84.3436 121.239C73.4544 118.414 58.2174 108.571 51.772 110.134C61.5403 113.203 74.6954 119.578 74.3831 113.138C88.6433 109.613 95.2249 124.301 62.9575 114.913C94.3761 123.063 87.6424 112.528 79.8358 126.466C63.0375 120.173 61.7004 112.194 76.9053 129.568C108.332 118.471 92.6867 119.106 82.0376 120.213C60.6755 125.896 96.586 124.439 94.2 123.405C79.5075 119.44 81.4692 120.979 66.0161 125.807C66.8087 132.573 63.2617 132.141 85.7048 124.765C81.9816 128.551 89.1237 122.778 85.2884 134.087C93.8957 131.571 100.349 123.836 68.2259 125.424C95.1127 126.32 102.943 124.056 96.4499 130.822C93.4313 124.626 92.9589 127.671 100.966 117.755C76.505 123.169 101.022 136.065 119.357 131.71C98.4196 123.617 83.0065 118.96 103.976 138.361C114.097 131.384 96.3538 121.703 108.7 134.584C130.551 125.522 118.348 130.944 106.867 134.885C127.356 124.439 141.584 113.065 111.543 123.486C103.72 120.458 109.885 117.25 126.379 115.027C101.911 107.406 116.787 117.046 117.107 112.56C116.339 104.72 127.108 104.141 129.894 107.235C95.5211 106.722 124.746 109.246 109.829 99.9485C98.5237 106.258 134.915 97.9537 98.1473 93.8828C114.817 108.18 97.0424 90.8622 120.278 99.5984L120.262 99.6146ZM160.945 129.243C175.221 126.434 142.449 122.859 135.363 116.932C139.655 131.262 149.599 134.559 158.943 132.206C123.249 121.899 145.604 122.216 148.798 122.412C144.05 125.09 117.42 139.078 134.17 134.901C129.646 128.827 128.357 130.48 144.138 118.748C138.55 132.108 134.298 136.529 141.544 132.727C126.74 124.154 154.307 131.677 141.728 129.365C120.662 124.17 150.368 128.624 126.876 137.498C141.184 129.878 139.182 131.897 124.257 129.552C143.602 141.602 119.013 133.362 125.843 133.102C150.552 143.173 135.995 129.992 137.893 140.641C129.39 136.627 125.515 131.677 114.729 139.086C137.565 132.825 135.299 140.161 117.067 127.647C121.863 143.792 136.3 137.62 130.967 143.018C119.029 144.777 150.248 134.168 147.437 140.454C143.426 145.168 118.308 141.618 147.477 136.155C114.85 139.192 135.371 134.779 123.569 152.325C139.887 145.77 124.354 151.689 119.061 147.586C109.973 150.484 119.373 156.338 129.358 147.423C137.349 156.697 147.485 142.375 117.276 152.097C119.75 145.184 133.105 149.849 134.674 149.231C120.126 145.754 112.784 161.5 139.494 156.265C133.641 163.756 143.954 157.731 156.861 143.947C144.042 158.569 128.533 157.21 128.653 163.682C147.781 158.431 132.825 148.734 124.201 151.209C132.44 161.679 149.527 152.699 131.44 152.194C117.532 148.653 151.649 167.566 161.369 153.823C127.724 151.201 169.456 158.838 140.639 155.264C168.247 161.118 144.483 158.374 138.141 152.528C156.725 150.224 135.675 161.777 141.993 152.129C151.657 162.111 168.871 162.217 162.306 165.343C162.634 152.65 184.324 162.656 139.246 156.819C168.999 154.319 182.619 160.393 168.263 164.879C172.282 157.25 187.703 174.926 160.32 166.385C166.854 165.18 181.618 151.917 172.715 161.451C194.373 161.574 165.901 161.761 190.754 164.268C184.357 162.713 199.666 154.881 198.457 151.934C179.088 163.617 178.255 157.804 198.753 158.121C188.16 163.397 166.317 168.356 187.087 169.976C197.392 163.365 172.715 161.867 204.093 169.691C187.487 166.548 177.967 162.901 194.013 168.413C208.729 158.292 186.462 163.145 191.362 160.312C191.226 161.614 163.883 167.322 200.562 163.153C188.528 158.952 170.937 163.813 169.752 154.23C215.415 156.713 204.806 161.533 210.066 154.694C219.546 168.299 214.67 152.593 219.17 155.451C210.315 162.632 211.387 156.941 201.843 158.822C177.551 157.315 189.985 161.183 206.872 169.113C212.933 160.54 208.305 149.76 221.924 162.103C200.626 159.579 225.912 147.065 215.735 158.48C207.488 148.327 212.028 149.613 204.766 150.729C196.751 161.688 232.605 149.32 245 154.865C223.95 144.134 238.41 155.842 215.551 148.482C213.838 158.04 223.222 161.004 235.984 153.253C211.019 148.498 239.627 150.086 209.29 139.762C202.116 161.215 198.104 161.215 200.554 161.883C217.657 151.274 216.744 162.551 220.411 157.853C206.255 154.254 187.759 148.018 178.335 150.525C186.31 154.01 196.311 157.486 196.703 146.088C209.394 143.491 213.749 158.602 180.665 149.784C212.332 157.731 205.551 144.793 197.312 157.397C178.335 151.616 177.126 148.49 187.183 160.833C216.496 147.342 200.162 148.498 187.135 148.995C164.788 154.49 200.058 151.347 196.511 149.247C180.361 144.101 181.386 145.013 164.46 150.224C165.284 156.615 160.865 155.142 182.747 146.682C177.463 152.756 183.372 145.477 174.764 155.475C181.458 152.064 187.055 143.352 153.122 145.241C179.352 144.077 186.975 141.358 179.544 147.268C174.933 140.527 174.068 143.955 180.385 133.664C154.099 140.03 176.358 149.418 193.092 144.826C172.931 138.321 151.777 133.167 168.607 150.965C177.287 144.956 157.846 137.669 168.671 150.265C188.96 140.397 173.772 146.715 162.666 144.899C180.914 138.378 192.043 120.889 153.891 139.631C149.095 137.205 155.476 135.691 169.656 131.131C142.009 125.294 154.379 136.595 153.682 135.023C153.266 127.606 165.613 127.468 170.921 130.106C134.85 130.464 160.056 134.307 146.725 123.242C136.124 131.604 137.669 119.953 160.961 129.218L160.945 129.243ZM118.18 137.222C122.504 128.974 110.109 121.573 104.993 106.942C106.186 143.279 109.005 147.22 112.84 137.515C99.5725 111.119 107.307 115.67 107.763 123.551C106.314 124.675 96.4499 158.333 102.911 141.577C100.854 130.659 100.413 138.052 105.578 111.428C103.064 144.451 101.55 152.3 103.568 140.218C96.6421 118.406 105.962 141.911 101.999 137.384C93.9358 122.908 104.152 128.917 93.8637 146.544C98.2674 129.462 99.7727 143.686 93.4874 132.687C100.277 162.217 89.564 138.353 92.1983 135.593C101.062 159.839 95.9375 123.91 97.3226 152.699C93.5194 142.074 90.8612 124.154 86.1612 143.58C95.5531 127.818 95.0647 150.916 89.7082 118.878C90.1966 159.237 94.0479 138.581 91.1254 150.786C86.8177 156.957 99.7247 132.874 100.573 150.281C98.2594 158.252 88.0027 144.761 97.3867 128.982C83.9833 136.44 92.7187 137.165 90.3487 170.733C95.2088 151.47 88.4591 165.587 85.4566 152.634C84.3676 161.956 82.8463 169.593 91.1013 144.297C91.5257 169.479 96.0896 134.38 83.4148 160.816C85.1363 141.244 91.1014 154.295 92.5186 151.388C85.0482 142.269 80.6445 181.472 89.9404 165.775C87.3622 188.531 91.6138 173.599 97.0664 140.25C91.3896 174.348 85.5927 167.24 84.6799 182.156C91.9421 169.186 87.146 146.65 84.4157 153.937C86.6416 181.383 90.8852 157.332 84.5758 154.783C82.5181 159.351 91.854 200.263 96.7622 165.384C83.0705 169.162 97.2346 179.412 84.6799 172.15C96.8662 188.987 86.6656 188.531 85.0482 168.453C91.3656 164.562 82.7503 195.598 84.6238 168.225C87.6664 195.126 94.6484 198.383 92.0942 207.436C91.0053 174.226 97.5708 196.038 81.5733 183.369C95.1848 179.99 101.654 201.208 96.4499 217.174C97.6829 194.914 102.087 237.96 91.4376 217.752C93.4714 221.855 97.9632 189.891 94.1439 211.442C101.814 211.873 90.6209 217.385 99.5805 224.029C97.6829 220.756 103.984 198.741 104.2 191.845C96.2097 222.539 95.9134 212.207 102.023 213.054C98.8519 227.921 91.6138 237.471 99.8127 242.511C102.127 227.351 91.5818 226.407 101.702 249C97.4187 239.49 94.9767 226.398 102.351 239.442C106.707 215.057 97.803 232.993 98.3075 227.644C99.1242 229.68 90.3807 244.652 104.321 232.415C99.1162 224.208 92.4625 239.368 90.9012 216.954C107.98 223.427 104.825 234.003 106.474 214.837C108.876 251.898 105.522 211.947 107.659 219.966C104.024 230.217 104.481 223.101 101.23 228.051C91.3095 222.433 94.3441 226.675 99.2203 245.825C101.887 225.495 99.7087 201.444 105.169 238.204C97.3386 220.455 106.218 194.605 102.687 222.01C99.1882 192.415 98.3555 195.036 93.9438 205.604C91.5577 234.54 104.537 199.009 109.781 213.632C101.078 186.797 105.858 218.029 96.6501 200.035C96.9223 222.987 102.615 225.104 108.548 206.923C99.0361 195.769 105.898 202.698 96.538 174.706C94.0238 220.903 97.5468 221.245 98.4116 221.831C104.441 192.301 101.334 223.793 105.265 209.732C101.022 202.462 96.4899 181.765 93.7196 186.227C97.8991 193.033 101.014 206.988 101.238 176.603C106.955 166.1 110.574 206.549 99.5726 181.293C111.751 203.577 108.508 170.025 105.065 204.367C99.0121 189.166 98.6758 170.35 104.921 215.57C115.986 181.374 110.79 178.183 108.18 175.52C100.958 190.575 111.038 184.175 110.053 179.087C105.401 166.337 107.788 168.787 102.871 181.203C103.144 198.554 101.59 195.94 108.588 174.242C108.012 181.562 112.736 165.514 111.238 193.872C111.15 185.429 114.049 165.229 102.615 169.968C113.192 165.97 118.052 156.583 116.547 172.28C114.85 155.801 114.177 166.198 116.563 141.292C108.524 153.733 117.932 184.826 125.443 170.619C116.187 156.224 111.262 145.225 117.324 192.512C122.544 177.67 118.212 151.152 122.688 184.729C130.375 160.263 123.097 170.912 119.622 179.404C128.349 160.67 129.638 125.986 121.815 162.266C119.117 158.757 124.177 155.801 123.473 147.114C114.425 131.083 119.333 158.504 120.366 153.749C119.91 135.552 125.242 134.25 124.682 142.571C110.254 142.717 122.184 147.277 112.816 125.506C109.021 145.868 122.96 129.096 110.166 121.361C116.195 159.514 109.741 112.869 118.22 137.27L118.18 137.222ZM80.1961 122.558C85.929 120.221 70.9242 117.331 66.3283 111.998C68.3941 124.414 72.5496 128.445 77.0014 126.124C59.8668 118.308 69.5791 118.536 70.5799 118.121C67.8816 120.653 54.6944 133.069 62.461 129.503C60.2191 124.976 59.6907 125.294 66.5205 115.898C64.3587 127.394 61.6363 131.343 65.0953 128.07C57.4808 120.881 70.2677 127.264 64.9191 125.465C53.5415 121.817 66.9128 125.506 55.8875 133.639C61.3081 126.995 59.4104 129.12 52.2764 125.872C59.8348 137.165 49.8183 132.768 51.9321 132.516C61.6203 140.633 53.6696 130.952 52.7488 136.904C49.0176 135.219 47.7526 130.057 42.7243 138.101C53.0691 132.133 51.1715 139.037 42.7243 127.411C43.2848 142.082 50.7711 138.133 47.4082 143.434C40.5144 144.28 57.3767 133.37 53.1491 141.056C50.2827 145.591 37.1115 142.554 50.667 138.964C34.0849 140.087 44.8541 139.005 37.4798 149.198C43.2767 143.483 34.4613 149.695 32.4355 148.815C27.6395 151.177 32.8599 152.569 35.5422 143.564C38.0083 153.155 39.994 141.48 25.9981 152.984C26.4304 146.471 32.3795 150.525 32.4596 149.239C25.0853 146.234 23.3398 161.582 35.9906 150.957C33.1401 157.885 37.6159 153.359 44.9341 142.318C38.1924 151.958 31.7149 148.718 31.811 151.852C41.4272 148.107 35.2059 141.284 31.2025 144.313C33.5965 147.741 45.0543 140.845 40.5624 137.865C33.2362 137.629 49.7863 148.978 53.5415 135.406C37.4318 137.539 56.1357 140.478 41.4672 138.948C54.2621 143.499 43.9573 141.683 39.6977 133.598C48.4251 132.271 38.5207 143.295 42.0517 134.038C45.6708 142.904 54.3501 142.839 51.2675 145.502C51.4597 134.323 62.6052 143.523 42.9645 135.642C56.2718 134.421 63.7902 141.447 57.0564 145.119C60.3713 138.777 68.5462 150.053 56.8963 141.594C59.3304 140.959 66.1121 130.35 62.6612 138.874C72.8058 137.962 60.019 138.036 72.0532 139.281C69.1947 138.76 76.2007 131.514 76.529 129.731C67.4653 138.988 67.8977 134.828 76.3769 134.274C72.3334 139.29 61.7084 142.18 72.3975 144.451C75.8004 138.516 65.5917 137.042 79.4114 143.841C72.8539 141.097 67.8336 137.49 76.0406 142.538C82.9184 132.76 72.9499 137.376 74.2711 134.095C75.2079 134.632 61.5563 140.429 79.0671 136.049C73.8467 132.54 64.4707 136.163 63.4138 128.16C85.3044 130.415 80.7646 133.745 83.7831 126.898C88.0348 138.532 84.9762 124.895 86.7056 128.062C82.5581 130.757 83.1666 128.445 78.6908 129.251C66.0481 128.013 71.4847 129.153 78.5307 136.114C81.4131 127.688 78.2024 119 84.2716 129.316C73.6946 124.561 83.7351 117.201 77.1855 127.313C73.3503 116.981 74.3271 118.007 68.8905 121.15C64.791 130.35 69.1627 114.644 80.2041 122.558H80.1961ZM154.723 165.742C160.696 163.544 144.395 161.574 140.551 156.583C142.641 170.741 143.858 172.98 147.613 167.615C131.6 161.126 143.21 162.917 145.828 166.459C142.273 166.491 127.957 177.377 135.155 171.694C133.617 169.015 133.858 170.855 141.76 163.601C139.51 174.454 135.923 177.401 139.542 174.381C132.48 169.243 148.174 176.815 145.724 174.299C134.923 170.928 148.782 174.511 137.341 181.472C147.101 173.55 149.855 179.526 144.194 178.15C152.938 188.042 140.095 181.659 143.85 181.48C156.357 189.101 151.328 176.896 153.739 185.543C149.847 183.231 148.51 178.46 143.314 185.299C156.421 181.26 157.005 186.935 150.624 175.968C152.105 189.044 158.126 184.647 158.639 188.922C154.075 190.477 172.17 182.522 172.723 186.642C170.617 190.167 157.077 186.618 170.977 182.514C156.405 185.144 169.096 187.334 166.413 193.652C174.036 188.344 166.461 193.457 164.332 190.379C161.137 192.602 167.967 193.864 171.73 187.839C176.63 194.507 181.995 182.783 168.255 189.72C169.52 184.411 176.47 189.028 177.359 188.637C169.864 186.634 167.943 198.749 181.826 192.529C178.135 199.864 183.556 195.671 190.161 185.291C184.108 195.867 178.135 191.951 178.976 196.429C188.144 192.96 180.834 187.416 175.933 190.314C182.443 197.251 191.771 188.433 185.301 189.622C175.381 190.974 190.786 199.132 192.315 188.792C174.909 189.207 194.133 191.983 178.223 188.963C189 194.792 176.726 192.227 170.745 184.59C179 183.345 168.711 191.291 171.45 182.612C174.468 190.925 181.834 191.633 177.791 194.133C178.023 182.84 190.185 189.109 165.893 182.4C178.079 179.673 182.507 187.114 173.948 190.575C173.283 183.035 180.113 193.473 164.075 184.631C164.948 185.567 168.775 175.602 161.897 182.066C172.322 181.171 159.119 181.944 171.434 183.076C166.894 181.822 172.563 174.999 171.193 172.573C162.57 181.22 162.186 178.053 171.866 177.491C165.989 181.456 153.466 184.167 162.802 185.535C167.278 179.917 156.565 177.678 171.714 184.004C162.442 180.674 154.988 177.328 161.049 181.293C168.903 172.834 158.471 177.939 160.728 175.569C160.032 176.066 144.403 180.739 160.945 176.636C155.436 173.281 147.365 177.466 146.292 169.878C167.262 171.995 161.009 175.13 162.474 168.706C166.838 179.583 165.308 166.727 167.086 168.885C159.64 172.988 158.567 168.38 153.13 168.282C139.31 167.118 143.282 168.95 149.039 175.48C152.698 168.291 150.288 160.89 157.342 171.303C147.157 166.817 143.314 158.292 154.699 165.718L154.723 165.742ZM84.8881 147.879C88.331 143.93 78.6828 139.273 75.5602 130.895C76.4889 150.737 79.3714 155.899 81.8295 152.202C69.8113 138.532 76.1767 138.508 76.4569 141.374C75.2479 144.476 67.7375 164.7 73.1661 158.13C71.3646 151.071 69.4029 153.709 73.5424 138.679C72.1332 157.144 70.8842 163.055 73.1821 157.34C67.9697 145.29 75.5121 157.03 71.5567 153.806C64.6229 148.115 74.5673 153.684 68.1939 164.382C71.5968 153.985 70.8682 159.449 64.5028 155.15C73.2542 173.42 63.3097 163.129 63.9743 164.032C70.4999 177.092 65.5036 156.55 65.7839 171.564C64.1264 167.558 63.2697 159.066 60.8357 171.132C67.1851 162.347 65.0632 172.988 59.2183 155.37C61.0118 178.565 65.6557 170.074 64.735 178.126C60.2271 180.625 69.5871 166.011 68.1459 174.837C65.2634 180.845 58.1614 175.968 67.5293 169.593C56.7842 172.728 63.3178 172.256 58.4496 188.938C63.9743 180.161 55.9435 189.003 57.3207 184.542C51.7559 187.798 56.1277 193.888 57.3527 180.674C59.8028 194.54 63.0055 175.976 54.6784 190.477C54.6544 179.608 57.3607 184.558 57.0965 185.795C52.0762 182.531 50.611 205.197 57.4968 197.169C53.6776 206.394 58.9541 195.443 65.3435 178.004C60.3873 194.686 54.8145 188.873 54.7745 196.013C60.8677 186.984 59.4665 172.842 55.6713 173.9C59.0101 188.661 63.8462 174.853 59.5065 172.964C52.7968 170.464 68.1058 190.241 70.9242 166.45C60.9478 168.502 72.8138 174.324 63.7822 170.44C73.5505 177.914 66.4084 173.9 63.7021 159.766C70.4999 155.223 64.8471 170.717 69.6832 156.754C72.1332 170.033 77.2496 169.699 75.1758 173.29C75.6803 155.378 82.6141 168.038 69.3629 159.766C77.9862 155.443 82.1337 163.56 77.8021 169.04C79.6516 157.975 84.752 180.568 76.6251 170.473C77.6579 171.393 79.8358 152.243 76.0246 162.575C83.2627 163.536 76.1847 166.923 84.5358 171.254C81.4532 167.436 85.993 153.652 84.776 147.871C79.6516 164.334 80.2121 159.278 86.6496 159.725C83.4148 166.304 75.8804 170.179 82.1097 171.653C85.3525 163.471 78.851 162.502 88.6593 174.69C83.8232 168.282 79.5235 160.059 84.3036 165.881C89.4439 152.748 83.631 161.867 85.4245 159.033C83.8632 158.105 76.7932 163.715 87.6584 155.06C84.1114 149.507 76.1847 157.438 73.9348 145.958C87.4743 147.847 84.9361 152.658 86.3293 140.21C89.0196 160.531 77.8021 134.844 84.8721 147.895L84.8881 147.879ZM128.397 173.835C131.784 169.373 122.072 165.946 118.709 157.153C119.878 175.773 122.352 180.87 125.074 177.214C112.824 163.796 119.445 163.707 119.085 166.198C118.645 169.211 110.75 187.595 117.171 181.423C114.713 174.828 112.784 177.955 116.083 163.894C115.506 181.171 114.281 186.772 117.244 181.415C112.063 170.245 120.214 182.066 116.699 179.16C110.222 173.127 120.158 176.595 113.112 185.999C117.732 177.857 119.91 183.678 116.515 178.215C120.959 193.848 111.11 182.824 114.425 181.301C124.858 195.248 121.671 179.168 123.297 195.696C120.943 191.315 119.373 183.231 115.322 193.839C123.345 185.755 124.057 196.412 120.03 179.884C119.99 200.809 125.002 191.568 122.616 198.236C120.07 201.476 132.216 188.531 133.137 196.705C130.951 201.77 120.502 195.606 131.824 189.899C123.008 193.66 132.208 194.043 129.398 209.667C133.417 200.63 128.941 208.307 126.315 202.714C124.33 206.443 129.318 210.66 131.56 198.423C135.155 210.644 138.974 191.633 130.855 204.375C131.672 195.093 135.259 202.095 135.867 200.166C131.151 196.388 129.894 216.938 137.493 209.626C135.811 220.43 140.311 212.37 145.524 195.338C140.191 213.347 134.77 211.149 135.731 219.348C141.584 213.209 138.726 200.679 136.324 204.823C138.942 218.721 143.714 207.355 138.926 205.458C134.354 206.239 146.789 224.819 149.399 205.441C139.174 208.218 150.616 214.463 139.703 212.468C149.631 220.422 144.058 218.924 142.865 207.892C147.101 205.897 140.768 222.14 141.856 208.153C142.465 220.707 147.517 219.445 143.21 222.735C142.729 205.002 150.968 216.303 136.58 207.493C144.323 204.277 148.03 213.567 142.881 218.542C143.234 205.849 148.222 224.51 136.62 212.557C138.494 214.137 141.969 196.974 139.03 207.477C145.676 206.679 136.027 209.17 143.994 211.597C139.959 208.731 142.049 196.656 141.848 191.91C135.275 204.896 132.641 197.918 140.351 195.891C136.532 201.794 128.773 206.199 134.49 207.566C137.237 199.824 130.343 198.057 139.959 209.577C134.498 203.43 129.702 196.559 133.657 202.087C138.99 189.703 132.745 197.34 134.258 194.735C133.585 194.645 123.849 202.234 133.746 194.776C132.16 190.469 127.428 196.811 128.309 185.51C140.359 188.059 135.219 193.261 135.083 182.156C138.678 200.394 138.029 180.739 139.943 184.778C135.843 190.054 134.218 185.861 129.99 188.352C123.113 185.592 128.045 188.572 132.488 198.309C134.538 187.171 130.711 175.097 134.642 192.659C128.461 184.379 135.595 172.011 132.617 186.471C129.606 171.946 129.43 173.591 124.81 178.679C121.367 192.154 133.794 173.224 137.997 179.656C130.046 164.904 133.778 180.642 124.097 173.64C123.265 184.387 127.476 183.532 131.624 173.534C124.426 168.323 121.207 161.647 128.381 173.827L128.397 173.835Z" fill="black"/>
</svg>
