<svg width="234" height="230" viewBox="0 0 234 230" fill="none" xmlns="http://www.w3.org/2000/svg">
<path d="M177.554 2.47942C170.736 10.0456 170.859 8.23588 172.99 5.31537C166.659 9.71101 177.384 7.57928 165.408 20.003C175.936 7.19753 168.752 18.3016 171.617 8.381C177.788 8.98449 172.197 10.5284 174.379 7.52874C168.451 16.9902 166.542 25.9155 164.673 25.5825C165.944 17.657 165.702 16.0397 169.895 12.194C163.312 20.6797 159.936 23.007 159.742 22.8446C161.646 27.6247 165.679 9.76872 158.477 25.1342C168.699 17.6536 163.198 19.0642 165.136 23.5674C163.39 25.3586 157.273 30.2111 166.066 24.5051C167.065 23.5735 158.847 34.7597 165.153 18.5159C159.28 33.0552 164.731 22.7716 155.865 24.0006C156.204 30.8434 163.784 31.8407 163.719 30.9866C167.27 24.5094 155.797 39.1677 158.871 35.298C164.683 30.0587 155.032 36.505 158.013 34.5546C158.049 28.356 157.76 37.3712 154.498 33.1814C157.172 24.9099 151.757 37.5266 155.643 36.3328C149.127 38.3723 155.661 29.1252 150.536 41.2373C154.041 34.6208 147.498 37.0045 152.365 28.5578C154.086 24.9549 147.321 43.3315 147.321 38.5445C153.584 35.9551 146.586 44.271 149.075 45.4996C154.775 29.3145 150.435 27.2573 153.368 28.9123C147.144 44.6403 147.84 44.3853 152.024 29.3306C148.642 39.0505 148.498 40.5027 153.185 36.2773C141.329 46.2063 149.65 39.3967 147.576 48.5004C147.193 45.5488 145.027 47.3677 147.851 35.0383C140.927 49.3149 144.1 44.812 144.938 50.6573C148.958 43.3461 143.158 50.4222 145.009 40.8993C148.64 36.5876 140.797 46.8293 141.839 54.2198C146.072 52.9931 136.948 53.9537 143.602 52.6685C137.213 47.8507 138.706 45.8669 142.579 54.8396C143.504 52.8394 132.298 58.6713 134.392 53.9431C136.375 52.42 143.054 49.5591 140.423 47.3326C136.012 56.8532 129.459 58.2533 136.229 48.1269C134.037 58.4646 132.413 51.7761 135.775 49.8521C132.666 53.9777 137.011 60.7926 136.937 53.2433C134.02 61.6753 137.451 47.7195 138.14 53.4787C133.975 59.3379 133.701 55.6734 135.422 53.8272C134.977 55.5778 132.524 49.8654 128.599 56.4676C132.533 63.3356 126.78 63.3558 127.736 65.8741C125.205 62.8672 125.368 68.7996 134.812 58.7234C124.494 67.4173 127.768 70.2875 128.595 68.4582C125.138 67.5146 131.06 57.3553 134.987 59.9279C129.515 68.3283 119.428 72.6586 125.27 62.0695C124.546 70.2213 120.315 68.8717 126.948 58.9914C123.616 69.2836 129.953 66.0481 124.231 70.986C122.391 72.5615 125.878 71.6269 128.061 59.7173C126.078 64.5017 117.274 74.6206 125.502 64.2919C122.172 82.0652 116.277 75.0058 122.563 61.3717C115.154 78.3145 120.945 74.6006 117.48 72.1059C128.843 65.7971 120.645 68.9352 116.747 75.0671C119.44 69.7714 117.032 81.472 112.741 83.7738C121.683 77.8597 121.749 68.2992 109.422 81.8696C120.28 72.7042 114.63 84.3803 118.928 75.9382C118.645 70.6387 116.21 83.1668 114.306 83.4049C117.849 73.683 117.534 87.6824 116.535 87.2355C112.251 84.6285 118.44 72.628 116.238 73.4292C114.381 77.0681 115.05 75.8418 111.122 88.66C111.758 85.4075 112.132 91.5111 121.505 80.9673C120.683 82.8933 118.362 85.4329 113.717 93.2775C117.282 81.7781 112.413 81.155 115.196 93.4748C111.48 96.2175 118.4 92.3009 110.896 97.5501C112.702 94.0955 116.771 89.2394 113.748 89.4534C112.093 93.5742 118.271 94.7493 120.017 91.2434C116.07 96.5929 116.08 85.9094 113.775 104.29C116.403 95.6267 121.533 97.0562 118.812 88.2719C123.664 90.5591 110.317 102.052 119.77 98.7126C112.134 102.758 120.588 100.477 118.173 93.0794C123.277 91.0664 117.827 95.7854 121.852 89.8444C120.427 95.1662 122.581 96.7599 124.168 96.034C125.683 91.9575 119.55 101.946 122.499 102.294C123.076 105.387 122.993 101.452 121.481 109.475C121.483 110.433 122.497 104.954 121.652 112.339C126.483 95.869 132.058 100.65 127.893 96.3259C126.212 112.773 126.889 114.75 125.061 108.294C129.064 105.95 133.393 105.624 129.545 100.073C134.202 99.1462 127.815 114.023 129.663 115.923C137.149 97.2206 133.439 102.502 133.92 96.6878C131.705 101.091 138.308 98.1278 132.409 109.477C132.831 103.128 139.838 96.3421 130.384 110.327C138.433 110.868 139.235 96.9388 143.136 103.243C137.028 109.899 142.238 111.338 142.329 107.355C145.829 102.84 142.9 95.8218 141.511 100.404C140.289 114.614 142.634 112.297 148.012 104.396C141.931 106.879 143.672 97.4255 143.294 106.217C138.992 110.965 144.837 109.466 145.868 102.449C151.993 94.0665 146.983 98.8211 142.472 106.155C146.433 88.2306 152.533 99.9707 153.497 95.8234C150.596 89.9029 147.981 93.1444 153.288 87.9527C143.982 98.7412 149.546 94.5113 151.318 92.7751C149.763 83.8811 150.571 92.9832 147.547 103.948C153.529 93.3988 148.576 97.3514 152.645 94.3362C154.452 93.8488 146.719 95.9931 147.575 89.3184C154.271 86.34 149.855 91.1029 152.02 91.7763C152.092 91.5924 148.752 91.6548 142.679 94.373C151.493 80.5137 157.971 78.3813 147.229 92.1084C155.122 81.9558 148.98 85.0386 149.469 81.2797C160.773 76.7394 148.572 83.9779 161.082 75.1509C155.857 72.7997 147.754 87.0639 155.92 71.1278C148.723 82.8873 155.145 72.6468 149.12 83.4266C155.932 73.0697 154.493 74.0498 148.937 78.6412C150.104 88.1896 157.103 77.8437 156.7 83.0874C153.182 77.8938 155.307 72.3296 151.73 82.1393C160.807 71.6124 151.242 80.6069 156.132 76.212C157.795 65.6148 154.313 81.6376 161.688 71.6416C160.55 70.6296 157.812 72.4194 153.448 80.1335C157.06 63.0197 154.992 67.803 164.975 64.1352C156.12 65.8014 159.446 63.049 161.707 65.6444C157.091 75.8809 157.15 65.9167 160.72 60.3224C156.692 66.0616 162.614 57.5961 153.282 61.7227C155.167 68.7973 161.306 60.2003 164.766 61.2827C162.462 52.1849 155.873 61.1622 160.438 66.5428C159.125 52.5962 163.765 51.4088 165.173 51.0755C151.784 64.1771 159.459 59.6995 161.993 61.6767C163.423 52.6229 155.943 65.2904 162.592 54.1663C160.169 52.014 161.027 54.6192 154.757 63.3068C155.754 51.2755 157.829 52.2082 163.098 45.1457C156.395 62.733 163.746 50.589 162.395 43.1773C165.295 49.7492 162.212 55.5185 161.346 56.0022C159.422 52.5163 159.135 43.2913 159.986 48.9644C157.982 45.0907 155.526 54.168 158.718 47.3916C161.728 54.2088 164.334 37.6651 166.615 40.7442C157.591 45.6274 162.018 50.1487 158.938 46.0624C156.794 47.1881 154.989 48.6758 164.73 35.2793C163.962 33.6042 162.338 45.8411 158.477 43.7444C163.768 33.2946 159.087 44.1606 158.886 42.8591C168.791 40.014 164.745 40.8104 171.998 32.456C167.986 41.4863 159.947 39.1082 161.163 34.3845C160.536 32.3499 169.967 25.8963 165.645 35.2417C159.545 42.2589 161.396 29.2224 162.217 36.6478C165.868 32.6726 161.836 34.5914 167.679 27.1167C161.29 39.2363 161.642 34.2189 164.243 29.7709C169.676 32.1334 172.748 18.8787 169.999 19.8951C167.792 34.696 172.676 20.6513 173.928 23.3419C170.131 33.0182 167.901 19.7816 164.221 33.6624C169.551 22.7173 165.703 24.0461 166.427 29.3813C162.361 29.7571 164.888 27.7542 176.772 13.2529C169.486 30.0798 169.296 18.0528 169.014 23.811C168.776 17.2932 171.769 15.4439 176.229 13.4807C173.767 18.2416 168.707 24.7271 172.238 17.9133C168.911 17.4884 178.552 10.0375 169.391 13.9774C171.954 21.1876 173.884 10.4217 168.57 20.123C171.366 7.01156 173.576 16.6713 170.083 21.8212C169.908 10.6434 173.113 17.1817 174.802 6.2612C168.475 10.6695 170.219 9.6979 177.55 2.46675L177.554 2.47942ZM112.919 0.871061C108.671 4.34188 110.541 4.40172 111.795 2.99034C107.501 4.69111 116.915 4.60459 109.348 10.1891C115.751 4.18899 111.923 10.8725 112.81 5.51787C117.643 6.69101 113.175 8.797 114.454 7.35656C111.149 12.0342 112.617 16.3501 111.126 15.9047C111.053 11.4907 109.688 13.2031 112.409 11.5307C108.465 15.5564 107.28 16.6661 107.098 16.5417C109.197 19.5593 109.79 11.4562 106.281 19.3755C113.164 16.4082 109.89 17.0936 111.985 19.9515C110.873 20.7512 108.112 22.7719 114.128 20.6456C114.774 20.2386 109.495 27.5909 112.195 19.0382C109.599 26.6552 112.529 22.817 105.867 22.3411C107.039 26.3377 114.522 27.7581 114.353 27.2514C116.227 23.9784 110.006 31.6917 111.867 29.8643C115.645 27.6058 109.108 31.4857 111.136 30.7535C110.344 27.1826 111.82 33.2596 108.75 30.409C109.715 25.9885 106.488 34.7146 109.321 34.54C104.572 34.8516 109.912 30.2656 107.569 36.5916C109.392 33.2297 103.947 35.8053 106.568 31.5678C107.417 29.7179 105.517 39.984 104.88 37.218C109.358 36.5579 106.317 40.655 108.404 41.6888C110.647 33.0918 106.289 33.3291 108.769 34.6794C106.069 42.9379 106.847 43.9869 108.067 35.8463C106.752 41.0142 107.533 42.5802 110.577 40.7568C102.762 44.9215 109.492 42.2966 109.111 47.2885C108.42 45.5262 106.365 48.4856 106.895 41.7391C103.464 49.0669 105.921 47.954 107.341 51.4455C109.47 47.7558 106.567 52.313 106.725 47.0491C108.955 45.042 106.032 49.3677 107.818 53.7721C110.913 53.6264 104.076 55.1234 109.023 55.26C103.466 51.6349 105.387 51.3424 109.557 57.0369C110 56.0008 102.607 59.6335 103.601 57.1845C104.92 56.5642 111.584 54.8841 109.269 53.2503C107.133 58.1671 102.497 60.9979 106.359 56.0464C106.044 61.7242 104.942 59.6158 107.267 58.9507C105.418 60.9211 111.641 64.3076 110.575 59.9343C109.449 64.4198 112.077 59.3754 113.366 62.7894C110.938 65.6217 111.708 59.7023 112.786 58.8642C112.674 59.8167 112.859 58.5752 110.706 61.8737C114.645 66.3671 113.752 67.6575 114.825 69.236C112.477 67.1647 112.578 64.2703 118.507 59.7009C111.711 63.3546 117.339 65.7324 117.735 64.7882C114.949 63.7866 120.275 57.784 123.644 59.7982C120.544 63.9281 115.03 63.565 118.116 58.2287C118.643 62.8424 116.993 59.9067 120.79 55.0804C119.594 60.582 122.906 56.6021 119.162 58.6889C117.957 59.357 124.851 58.5417 124.961 51.949C124.069 54.4497 116.452 56.0115 121.428 51.1345C121.225 60.9621 117.702 54.3563 120.729 47.3169C117.269 56.1238 121.323 52.4485 118.322 50.5488C126.233 48.4112 123.022 47.5088 120.831 50.5251C122.199 47.8251 120.481 51.5667 117.478 52.3273C123.579 50.0971 127.14 43.267 119.448 49.4718C126.592 45.6171 124.438 49.2728 126.627 44.962C125.711 41.8643 123.805 46.1833 122.369 46.0707C123.81 40.9256 120.49 46.2587 119.656 45.8645C116.008 43.7918 119.263 35.4906 117.677 35.6701C116.731 37.5229 118.014 34.6115 116.692 41.4898C116.751 39.7002 116.481 40.9195 122.296 36.0711C121.921 37.0787 121.954 35.6544 119.418 39.5779C120.637 33.4042 117.476 29.7286 121.255 37.2123C118.755 38.3036 118.653 34.9903 113.57 37.0246C114.507 35.2726 119.433 29.9284 117.128 29.6565C116.406 31.8235 116.369 31.6044 117.242 29.8094C114.917 32.3784 116.823 22.6839 117.484 32.9944C118.356 28.3372 117.335 28.4364 114.067 23.0025C118.102 24.9672 114.371 25.4402 121.214 24.7671C115.865 26.0874 114.209 25.6523 111.376 21.0609C115.04 20.5743 113.955 18.7687 116.26 15.8632C115.867 18.7451 112.67 19.1121 113.811 18.9053C114.431 16.7496 112.694 18.0197 115.015 18.6154C115.867 20.4808 111.501 17.0531 111.392 21.4898C111.522 22.0506 113.07 15.2133 113.407 19.362C114.946 10.4904 116.725 12.7134 112.944 9.66796C113.832 18.9477 113.644 17.7262 111.382 13.7522C114.148 12.9336 117.779 9.95852 114.08 6.22915C117.538 6.31128 111.468 13.144 113.152 14.4873C116.432 4.67346 110.708 6.95939 110.309 3.66297C109.193 5.91265 114.49 1.45207 111.458 7.22627C110.941 3.6172 113.48 -1.46205 108.054 5.36292C114.328 6.74539 109.935 -0.76787 113.773 3.40054C109.95 6.43602 108.214 4.06648 112.902 0.862414L112.919 0.871061ZM213.605 51.6623C209.286 55.0229 210.086 53.8951 211.352 52.5217C206.944 54.1116 213.234 56.1121 205.514 61.5138C212.019 55.6706 207.237 60.8151 208.022 55.4716C213.071 56.7655 208.742 55.6919 210.047 54.2854C206.729 58.883 204.291 65.7919 202.732 65.312C202.544 60.8921 202.675 57.9394 205.464 56.3436C201.473 60.2719 197.526 62.1499 197.344 62.0254C199.609 65.0958 199.851 54.5627 196.415 62.4033C203.484 59.6151 198.036 60.148 200.284 63.0627C199.15 63.8412 193.199 67.0107 199.393 65.0382C200.051 64.6481 195.191 68.7324 197.773 60.2452C195.278 67.809 197.569 62.2345 190.64 61.591C191.961 65.6316 196.166 68.9352 195.989 68.4242C197.849 65.1973 189.739 72.367 191.622 70.582C195.489 68.4214 188.261 70.2029 190.357 69.5262C189.442 65.9241 189.581 71.2973 186.32 68.36C187.204 63.951 185.204 68.8949 188.138 68.7932C183.216 68.9847 184.884 66.2174 182.614 72.4857C184.423 69.1698 179.942 67.9974 182.563 63.8229C183.394 61.9853 179.325 72.3429 178.59 69.5587C183.233 69.0144 176.942 74.02 179.131 75.1056C181.234 66.5529 177.889 63.1101 180.497 64.5252C177.904 72.7222 177.667 72.5382 178.721 64.4078C177.488 69.5432 176.361 70.8093 179.473 69.0625C171.46 73.0311 175.38 71.4554 175.109 76.4404C174.351 74.6645 173.17 74.0301 173.551 67.2815C170.171 74.5303 171.164 72.6487 172.736 76.1759C174.848 72.5406 170.528 76.0063 170.554 70.7489C172.81 68.7968 166.945 74.8927 168.909 79.3458C172.122 79.2816 164.627 78.0543 169.772 78.324C163.911 74.5433 164.094 74.1844 168.572 80.0051C169.012 78.9774 160.432 80.7105 161.396 78.278C162.75 77.696 167.013 78.2727 164.558 76.5782C162.469 81.4452 157.031 81.205 160.913 76.3379C160.725 82.0175 157.919 78.5655 160.32 77.9603C158.45 79.8884 163.201 85.4271 161.987 81.0307C160.937 85.492 161.389 79.379 162.826 82.8371C160.377 85.6061 161.164 82.9147 162.272 82.1023C162.181 83.055 159.968 81.5362 157.819 84.7843C162.034 89.3866 158.617 91.167 159.77 92.776C157.275 90.6396 160.293 90.6651 166.34 86.2403C159.375 89.7234 164.101 93.2402 164.485 92.3C161.567 91.2209 166.716 86.6322 170.263 88.7371C167.15 92.787 161.794 93.5777 164.868 88.3085C165.535 92.9409 164.305 91.314 168.132 86.5764C167.033 92.0541 172.401 88.2922 168.564 90.2894C167.324 90.9192 174.301 92.7655 174.233 86.166C173.37 88.6504 167.866 89.5231 172.901 84.7814C172.948 94.621 170.041 89.3392 173 82.3704C169.634 91.0987 175.313 88.0431 172.143 86.0569C180.304 84.1203 177.754 84.9336 175.564 87.9079C176.914 85.2412 177.236 88.7299 174.144 89.4136C180.423 87.3372 184.32 83.5084 176.492 89.518C183.809 85.8464 183.273 90.2855 185.432 86.0331C184.402 82.9086 184.562 86.7354 183.061 86.5798C184.422 81.4673 183.575 84.4856 182.707 84.0742C178.864 81.9021 183.601 74.2521 181.956 74.3803C181.019 76.2164 183.715 74.426 182.519 81.2851C182.537 79.4949 184.064 80.6427 189.985 75.9429C189.626 76.9381 190.927 77.0657 188.391 80.9261C189.5 74.7803 187.51 72.2181 191.628 79.8116C189.057 80.8346 191.189 75.758 185.966 77.6685C186.895 75.9332 192.891 73.0711 190.493 72.7306C189.792 74.8769 192.116 72.9383 192.981 71.1601C190.631 73.674 193.093 67.0723 194.046 77.4162C194.834 72.7789 196.216 71.0121 192.69 65.4779C196.936 67.5507 193.271 72.3073 200.363 71.8142C194.85 72.9977 196.229 68.9571 193.159 64.2867C196.954 63.8986 196.425 65.1016 198.755 62.2512C198.418 65.1296 197.659 63.5008 198.825 63.3281C199.419 61.1803 198.392 65.1376 200.815 65.7852C201.752 67.6728 199.381 63.0333 199.391 67.4674C199.542 68.0285 201.646 64.0737 202.102 68.2409C203.468 59.3963 207.474 60.9991 203.459 57.8453C204.627 67.1626 205.776 66.9812 203.319 62.9498C206.178 62.1998 210.728 61.6079 206.795 57.7912C210.389 57.9635 206.424 63.8507 208.201 65.2416C211.358 55.5016 207.927 56.2016 207.426 52.8954C206.323 55.12 212.325 53.6281 209.326 59.3355C208.691 55.708 213.361 51.1377 207.906 57.832C214.459 59.3781 210.422 49.9323 214.523 54.1927C210.633 57.1306 208.825 54.7138 213.614 51.6246L213.605 51.6623ZM57.3789 20.2532C52.6704 21.5951 55.859 22.8964 57.0944 22.1699C51.6351 21.9714 63.3456 22.6148 54.7232 24.4944C61.5249 21.8117 59.3292 26.8664 58.5218 22.5934C65.8733 25.483 62.1025 28.1451 63.376 27.4065C60.4782 30.1565 62.0622 30.6915 59.7671 29.7304C57.9455 25.8971 59.5642 31.1944 62.7995 30.8153C58.738 32.7505 56.5327 31.4671 56.2364 31.2948C60.4116 34.7198 59.4658 29.8607 57.5489 35.3311C66.2086 35.4484 61.469 33.9656 65.5683 37.2466C64.296 37.502 59.8746 35.8975 67.6305 36.4056C68.3937 36.3112 65.5786 43.2905 66.1031 36.9725C65.3643 42.5393 68.9401 41.5556 59.2533 38.5576C62.4862 42.4696 72.0968 43.7559 71.6657 43.2623C73.0656 41.1679 67.0792 44.9716 69.0185 44.1204C73.5299 43.6457 66.7041 45.7901 69.3233 45.9487C66.797 42.5552 71.424 48.357 65.9269 44.6991C65.5794 41.2605 66.6826 50.9971 70.6478 51.948C64.0009 50.3753 68.1797 45.5965 67.3036 50.1359C68.602 47.9476 64.0746 51.4229 66.1667 48.7876C66.6531 47.521 67.4281 54.5758 65.4509 51.9465C71.5859 53.1211 67.694 53.3439 71.0682 55.0555C70.9192 48.5096 67.0444 50.3928 71.1042 52.5175C70.4658 58.5985 72.5003 60.3838 71.0755 53.8284C71.2055 57.7767 72.7754 58.862 76.4091 58.4759C66.8744 59.0273 74.4367 57.3009 75.8209 61.4475C74.151 59.6589 74.7104 64.7732 72.8425 59.1488C70.7995 64.1341 74.1907 64.1186 77.5729 67.6755C79.1684 65.3232 77.1772 68.2835 75.3529 63.8071C77.7501 62.9371 73.7487 62.8726 78.006 67.3705C82.3652 68.4487 74.687 69.0429 81.8075 71.0887C72.4613 65.7923 74.9457 65.6296 83.1104 72.1745C83.3495 71.455 75.2627 72.7453 75.7164 71.0201C77.3611 70.9969 84.4833 68.9828 80.5299 66.6704C79.4066 70.0842 76.1694 72.9345 79.7497 70.1646C81.5054 74.9427 80.4426 72.7801 83.5065 73.1131C81.6304 74.0913 89.8744 76.0687 86.6633 71.8839C86.8031 75.3112 89.781 71.045 92.96 74.4981C90.5952 75.9948 86.3035 68.2812 87.5208 67.9873C87.7393 68.7721 87.6441 66.1776 85.8629 68.1826C93.242 73.59 91.8262 71.9311 93.9666 73.7179C89.8065 71.016 86.125 68.4636 92.8181 66.8301C84.5468 67.3319 92.3108 69.6641 92.5033 68.9944C88.1294 67.046 91.9939 62.4855 97.5817 65.5268C94.7612 67.8745 85.5204 64.4625 87.8561 61.0573C90.4059 65.2413 85.8 61.1756 89.3462 58.4934C89.7847 62.7781 93.0345 61.6595 88.5108 62.0121C87.0481 62.1177 94.8398 61.8655 92.4166 56.2207C92.1195 58.0364 82.5227 58.0195 87.7126 55.7555C91.248 64.1561 82.9 56.3394 84.4891 51.4486C82.9771 57.6938 87.2913 56.3926 82.271 53.5778C92.7295 54.813 86.7776 51.6278 84.8361 53.3826C85.735 51.5796 85.1278 55.362 81.1403 54.8522C88.9769 55.3067 89.3882 48.4787 80.8324 50.8341C89.5193 50.2919 87.5717 52.7695 89.0159 49.8982C86.4971 46.8662 86.0708 51.2144 83.9742 50.5546C84.022 46.676 83.057 52.8533 81.7277 52.1958C75.7165 48.9804 77.0406 43.2915 74.8375 42.8193C74.2071 44.0545 74.5266 41.7348 75.3226 47.1592C74.7118 45.6377 75.1356 47.3373 81.5454 45.4225C81.3995 46.1475 80.2513 44.2149 78.164 46.6107C77.5022 41.7597 71.1347 36.9422 79.4358 44.8717C76.2949 44.8361 76.2412 44.2511 69.7859 44.0387C70.4374 42.8879 74.2585 38.747 70.8745 37.6194C70.684 39.2055 71.9207 41.299 72.4706 40.0963C70.1486 41.4044 67.5195 31.6464 72.4858 40.7984C71.9185 37.1213 71.9555 39.2443 65.1882 33.2864C71.7164 36.5553 64.1696 32.1037 73.668 34.1955C66.549 33.2551 66.5498 36.3064 60.7171 31.2358C65.7631 32.2438 61.9118 28.1004 64.0735 26.5C64.6314 28.8362 61.7364 30.4515 63.2787 30.7127C63.3251 29.0953 59.9546 27.6695 63.4905 29.085C65.4355 31.0246 58.8893 28.1673 60.4652 31.9593C60.8666 32.4903 58.9434 25.1966 61.0408 28.9077C59.7741 21.8544 63.9267 25.8465 57.3371 21.7362C62.2205 30.0885 61.1262 28.6778 56.3512 24.3786C59.9831 24.7489 62.8679 22.108 56.1354 17.4619C61.1083 18.8849 55.5813 23.7752 58.4973 25.5897C59.3589 18.4023 54.5997 21.3489 52.7463 18.3516C52.0304 19.8587 51.938 21.2108 57.3789 20.2742L57.3789 20.2532ZM233.365 110.056C228.746 111.139 228.172 108.584 229.373 107.945C223.957 107.558 229.792 111.767 221.323 113.22C227.971 110.943 224.142 113.092 223.181 109.056C230.562 112.034 227.081 109.111 228.32 108.46C225.551 110.939 220.384 115.876 218.076 114.898C216.135 111.235 220.051 108.31 223.248 108.069C219.297 109.746 212.447 109.826 212.146 109.662C216.406 113.025 214.775 104.218 213.067 109.28C221.645 109.703 213.358 108.019 217.53 111.242C216.279 111.435 206.596 111.858 214.292 112.609C215.043 112.54 212.937 113.611 213.236 107.694C212.706 112.894 214.95 108.979 205.242 105.812C208.581 109.599 212.152 114.042 211.704 113.56C213.014 111.641 204.013 114.285 205.901 113.555C210.357 113.272 202.578 111.701 205.176 111.943C202.556 108.67 204.618 112.952 199.049 109.331C198.578 106.093 201.606 108.859 205.562 109.889C198.924 108.174 196.614 106.7 195.904 110.935C197.108 108.93 194.331 105.798 196.3 103.405C196.731 102.225 193.725 109.055 191.672 106.513C197.793 107.839 188.523 109.566 191.922 111.291C191.539 105.141 189.419 100.618 193.512 102.76C193.091 108.437 193.194 108.005 191.543 101.808C191.818 105.515 189.964 106.052 193.551 105.82C184.136 105.991 186.594 106.341 188.114 110.283C186.398 108.544 187.931 107.213 185.876 101.871C184.029 106.473 184.553 105.32 188.033 108.79C189.526 106.638 185.213 107.729 183.248 103.465C185.594 102.737 176.778 105.665 181.155 110.034C185.509 111.205 176.847 107.057 183.975 109.233C174.536 103.931 173.875 103.72 182.193 110.154C182.402 109.493 172.31 107.477 172.704 105.869C174.336 105.912 177.433 108.314 173.446 106.005C172.45 109.168 166.992 106.772 170.453 104.299C172.37 108.844 167.467 105.194 170.509 105.611C168.688 106.459 175.225 113.057 171.891 109.009C172.154 112.237 170.499 107.931 173.771 111.284C171.488 112.601 169.424 110.58 170.624 110.341C170.864 111.084 166.549 109.397 164.853 111.214C172.351 116.556 166.987 117.174 169.179 118.924C164.968 116.238 168.175 117.001 174.744 115.715C166.575 115.89 173.396 120.739 173.563 120.12C169.168 118.129 173.721 116.36 179.368 119.411C176.658 121.521 169.142 120.02 171.329 116.907C174.006 120.925 171.158 119.061 174.576 116.671C175.164 120.705 182.004 119.473 177.532 119.642C176.09 119.685 184.426 124.013 181.837 118.63C181.612 120.325 176.114 118.781 181.184 116.835C184.992 124.849 178.426 119.562 179.815 115.021C178.546 120.833 185.621 120.541 180.546 117.73C190.949 119.262 186.698 119.102 184.833 120.686C185.659 119.024 188.602 121.81 184.632 121.183C192.405 121.889 194.201 120.355 185.812 122.259C194.401 122.055 195.397 125.415 196.73 122.781C194.131 119.845 197.167 122.909 195.066 122.216C194.973 118.571 198.203 120.419 196.856 119.753C190.786 116.528 194.722 112.162 192.532 111.644C191.953 112.779 194.781 112.508 195.755 117.624C195.098 116.173 198.655 117.715 204.936 116.155C204.816 116.83 205.967 117.67 203.978 119.832C203.15 115.264 199.142 112.619 207.647 120.358C204.532 120.209 208.377 116.712 201.982 116.278C202.586 115.219 208.109 115.523 204.72 114.341C204.585 115.818 209.857 114.942 210.368 113.836C208.11 114.977 206.611 110.992 211.845 119.766C211.15 116.297 215.367 115.188 208.451 109.354C215.038 112.653 208.036 115.728 217.509 118.017C210.428 116.875 215.684 113.688 209.72 108.729C214.748 109.854 212.138 111.057 214.223 109.628C214.866 111.839 216.308 110.019 217.842 110.318C217.837 108.8 215.934 112.006 219.487 113.451C221.479 115.341 218.701 110.557 220.401 114.17C220.823 114.68 220.023 112.651 222.227 116.217C220.73 109.551 228.548 112.321 221.874 108.231C227.004 116.246 228.346 116.71 223.465 112.494C227.076 112.969 231.493 114.54 224.676 109.934C229.648 111.442 230.124 114.273 233.079 116.075C233.676 109.363 228.022 110.738 233.369 110.048L233.365 110.056ZM103.224 82.3459C95.3136 82.5586 98.7532 81.8208 100.713 81.2852C90.9728 79.2489 102.077 85.1163 87.4237 84.7595C98.6091 83.4832 94.2586 85.7337 91.4247 79.9108C105.393 86.0622 101.109 82.2868 103.128 81.7393C98.8909 84.3739 90.5479 88.1109 86.1825 86.1248C81.7075 80.5479 91.3067 79.6402 96.9218 80.2023C90.3612 81.409 78.7146 78.9677 78.1346 78.6401C86.6445 84.4459 83.4351 72.8557 81.808 79.3473C97.1793 82.3115 82.9528 77.5225 91.281 83.1198C89.1109 83.0431 72.4465 80.1658 86.3463 83.3364C87.6644 83.4515 86.5778 85.6848 85.4578 77.6333C85.9616 84.6339 90.6048 80.618 72.4673 73.5593C79.4546 79.6925 87.4209 85.8942 86.4988 85.1079C88.2975 82.8384 74.2594 84.0789 77.427 83.6022C85.2754 84.4519 72.7751 80.9648 77.4522 82.0265C71.8742 76.7913 78.1011 83.578 67.1854 77.0282C65.4504 72.4396 73.8488 78.7776 81.1842 81.3013C68.8935 77.09 65.0108 73.6564 64.9246 79.2828C66.5033 76.8589 62.7732 73.4401 65.6244 70.6978C66.069 69.1995 63.7247 77.7236 59.3603 73.6654C70.6142 77.1898 55.5634 76.6088 62.0914 79.9197C59.6967 71.3544 56.6407 66.1967 64.5233 70.2831C65.3645 77.9819 66.8989 78.0286 62.2416 69.0449C63.7631 74.2189 61.8632 74.5958 68.1732 75.2811C51.4779 72.9035 56.5503 73.5252 60.3633 79.3744C56.831 76.5089 61.8072 76.6291 56.6768 68.7189C54.6784 74.537 56.7378 73.1369 63.8871 78.869C65.9451 76.3215 59.9208 76.6657 55.2317 70.2537C59.1875 69.9057 43.647 70.1584 52.6578 77.3876C60.73 80.2033 46.7388 72.8832 60.0153 77.8607C41.7493 67.938 41.1752 66.9927 57.768 78.1444C57.9482 77.2895 41.5867 71.9368 41.8378 69.8347C44.7487 70.342 49.0282 72.7262 41.2818 68.4357C40.3899 72.5042 33.8985 68.0758 39.3601 65.6349C44.0313 72.4166 36.6994 65.1185 42.2276 66.5409C39.229 67.2091 49.3975 75.9129 42.3391 69.4172C43.7096 73.9251 42.1249 65.2156 48.8722 70.7319C45.1729 71.9156 33.5531 67.2052 35.6174 67.2173C36.2506 68.2979 29.8759 61.257 27.3657 63.2896C42.1866 72.7269 33.6414 67.5132 38.0253 70.5293C29.7928 65.6646 25.6255 69.229 36.9517 69.287C22.4683 67.2599 34.0317 72.436 34.1524 71.635C25.7863 67.6805 29.7164 64.0161 40.6002 69.7921C36.3686 71.935 18.2455 65.8936 21.2643 62.2164C27.1449 68.4896 17.0743 63.0024 22.4932 60.666C24.6577 66.3786 31.6341 68.4349 23.7226 67.4162C21.1631 67.0776 32.7378 69.4927 26.6159 61.371C26.6866 63.6373 11.818 63.0337 20.2778 61.7655C29.2806 73.8404 11.4687 62.0244 12.683 56.1742C12.0407 63.8102 19.9132 65.1562 10.1007 59.8743C29.0191 64.8805 16.7858 59.7411 13.9161 61.3904C14.9217 59.3367 16.7532 65.9735 9.52655 64.0103C23.5537 67.1406 21.0137 59.0481 6.63038 59.3339C21.847 61.4512 20.0525 65.4062 21.6841 62.1466C16.2364 57.3883 17.5741 64.8671 13.6484 63.3368C12.4699 58.3063 21.4848 65.5902 18.9108 64.2974C7.21403 58.1695 11.4202 54.3199 7.37113 52.9896C6.66395 54.3961 9.21298 55.5077 12.3781 62.8146C10.8024 60.6323 16.7976 65.1756 27.5315 64.7629C27.5123 65.6579 26.7405 67.5047 23.8138 69.9349C21.0663 63.4198 10.6406 59.2557 27.9366 72.2707C22.3651 71.2049 29.8413 70.0027 18.3387 67.6138C19.1134 66.326 24.8908 68.0966 18.522 65.5192C18.6992 67.5138 29.3912 70.32 29.9839 68.9287C26.2894 69.873 17.3831 63.2757 29.1503 76.7932C26.9501 71.8198 35.8418 74.1173 21.9165 64.1588C34.5452 70.5309 16.0323 71.1707 33.5372 76.9597C20.6343 73.4249 33.1706 74.3741 21.1831 65.8885C30.4461 68.8385 21.0735 69.0307 24.3833 67.6482C26.1428 70.8712 29.9817 71.505 32.7857 72.3471C32.3458 70.2605 25.2754 73.6161 31.9951 76.5935C36.0735 79.7482 30.4784 74.5885 34.5002 80.0287C35.384 80.8481 28.6491 77.2106 33.5693 82.7307C29.0408 73.1394 43.8021 81.0208 30.7989 73.5423C42.1619 85.9907 42.3951 87.6457 32.5321 80.4971C39.0813 82.1566 43.4184 85.2855 29.9974 77.0572C39.2677 80.5159 38.1166 86.556 43.869 89.8603C43.0566 80.7876 40.7445 81.5326 36.4872 77.0347C35.703 78.7595 41.0538 81.5958 38.5973 85.8651C33.7181 80.8499 40.6267 81.199 32.8486 84.4564C50.8359 92.2695 38.1981 81.0851 52.4312 90.0014C45.2291 90.0811 52.5614 95.5383 49.1193 92.2245C52.6052 91.5841 38.3879 83.1597 39.547 85.7817C49.854 96.7444 50.1202 97.0802 54.5883 95.2684C43.6521 91.8326 44.5875 87.2814 51.8012 94.4139C46.7906 94.5286 51.9309 98.4883 47.764 93.4579C53.4267 91.9192 57.0829 94.3955 53.9748 96.5122C46.217 84.8834 61.0696 100.344 59.3764 97.7017C47.6624 90.0185 55.9149 93.631 62.7257 94.067C52.3472 94.7452 58.779 97.5757 61.0634 97.7212C49.5646 88.7381 54.4581 98.1791 57.8921 104.75C61.2623 101.242 52.953 101.672 59.0456 102.825C62.5227 104.063 60.4924 102.311 56.2742 97.4229C68.0875 101.001 65.8609 103.189 71.1786 105.735C71.1618 105.642 63.785 104.412 53.0814 101.19C59.5678 97.4522 67.6717 102.861 56.8706 104.723C64.7415 103.291 58.156 102.623 55.7975 99.8832C76.1959 106.339 55.7513 103.131 74.8758 107.043C61.3707 100.277 62.4207 107.524 65.6152 101.433C60.7149 104.865 69.6899 104.365 66.4761 108.048C71.8193 105.462 69.4252 106.807 61.548 105.638C72.8047 114.823 73.3671 113.68 77.2736 117.757C64.8813 110.127 68.8458 109.678 70.0411 114.759C80.1568 114.094 73.8499 115.536 80.4523 116.254C74.3925 108.764 75.6096 120.41 82.5192 118.645C79.1243 116.744 80.4221 118.175 77.9783 120.746C70.2069 109.5 68.5907 113.335 86.9174 119.333C69.207 112.671 77.415 115.493 84.674 119.756C83.993 124.247 82.3465 118.21 84.9995 116.713C81.4825 117.916 93.6174 118.335 77.0983 113.312C87.6465 121.042 84.003 120.255 92.5003 124.329C79.2063 114.493 78.4054 117.777 93.2324 126.512C77.6447 113.454 93.3339 118.116 96.091 119.113C78.9601 118.028 86.5167 121.938 93.8357 125.936C88.676 119.547 94.1398 124.692 98.4296 121.306C91.2039 117.271 97.6208 120.967 91.9196 122.623C83.1006 113.303 91.4175 116.602 96.4139 115.407C97.8966 124.232 102.208 120.762 92.5027 113.221C104.809 121.459 102.71 123.396 101.287 123.027C93.9184 118.309 89.3172 110.638 96.3482 116.246C88.4513 111.121 89.7959 115.848 90.5364 112.996C103.295 121.538 98.2453 110.25 105.999 114.944C90.8427 110.848 106.613 118.592 96.1843 112.302C92.5456 111.297 92.1781 110.804 101.116 108.307C97.9122 106.177 104.608 113.782 94.3203 108.489C96.2888 104.444 96.7363 108.565 95.1245 107.269C114.043 113.884 106.588 109.922 114.724 109.435C114.252 113.454 100.477 105.94 98.7933 103.029C95.569 100.731 111.513 103.535 110.647 107.533C103.796 107.928 96.7966 98.0122 105.358 105.075C109.653 105.026 103.424 102.447 109.28 101.428C106.463 105.902 98.6032 97.6929 100.196 96.2862C114.155 103.253 109.045 93.8172 104.009 92.1831C112.723 102.754 110.468 94.1019 115.652 97.5369C116.242 102.299 99.9863 88.7308 104.675 97.1728C106.258 92.7316 104.117 94.8156 110.56 100.008C102.078 96.6152 100.624 91.5388 113.217 90.0553C112.736 97.7104 99.8164 85.509 104.463 90.1427C98.0007 84.3824 104.947 88.1279 112.864 90.5379C111.867 92.3438 104.49 91.261 105.959 88.6969C98.346 85.2951 111.181 87.2697 94.882 82.2541C107.035 90.7293 105.481 84.9286 102.793 88.3331C96.9017 79.7397 93.9507 81.7367 103.271 82.2751L103.224 82.3459ZM156.34 110.203C148.578 110.439 151.721 109.676 153.651 109.136C144.097 107.153 155.264 113.294 140.873 112.987C151.855 111.691 147.407 114.239 144.653 108.51C158.346 114.531 153.086 111.162 155.071 110.618C150.906 113.237 144.49 117.884 140.2 115.937C135.827 110.454 142.775 110.202 148.289 110.733C141.847 111.938 131.655 110.597 131.084 110.274C139.425 115.972 134.97 105.776 133.356 112.18C148.439 115.06 135.375 111.59 143.529 117.089C141.397 117.021 127.638 115.206 141.263 118.288C142.551 118.399 139.328 122.519 138.245 114.581C138.716 121.48 142.578 119.37 124.792 112.48C131.631 118.506 143.386 125.232 142.485 124.467C144.258 122.226 131.951 124.802 135.059 124.316C142.755 125.13 129.931 123.887 134.519 124.914C129.064 119.773 136.355 128.029 125.664 121.604C123.98 117.083 128.935 127.093 136.131 129.556C124.077 125.444 125.519 121.867 125.42 127.413C126.982 125.023 120.265 125.908 123.074 123.186C123.519 121.709 124.313 131.046 120.046 127.048C131.08 130.481 121.091 129.643 127.492 132.889C125.169 124.455 119.404 124.395 127.126 128.4C127.929 135.984 130.73 138.423 126.174 129.576C127.649 134.673 128.802 136.072 135.002 136.722C118.616 134.429 128.621 134.002 132.341 139.762C128.881 136.943 131.807 143.129 126.795 135.342C124.81 141.093 129.276 141.522 136.282 147.159C138.314 144.641 134.633 147.212 130.049 140.906C133.937 140.545 124.377 137.948 133.197 145.048C141.108 147.803 127.99 145.631 141.004 150.495C123.106 140.771 125.999 140.143 142.249 151.088C142.433 150.246 128.509 148.483 128.755 146.411C131.607 146.909 140.823 144.911 133.237 140.703C132.35 144.721 127.386 146.522 132.741 144.1C137.299 150.771 132.693 146.6 138.111 147.988C135.167 148.652 149.489 154.258 142.575 147.878C143.903 152.322 144.661 147.743 151.272 153.169C147.641 154.346 141.013 145.082 143.04 145.085C143.656 146.157 139.639 143.571 137.172 145.583C151.692 154.835 145.616 153.88 149.903 156.836C141.835 152.066 142.915 149.219 154.025 149.24C139.812 147.289 153.888 154.904 154.013 154.116C145.807 150.243 152.739 148.037 163.399 153.688C159.239 155.815 144.623 150.975 147.599 147.339C153.353 153.505 146.525 149.61 151.842 147.285C153.944 152.913 164.684 153.261 156.925 152.278C154.412 151.953 167.882 159.122 161.9 151.125C161.958 153.353 151.474 150.39 159.786 149.12C168.577 161.002 153.925 151.757 155.135 145.978C154.48 153.513 165.557 155.147 155.947 149.969C174.506 154.844 165.011 153.101 162.188 154.743C163.181 152.714 168.758 158.033 161.676 156.123C175.428 159.165 174.734 156.949 160.605 157.28C175.533 159.314 176.8 164.568 178.411 161.35C173.081 156.674 179.136 162.626 175.291 161.126C174.151 156.167 182.018 161.267 179.495 160C168.035 153.993 172.484 149.646 168.516 148.347C167.821 149.728 170.855 150.372 173.935 157.572C172.393 155.428 178.386 159.223 188.921 158.783C188.898 159.665 188.86 161.119 185.984 163.533C183.309 157.107 173.702 152.614 190.638 165.393C185.168 164.358 191.973 162.108 180.686 159.798C181.453 158.527 188.185 160.038 181.943 157.525C182.112 159.494 192.043 161.155 192.623 159.789C188.992 160.734 181.646 154.196 193.151 167.496C191.005 162.603 199.112 163.721 185.466 153.947C197.84 160.19 181.611 161.122 198.765 166.784C186.103 163.341 197.075 162.713 185.342 154.378C194.427 157.259 186.614 157.427 189.865 156.056C191.578 159.224 194.69 158.666 197.439 159.491C197.016 157.434 191.324 160.641 197.921 163.566C201.91 166.665 196.118 160.594 200.047 165.945C200.914 166.756 195.625 163.109 200.435 168.531C196.02 159.093 210.339 165.917 197.607 158.577C208.72 170.824 209.51 171.953 199.85 164.929C206.273 166.545 211.581 169.423 198.431 161.354C207.515 164.738 206.171 169.776 211.801 173.007C211.031 164.061 208.314 163.737 204.15 159.307C203.374 161.015 209.887 163.75 207.46 167.961C202.687 163.032 209.796 162.757 202.145 165.995C219.781 173.64 207.708 162.039 221.641 170.791C214.566 170.894 222.632 176.021 219.262 172.775C222.684 172.134 209.066 163.289 210.199 165.877C220.282 176.652 221.054 176.541 225.442 174.74C214.721 171.383 215.184 165.855 222.259 172.863C217.341 172.983 223.342 176.783 219.268 171.842C224.829 170.315 225.52 172.35 222.462 174.451C214.886 163.009 231.371 173.39 229.72 170.791C218.251 163.254 219.719 169.768 226.394 170.177C216.206 170.879 221.147 170.044 223.38 170.185C212.118 161.365 217 165.288 220.35 171.752C223.669 168.281 214.029 165.338 220.003 166.452C223.412 167.655 214.213 169.493 210.079 164.69C221.673 168.177 216.325 168.93 221.529 171.428C221.512 171.336 212.481 167.115 201.985 163.967C208.37 160.262 216.16 160.577 205.545 162.45C213.281 161.012 203.345 159.359 201.037 156.666C221.046 162.965 199.431 156.572 218.187 160.37C204.957 153.733 201.807 160.678 204.963 154.662C200.143 158.062 205.322 156.718 202.151 160.359C207.409 157.794 203.361 155.98 195.633 154.855C206.652 163.877 207.678 157.037 211.496 161.058C199.362 153.571 199.624 152.284 200.781 157.293C210.706 156.604 200.113 158.162 206.601 158.854C200.673 151.483 202.558 156.864 209.341 155.097C206.013 153.231 203.153 154.443 200.748 156.982C193.162 145.914 190.416 145.775 208.391 151.625C191.024 145.107 195.831 146.582 202.942 150.759C202.261 155.187 195.835 150.129 198.45 148.645C194.992 149.836 202.297 151.145 186.095 146.252C196.424 153.849 194.454 144.554 202.782 148.542C189.759 138.886 184.931 142.407 199.457 150.979C184.191 138.148 195.303 144.419 198.005 145.398C181.187 144.389 187.768 141.678 194.935 145.599C189.894 139.312 190.369 149.443 194.591 146.086C187.509 142.124 191.088 145.003 185.484 146.656C176.851 137.494 182.201 140.814 187.112 139.618C188.54 148.321 190.506 142.17 181.008 134.766C193.06 142.853 188.586 142.105 187.192 141.741C179.972 137.109 172.712 131.489 179.603 136.995C171.872 131.965 170.723 133.462 171.464 130.652C183.96 139.04 176.577 130.19 184.174 134.794C169.314 130.807 182.447 138.762 172.222 132.596C168.655 131.617 166.098 131.817 174.884 129.326C171.743 127.239 175.892 132.933 165.812 127.736C167.759 123.733 165.99 127.617 164.412 126.359C182.958 132.826 173.533 128.836 181.524 128.339C181.048 132.304 166.521 129.066 164.879 126.197C161.722 123.934 175.711 127.286 174.853 131.225C168.125 131.631 159.692 122.287 168.063 129.222C172.281 129.155 164.686 127.077 170.445 126.04C167.666 130.46 157.472 120.113 159.035 118.722C172.714 125.546 166.445 116.918 161.498 115.319C170.014 125.714 166.647 117.778 171.716 121.145C172.285 125.843 155.56 113.487 160.121 121.802C161.696 117.419 159.901 121.794 166.208 126.897C157.891 123.578 154.791 117.65 167.159 116.147C166.666 123.701 153.363 112.061 157.9 116.618C151.577 110.96 158.425 115.507 166.189 117.86C165.205 119.641 157.586 118.761 159.037 116.23C151.568 112.902 164.068 115.01 148.095 110.13C159.998 118.446 158.503 112.823 155.858 116.186C150.102 107.724 147.206 109.697 156.361 110.204L156.34 110.203ZM115.168 121.591C108.385 128.965 110.634 124.411 112.739 121.562C106.4 125.806 112.299 123.157 100.374 135.249C110.829 122.754 103.927 131.592 106.66 121.825C112.928 122.531 109.451 121.23 111.616 118.305C105.768 127.566 98.9339 136.565 97.0273 136.202C98.1787 128.384 101.438 123.525 105.631 119.785C99.0993 128.065 93.122 129.948 92.919 129.782C94.9375 134.547 99.3267 115.136 92.2821 130.214C102.512 122.99 95.4815 123.799 97.5262 128.283C95.7839 130.024 87.6712 134.878 96.4933 129.386C97.4918 128.476 90.0373 137.937 96.1516 121.985C90.4399 136.27 95.5577 125.553 86.594 126.617C87.0518 133.394 93.6735 134.869 93.5908 134.028C97.0784 127.676 85.615 141.771 88.6722 137.998C94.4795 132.914 84.9649 138.988 87.9411 137.109C87.8759 130.984 88.0232 139.854 84.6384 135.655C87.2106 127.52 81.8487 140.932 85.7598 139.814C79.1889 141.731 86.5761 132.046 81.5783 143.95C85.0281 137.463 78.3513 141.051 83.1408 132.776C84.8198 129.235 79.0566 147.155 78.9752 142.422C85.2846 139.972 79.3865 147.45 81.9267 148.704C87.4263 132.785 82.9513 132.269 85.9525 133.958C79.9115 149.411 81.1741 149.656 85.1534 134.834C81.8867 144.392 82.5995 145.818 87.2768 141.714C75.4261 151.341 84.9013 144.089 82.9543 153.069C82.5166 150.141 80.3332 153.645 82.9833 141.49C76.2084 155.496 80.0632 151.435 81.0025 157.227C84.9541 150.071 79.8447 157.446 81.5511 148.06C85.1604 143.853 78.6944 152.988 79.8757 160.313C84.1429 159.167 75.1766 161.281 81.8939 160.123C75.34 155.252 77.6675 153.432 81.7484 162.374C82.6562 160.407 71.8476 166.925 73.8981 162.28C75.8772 160.808 83.9485 157.227 81.2455 154.974C76.9366 164.315 70.4565 167.204 77.1449 157.299C75.0974 167.479 73.8317 161.72 77.2063 159.876C74.123 163.91 79.8085 170.21 79.6068 162.743C76.7926 171.038 80.423 158.404 81.2141 164.11C77.0965 169.836 78.087 165.323 79.804 163.527C79.3801 165.257 77.1363 160.745 73.2669 167.218C77.3741 174.08 71.8948 175.155 72.9101 177.661C70.298 174.645 72.071 179.264 81.472 169.46C71.1631 177.885 75.058 181.546 75.8678 179.75C72.3478 178.763 78.8315 169.322 82.8562 171.934C77.448 180.146 67.9626 184.699 73.7069 174.323C73.1187 182.376 69.4119 181.483 75.9767 171.82C72.7722 181.946 80.0797 178.691 74.3707 183.478C72.5356 185.003 76.3243 185.359 78.3375 173.615C76.4098 178.312 68.6203 187.844 76.7927 177.771C73.7264 195.3 68.1132 188.879 74.2592 175.499C67.0284 192.133 73.5138 188.795 69.9595 186.265C81.373 180.214 73.5089 183.974 69.6577 189.972C72.2988 184.777 70.7865 196.229 66.4828 198.43C75.4454 192.726 75.5298 184.406 63.2674 197.62C74.1201 188.736 69.0888 200.476 73.3018 192.2C72.925 186.958 71.2454 199.199 69.3161 199.403C72.7439 189.843 73.219 203.257 72.2028 202.801C67.8137 200.151 73.9674 188.763 71.7571 189.518C69.9381 193.082 70.5171 192.115 66.7467 204.73C67.3355 201.527 67.536 207.784 76.8534 197.516C76.056 199.413 73.329 201.661 68.7571 209.343C72.1724 198.031 66.5966 196.973 69.6264 209.208C65.9065 211.854 71.9661 209.287 64.4506 214.351C66.2224 210.963 69.2509 205.135 66.19 205.298C64.5818 209.348 69.805 212.371 71.5177 208.932C67.6006 214.16 65.9025 201.637 63.8774 219.782C66.3955 211.252 70.506 215.159 67.603 206.418C72.5567 208.758 56.8667 216.245 66.3994 213.105C58.7257 216.973 66.5865 219.639 64.0107 212.286C69.1572 210.378 61.1361 212.523 65.1183 206.707C63.7572 211.946 65.0371 217.112 66.6412 216.416C68.1052 212.398 59.1631 220.048 62.1505 220.447C62.7829 223.515 60.6415 220.434 59.2356 228.353C59.2501 229.308 60.5793 221.581 59.8489 228.866C64.4718 212.658 67.914 215.951 63.6181 211.612C62.1913 227.853 62.857 227.782 60.902 221.367C64.9176 219.124 70.5027 216.441 66.5109 210.879C71.2182 210.042 62.7403 223.62 64.6472 225.529C71.9164 207.147 65.6526 211.704 66.04 205.968C63.8716 210.279 71.7941 205.212 66.0098 216.336C66.3307 210.061 72.5303 202.348 63.1832 216.019C71.3541 216.697 71.1366 202.005 75.1986 208.307C69.1165 214.787 74.4655 214.992 74.4923 211.05C77.9665 206.648 74.1069 199.092 72.773 203.608C71.7672 217.644 73.6223 214.867 78.9318 207.141C72.8134 209.488 73.5612 200.328 73.3317 209.016C69.0516 213.638 74.8716 211.938 75.7918 205.012C81.8613 196.822 76.9072 201.426 72.4511 208.609C76.162 190.946 82.4517 203.109 83.3605 199.028C80.3149 193.118 78.5617 195.821 83.856 190.781C74.6015 201.301 80.4647 197.613 82.2408 195.932C80.5122 187.107 81.5938 196.99 78.7055 207.793C84.5895 197.457 79.992 201.864 84.0602 198.954C85.8798 198.505 79.4128 199.57 80.1753 192.994C86.9053 190.159 83.231 194.912 85.4335 195.615C85.506 195.431 82.6265 195.95 76.516 198.533C85.21 184.97 91.9905 183.981 81.3385 197.386C89.1629 187.472 83.8228 190.469 84.2645 186.76C95.6398 182.456 83.9045 190.037 96.439 181.518C91.0999 179.098 84.1177 192.903 92.1345 177.28C85.0436 188.788 92.2707 178.748 86.3648 189.316C93.0919 179.189 92.2106 180.748 86.6591 185.205C88.0088 194.668 95.0928 185.891 94.7789 191.064C91.1253 185.864 94.1062 180.401 90.657 190.044C99.6819 179.785 91.221 188.27 96.1022 183.997C97.6078 173.54 94.4574 190.795 101.769 181.029C100.593 180.008 98.889 181.569 94.5973 189.12C97.9755 172.255 96.4186 177.815 106.473 174.362C97.5257 175.855 101.724 173.337 104.053 175.946C99.5519 185.999 100.625 175.722 104.157 170.245C100.171 175.858 107.208 167.194 97.8131 171.11C99.8386 178.14 105.687 171.846 109.211 172.972C106.729 163.93 101.205 172.578 105.93 177.977C104.363 164.153 110.208 162.655 111.633 162.351C98.2779 175.092 105.978 172.447 108.589 174.442C109.883 165.508 104.064 176.804 110.615 165.914C108.124 163.748 109.765 166.679 103.547 175.162C104.348 163.283 107.274 164.388 112.501 157.492C105.998 174.772 113.643 163.767 112.16 156.403C115.209 162.956 112.552 169.501 111.694 169.968C109.681 166.489 110.217 157.137 111.182 162.774C109.081 158.903 106.992 168.914 110.115 162.271C113.286 169.066 116.617 152.461 118.97 155.545C109.904 160.217 115.14 164.973 111.946 160.881C109.785 161.956 108.662 163.529 118.309 150.442C117.499 148.766 116.369 161.602 112.424 159.463C117.613 149.213 113.524 160.192 113.307 158.903C123.296 156.249 119.666 157.215 126.875 149.07C122.957 157.938 115.522 154.858 116.673 150.196C115.996 148.178 125.633 142.156 121.41 151.33C115.339 158.163 116.961 145.472 117.913 152.828C121.547 148.949 117.265 150.919 123.061 143.62C116.792 155.506 116.73 149.499 119.293 145.147C124.84 147.579 127.09 134.178 124.324 135.144C122.334 149.75 126.205 135.557 127.521 138.248C123.843 147.754 120.324 134.701 116.835 148.374C122.046 137.642 117.229 141.517 118.055 146.798C113.943 147.098 114.895 142.598 126.694 128.452C119.586 144.971 117.625 132.524 117.433 138.212C117.084 131.764 118.834 131.931 123.328 130.069C120.913 134.739 113.998 140.488 117.469 133.812C114.088 133.327 121.892 126.38 112.68 130.126C115.4 137.301 116.06 129.631 110.839 139.149C113.453 126.228 113.119 134.032 109.665 139.065C109.29 128.007 111.028 136.184 112.556 125.413C106.212 129.666 107.893 128.693 115.194 121.667L115.168 121.591ZM64.2188 108.916C59.6289 110.255 60.561 108.742 61.7709 108.024C56.4642 107.861 61.5928 111.468 53.1992 113.359C59.8356 110.687 56.0104 113.037 55.2452 108.849C62.3808 111.638 58.755 108.852 60.0031 108.121C57.1647 110.838 52.3911 116.155 50.1637 115.229C48.4182 111.476 51.5835 108.558 54.7382 108.169C50.7785 110.093 44.3555 110.549 44.0676 110.381C48.1074 113.716 46.3237 104.895 44.424 110.269C52.8423 110.336 44.9648 109.272 48.9371 112.467C47.6945 112.727 39.2307 113.899 46.7706 114.349C47.5169 114.246 44.2523 116.209 44.8061 110.001C44.0549 115.467 45.9458 111.95 36.5426 109.065C39.6656 112.879 44.5748 117.731 44.1606 117.246C45.535 115.181 36.9461 118.918 38.843 118.067C43.2357 117.573 35.1155 116.985 37.65 117.121C35.2125 113.804 37.2219 118.817 31.8982 115.258C31.5803 111.887 32.7708 115.514 36.6217 116.417C30.1654 114.91 29.6254 113.877 28.7368 118.337C30.0096 116.177 25.7892 113.866 27.8389 111.272C28.3168 110.022 25.7666 117.841 23.857 115.267C29.8184 116.385 21.8721 119.094 25.1404 120.741C25.0336 114.321 21.5461 110.469 25.4789 112.529C24.8154 118.492 24.8023 118.664 23.4577 112.244C23.5624 116.116 22.1395 117.273 25.6757 116.869C16.4038 117.47 19.6789 118.058 21.0083 122.124C19.3976 120.387 19.8704 119.482 18.0869 113.984C16.0653 118.886 16.7461 117.866 20.0226 121.337C21.5925 119.014 17.1888 120.511 15.4449 116.129C17.7742 115.266 9.3853 118.696 13.4945 123.086C17.7266 124.121 8.97846 120.35 15.8957 122.313C6.84153 117.176 6.1638 116.978 14.0661 123.347C14.2968 122.644 4.31842 120.949 4.77201 119.245C6.37437 119.221 8.99287 121.367 5.16654 119.12C4.05178 122.475 -1.61895 120.412 1.88503 117.666C3.56463 122.342 3.24304 120.421 6.21375 120.727C4.38435 121.698 12.2343 123.569 9.13323 119.482C9.25197 122.846 11.6134 119.328 14.6824 122.704C12.3769 124.189 9.98683 117.162 11.1787 116.855C11.3845 117.623 10.6455 116.498 8.89837 118.479C16.032 123.74 13.7884 124.225 15.8696 125.961C11.8407 123.336 12.921 120.216 19.436 118.576C11.3977 119.123 19.5003 123.364 19.6927 122.715C15.4585 120.828 20.7045 118.161 26.1144 121.112C23.3576 123.439 16.3165 121.844 18.6054 118.489C21.0622 122.583 18.4898 120.639 21.9554 117.989C22.3518 122.189 29.1673 120.755 24.7622 121.126C23.3376 121.241 31.2833 125.517 28.9616 119.987C28.6604 121.769 23.4829 120.789 28.5456 118.523C31.9373 126.745 25.6125 121.823 27.1802 117.016C25.6769 123.161 32.6716 122.965 27.8079 120.24C37.9699 121.387 33.59 121.834 31.6824 123.564C32.5643 121.795 35.684 125.238 31.8151 124.768C39.4271 125.161 40.3791 124.174 32.0438 126.537C40.4976 125.949 41.2201 130.263 42.6387 127.442C40.2088 124.487 43.5391 128.438 41.5018 127.808C41.5707 123.993 45.9343 126.694 44.6472 126.058C38.8181 122.946 42.8335 119.072 40.694 118.622C40.0763 119.832 42.5635 120.25 43.3047 125.572C42.7192 124.085 46.2914 126.287 52.5358 124.361C52.39 125.065 53.1069 126.525 51.0621 128.879C50.4466 124.126 46.5097 122.032 54.5358 129.769C51.4795 129.755 55.7058 126.347 49.4369 126.167C50.0798 125.033 55.1908 125.474 51.9042 124.386C51.7095 125.938 57.078 125.143 57.6193 123.957C55.3567 125.254 53.8065 121.37 58.574 130.326C58.0447 126.72 62.0787 125.613 55.5314 119.809C61.8564 122.975 55.1632 126.344 64.3863 128.327C57.4706 127.448 61.6332 124.102 55.9909 119.16C60.8886 120.124 58.8524 120.726 60.9631 119.142C61.4915 121.431 60.7623 119.765 62.2496 120.009C62.3129 118.421 61.0123 119.84 64.4466 121.204C66.3281 123.1 60.9517 118.641 62.4557 122.344C62.8444 122.858 62.7526 117.183 64.7697 120.822C63.5832 113.904 68.0696 116.615 61.6916 112.633C66.389 120.806 65.8545 119.261 61.2404 115.065C64.7706 115.404 67.3509 112.46 60.8428 107.939C65.676 109.302 60.3926 115.074 63.2155 116.841C64.0979 109.78 61.4016 109.918 59.6202 106.989C58.9086 108.467 58.922 109.884 64.2145 108.924L64.2188 108.916ZM154.486 156.219C149.888 157.512 150.634 156.094 151.852 155.401C146.516 155.191 152.347 159.241 143.941 161.052C150.581 158.455 146.784 161.336 145.981 157.18C153.171 160.009 148.339 158.394 149.578 157.68C146.753 160.352 145.124 165.654 142.893 164.715C141.105 160.983 141.546 160.85 144.709 160.487C140.75 162.369 137.06 163.221 136.772 163.053C140.854 166.388 138.727 160.916 136.866 166.236C145.313 166.371 140.271 165.691 144.273 168.891C143.034 169.142 138.642 167.963 146.207 168.468C146.949 168.373 143.982 175.002 144.472 168.856C143.768 174.272 147.322 173.393 137.851 170.452C141.008 174.262 150.467 175.072 150.045 174.582C151.402 172.55 145.696 175.908 147.589 175.086C151.994 174.631 145.597 176.71 148.153 176.867C145.677 173.563 150.436 178.959 145.066 175.387C144.714 172.041 146.516 182.228 150.396 183.157C143.898 181.607 147.986 175.667 147.14 180.085C148.396 177.959 145.201 182.294 147.242 179.738C147.712 178.505 148.82 184.425 146.881 181.868C152.876 183.024 149.107 181.71 152.401 183.37C152.234 177.005 149.938 179.893 153.905 181.971C153.292 187.875 156.01 189.347 154.593 182.964C154.736 186.803 156.664 187.082 160.213 186.716C150.912 187.228 158.379 184.412 159.742 188.453C158.111 186.716 159.694 192.416 157.856 186.943C155.872 191.791 159.455 191.463 162.774 194.935C164.327 192.645 162.641 195.34 160.851 190.986C163.189 190.149 159.261 189.438 163.429 193.817C167.691 194.877 160.509 195.588 167.468 197.594C158.338 192.418 160.84 192.117 168.831 198.499C169.057 197.805 161.14 199.035 161.581 197.356C163.188 197.344 170.351 195.709 166.491 193.444C165.397 196.758 161.436 199.522 164.931 196.835C166.657 201.482 164.343 199.702 167.335 200.029C165.506 200.979 174.292 204.758 171.136 200.675C171.28 204.01 171.872 201.114 174.983 204.491C172.682 205.946 171.698 201.141 172.894 200.847C173.104 201.606 170.465 200.985 168.731 202.94C175.941 208.219 171.864 209.2 173.967 210.936C169.904 208.295 173.008 207.733 179.54 206.164C171.472 206.644 178.416 211.734 178.595 211.089C174.327 209.185 177.664 207.416 183.124 210.392C180.38 212.674 170.641 210.238 172.909 206.925C175.404 211.007 170.692 206.877 174.145 204.273C174.579 208.44 177.622 207.205 173.204 207.538C171.775 207.64 179.491 207.286 177.114 201.78C176.834 203.542 167.395 203.195 172.466 200.996C175.942 209.178 167.929 201.395 169.463 196.634C168.006 202.708 172.3 201.196 167.394 198.45C177.602 199.673 172.163 196.529 170.269 198.234C171.142 196.481 170.718 199.652 166.824 199.148C174.479 199.604 175.834 193.289 167.49 195.564C175.969 195.052 174.654 197.19 176.056 194.402C173.592 191.451 173.452 194.967 171.402 194.32C171.441 190.542 170.31 195.225 169.014 194.585C163.134 191.447 165.002 185.53 162.858 185.067C162.249 186.261 163.289 183.825 164.073 189.107C163.475 187.623 164.311 188.702 170.568 186.857C170.435 187.557 170.169 185.674 168.128 187.999C167.474 183.279 162.006 178.457 170.138 186.195C167.073 186.156 167.005 184.407 160.707 184.18C161.341 183.062 166.128 179.33 162.82 178.221C162.634 179.756 163.848 180.639 164.394 179.466C162.127 180.728 160.759 171.782 165.62 180.702C165.057 177.121 165.08 178.017 158.452 172.204C164.836 175.399 158.881 171.97 168.159 174.013C161.218 173.079 160.786 174.594 155.08 169.652C160.007 170.641 157.083 166.939 159.198 165.389C159.756 167.662 156.846 168.743 158.346 169.004C158.392 167.429 155.589 166.187 159.036 167.568C160.939 169.465 154.579 166.493 156.13 170.188C156.527 170.706 155.019 163.729 157.074 167.355C155.828 160.492 159.934 164.344 153.493 160.341C158.279 168.486 157.295 167.174 152.617 162.977C156.164 163.346 158.811 160.71 152.24 156.167C157.098 157.563 151.956 162.871 154.8 164.638C155.627 157.643 149.05 158.568 147.239 155.655C146.545 157.121 152.527 154.893 150.504 158.584C148.406 155.357 149.207 157.133 154.503 156.228L154.486 156.219ZM73.1829 136.435C68.8336 139.917 69.213 137.355 70.4925 135.935C66.084 137.63 70.4633 139.108 62.709 144.724C69.2606 138.684 64.5773 143.489 65.4429 138.05C70.4459 139.289 66.2145 138.002 67.5195 136.553C64.1546 141.285 61.6064 148.306 60.0689 147.847C59.9487 143.357 59.8201 140.535 62.6135 138.868C58.5891 142.926 54.8835 144.937 54.7015 144.813C56.9023 147.904 57.1022 137.475 53.568 145.507C60.6332 142.559 55.4471 143.31 57.6355 146.237C56.4975 147.045 51.2373 150.304 57.4229 148.201C58.081 147.79 52.753 152.729 55.4452 144.067C52.8444 151.797 55.129 146.757 48.2422 146.219C49.4909 150.296 55.1338 153.334 54.957 152.823C56.8601 149.513 49.3676 157.229 51.267 155.39C55.1427 153.128 47.8832 155.851 49.9705 155.128C49.1191 151.485 49.6978 157.398 46.5005 154.461C47.4486 149.969 44.4059 156.411 47.3226 156.259C42.4302 156.539 45.8886 153.381 43.5326 159.795C45.3851 156.396 39.9841 156.627 42.6527 152.339C43.5052 150.46 40.2609 161.229 39.5855 158.412C44.2074 157.783 39.3241 162.897 41.479 163.965C43.7009 155.242 39.4631 153.11 42.0368 154.508C39.3284 162.888 39.3443 163.296 40.5265 155.02C39.2163 160.264 38.8011 161.872 41.9212 160.046C33.8993 164.199 38.9944 162.539 38.6383 167.607C37.9095 165.814 35.9925 166.225 36.476 159.36C33.0069 166.784 34.3591 165.117 35.8592 168.681C38.0092 164.95 33.8795 168.734 33.9946 163.385C36.276 161.362 30.8558 167.569 32.7308 172.071C35.9188 171.952 28.3374 171.144 33.4491 171.333C27.6766 167.587 28.0122 167.285 32.3721 173.13C32.8241 172.077 24.2396 174.071 25.2377 171.592C26.5957 170.981 30.8205 171.528 28.4128 169.846C26.2639 174.83 20.8051 174.443 24.7471 169.438C24.4783 175.213 21.733 171.224 24.1169 170.568C22.2299 172.55 26.001 178.231 24.8634 173.768C23.7457 178.321 23.7144 172.214 25.0833 175.7C22.609 178.561 22.3301 171.455 23.4301 170.617C23.3302 171.586 24.7902 169.144 22.6116 172.472C26.7245 177.085 26.2658 177.419 27.3936 179.036C24.9488 176.905 23.757 173.803 29.8344 169.215C22.8607 172.862 29.0399 174.995 29.4365 174.03C26.5567 172.981 32.3027 166.993 35.7988 169.072C32.6389 173.234 27.5056 173.234 30.639 167.827C31.2291 172.525 30.1749 170.325 34.0488 165.454C32.8691 171.048 38.1017 166.923 34.2603 169.012C33.0251 169.676 40.1339 171.305 40.1761 164.594C39.2838 167.137 33.9064 168.137 38.9842 163.228C38.8743 173.229 36.1659 168.06 39.2189 160.928C35.7333 169.848 41.616 166.833 38.4968 164.873C46.6408 162.781 44.0859 163.98 41.8529 167.038C43.2374 164.305 43.8384 168.02 40.7549 168.771C47.0255 166.564 50.6453 163.257 42.7665 169.493C50.101 165.641 49.5753 170.748 51.7905 166.387C50.8107 163.226 51.4909 167.518 50.0034 167.379C51.4407 162.159 51.891 165.187 51.0315 164.78C47.2515 162.629 52.4368 155.44 50.8002 155.593C49.8417 157.471 52.697 156.456 51.3994 163.453C51.4421 161.633 53.5318 163.331 59.487 158.46C59.1072 159.476 60.3337 160.564 57.755 164.529C58.9576 158.263 57.0968 156.556 61.0664 164.21C58.4949 165.296 61.8183 160.186 56.5994 162.214C57.5491 160.437 63.2173 158.428 60.8443 158.121C60.1182 160.318 63.192 158.373 64.0782 156.553C61.698 159.146 63.9342 153.155 64.7217 163.656C65.5771 158.927 67.4171 157.121 63.9933 151.554C68.1804 153.597 64.148 159.176 71.1945 158.565C65.6892 159.858 67.5905 155.568 64.6181 150.874C68.3961 150.414 67.7393 152.015 70.0908 149.08C69.7146 152.013 68.9301 150.455 70.0963 150.261C70.7206 148.076 69.6169 152.1 72.0103 152.722C72.9042 154.63 70.0542 150.135 69.992 154.648C70.1305 155.213 72.3769 150.247 72.7647 154.485C74.2582 145.474 76.9412 147.243 73.0026 144.107C74.0048 153.561 74.0752 152.524 71.6989 148.46C74.5452 147.651 77.9531 144.341 74.0968 140.521C77.6656 140.638 71.1276 148.053 72.8664 149.435C76.1553 139.478 69.9534 143.014 69.4997 139.658C68.3707 141.932 71.9481 135.279 68.8772 141.128C68.3099 137.451 68.3087 139.628 73.1067 136.418L73.1829 136.435ZM126.087 164.248C121.772 167.6 122.079 165.074 123.346 163.701C118.929 165.286 123.088 166.841 115.368 172.222C121.864 166.395 117.351 170.93 118.127 165.603C123.181 166.91 118.928 165.581 120.225 164.17C116.915 168.751 115.241 175.481 113.682 175.001C113.486 170.598 112.475 169.42 115.264 167.824C111.278 171.744 109.07 173.562 108.888 173.438C111.161 176.513 111.321 168.189 107.894 176.013C114.958 173.233 111.379 173.973 113.627 176.888C112.497 177.658 109.593 179.395 115.783 177.431C116.441 177.041 111.348 184.509 113.921 176.039C111.435 183.586 114.568 180.019 107.627 179.359C108.952 183.391 116.876 184.364 116.695 183.861C118.551 180.643 112.518 187.989 114.396 186.212C118.259 184.06 111.92 187.926 114.012 187.257C113.093 183.663 115.227 189.582 111.958 186.64C112.833 182.248 110.468 192.318 113.402 192.216C108.48 192.408 114.336 186.35 112.074 192.601C113.88 189.294 109.185 193.347 111.794 189.176C112.621 187.347 111.538 196.767 110.807 193.996C115.446 193.46 112.951 196.068 115.136 197.162C117.226 188.635 113.627 190.438 116.239 191.844C113.653 200.025 115.21 201.198 116.252 193.093C115.031 198.224 116.512 199.296 119.62 197.557C111.615 201.509 119.042 197.957 118.775 202.933C118.017 201.158 116.709 205.392 117.073 198.656C113.702 205.888 116.677 204.682 118.241 208.205C120.348 204.578 117.768 208.963 117.79 203.714C120.054 201.766 117.205 205.425 119.177 209.882C122.391 209.818 115.638 211.526 120.788 211.809C114.914 208.032 117.03 207.692 121.513 213.504C121.947 212.485 114.504 216.049 115.463 213.625C116.817 213.043 123.603 211.457 121.149 209.763C119.068 214.613 114.242 217.357 118.124 212.511C117.953 218.178 116.31 215.814 118.711 215.209C116.845 217.129 122.976 221.426 121.754 217.025C120.708 221.478 121.833 216.034 123.269 219.493C120.825 222.253 121.867 219.208 122.963 218.4C122.871 219.352 120.463 217.902 118.318 221.142C122.537 225.736 118.372 227.039 119.533 228.653C117.038 226.516 120.135 228.581 126.178 224.186C119.222 227.652 121.851 230.509 122.235 229.569C119.309 228.486 122.711 222.511 126.27 224.612C123.162 228.653 116.666 227.495 119.732 222.242C120.402 226.866 118.126 223.443 121.945 218.722C120.85 224.191 123.946 220.322 120.113 222.31C118.873 222.94 125.896 221.98 125.823 215.389C124.965 217.865 117.213 219.168 122.244 214.435C122.304 224.249 118.569 217.493 121.528 210.545C118.175 219.249 122.512 215.603 119.338 213.625C127.502 211.701 124.347 210.795 122.16 213.761C123.511 211.094 122.154 214.631 119.054 215.31C125.328 213.242 129.129 206.966 121.31 212.959C128.619 209.304 127.011 213.081 129.167 208.837C128.124 205.716 126.901 209.721 125.409 209.57C126.766 204.466 124.149 208.632 123.281 208.221C119.437 206.049 123.311 197.832 121.666 197.96C120.733 199.788 122.745 197.143 121.566 203.99C121.583 202.199 122.094 203.165 128.002 198.49C127.643 199.485 128.392 198.521 125.864 202.364C126.965 196.235 124.341 192.782 128.476 200.363C125.905 201.386 126.492 197.099 121.273 199.001C122.198 197.274 127.914 192.891 125.516 192.55C124.819 194.688 125.577 193.518 126.438 191.748C124.083 194.249 126.504 185.722 127.478 196.045C128.261 191.416 127.975 190.534 124.432 185.012C128.687 187.089 125.423 188.947 132.516 188.454C126.998 189.625 125.926 187.773 122.852 183.111C126.647 182.723 125.933 181.612 128.255 178.778C127.929 181.652 125.013 181.553 126.18 181.38C126.77 179.241 125.262 180.648 127.689 181.309C128.625 183.196 124.281 179.391 124.296 183.816C124.447 184.377 126.045 177.671 126.501 181.838C127.854 173.019 129.917 175.145 125.911 171.995C127.087 181.296 126.853 179.977 124.392 175.954C127.246 175.213 130.62 171.885 126.675 168.072C130.278 168.249 123.817 175.24 125.594 176.631C128.729 166.912 122.794 170.615 122.281 167.313C121.182 169.529 124.928 163.151 121.93 168.838C121.294 165.21 121.285 167.362 126.066 164.29L126.087 164.248Z" fill="black"/>
</svg>
