<svg width="174" height="159" viewBox="0 0 174 159" fill="none" xmlns="http://www.w3.org/2000/svg">
<path d="M82.2866 41.6571C69.0556 35.7768 51.4148 47.5374 47.0044 62.2385C42.5939 76.9394 49.9447 101.931 69.0556 110.751C88.1669 119.572 105.808 107.811 98.4576 97.5208C73.4661 94.5805 57.2951 68.1188 64.6455 54.8881C71.9959 41.6574 95.5173 47.5374 82.2866 41.6571Z" fill="#FFC7C8" stroke="#F8A9AB" stroke-width="0.390625"/>
<path d="M114.629 84.2897C130.799 71.0591 121.979 41.6571 108.748 38.7168C95.5176 35.7765 89.637 43.1272 99.9277 51.9475C113.159 62.2382 96.9874 82.8192 86.697 81.3494C86.697 81.3494 98.4575 97.5204 114.629 84.2897Z" fill="#FFC7C8" stroke="#F8A9AB" stroke-width="0.390625"/>
<path d="M86.6967 33.1291C101.398 27.2489 111.688 29.8962 120.509 38.7168C124.919 25.4861 110.218 3.43455 83.7564 0.494247C57.2948 -2.44605 32.3036 32.8365 44.0641 50.4777C47.0044 44.5971 64.6455 28.719 86.6967 33.1291Z" fill="#FFC7C8" stroke="#F8A9AB" stroke-width="0.390625"/>
<path d="M38.1838 75.4692C13.1922 81.3494 10.608 105.847 16.1325 121.042C22.0128 137.213 17.6027 148.974 24.9531 151.914C31.913 154.699 55.8249 156.324 76.4063 157.794C96.9877 159.264 113.159 141.623 107.278 121.041C48.4745 131.333 38.1838 88.6999 38.1838 75.4692Z" fill="#FFC7C8" stroke="#F8A9AB" stroke-width="0.390625"/>
<path d="M32.5499 72.2819C32.5499 72.2819 33.285 62.7262 36.2253 57.581C34.7551 56.1109 33.285 50.2306 33.285 50.2306C33.285 50.2306 31.8148 43.6153 31.8148 38.4701C20.789 36.2649 1.67776 50.2306 0.943021 52.4358C0.207946 54.6411 4.61806 79.6326 14.1737 80.3677C24.4647 72.2819 32.5499 72.2819 32.5499 72.2819Z" fill="#FFC7C8" stroke="#F8A9AB" stroke-width="0.390625"/>
<path d="M166.082 51.9475C152.851 24.0156 127.859 29.8962 127.859 29.8962C127.859 29.8962 129.329 37.2466 126.389 41.6568C141.09 57.8277 130.799 91.1488 118.059 95.0712C162.162 114.182 171.962 75.4689 173.432 69.5886C174.902 63.7083 169.022 59.2982 166.082 51.9475Z" fill="#FFC7C8" stroke="#F8A9AB" stroke-width="0.390625"/>
<path d="M154.126 104.776C146.58 110.123 125.215 108.696 112.963 102.324C113.451 107.223 108.553 115.067 106.103 115.555C115.415 119.477 124.235 136.627 108.555 154.759C114.927 161.128 140.897 156.23 156.089 146.427C158.562 144.833 162.458 128.786 163.44 119.477C164.741 107.148 165.889 96.4438 154.126 104.776Z" fill="#FFC7C8" stroke="#F8A9AB" stroke-width="0.390625"/>
<path d="M87.6785 64.6874C81.2903 66.4303 77.4053 62.5713 79.837 58.3192C81.7982 54.8878 81.6143 51.3363 76.8967 53.9087C67.0944 59.789 72.9777 76.4483 85.2293 74.9782C101.888 69.0979 94.5379 53.9087 90.1277 54.3967C85.7176 54.8847 93.068 63.2173 87.6785 64.6874Z" fill="#FFC7C8" stroke="#F8A9AB" stroke-width="0.390625"/>
</svg>
